<svg width="20" height="20" viewBox="0 0 20 20" fill="none" xmlns="http://www.w3.org/2000/svg">
<path d="M13.3333 5.83333L12.412 3.99071C11.9552 3.07711 11.0214 2.5 9.99998 2.5C8.97854 2.5 8.04476 3.07711 7.58796 3.99071L6.66665 5.83333M3.33331 5.83333H16.6666M8.33331 10V13.3333M11.6666 10V13.3333M4.99998 5.83333H15V12.5C15 14.0531 15 14.8297 14.7462 15.4423C14.4079 16.259 13.759 16.908 12.9423 17.2463C12.3297 17.5 11.5531 17.5 9.99998 17.5C8.44684 17.5 7.67027 17.5 7.0577 17.2463C6.24094 16.908 5.59203 16.259 5.25371 15.4423C4.99998 14.8297 4.99998 14.0531 4.99998 12.5V5.83333Z" stroke="#303A47" stroke-width="2" stroke-linecap="round" stroke-linejoin="round"/>
</svg>
