<svg xmlns="http://www.w3.org/2000/svg" width="24" height="24" viewBox="0 0 24 24" version="1.1"><path d="" stroke="none" fill="#50545c" fill-rule="evenodd"/><path d="M 7 6 C 7 7.333, 7.667 8, 9 8 C 10.333 8, 11 7.333, 11 6 C 11 4.667, 10.333 4, 9 4 C 7.667 4, 7 4.667, 7 6 M 13 6 C 13 7.333, 13.667 8, 15 8 C 16.333 8, 17 7.333, 17 6 C 17 4.667, 16.333 4, 15 4 C 13.667 4, 13 4.667, 13 6 M 7 12 C 7 13.333, 7.667 14, 9 14 C 10.333 14, 11 13.333, 11 12 C 11 10.667, 10.333 10, 9 10 C 7.667 10, 7 10.667, 7 12 M 13 12 C 13 13.333, 13.667 14, 15 14 C 16.333 14, 17 13.333, 17 12 C 17 10.667, 16.333 10, 15 10 C 13.667 10, 13 10.667, 13 12 M 7 18 C 7 19.333, 7.667 20, 9 20 C 10.333 20, 11 19.333, 11 18 C 11 16.667, 10.333 16, 9 16 C 7.667 16, 7 16.667, 7 18 M 13 18 C 13 19.333, 13.667 20, 15 20 C 16.333 20, 17 19.333, 17 18 C 17 16.667, 16.333 16, 15 16 C 13.667 16, 13 16.667, 13 18" stroke="none" fill="#4c545c" fill-rule="evenodd"/></svg>