<svg width="32" height="32" viewBox="0 0 32 32" fill="none" xmlns="http://www.w3.org/2000/svg">
<path d="M4 9.33333H13.3333M13.3333 9.33333C13.3333 11.5425 15.1242 13.3333 17.3333 13.3333H18.6667C20.8758 13.3333 22.6667 11.5425 22.6667 9.33333C22.6667 7.12419 20.8758 5.33333 18.6667 5.33333H17.3333C15.1242 5.33333 13.3333 7.12419 13.3333 9.33333ZM21.3333 22.6667H28M26.6667 9.33333H28M4 22.6667H8M8 22.6667C8 24.8758 9.79086 26.6667 12 26.6667H13.3333C15.5425 26.6667 17.3333 24.8758 17.3333 22.6667C17.3333 20.4575 15.5425 18.6667 13.3333 18.6667H12C9.79086 18.6667 8 20.4575 8 22.6667Z" stroke="white" stroke-width="2" stroke-linecap="round" stroke-linejoin="round"/>
</svg>
