<svg width="24" height="25" viewBox="0 0 24 25" fill="none" xmlns="http://www.w3.org/2000/svg">
<path d="M6 22C7.65685 22 9 20.6569 9 19C9 17.3431 7.65685 16 6 16C4.34315 16 3 17.3431 3 19C3 20.6569 4.34315 22 6 22Z" stroke="#14181F" stroke-width="2" stroke-linecap="round" stroke-linejoin="round"/>
<path d="M18 10C19.6569 10 21 8.65685 21 7C21 5.34315 19.6569 4 18 4C16.3431 4 15 5.34315 15 7C15 8.65685 16.3431 10 18 10Z" stroke="#14181F" stroke-width="2" stroke-linecap="round" stroke-linejoin="round"/>
<path d="M15.8828 9.11719L8.12109 16.8789" stroke="#14181F" stroke-width="2" stroke-linecap="round" stroke-linejoin="round"/>
<circle cx="18" cy="7" r="6" fill="#6775A0"/>
<circle opacity="0.5" cx="18.5" cy="19.5" r="3.5" fill="#00539F"/>
<circle cx="6.5" cy="3.5" r="3.5" fill="#00539F"/>
</svg>
