<svg width="39" height="39" viewBox="0 0 39 39" fill="none" xmlns="http://www.w3.org/2000/svg">
<path d="M19.5544 35.4441C8.08198 35.4441 -0.602232 22.4755 4.99287 12.2167C6.06838 10.2447 7.62284 8.57509 9.51306 7.36161C9.42487 8.7548 9.6091 10.1518 10.0554 11.4745H10.1082C11.1961 10.24 12.5039 9.21832 13.965 8.4614C13.839 9.08389 13.7735 9.71707 13.7691 10.3522C13.7726 12.2408 14.7428 13.3667 16.3604 14.3672C18.2286 15.3916 19.5544 16.0093 19.5544 16.0093C18.0221 19.0868 12.0019 18.6609 12.2324 20.7023C12.2324 20.7023 13.1288 26.6759 19.4263 26.6759C21.7464 26.6759 26.3415 25.3953 26.3415 20.0243C26.3569 18.8109 26.0401 17.6163 25.4253 16.57C24.8106 15.5237 23.9213 14.6656 22.8537 14.0884C23.6058 13.995 24.369 14.0557 25.0968 14.2668C25.8246 14.4779 26.5019 14.835 27.0872 15.3163C26.3437 13.9697 25.0968 13.3032 23.9278 12.0654C21.2326 8.4614 20.5763 4.37905 24.6164 1.87769C26.7105 6.34059 31.2532 9.19832 32.9779 13.8399C32.6815 12.1786 32.1568 10.5664 31.4186 9.04897C31.4186 9.04897 35.75 11.5875 35.75 19.3464C35.6212 28.0996 28.3082 35.3684 19.5544 35.4441Z" stroke="#4E545F" stroke-width="2" stroke-linecap="round" stroke-linejoin="round"/>
</svg>
