<svg width="39" height="39" viewBox="0 0 39 39" fill="none" xmlns="http://www.w3.org/2000/svg">
<path d="M19.4996 13.4001C22.8685 13.4001 25.5996 16.1312 25.5996 19.5001C25.5996 22.869 22.8685 25.6001 19.4996 25.6001C16.1307 25.6001 13.3996 22.869 13.3996 19.5001C13.3996 16.1312 16.1307 13.4001 19.4996 13.4001ZM19.4996 13.4001H33.0635M14.223 22.5502L7.43493 10.8078M24.7761 22.5501L18.0017 34.2943M18.0017 34.2943C18.4943 34.3436 18.994 34.3688 19.4996 34.3688C27.7114 34.3688 34.3684 27.7119 34.3684 19.5001C34.3684 11.2883 27.7114 4.63135 19.4996 4.63135C14.533 4.63135 10.1352 7.06643 7.43493 10.8078M18.0017 34.2943C10.4933 33.5432 4.63086 27.2063 4.63086 19.5001C4.63086 16.2549 5.67052 13.2525 7.43493 10.8078" stroke="#4E545F" stroke-width="2" stroke-linecap="round" stroke-linejoin="round"/>
</svg>
