<?xml version="1.0" encoding="UTF-8"?>
<svg xmlns="http://www.w3.org/2000/svg" xmlns:xlink="http://www.w3.org/1999/xlink" width="24px" height="24px" viewBox="0 0 24 24" version="1.1">
<g id="surface3">
<path style=" stroke:none;fill-rule:nonzero;fill:rgb(0%,0%,0%);fill-opacity:1;" d="M 22.316406 6.773438 C 22.175781 7.339844 21.78125 7.722656 21.359375 8.089844 C 21.105469 8.304688 20.871094 8.542969 20.628906 8.773438 C 20.246094 9.144531 19.867188 9.511719 19.484375 9.878906 C 18.992188 10.34375 18.503906 10.808594 18.015625 11.269531 C 17.582031 11.679688 17.152344 12.082031 16.71875 12.488281 C 16.238281 12.945312 15.757812 13.402344 15.273438 13.851562 C 14.824219 14.273438 14.375 14.703125 13.925781 15.125 C 13.449219 15.574219 12.96875 16.027344 12.496094 16.476562 C 12.058594 16.890625 11.625 17.304688 11.183594 17.707031 C 10.828125 18.039062 10.484375 18.378906 10.097656 18.675781 C 9.59375 19.070312 9.019531 19.128906 8.4375 18.867188 C 8.207031 18.769531 7.996094 18.601562 7.808594 18.425781 C 7.28125 17.945312 6.773438 17.449219 6.253906 16.957031 C 5.808594 16.535156 5.363281 16.117188 4.921875 15.699219 C 4.441406 15.246094 3.957031 14.789062 3.476562 14.335938 C 2.976562 13.867188 2.457031 13.410156 1.992188 12.910156 C 1.828125 12.734375 1.78125 12.445312 1.683594 12.210938 C 1.683594 12.085938 1.683594 11.957031 1.683594 11.832031 C 1.726562 11.691406 1.753906 11.542969 1.8125 11.417969 C 2.203125 10.621094 3.164062 10.253906 3.984375 10.632812 C 4.214844 10.738281 4.421875 10.902344 4.613281 11.074219 C 5.117188 11.53125 5.605469 12.007812 6.101562 12.476562 C 6.558594 12.902344 7.007812 13.328125 7.464844 13.761719 C 7.933594 14.207031 8.410156 14.65625 8.878906 15.101562 C 8.953125 15.167969 9.039062 15.226562 9.113281 15.28125 C 9.320312 15.097656 9.53125 14.914062 9.730469 14.726562 C 10.128906 14.347656 10.515625 13.964844 10.914062 13.585938 C 11.390625 13.132812 11.867188 12.679688 12.34375 12.230469 C 12.773438 11.828125 13.199219 11.429688 13.628906 11.027344 C 14.125 10.554688 14.625 10.078125 15.125 9.609375 C 15.550781 9.207031 15.980469 8.808594 16.40625 8.40625 C 16.890625 7.945312 17.375 7.488281 17.867188 7.027344 C 18.320312 6.601562 18.773438 6.167969 19.230469 5.742188 C 19.613281 5.378906 20.015625 5.042969 20.585938 5.035156 C 21.222656 5.027344 21.738281 5.242188 22.070312 5.808594 C 22.171875 5.980469 22.238281 6.175781 22.320312 6.363281 C 22.316406 6.496094 22.316406 6.632812 22.316406 6.773438 Z M 22.316406 6.773438 "/>
</g>
</svg>
