<svg width="15" height="15" viewBox="0 0 15 15" fill="none" xmlns="http://www.w3.org/2000/svg">
<g clip-path="url(#clip0_1451_8575)">
<path d="M13.1875 7.5C13.1875 5.99158 12.5883 4.54494 11.5217 3.47833C10.4551 2.41172 9.00842 1.8125 7.5 1.8125C5.99158 1.8125 4.54494 2.41172 3.47833 3.47833C2.41172 4.54494 1.8125 5.99158 1.8125 7.5C1.8125 9.00842 2.41172 10.4551 3.47833 11.5217C4.54494 12.5883 5.99158 13.1875 7.5 13.1875C9.00842 13.1875 10.4551 12.5883 11.5217 11.5217C12.5883 10.4551 13.1875 9.00842 13.1875 7.5ZM0.5 7.5C0.5 5.64348 1.2375 3.86301 2.55025 2.55025C3.86301 1.2375 5.64348 0.5 7.5 0.5C9.35652 0.5 11.137 1.2375 12.4497 2.55025C13.7625 3.86301 14.5 5.64348 14.5 7.5C14.5 9.35652 13.7625 11.137 12.4497 12.4497C11.137 13.7625 9.35652 14.5 7.5 14.5C5.64348 14.5 3.86301 13.7625 2.55025 12.4497C1.2375 11.137 0.5 9.35652 0.5 7.5ZM5.35625 9.19805C5.77188 9.64648 6.48281 10.125 7.5 10.125C8.51719 10.125 9.22812 9.64648 9.64375 9.19805C9.88984 8.93281 10.3055 8.91367 10.5707 9.15977C10.8359 9.40586 10.8551 9.82148 10.609 10.0867C10.0074 10.7375 8.96836 11.4375 7.50273 11.4375C6.03711 11.4375 4.99531 10.7402 4.39648 10.0867C4.15039 9.82148 4.1668 9.40586 4.43477 9.15977C4.70273 8.91367 5.11562 8.93008 5.36172 9.19805H5.35625ZM4.44844 6.1875C4.44844 5.95544 4.54062 5.73288 4.70472 5.56878C4.86881 5.40469 5.09137 5.3125 5.32344 5.3125C5.5555 5.3125 5.77806 5.40469 5.94216 5.56878C6.10625 5.73288 6.19844 5.95544 6.19844 6.1875C6.19844 6.41956 6.10625 6.64212 5.94216 6.80622C5.77806 6.97031 5.5555 7.0625 5.32344 7.0625C5.09137 7.0625 4.86881 6.97031 4.70472 6.80622C4.54062 6.64212 4.44844 6.41956 4.44844 6.1875ZM9.69844 5.3125C9.9305 5.3125 10.1531 5.40469 10.3172 5.56878C10.4812 5.73288 10.5734 5.95544 10.5734 6.1875C10.5734 6.41956 10.4812 6.64212 10.3172 6.80622C10.1531 6.97031 9.9305 7.0625 9.69844 7.0625C9.46637 7.0625 9.24381 6.97031 9.07972 6.80622C8.91562 6.64212 8.82344 6.41956 8.82344 6.1875C8.82344 5.95544 8.91562 5.73288 9.07972 5.56878C9.24381 5.40469 9.46637 5.3125 9.69844 5.3125Z" fill="#008344"/>
</g>
<defs>
<clipPath id="clip0_1451_8575">
<rect width="14" height="14" fill="white" transform="translate(0.5 0.5)"/>
</clipPath>
</defs>
</svg>
