<?xml version="1.0" encoding="UTF-8"?>
<svg xmlns="http://www.w3.org/2000/svg" xmlns:xlink="http://www.w3.org/1999/xlink" width="26px" height="26px" viewBox="0 0 26 26" version="1.1">
<g id="surface1">
<path style=" stroke:none;fill-rule:evenodd;fill:rgb(98.431373%,23.529412%,29.803922%);fill-opacity:1;" d="M 12.210938 4.449219 C 10.796875 4.582031 9.300781 5.128906 8.152344 5.929688 C 5.8125 7.554688 4.417969 10.195312 4.417969 13 C 4.417969 16.257812 6.300781 19.277344 9.21875 20.695312 C 10.558594 21.347656 11.921875 21.632812 13.382812 21.5625 C 15.601562 21.457031 17.554688 20.585938 19.105469 19.011719 C 19.640625 18.460938 19.78125 18.289062 20.1875 17.667969 C 21.832031 15.15625 22.03125 11.972656 20.714844 9.265625 C 20.140625 8.082031 19.347656 7.09375 18.277344 6.230469 C 17.332031 5.464844 15.960938 4.84375 14.617188 4.570312 C 14.109375 4.464844 12.75 4.394531 12.210938 4.449219 M 12.601562 8.992188 C 12.199219 9.117188 11.820312 9.464844 11.679688 9.839844 C 11.585938 10.089844 11.578125 10.234375 11.578125 11.757812 C 11.578125 13.273438 11.585938 13.421875 11.679688 13.671875 C 11.875 14.199219 12.328125 14.523438 12.925781 14.5625 C 13.382812 14.59375 13.714844 14.460938 14.03125 14.121094 C 14.414062 13.714844 14.429688 13.625 14.410156 11.671875 C 14.398438 10.105469 14.390625 9.964844 14.296875 9.773438 C 14.167969 9.511719 13.839844 9.191406 13.589844 9.070312 C 13.351562 8.957031 12.84375 8.917969 12.601562 8.992188 M 12.695312 9.585938 C 12.558594 9.652344 12.417969 9.769531 12.300781 9.921875 C 12.1875 10.066406 12.1875 10.089844 12.1875 11.71875 C 12.1875 13.539062 12.195312 13.601562 12.511719 13.828125 C 12.738281 13.988281 13.261719 13.988281 13.488281 13.828125 C 13.800781 13.601562 13.8125 13.535156 13.8125 11.753906 C 13.8125 10.21875 13.808594 10.136719 13.707031 9.960938 C 13.550781 9.683594 13.378906 9.578125 13.054688 9.5625 C 12.898438 9.554688 12.738281 9.566406 12.695312 9.585938 M 10.523438 12.757812 C 10.4375 12.839844 10.445312 13.46875 10.535156 13.804688 C 10.777344 14.722656 11.53125 15.46875 12.410156 15.664062 L 12.671875 15.722656 L 12.683594 16.089844 L 12.699219 16.453125 L 12.417969 16.453125 C 12.101562 16.453125 11.933594 16.566406 11.933594 16.78125 C 11.933594 17.039062 12.015625 17.0625 12.996094 17.0625 C 13.804688 17.0625 13.90625 17.054688 13.980469 16.96875 C 14.085938 16.855469 14.089844 16.707031 13.996094 16.582031 C 13.945312 16.511719 13.84375 16.480469 13.613281 16.464844 L 13.300781 16.441406 L 13.316406 16.082031 L 13.328125 15.726562 L 13.667969 15.632812 C 14.757812 15.335938 15.535156 14.332031 15.539062 13.210938 C 15.539062 12.800781 15.484375 12.695312 15.265625 12.695312 C 15.019531 12.695312 14.960938 12.800781 14.925781 13.300781 C 14.898438 13.648438 14.863281 13.796875 14.738281 14.039062 C 14.53125 14.445312 14.214844 14.757812 13.8125 14.949219 C 13.515625 15.09375 13.433594 15.109375 13 15.109375 C 12.566406 15.109375 12.484375 15.089844 12.1875 14.949219 C 11.519531 14.632812 11.128906 14.054688 11.074219 13.300781 C 11.058594 13.046875 11.015625 12.828125 10.976562 12.777344 C 10.894531 12.683594 10.609375 12.667969 10.523438 12.757812 "/>
<path style=" stroke:none;fill-rule:evenodd;fill:rgb(98.431373%,95.686275%,95.686275%);fill-opacity:1;" d="M 11.351562 0.078125 C 9.589844 0.3125 7.707031 0.980469 6.195312 1.902344 C 4.5 2.933594 2.832031 4.617188 1.828125 6.308594 C 0.984375 7.722656 0.390625 9.375 0.125 11.019531 C -0.00390625 11.832031 -0.03125 13.664062 0.0703125 14.523438 C 0.242188 15.933594 0.660156 17.363281 1.261719 18.605469 C 1.957031 20.046875 2.6875 21.074219 3.804688 22.195312 C 5.507812 23.898438 7.453125 25.015625 9.726562 25.59375 C 10.863281 25.886719 11.40625 25.957031 12.695312 25.984375 C 14.421875 26.023438 15.558594 25.859375 17.132812 25.335938 C 19.046875 24.703125 20.730469 23.65625 22.195312 22.195312 C 23.898438 20.492188 25.015625 18.546875 25.59375 16.273438 C 25.78125 15.539062 25.949219 14.601562 25.949219 14.277344 C 25.949219 14.191406 25.972656 14.109375 26 14.09375 C 26.03125 14.074219 26.050781 13.632812 26.050781 12.941406 C 26.050781 12.328125 26.03125 11.835938 26.011719 11.851562 C 25.988281 11.863281 25.941406 11.636719 25.910156 11.347656 C 25.726562 9.707031 25.027344 7.714844 24.097656 6.195312 C 23.066406 4.5 21.382812 2.832031 19.691406 1.828125 C 18.277344 0.984375 16.632812 0.390625 14.980469 0.125 C 14.238281 0.00390625 12.113281 -0.0195312 11.351562 0.078125 M 12.210938 4.449219 C 10.796875 4.582031 9.300781 5.128906 8.152344 5.929688 C 5.8125 7.554688 4.417969 10.195312 4.417969 13 C 4.417969 16.257812 6.300781 19.277344 9.21875 20.695312 C 10.558594 21.347656 11.921875 21.632812 13.382812 21.5625 C 15.601562 21.457031 17.554688 20.585938 19.105469 19.011719 C 19.640625 18.460938 19.78125 18.289062 20.1875 17.667969 C 21.832031 15.15625 22.03125 11.972656 20.714844 9.265625 C 20.140625 8.082031 19.347656 7.09375 18.277344 6.230469 C 17.332031 5.464844 15.960938 4.84375 14.617188 4.570312 C 14.109375 4.464844 12.75 4.394531 12.210938 4.449219 M 12.601562 8.992188 C 12.199219 9.117188 11.820312 9.464844 11.679688 9.839844 C 11.585938 10.089844 11.578125 10.234375 11.578125 11.757812 C 11.578125 13.273438 11.585938 13.421875 11.679688 13.671875 C 11.875 14.199219 12.328125 14.523438 12.925781 14.5625 C 13.382812 14.59375 13.714844 14.460938 14.03125 14.121094 C 14.414062 13.714844 14.429688 13.625 14.410156 11.671875 C 14.398438 10.105469 14.390625 9.964844 14.296875 9.773438 C 14.167969 9.511719 13.839844 9.191406 13.589844 9.070312 C 13.351562 8.957031 12.84375 8.917969 12.601562 8.992188 M 12.695312 9.585938 C 12.558594 9.652344 12.417969 9.769531 12.300781 9.921875 C 12.1875 10.066406 12.1875 10.089844 12.1875 11.71875 C 12.1875 13.539062 12.195312 13.601562 12.511719 13.828125 C 12.738281 13.988281 13.261719 13.988281 13.488281 13.828125 C 13.800781 13.601562 13.8125 13.535156 13.8125 11.753906 C 13.8125 10.21875 13.808594 10.136719 13.707031 9.960938 C 13.550781 9.683594 13.378906 9.578125 13.054688 9.5625 C 12.898438 9.554688 12.738281 9.566406 12.695312 9.585938 M 0.0234375 13 C 0.0234375 13.628906 0.0273438 13.886719 0.0390625 13.570312 C 0.046875 13.257812 0.046875 12.742188 0.0390625 12.429688 C 0.0273438 12.113281 0.0234375 12.371094 0.0234375 13 M 10.523438 12.757812 C 10.4375 12.839844 10.445312 13.46875 10.535156 13.804688 C 10.777344 14.722656 11.53125 15.46875 12.410156 15.664062 L 12.671875 15.722656 L 12.683594 16.089844 L 12.699219 16.453125 L 12.417969 16.453125 C 12.101562 16.453125 11.933594 16.566406 11.933594 16.78125 C 11.933594 17.039062 12.015625 17.0625 12.996094 17.0625 C 13.804688 17.0625 13.90625 17.054688 13.980469 16.96875 C 14.085938 16.855469 14.089844 16.707031 13.996094 16.582031 C 13.945312 16.511719 13.84375 16.480469 13.613281 16.464844 L 13.300781 16.441406 L 13.316406 16.082031 L 13.328125 15.726562 L 13.667969 15.632812 C 14.757812 15.335938 15.535156 14.332031 15.539062 13.210938 C 15.539062 12.800781 15.484375 12.695312 15.265625 12.695312 C 15.019531 12.695312 14.960938 12.800781 14.925781 13.300781 C 14.898438 13.648438 14.863281 13.796875 14.738281 14.039062 C 14.53125 14.445312 14.214844 14.757812 13.8125 14.949219 C 13.515625 15.09375 13.433594 15.109375 13 15.109375 C 12.566406 15.109375 12.484375 15.089844 12.1875 14.949219 C 11.519531 14.632812 11.128906 14.054688 11.074219 13.300781 C 11.058594 13.046875 11.015625 12.828125 10.976562 12.777344 C 10.894531 12.683594 10.609375 12.667969 10.523438 12.757812 "/>
</g>
</svg>
