<?xml version="1.0" encoding="UTF-8"?>
<svg xmlns="http://www.w3.org/2000/svg" xmlns:xlink="http://www.w3.org/1999/xlink" width="26px" height="26px" viewBox="0 0 26 26" version="1.1">
<g id="surface1">
<path style=" stroke:none;fill-rule:nonzero;fill:rgb(99.607843%,99.607843%,99.607843%);fill-opacity:1;" d="M 15.285156 0.152344 C 15.332031 0.160156 15.375 0.171875 15.425781 0.179688 C 15.753906 0.246094 16.078125 0.324219 16.402344 0.40625 C 16.445312 0.417969 16.484375 0.425781 16.527344 0.4375 C 18.238281 0.886719 19.804688 1.742188 21.175781 2.84375 C 21.253906 2.902344 21.253906 2.902344 21.328125 2.964844 C 22.035156 3.542969 22.714844 4.195312 23.257812 4.925781 C 23.28125 4.957031 23.304688 4.988281 23.328125 5.019531 C 24.617188 6.699219 25.472656 8.628906 25.847656 10.714844 C 25.855469 10.757812 25.863281 10.800781 25.871094 10.84375 C 26.140625 12.246094 26.128906 13.886719 25.847656 15.285156 C 25.839844 15.332031 25.828125 15.375 25.820312 15.425781 C 25.753906 15.753906 25.675781 16.078125 25.59375 16.402344 C 25.582031 16.445312 25.574219 16.484375 25.5625 16.527344 C 25.113281 18.238281 24.257812 19.804688 23.15625 21.175781 C 23.117188 21.226562 23.074219 21.277344 23.035156 21.328125 C 22.457031 22.035156 21.804688 22.714844 21.074219 23.257812 C 21.027344 23.292969 21.027344 23.292969 20.980469 23.328125 C 19.300781 24.617188 17.371094 25.472656 15.285156 25.847656 C 15.242188 25.855469 15.199219 25.863281 15.15625 25.871094 C 13.753906 26.140625 12.113281 26.128906 10.714844 25.847656 C 10.667969 25.839844 10.625 25.828125 10.574219 25.820312 C 10.246094 25.753906 9.921875 25.675781 9.597656 25.59375 C 9.554688 25.582031 9.515625 25.574219 9.472656 25.5625 C 7.761719 25.113281 6.195312 24.257812 4.824219 23.15625 C 4.773438 23.117188 4.722656 23.074219 4.671875 23.035156 C 3.964844 22.457031 3.285156 21.804688 2.742188 21.074219 C 2.707031 21.027344 2.707031 21.027344 2.671875 20.980469 C 1.382812 19.300781 0.527344 17.371094 0.152344 15.285156 C 0.144531 15.242188 0.136719 15.199219 0.128906 15.15625 C -0.140625 13.753906 -0.128906 12.113281 0.152344 10.714844 C 0.160156 10.667969 0.171875 10.625 0.179688 10.574219 C 0.246094 10.246094 0.324219 9.921875 0.40625 9.597656 C 0.417969 9.554688 0.425781 9.515625 0.4375 9.472656 C 0.886719 7.761719 1.742188 6.195312 2.84375 4.824219 C 2.882812 4.773438 2.925781 4.722656 2.964844 4.671875 C 3.542969 3.964844 4.195312 3.285156 4.925781 2.742188 C 4.957031 2.71875 4.988281 2.695312 5.019531 2.671875 C 6.699219 1.382812 8.628906 0.527344 10.714844 0.152344 C 10.757812 0.144531 10.800781 0.136719 10.84375 0.128906 C 12.246094 -0.140625 13.886719 -0.128906 15.285156 0.152344 Z M 15.285156 0.152344 "/>
<path style=" stroke:none;fill-rule:nonzero;fill:rgb(98.823529%,23.921569%,28.627451%);fill-opacity:1;" d="M 14.726562 4.570312 C 14.785156 4.585938 14.785156 4.585938 14.839844 4.597656 C 15.355469 4.726562 15.855469 4.886719 16.351562 5.078125 C 16.40625 5.097656 16.460938 5.117188 16.515625 5.140625 C 16.847656 5.269531 17.128906 5.429688 17.417969 5.636719 C 17.5 5.691406 17.578125 5.746094 17.660156 5.796875 C 17.710938 5.835938 17.710938 5.835938 17.765625 5.871094 C 17.839844 5.917969 17.917969 5.964844 17.996094 6.011719 C 18.160156 6.113281 18.304688 6.234375 18.453125 6.359375 C 18.480469 6.386719 18.511719 6.410156 18.539062 6.433594 C 18.75 6.617188 18.957031 6.800781 19.144531 7.007812 C 19.144531 7.042969 19.144531 7.074219 19.144531 7.109375 C 19.171875 7.121094 19.203125 7.132812 19.234375 7.148438 C 19.9375 7.539062 20.425781 8.597656 20.769531 9.292969 C 20.792969 9.339844 20.816406 9.386719 20.839844 9.433594 C 21.160156 10.09375 21.367188 10.804688 21.480469 11.527344 C 21.492188 11.59375 21.5 11.65625 21.511719 11.726562 C 21.703125 13.050781 21.570312 14.367188 21.175781 15.640625 C 21.164062 15.6875 21.152344 15.734375 21.136719 15.785156 C 21.039062 16.167969 20.851562 16.511719 20.667969 16.859375 C 20.632812 16.929688 20.632812 16.929688 20.59375 17.003906 C 20.070312 18.007812 19.308594 19.03125 18.382812 19.703125 C 18.347656 19.703125 18.316406 19.703125 18.28125 19.703125 C 18.28125 19.738281 18.28125 19.769531 18.28125 19.804688 C 18.175781 19.886719 18.066406 19.960938 17.953125 20.035156 C 17.902344 20.070312 17.902344 20.070312 17.851562 20.105469 C 17.132812 20.570312 16.351562 20.953125 15.539062 21.226562 C 15.492188 21.242188 15.441406 21.261719 15.390625 21.277344 C 14.5625 21.546875 13.664062 21.59375 12.796875 21.597656 C 12.714844 21.597656 12.714844 21.597656 12.632812 21.597656 C 12.34375 21.597656 12.074219 21.570312 11.792969 21.503906 C 11.648438 21.472656 11.507812 21.453125 11.363281 21.4375 C 10.765625 21.34375 10.207031 21.148438 9.648438 20.921875 C 9.570312 20.890625 9.570312 20.890625 9.496094 20.859375 C 9.375 20.8125 9.257812 20.765625 9.140625 20.71875 C 9.140625 20.683594 9.140625 20.652344 9.140625 20.617188 C 9.105469 20.613281 9.070312 20.609375 9.035156 20.605469 C 8.84375 20.554688 8.6875 20.464844 8.523438 20.359375 C 8.472656 20.328125 8.472656 20.328125 8.417969 20.296875 C 8.132812 20.121094 7.871094 19.925781 7.617188 19.703125 C 7.578125 19.667969 7.535156 19.632812 7.496094 19.597656 C 6.386719 18.621094 5.453125 17.460938 4.976562 16.046875 C 4.925781 15.886719 4.925781 15.886719 4.847656 15.71875 C 4.277344 14.332031 4.257812 12.621094 4.570312 11.171875 C 4.582031 11.109375 4.597656 11.042969 4.613281 10.976562 C 4.9375 9.613281 5.640625 8.292969 6.601562 7.269531 C 6.707031 7.160156 6.707031 7.160156 6.804688 7.03125 C 6.957031 6.84375 7.132812 6.703125 7.3125 6.550781 C 7.355469 6.515625 7.398438 6.480469 7.441406 6.441406 C 9.425781 4.78125 12.164062 3.941406 14.726562 4.570312 Z M 14.726562 4.570312 "/>
<path style=" stroke:none;fill-rule:nonzero;fill:rgb(99.607843%,87.45098%,87.843137%);fill-opacity:1;" d="M 12.609375 2.988281 C 12.675781 2.988281 12.675781 2.988281 12.742188 2.988281 C 12.832031 2.988281 12.921875 2.988281 13.015625 2.988281 C 13.152344 2.988281 13.289062 2.984375 13.429688 2.984375 C 13.515625 2.984375 13.605469 2.984375 13.695312 2.984375 C 13.757812 2.984375 13.757812 2.984375 13.816406 2.984375 C 14.097656 2.984375 14.351562 3.027344 14.625 3.097656 C 14.703125 3.113281 14.78125 3.128906 14.855469 3.140625 C 15.691406 3.308594 16.496094 3.546875 17.265625 3.910156 C 17.382812 3.960938 17.503906 4.011719 17.621094 4.0625 C 17.621094 4.097656 17.621094 4.128906 17.621094 4.164062 C 17.652344 4.171875 17.679688 4.175781 17.710938 4.183594 C 17.824219 4.214844 17.90625 4.253906 18.003906 4.316406 C 18.039062 4.335938 18.070312 4.355469 18.105469 4.375 C 18.140625 4.398438 18.171875 4.417969 18.207031 4.441406 C 18.242188 4.460938 18.277344 4.480469 18.3125 4.503906 C 18.457031 4.589844 18.597656 4.679688 18.738281 4.773438 C 18.738281 4.808594 18.738281 4.839844 18.738281 4.875 C 18.765625 4.878906 18.796875 4.882812 18.824219 4.890625 C 18.96875 4.933594 19.0625 5.007812 19.183594 5.101562 C 19.222656 5.132812 19.265625 5.164062 19.304688 5.195312 C 19.335938 5.222656 19.367188 5.253906 19.398438 5.28125 C 19.398438 5.316406 19.398438 5.347656 19.398438 5.382812 C 19.453125 5.402344 19.453125 5.402344 19.507812 5.421875 C 19.667969 5.492188 19.78125 5.566406 19.90625 5.6875 C 19.925781 5.753906 19.941406 5.824219 19.957031 5.890625 C 20.023438 5.925781 20.09375 5.957031 20.160156 5.992188 C 20.25 6.074219 20.25 6.074219 20.335938 6.164062 C 20.433594 6.261719 20.527344 6.355469 20.625 6.449219 C 20.726562 6.558594 20.789062 6.675781 20.855469 6.804688 C 20.964844 6.972656 21.101562 7.109375 21.238281 7.25 C 21.332031 7.371094 21.375 7.476562 21.429688 7.617188 C 21.464844 7.660156 21.5 7.707031 21.539062 7.75 C 21.632812 7.871094 21.632812 7.871094 21.632812 8.023438 C 21.667969 8.023438 21.699219 8.023438 21.734375 8.023438 C 22.238281 9.054688 22.621094 10.042969 22.851562 11.171875 C 22.859375 11.203125 22.863281 11.238281 22.871094 11.269531 C 22.988281 11.820312 23.027344 12.351562 23.023438 12.914062 C 23.023438 12.953125 23.023438 12.992188 23.023438 13.03125 C 23.015625 14.5 23.015625 14.5 22.800781 14.929688 C 22.789062 15.011719 22.777344 15.09375 22.769531 15.175781 C 22.730469 15.402344 22.667969 15.628906 22.609375 15.851562 C 22.597656 15.90625 22.582031 15.957031 22.570312 16.011719 C 22.472656 16.378906 22.355469 16.71875 22.191406 17.0625 C 22.160156 17.132812 22.128906 17.207031 22.097656 17.277344 C 22.078125 17.324219 22.058594 17.371094 22.039062 17.417969 C 22.003906 17.417969 21.972656 17.417969 21.9375 17.417969 C 21.933594 17.464844 21.925781 17.507812 21.921875 17.554688 C 21.886719 17.726562 21.839844 17.835938 21.734375 17.976562 C 21.699219 17.976562 21.667969 17.976562 21.632812 17.976562 C 21.621094 18.023438 21.609375 18.066406 21.59375 18.113281 C 21.527344 18.289062 21.445312 18.394531 21.328125 18.535156 C 21.3125 18.585938 21.292969 18.636719 21.277344 18.6875 C 21.242188 18.703125 21.210938 18.722656 21.175781 18.738281 C 21.132812 18.808594 21.09375 18.882812 21.054688 18.957031 C 20.960938 19.132812 20.875 19.273438 20.71875 19.398438 C 20.683594 19.398438 20.652344 19.398438 20.617188 19.398438 C 20.617188 19.433594 20.617188 19.464844 20.617188 19.5 C 20.566406 19.5 20.515625 19.5 20.464844 19.5 C 20.449219 19.566406 20.429688 19.632812 20.414062 19.703125 C 20.378906 19.703125 20.347656 19.703125 20.3125 19.703125 C 20.300781 19.730469 20.285156 19.761719 20.273438 19.789062 C 20.0625 20.1875 19.730469 20.574219 19.296875 20.71875 C 19.28125 20.75 19.265625 20.78125 19.253906 20.8125 C 19.175781 20.960938 19.082031 21.003906 18.941406 21.085938 C 18.894531 21.113281 18.851562 21.140625 18.804688 21.167969 C 18.6875 21.226562 18.6875 21.226562 18.585938 21.226562 C 18.585938 21.261719 18.585938 21.292969 18.585938 21.328125 C 18.554688 21.34375 18.523438 21.359375 18.492188 21.378906 C 18.449219 21.402344 18.410156 21.421875 18.367188 21.445312 C 18.328125 21.46875 18.285156 21.488281 18.242188 21.511719 C 18.128906 21.574219 18.128906 21.574219 18.054688 21.660156 C 17.953125 21.757812 17.851562 21.796875 17.722656 21.851562 C 17.515625 21.941406 17.324219 22.039062 17.128906 22.152344 C 16.898438 22.285156 16.71875 22.332031 16.453125 22.34375 C 16.453125 22.378906 16.453125 22.410156 16.453125 22.445312 C 16.390625 22.460938 16.324219 22.476562 16.261719 22.496094 C 16.175781 22.519531 16.089844 22.539062 16.003906 22.5625 C 15.957031 22.574219 15.914062 22.585938 15.867188 22.597656 C 15.824219 22.609375 15.777344 22.621094 15.734375 22.632812 C 15.671875 22.648438 15.671875 22.648438 15.609375 22.664062 C 15.484375 22.699219 15.359375 22.742188 15.238281 22.78125 C 13.863281 23.1875 12.199219 23.125 10.816406 22.800781 C 10.777344 22.792969 10.742188 22.785156 10.703125 22.773438 C 10.484375 22.722656 10.269531 22.664062 10.054688 22.597656 C 10 22.582031 9.945312 22.5625 9.886719 22.546875 C 9.625 22.464844 9.382812 22.371094 9.140625 22.242188 C 9.03125 22.1875 8.917969 22.144531 8.804688 22.101562 C 8.34375 21.921875 7.921875 21.652344 7.515625 21.378906 C 7.476562 21.351562 7.433594 21.328125 7.394531 21.300781 C 7.191406 21.167969 7.023438 21.042969 6.855469 20.871094 C 6.769531 20.820312 6.6875 20.769531 6.601562 20.71875 C 6.359375 20.554688 6.183594 20.421875 6.042969 20.160156 C 5.992188 20.144531 5.941406 20.125 5.890625 20.109375 C 5.644531 19.878906 5.445312 19.59375 5.234375 19.328125 C 5.207031 19.296875 5.183594 19.265625 5.15625 19.234375 C 4.976562 19.003906 4.976562 19.003906 4.976562 18.890625 C 4.941406 18.890625 4.910156 18.890625 4.875 18.890625 C 4.851562 18.816406 4.851562 18.816406 4.824219 18.738281 C 4.796875 18.710938 4.773438 18.6875 4.746094 18.660156 C 4.707031 18.621094 4.707031 18.621094 4.671875 18.585938 C 4.671875 18.550781 4.671875 18.519531 4.671875 18.484375 C 4.636719 18.484375 4.605469 18.484375 4.570312 18.484375 C 4.550781 18.449219 4.53125 18.410156 4.511719 18.371094 C 4.339844 18.054688 4.339844 18.054688 4.144531 17.75 C 4.0625 17.621094 4.0625 17.621094 4.0625 17.417969 C 4.027344 17.417969 3.996094 17.417969 3.960938 17.417969 C 3.910156 17.304688 3.859375 17.191406 3.808594 17.078125 C 3.792969 17.046875 3.78125 17.015625 3.765625 16.980469 C 3.683594 16.796875 3.636719 16.652344 3.65625 16.453125 C 3.621094 16.453125 3.589844 16.453125 3.554688 16.453125 C 3.546875 16.40625 3.546875 16.40625 3.535156 16.363281 C 3.527344 16.320312 3.519531 16.28125 3.511719 16.242188 C 3.503906 16.199219 3.492188 16.160156 3.484375 16.121094 C 3.457031 15.996094 3.457031 15.996094 3.40625 15.878906 C 3.289062 15.582031 3.238281 15.261719 3.175781 14.949219 C 3.152344 14.839844 3.125 14.734375 3.101562 14.628906 C 2.804688 13.261719 2.875 11.457031 3.402344 10.15625 C 3.417969 10.085938 3.433594 10.011719 3.445312 9.941406 C 3.496094 9.683594 3.613281 9.472656 3.734375 9.242188 C 3.820312 9.0625 3.875 8.882812 3.929688 8.691406 C 3.96875 8.554688 4.027344 8.441406 4.113281 8.328125 C 4.148438 8.328125 4.179688 8.328125 4.214844 8.328125 C 4.222656 8.292969 4.226562 8.253906 4.234375 8.21875 C 4.265625 8.078125 4.308594 7.953125 4.367188 7.820312 C 4.402344 7.820312 4.433594 7.820312 4.46875 7.820312 C 4.480469 7.785156 4.492188 7.75 4.507812 7.710938 C 4.640625 7.410156 4.855469 7.144531 5.050781 6.878906 C 5.074219 6.84375 5.097656 6.8125 5.121094 6.777344 C 5.261719 6.582031 5.414062 6.414062 5.585938 6.246094 C 5.632812 6.191406 5.683594 6.132812 5.730469 6.074219 C 5.929688 5.839844 6.152344 5.582031 6.449219 5.484375 C 6.449219 5.449219 6.449219 5.417969 6.449219 5.382812 C 6.542969 5.300781 6.640625 5.222656 6.742188 5.148438 C 6.769531 5.125 6.800781 5.101562 6.832031 5.082031 C 7.644531 4.46875 7.644531 4.46875 7.820312 4.46875 C 7.820312 4.433594 7.820312 4.402344 7.820312 4.367188 C 7.921875 4.351562 8.019531 4.332031 8.125 4.316406 C 8.125 4.28125 8.125 4.25 8.125 4.214844 C 8.207031 4.199219 8.292969 4.179688 8.378906 4.164062 C 8.378906 4.128906 8.378906 4.097656 8.378906 4.0625 C 8.734375 3.886719 9.09375 3.746094 9.46875 3.613281 C 9.511719 3.597656 9.554688 3.582031 9.601562 3.566406 C 9.664062 3.542969 9.664062 3.542969 9.730469 3.523438 C 9.769531 3.507812 9.804688 3.496094 9.84375 3.480469 C 9.953125 3.453125 9.953125 3.453125 10.15625 3.453125 C 10.15625 3.417969 10.15625 3.386719 10.15625 3.351562 C 10.207031 3.34375 10.257812 3.332031 10.308594 3.324219 C 10.710938 3.25 11.109375 3.171875 11.507812 3.078125 C 11.875 3.007812 12.238281 2.988281 12.609375 2.988281 Z M 6.875 6.988281 C 6.804688 7.058594 6.730469 7.128906 6.65625 7.199219 C 6.195312 7.632812 5.84375 8.183594 5.535156 8.734375 C 5.503906 8.789062 5.472656 8.84375 5.441406 8.898438 C 5.042969 9.597656 4.71875 10.378906 4.570312 11.171875 C 4.5625 11.203125 4.558594 11.238281 4.550781 11.269531 C 4.109375 13.4375 4.542969 15.691406 5.710938 17.5625 C 5.769531 17.648438 5.832031 17.738281 5.890625 17.824219 C 5.921875 17.867188 5.949219 17.914062 5.980469 17.960938 C 6.257812 18.351562 6.574219 18.699219 6.90625 19.042969 C 6.929688 19.066406 6.953125 19.09375 6.976562 19.117188 C 7.453125 19.621094 7.976562 20.023438 8.558594 20.394531 C 8.59375 20.417969 8.628906 20.441406 8.664062 20.460938 C 8.839844 20.574219 8.925781 20.617188 9.140625 20.617188 C 9.140625 20.652344 9.140625 20.683594 9.140625 20.71875 C 9.523438 20.886719 9.90625 21.054688 10.308594 21.175781 C 10.371094 21.195312 10.433594 21.214844 10.5 21.238281 C 10.9375 21.375 11.359375 21.46875 11.816406 21.511719 C 11.984375 21.53125 11.984375 21.53125 12.078125 21.558594 C 13.242188 21.828125 14.742188 21.523438 15.84375 21.125 C 15.898438 21.105469 15.953125 21.085938 16.007812 21.066406 C 16.699219 20.796875 17.363281 20.421875 17.976562 20.007812 C 18.011719 19.988281 18.042969 19.964844 18.078125 19.945312 C 18.148438 19.902344 18.214844 19.851562 18.28125 19.804688 C 18.28125 19.769531 18.28125 19.738281 18.28125 19.703125 C 18.308594 19.691406 18.339844 19.679688 18.367188 19.664062 C 18.605469 19.535156 18.796875 19.328125 18.992188 19.144531 C 19.035156 19.105469 19.078125 19.066406 19.121094 19.023438 C 19.9375 18.234375 20.554688 17.25 20.972656 16.199219 C 21 16.140625 21.023438 16.082031 21.050781 16.023438 C 21.128906 15.835938 21.179688 15.65625 21.230469 15.460938 C 21.324219 15.089844 21.324219 15.089844 21.378906 14.914062 C 21.789062 13.371094 21.648438 11.648438 21.125 10.15625 C 21.113281 10.117188 21.097656 10.078125 21.082031 10.035156 C 21.042969 9.925781 21.003906 9.8125 20.964844 9.699219 C 20.949219 9.667969 20.9375 9.632812 20.925781 9.597656 C 20.859375 9.421875 20.78125 9.289062 20.667969 9.140625 C 20.617188 9.035156 20.566406 8.929688 20.519531 8.824219 C 20.21875 8.199219 19.753906 7.582031 19.246094 7.109375 C 19.210938 7.109375 19.179688 7.109375 19.144531 7.109375 C 19.132812 7.082031 19.121094 7.050781 19.105469 7.019531 C 18.847656 6.550781 18.246094 6.089844 17.773438 5.84375 C 17.628906 5.765625 17.488281 5.675781 17.347656 5.585938 C 17.128906 5.449219 16.90625 5.324219 16.667969 5.226562 C 16.589844 5.195312 16.515625 5.160156 16.441406 5.121094 C 15.835938 4.820312 15.132812 4.628906 14.464844 4.539062 C 14.320312 4.519531 14.320312 4.519531 14.214844 4.496094 C 13.835938 4.40625 13.464844 4.402344 13.078125 4.40625 C 13.042969 4.40625 13.007812 4.40625 12.972656 4.40625 C 10.628906 4.421875 8.535156 5.328125 6.875 6.988281 Z M 6.875 6.988281 "/>
<path style=" stroke:none;fill-rule:nonzero;fill:rgb(99.215686%,96.862745%,97.254902%);fill-opacity:1;" d="M 13.40625 8.9375 C 13.40625 8.972656 13.40625 9.003906 13.40625 9.039062 C 13.441406 9.042969 13.472656 9.042969 13.507812 9.046875 C 13.835938 9.140625 14.074219 9.378906 14.269531 9.652344 C 14.425781 9.945312 14.441406 10.230469 14.453125 10.554688 C 14.457031 10.601562 14.457031 10.644531 14.460938 10.691406 C 14.464844 10.800781 14.46875 10.910156 14.472656 11.019531 C 14.519531 10.972656 14.566406 10.925781 14.613281 10.875 C 14.785156 10.699219 14.957031 10.523438 15.132812 10.347656 C 15.207031 10.269531 15.28125 10.195312 15.355469 10.117188 C 15.460938 10.007812 15.570312 9.898438 15.675781 9.789062 C 15.726562 9.738281 15.726562 9.738281 15.777344 9.683594 C 16.011719 9.453125 16.011719 9.453125 16.191406 9.421875 C 16.300781 9.445312 16.300781 9.445312 16.394531 9.503906 C 16.453125 9.597656 16.453125 9.597656 16.457031 9.730469 C 16.371094 9.996094 16.183594 10.121094 15.976562 10.300781 C 14.878906 11.175781 14.878906 11.175781 14.332031 12.398438 C 14.324219 12.6875 14.367188 12.96875 14.410156 13.25 C 14.429688 13.554688 14.296875 13.792969 14.132812 14.046875 C 13.859375 14.347656 13.585938 14.550781 13.167969 14.585938 C 12.839844 14.59375 12.59375 14.558594 12.296875 14.421875 C 12.175781 14.363281 12.175781 14.363281 11.984375 14.320312 C 11.882812 14.4375 11.785156 14.554688 11.679688 14.675781 C 11.746094 14.710938 11.8125 14.742188 11.882812 14.777344 C 11.945312 14.808594 11.945312 14.808594 12.007812 14.839844 C 12.050781 14.863281 12.09375 14.886719 12.136719 14.90625 C 12.179688 14.929688 12.222656 14.953125 12.265625 14.972656 C 12.648438 15.148438 13.152344 15.140625 13.558594 15.046875 C 14.121094 14.835938 14.542969 14.425781 14.796875 13.882812 C 14.902344 13.597656 14.90625 13.3125 14.910156 13.011719 C 14.929688 12.847656 14.929688 12.847656 14.996094 12.75 C 15.136719 12.660156 15.277344 12.6875 15.4375 12.695312 C 15.4375 12.730469 15.4375 12.761719 15.4375 12.796875 C 15.472656 12.796875 15.503906 12.796875 15.539062 12.796875 C 15.585938 13.511719 15.457031 13.988281 15.132812 14.625 C 15.097656 14.625 15.066406 14.625 15.03125 14.625 C 15.019531 14.664062 15.007812 14.699219 14.996094 14.738281 C 14.800781 15.164062 14.332031 15.410156 13.921875 15.585938 C 13.710938 15.660156 13.527344 15.683594 13.304688 15.691406 C 13.304688 15.941406 13.304688 16.195312 13.304688 16.453125 C 13.394531 16.449219 13.480469 16.445312 13.570312 16.445312 C 13.738281 16.4375 13.835938 16.4375 13.980469 16.519531 C 14.066406 16.605469 14.066406 16.605469 14.089844 16.757812 C 14.066406 16.910156 14.066406 16.910156 14.015625 16.996094 C 13.855469 17.101562 13.6875 17.085938 13.503906 17.082031 C 13.445312 17.082031 13.445312 17.082031 13.382812 17.082031 C 13.300781 17.082031 13.214844 17.082031 13.128906 17.082031 C 13 17.082031 12.871094 17.082031 12.742188 17.082031 C 12.660156 17.082031 12.578125 17.082031 12.496094 17.082031 C 12.457031 17.082031 12.417969 17.082031 12.378906 17.082031 C 12.113281 17.082031 12.113281 17.082031 11.984375 16.996094 C 11.902344 16.859375 11.914062 16.757812 11.933594 16.605469 C 11.992188 16.519531 11.992188 16.519531 12.085938 16.453125 C 12.289062 16.433594 12.488281 16.445312 12.695312 16.453125 C 12.695312 16.203125 12.695312 15.949219 12.695312 15.691406 C 12.625 15.6875 12.554688 15.6875 12.480469 15.683594 C 12.035156 15.640625 11.660156 15.414062 11.324219 15.132812 C 11.121094 15.214844 10.992188 15.355469 10.84375 15.507812 C 10.792969 15.5625 10.738281 15.617188 10.683594 15.675781 C 10.601562 15.761719 10.519531 15.847656 10.433594 15.933594 C 10.355469 16.019531 10.273438 16.101562 10.191406 16.183594 C 10.167969 16.210938 10.144531 16.238281 10.117188 16.265625 C 9.953125 16.429688 9.832031 16.496094 9.597656 16.503906 C 9.5 16.449219 9.5 16.449219 9.445312 16.351562 C 9.449219 16.09375 9.539062 15.976562 9.710938 15.804688 C 9.742188 15.773438 9.769531 15.746094 9.800781 15.71875 C 9.832031 15.6875 9.863281 15.65625 9.894531 15.625 C 9.988281 15.53125 10.085938 15.4375 10.183594 15.34375 C 10.25 15.277344 10.316406 15.214844 10.382812 15.148438 C 10.542969 14.988281 10.703125 14.832031 10.867188 14.675781 C 10.847656 14.632812 10.824219 14.585938 10.804688 14.539062 C 10.773438 14.480469 10.746094 14.421875 10.71875 14.363281 C 10.691406 14.304688 10.664062 14.246094 10.636719 14.183594 C 10.445312 13.746094 10.417969 13.273438 10.460938 12.796875 C 10.5625 12.695312 10.5625 12.695312 10.738281 12.679688 C 10.917969 12.695312 10.917969 12.695312 11.003906 12.75 C 11.105469 12.898438 11.089844 13.054688 11.089844 13.230469 C 11.101562 13.59375 11.175781 13.859375 11.375 14.167969 C 11.546875 14.03125 11.546875 14.03125 11.679688 13.863281 C 11.65625 13.757812 11.632812 13.652344 11.605469 13.546875 C 11.546875 13.253906 11.5625 12.949219 11.5625 12.644531 C 11.5625 12.574219 11.558594 12.5 11.558594 12.425781 C 11.558594 12.273438 11.558594 12.121094 11.558594 11.96875 C 11.558594 11.773438 11.558594 11.578125 11.554688 11.382812 C 11.554688 11.234375 11.554688 11.082031 11.554688 10.929688 C 11.554688 10.859375 11.554688 10.785156 11.554688 10.714844 C 11.546875 10.226562 11.585938 9.824219 11.875 9.414062 C 12.355469 8.953125 12.757812 8.90625 13.40625 8.9375 Z M 13.40625 8.9375 "/>
<path style=" stroke:none;fill-rule:nonzero;fill:rgb(98.431373%,24.705882%,29.411765%);fill-opacity:1;" d="M 13.304688 9.546875 C 13.558594 9.664062 13.671875 9.816406 13.8125 10.054688 C 13.886719 10.3125 13.910156 10.570312 13.921875 10.839844 C 13.925781 10.875 13.925781 10.914062 13.929688 10.953125 C 13.945312 11.554688 13.769531 11.921875 13.359375 12.355469 C 13.007812 12.710938 12.632812 13.046875 12.238281 13.355469 C 12.222656 13.355469 12.203125 13.355469 12.1875 13.355469 C 12.183594 12.929688 12.179688 12.503906 12.175781 12.082031 C 12.175781 11.882812 12.175781 11.683594 12.171875 11.488281 C 12.171875 11.296875 12.167969 11.105469 12.167969 10.914062 C 12.167969 10.84375 12.167969 10.769531 12.167969 10.699219 C 12.164062 10.597656 12.164062 10.496094 12.164062 10.390625 C 12.164062 10.335938 12.164062 10.277344 12.164062 10.214844 C 12.203125 9.964844 12.332031 9.808594 12.511719 9.632812 C 12.757812 9.476562 13.023438 9.511719 13.304688 9.546875 Z M 13.304688 9.546875 "/>
<path style=" stroke:none;fill-rule:nonzero;fill:rgb(97.647059%,26.27451%,30.980392%);fill-opacity:1;" d="M 13.8125 12.492188 C 13.816406 12.636719 13.820312 12.78125 13.824219 12.925781 C 13.828125 12.988281 13.828125 12.988281 13.832031 13.050781 C 13.835938 13.347656 13.78125 13.515625 13.609375 13.761719 C 13.378906 13.980469 13.183594 13.984375 12.882812 13.980469 C 12.738281 13.964844 12.625 13.921875 12.492188 13.863281 C 12.574219 13.664062 12.707031 13.53125 12.855469 13.386719 C 12.882812 13.359375 12.910156 13.332031 12.933594 13.308594 C 12.988281 13.253906 13.042969 13.199219 13.097656 13.144531 C 13.179688 13.0625 13.265625 12.980469 13.347656 12.898438 C 13.398438 12.84375 13.453125 12.792969 13.503906 12.742188 C 13.53125 12.714844 13.554688 12.691406 13.582031 12.664062 C 13.753906 12.492188 13.753906 12.492188 13.8125 12.492188 Z M 13.8125 12.492188 "/>
<path style=" stroke:none;fill-rule:nonzero;fill:rgb(98.431373%,76.470588%,77.647059%);fill-opacity:1;" d="M 12.398438 16.445312 C 12.457031 16.445312 12.511719 16.445312 12.566406 16.449219 C 12.628906 16.449219 12.628906 16.449219 12.695312 16.453125 C 12.695312 16.46875 12.695312 16.488281 12.695312 16.503906 C 12.511719 16.503906 12.328125 16.503906 12.136719 16.503906 C 12.101562 16.570312 12.070312 16.636719 12.035156 16.707031 C 12 16.773438 11.96875 16.84375 11.933594 16.910156 C 11.914062 16.632812 11.914062 16.632812 11.992188 16.519531 C 12.128906 16.421875 12.234375 16.4375 12.398438 16.445312 Z M 12.398438 16.445312 "/>
<path style=" stroke:none;fill-rule:nonzero;fill:rgb(94.117647%,31.764706%,37.647059%);fill-opacity:1;" d="M 6.90625 6.90625 C 6.921875 6.972656 6.941406 7.039062 6.957031 7.109375 C 6.894531 7.195312 6.894531 7.195312 6.808594 7.273438 C 6.777344 7.300781 6.75 7.328125 6.722656 7.355469 C 6.699219 7.375 6.675781 7.394531 6.652344 7.414062 C 6.601562 7.398438 6.550781 7.378906 6.5 7.363281 C 6.632812 7.210938 6.769531 7.0625 6.90625 6.90625 Z M 6.90625 6.90625 "/>
<path style=" stroke:none;fill-rule:nonzero;fill:rgb(94.509804%,32.156863%,38.823529%);fill-opacity:1;" d="M 7.414062 6.449219 C 7.449219 6.464844 7.480469 6.484375 7.515625 6.5 C 7.398438 6.632812 7.28125 6.769531 7.160156 6.90625 C 7.109375 6.890625 7.058594 6.871094 7.007812 6.855469 C 7.140625 6.722656 7.277344 6.585938 7.414062 6.449219 Z M 7.414062 6.449219 "/>
</g>
</svg>
