<svg width="21" height="20" viewBox="0 0 21 20" fill="none" xmlns="http://www.w3.org/2000/svg">
<path d="M18.8337 7.49992H18.829M18.829 7.49992H2.17165M18.829 7.49992C18.8337 7.84376 18.8337 8.2296 18.8337 8.66659V11.6666M18.829 7.49992C18.8138 6.37483 18.7486 5.69942 18.4703 5.15328C18.1508 4.52608 17.6408 4.01614 17.0136 3.69656C16.3006 3.33325 15.3672 3.33325 13.5003 3.33325H7.50033C5.63348 3.33325 4.70006 3.33325 3.98702 3.69656C3.35982 4.01614 2.84988 4.52608 2.5303 5.15328C2.25204 5.69942 2.1869 6.37483 2.17165 7.49992M2.17165 7.49992H2.16699M2.17165 7.49992C2.16699 7.84376 2.16699 8.2296 2.16699 8.66659V11.3333C2.16699 13.2001 2.16699 14.1335 2.5303 14.8466C2.84988 15.4738 3.35982 15.9837 3.98702 16.3033C4.70006 16.6666 5.63348 16.6666 7.50033 16.6666H9.66699M15.5003 10.8333H13.0003M17.2717 14.9999C17.82 15.4112 18.3152 15.8882 18.7462 16.4202C18.8045 16.4921 18.8337 16.5793 18.8337 16.6666M17.2717 18.3333C17.82 17.922 18.3152 17.4449 18.7462 16.913C18.8045 16.8411 18.8337 16.7538 18.8337 16.6666M18.8337 16.6666H13.0003" stroke="white" stroke-width="2" stroke-linecap="round" stroke-linejoin="round"/>
</svg>
