<svg width="16" height="16" viewBox="0 0 16 16" fill="none" xmlns="http://www.w3.org/2000/svg">
<g clip-path="url(#clip0_1460_14845)">
<path d="M9.99992 1.99992L3.99992 1.99992C3.44658 1.99992 2.97325 2.33325 2.77325 2.81325L0.759918 7.51325C0.699918 7.66659 0.666585 7.82659 0.666585 7.99992L0.666585 9.33325C0.666585 10.0666 1.26659 10.6666 1.99992 10.6666L6.20659 10.6666L5.57325 13.7133L5.55325 13.9266C5.55325 14.1999 5.66659 14.4533 5.84659 14.6333L6.55325 15.3333L10.9466 10.9399C11.1866 10.6999 11.3333 10.3666 11.3333 9.99992L11.3333 3.33325C11.3333 2.59992 10.7333 1.99992 9.99992 1.99992ZM9.99992 9.99992L7.10659 12.8933L7.99992 9.33325L1.99992 9.33325L1.99992 7.99992L3.99992 3.33325L9.99992 3.33325L9.99992 9.99992ZM15.3333 9.99992L12.6666 9.99992L12.6666 1.99992L15.3333 1.99992L15.3333 9.99992Z" fill="#323232"/>
</g>
<defs>
<clipPath id="clip0_1460_14845">
<rect width="16" height="16" fill="white" transform="translate(16 16) rotate(180)"/>
</clipPath>
</defs>
</svg>
