<svg width="16" height="16" viewBox="0 0 16 16" fill="none" xmlns="http://www.w3.org/2000/svg">
<g clip-path="url(#clip0_1460_14834)">
<path d="M6.00008 14.0001H12.0001C12.5534 14.0001 13.0267 13.6667 13.2267 13.1867L15.2401 8.48675C15.3001 8.33341 15.3334 8.17341 15.3334 8.00008V6.66675C15.3334 5.93341 14.7334 5.33341 14.0001 5.33341H9.79341L10.4267 2.28675L10.4467 2.07341C10.4467 1.80008 10.3334 1.54675 10.1534 1.36675L9.44675 0.666748L5.05341 5.06008C4.81341 5.30008 4.66675 5.63341 4.66675 6.00008V12.6667C4.66675 13.4001 5.26675 14.0001 6.00008 14.0001ZM6.00008 6.00008L8.89341 3.10675L8.00008 6.66675H14.0001V8.00008L12.0001 12.6667H6.00008V6.00008ZM0.666748 6.00008H3.33341V14.0001H0.666748V6.00008Z" fill="#323232"/>
</g>
<defs>
<clipPath id="clip0_1460_14834">
<rect width="16" height="16" fill="white"/>
</clipPath>
</defs>
</svg>
