<svg width="20" height="20" viewBox="0 0 20 20" fill="none" xmlns="http://www.w3.org/2000/svg">
<path d="M4.50638 10.8117C3.47519 9.06425 2.79716 7.0272 2.52939 4.75763C2.41181 3.76103 3.02961 2.71148 4.08139 2.53948C4.4119 2.48543 4.82055 2.4936 5.15668 2.52392C6.55929 2.65043 7.1391 3.88842 7.44691 5.09003C7.85904 6.69891 7.35697 8.40433 6.13889 9.53307C5.63484 10.0002 5.05075 10.3934 4.50638 10.8117ZM4.50638 10.8117C5.60367 12.6711 7.10085 14.2025 8.92913 15.3372M8.92913 15.3372C10.7325 16.4565 12.8581 17.1897 15.2398 17.4708C16.2365 17.5885 17.2856 16.9702 17.4575 15.9185C17.5165 15.5577 17.5095 15.1429 17.4665 14.7801C17.2919 13.3048 15.8715 12.7473 14.604 12.4566C13.1596 12.1254 11.6447 12.5226 10.5485 13.5198C9.95348 14.0611 9.45576 14.7307 8.92913 15.3372ZM16.5743 6.96071C16.6986 5.95574 16.6966 4.93487 16.5687 3.92166C16.5522 3.79173 16.4945 3.67722 16.4084 3.59108M13.0387 3.42518C14.0437 3.3008 15.0646 3.30282 16.0778 3.43079C16.2077 3.4472 16.3222 3.50495 16.4084 3.59108M12.2836 7.71587L16.4084 3.59108" stroke="white" stroke-width="2" stroke-linecap="round" stroke-linejoin="round"/>
</svg>
