<svg width="20" height="20" viewBox="0 0 20 20" fill="none" xmlns="http://www.w3.org/2000/svg">
<path d="M7.08333 10.5551L9.03433 12.504C9.97268 10.8632 11.2713 9.45686 12.8323 8.39096L12.9167 8.33331M12.5901 3.10556L14.7568 4.30927C15.7552 4.86394 16.2544 5.14128 16.6179 5.53574C16.9395 5.8847 17.1828 6.29831 17.3317 6.7489C17.5 7.25822 17.5 7.8293 17.5 8.97144V11.0285C17.5 12.1706 17.5 12.7417 17.3317 13.251C17.1828 13.7016 16.9395 14.1152 16.6179 14.4642C16.2544 14.8586 15.7552 15.136 14.7568 15.6906L12.5901 16.8943C11.6448 17.4195 11.1721 17.6821 10.6715 17.7851C10.2285 17.8762 9.77153 17.8762 9.32849 17.7851C8.82792 17.6821 8.35525 17.4195 7.4099 16.8943L5.24324 15.6906C4.24483 15.136 3.74562 14.8586 3.38211 14.4642C3.06053 14.1152 2.81716 13.7016 2.66828 13.251C2.5 12.7417 2.5 12.1706 2.5 11.0285V8.97144C2.5 7.8293 2.5 7.25822 2.66828 6.7489C2.81716 6.29831 3.06053 5.8847 3.38211 5.53574C3.74562 5.14128 4.24482 4.86394 5.24324 4.30927L7.4099 3.10556C8.35525 2.58037 8.82792 2.31777 9.32849 2.21482C9.77153 2.1237 10.2285 2.1237 10.6715 2.21482C11.1721 2.31777 11.6447 2.58037 12.5901 3.10556Z" stroke="white" stroke-width="2" stroke-linecap="round" stroke-linejoin="round"/>
</svg>
