<svg width="16" height="16" viewBox="0 0 16 16" fill="none" xmlns="http://www.w3.org/2000/svg">
<g id="Star">
<path id="Vector" d="M6.0998 4.16495C6.66114 2.98857 6.94181 2.40038 7.3081 2.18697C7.73598 1.93768 8.26485 1.93768 8.69273 2.18697C9.05902 2.40038 9.33969 2.98857 9.90103 4.16495C10.0673 4.5135 10.1505 4.68778 10.2695 4.82642C10.4094 4.98929 10.5854 5.11716 10.7835 5.19981C10.9521 5.27017 11.1435 5.2954 11.5264 5.34587C12.8187 5.51622 13.4648 5.60139 13.781 5.88381C14.1503 6.21371 14.3137 6.71669 14.2089 7.20066C14.1191 7.61497 13.6464 8.06367 12.7011 8.96106C12.421 9.22695 12.2809 9.35989 12.1858 9.51594C12.0742 9.69924 12.0069 9.90614 11.9896 10.1201C11.9747 10.3022 12.0099 10.4921 12.0802 10.8718C12.3176 12.1535 12.4362 12.7943 12.2653 13.1823C12.0657 13.6355 11.6378 13.9463 11.1451 13.9961C10.7234 14.0388 10.1506 13.7279 9.00496 13.1061C8.66553 12.9219 8.49582 12.8298 8.31803 12.7876C8.10919 12.738 7.89164 12.738 7.6828 12.7876C7.50501 12.8298 7.33529 12.9219 6.99586 13.1061C5.85027 13.7279 5.27747 14.0388 4.8557 13.9961C4.363 13.9463 3.93514 13.6355 3.73551 13.1823C3.56461 12.7943 3.68328 12.1535 3.9206 10.8718C3.99092 10.4921 4.02608 10.3022 4.01128 10.1201C3.99389 9.90614 3.92666 9.69924 3.81498 9.51594C3.7199 9.35989 3.57985 9.22694 3.29976 8.96106C2.35441 8.06367 1.88174 7.61497 1.79197 7.20066C1.6871 6.71669 1.85053 6.21371 2.21984 5.88381C2.536 5.60139 3.18213 5.51622 4.4744 5.34587C4.85729 5.2954 5.04873 5.27017 5.21737 5.19981C5.41547 5.11716 5.59147 4.98929 5.73129 4.82642C5.85032 4.68778 5.93348 4.5135 6.0998 4.16495Z" stroke="#00539F" stroke-width="1.5" stroke-linecap="round" stroke-linejoin="round"/>
</g>
</svg>
