<svg width="16" height="16" viewBox="0 0 16 16" fill="none" xmlns="http://www.w3.org/2000/svg">
<g id="Dashboard/dynamic">
<g id="Vector">
<path d="M2 4.13333C2 3.3866 2 3.01323 2.14532 2.72801C2.27316 2.47713 2.47713 2.27316 2.72801 2.14532C3.01323 2 3.3866 2 4.13333 2H4.53333C5.28007 2 5.65344 2 5.93865 2.14532C6.18954 2.27316 6.39351 2.47713 6.52134 2.72801C6.66667 3.01323 6.66667 3.3866 6.66667 4.13333V5.86667C6.66667 6.6134 6.66667 6.98677 6.52134 7.27199C6.39351 7.52287 6.18954 7.72684 5.93865 7.85468C5.65344 8 5.28007 8 4.53333 8H4.13333C3.3866 8 3.01323 8 2.72801 7.85468C2.47713 7.72684 2.27316 7.52287 2.14532 7.27199C2 6.98677 2 6.6134 2 5.86667V4.13333Z" stroke="#00539F" stroke-width="1.5" stroke-linecap="round" stroke-linejoin="round"/>
<path d="M2 12.3333C2 12.0236 2 11.8687 2.02562 11.7399C2.13083 11.211 2.54429 10.7975 3.07321 10.6923C3.20201 10.6667 3.3569 10.6667 3.66667 10.6667H5C5.30977 10.6667 5.46466 10.6667 5.59345 10.6923C6.12237 10.7975 6.53584 11.211 6.64105 11.7399C6.66667 11.8687 6.66667 12.0236 6.66667 12.3333C6.66667 12.6431 6.66667 12.798 6.64105 12.9268C6.53584 13.4557 6.12237 13.8692 5.59345 13.9744C5.46466 14 5.30977 14 5 14H3.66667C3.3569 14 3.20201 14 3.07321 13.9744C2.54429 13.8692 2.13083 13.4557 2.02562 12.9268C2 12.798 2 12.6431 2 12.3333Z" stroke="#00539F" stroke-width="1.5" stroke-linecap="round" stroke-linejoin="round"/>
<path d="M9.33333 3.66667C9.33333 3.3569 9.33333 3.20201 9.35895 3.07321C9.46416 2.54429 9.87763 2.13083 10.4065 2.02562C10.5353 2 10.6902 2 11 2H12.3333C12.6431 2 12.798 2 12.9268 2.02562C13.4557 2.13083 13.8692 2.54429 13.9744 3.07321C14 3.20201 14 3.3569 14 3.66667C14 3.97644 14 4.13132 13.9744 4.26012C13.8692 4.78904 13.4557 5.20251 12.9268 5.30771C12.798 5.33333 12.6431 5.33333 12.3333 5.33333H11C10.6902 5.33333 10.5353 5.33333 10.4065 5.30771C9.87763 5.20251 9.46416 4.78904 9.35895 4.26012C9.33333 4.13132 9.33333 3.97644 9.33333 3.66667Z" stroke="#00539F" stroke-width="1.5" stroke-linecap="round" stroke-linejoin="round"/>
<path d="M9.33333 10.1333C9.33333 9.3866 9.33333 9.01323 9.47866 8.72801C9.60649 8.47713 9.81046 8.27316 10.0613 8.14532C10.3466 8 10.7199 8 11.4667 8H11.8667C12.6134 8 12.9868 8 13.272 8.14532C13.5229 8.27316 13.7268 8.47713 13.8547 8.72801C14 9.01323 14 9.3866 14 10.1333V11.8667C14 12.6134 14 12.9868 13.8547 13.272C13.7268 13.5229 13.5229 13.7268 13.272 13.8547C12.9868 14 12.6134 14 11.8667 14H11.4667C10.7199 14 10.3466 14 10.0613 13.8547C9.81046 13.7268 9.60649 13.5229 9.47866 13.272C9.33333 12.9868 9.33333 12.6134 9.33333 11.8667V10.1333Z" stroke="#00539F" stroke-width="1.5" stroke-linecap="round" stroke-linejoin="round"/>
</g>
</g>
</svg>
