<svg width="16" height="16" viewBox="0 0 16 16" fill="none" xmlns="http://www.w3.org/2000/svg">
<g id="Equals/Equals Square">
<path id="Vector" d="M6 6.66667H10M6 9.33333H10M8 14C6.13623 14 5.20435 14 4.46927 13.6955C3.48915 13.2895 2.71046 12.5108 2.30448 11.5307C2 10.7956 2 9.86377 2 8C2 6.13623 2 5.20435 2.30448 4.46927C2.71046 3.48915 3.48915 2.71046 4.46927 2.30448C5.20435 2 6.13623 2 8 2C9.86377 2 10.7956 2 11.5307 2.30448C12.5108 2.71046 13.2895 3.48915 13.6955 4.46927C14 5.20435 14 6.13623 14 8C14 9.86377 14 10.7956 13.6955 11.5307C13.2895 12.5108 12.5108 13.2895 11.5307 13.6955C10.7956 14 9.86377 14 8 14Z" stroke="#00539F" stroke-width="1.5" stroke-linecap="round" stroke-linejoin="round"/>
</g>
</svg>
