<svg width="16" height="16" viewBox="0 0 16 16" fill="none" xmlns="http://www.w3.org/2000/svg">
<g id="Wallet/ link">
<path id="Vector" d="M1.33301 9.66667V7.33333C1.33301 5.46649 1.33301 4.53307 1.69632 3.82003C2.0159 3.19282 2.52583 2.68289 3.15304 2.36331C3.86608 2 4.7995 2 6.66634 2H8.99967C9.93156 2 10.3975 2 10.765 2.15224C11.2551 2.35523 11.6444 2.74458 11.8474 3.23463C11.9857 3.56834 11.9984 3.98316 11.9996 4.7542M1.33301 9.66667C1.33301 10.5531 1.33301 11.3297 1.58674 11.9423C1.92506 12.759 2.57397 13.408 3.39073 13.7463C3.85503 13.9386 4.41354 13.9852 5.33301 13.9965M1.33301 9.66667C1.33301 8.11353 1.33301 7.33696 1.58674 6.72439C1.92506 5.90763 2.57397 5.25871 3.39073 4.9204C4.0033 4.66667 4.77987 4.66667 6.33301 4.66667H9.66634C10.7556 4.66667 11.4629 4.66667 11.9996 4.7542M9.33301 8H11.333M11.9996 4.7542C12.2281 4.79147 12.4257 4.84462 12.6086 4.9204C13.4254 5.25871 14.0743 5.90763 14.4126 6.72439C14.6049 7.18869 14.6515 7.7472 14.6627 8.66667M12.6429 10.6667H12.6678C13.7716 10.6667 14.6663 11.5621 14.6663 12.6667C14.6663 13.7712 13.7716 14.6667 12.6678 14.6667H12.6429M10.0231 10.6667H9.99819C8.89444 10.6667 7.99967 11.5621 7.99967 12.6667C7.99967 13.7712 8.89444 14.6667 9.99819 14.6667H10.0231M10.6644 12.6667H11.9967" stroke="#00539F" stroke-width="1.5" stroke-linecap="round" stroke-linejoin="round"/>
</g>
</svg>
