<svg width="18" height="20" viewBox="0 0 18 20" fill="none" xmlns="http://www.w3.org/2000/svg">
<path id="Locked" d="M9 15V13M9 13C9.51298 13 9.92884 12.5523 9.92884 12C9.92884 11.4477 9.51298 11 9 11C8.48702 11 8.07116 11.4477 8.07116 12C8.07116 12.5523 8.48702 13 9 13ZM14.573 7.23864V7C14.573 3.68629 12.0779 1 9 1C5.92209 1 3.42696 3.68629 3.42696 7V7.23864M14.573 7.23864C13.8871 7 12.9654 7 11.3028 7H6.69722C5.03464 7 4.11294 7 3.42696 7.23864M14.573 7.23864C14.6567 7.26776 14.7369 7.30043 14.8146 7.33709C15.766 7.78655 16.4992 8.6444 16.8362 9.70253C17.089 10.4961 17.0115 11.4968 16.8566 13.4983C16.7232 15.2208 16.6566 16.0821 16.3494 16.758C15.9398 17.6593 15.2305 18.3619 14.3623 18.7265C13.7111 19 12.9083 19 11.3028 19H6.69722C5.09169 19 4.28893 19 3.63775 18.7265C2.7695 18.3619 2.06024 17.6593 1.65063 16.758C1.34342 16.0821 1.27676 15.2208 1.14343 13.4983C0.988507 11.4968 0.911049 10.4961 1.16381 9.70253C1.50083 8.6444 2.234 7.78655 3.18545 7.33709C3.26305 7.30043 3.34325 7.26776 3.42696 7.23864" stroke="#EF0404" stroke-width="2" stroke-linecap="round" stroke-linejoin="round"/>
</svg>
