<svg width="20" height="20" viewBox="0 0 20 20" fill="none" xmlns="http://www.w3.org/2000/svg">
<g id="Hardrive">
<path id="Vector" d="M17.3524 11.9997L16.0684 7.26952C15.6858 5.85997 15.4945 5.15519 15.0907 4.63142C14.7344 4.16919 14.2629 3.80863 13.7235 3.5858C13.1122 3.33331 12.3819 3.33331 10.9214 3.33331H9.32007C7.76239 3.33331 6.98354 3.33331 6.37773 3.58071C5.81398 3.81093 5.39357 4.12799 5.01727 4.60674C4.61287 5.12121 4.38453 5.91994 3.92783 7.51739C3.42794 9.26596 2.93676 10.8521 2.6812 11.9038M17.3524 11.9997C17.0008 10.9367 16.0581 10.1477 14.9099 10.0183C14.7471 9.99998 14.5536 9.99998 14.1667 9.99998H5.83333C5.44636 9.99998 5.25287 9.99998 5.0901 10.0183C3.9767 10.1438 3.05654 10.8894 2.6812 11.9038M17.3524 11.9997C17.4149 12.1886 17.4587 12.3861 17.4817 12.5901C17.5 12.7528 17.5 12.9463 17.5 13.3333C17.5 13.7203 17.5 13.9138 17.4817 14.0765C17.3293 15.4288 16.2621 16.4959 14.9099 16.6483C14.7471 16.6666 14.5536 16.6666 14.1667 16.6666H5.83333C5.44636 16.6666 5.25287 16.6666 5.0901 16.6483C3.73788 16.4959 2.6707 15.4288 2.51834 14.0765C2.5 13.9138 2.5 13.7203 2.5 13.3333C2.5 12.9463 2.5 12.7528 2.51834 12.5901C2.54525 12.3513 2.60069 12.1213 2.6812 11.9038M14.1667 13.3333H10.8333" stroke="#303A47" stroke-width="2" stroke-linecap="round" stroke-linejoin="round"/>
</g>
</svg>
