<svg width="20" height="20" viewBox="0 0 20 20" fill="none" xmlns="http://www.w3.org/2000/svg">
<g id="Play/Square">
<g id="Vector">
<path d="M2.5 10C2.5 7.67029 2.5 6.50544 2.8806 5.58658C3.38807 4.36144 4.36144 3.38807 5.58658 2.8806C6.50544 2.5 7.67029 2.5 10 2.5C12.3297 2.5 13.4946 2.5 14.4134 2.8806C15.6386 3.38807 16.6119 4.36144 17.1194 5.58658C17.5 6.50544 17.5 7.67029 17.5 10C17.5 12.3297 17.5 13.4946 17.1194 14.4134C16.6119 15.6386 15.6386 16.6119 14.4134 17.1194C13.4946 17.5 12.3297 17.5 10 17.5C7.67029 17.5 6.50544 17.5 5.58658 17.1194C4.36144 16.6119 3.38807 15.6386 2.8806 14.4134C2.5 13.4946 2.5 12.3297 2.5 10Z" stroke="#303A47" stroke-width="2" stroke-linecap="round" stroke-linejoin="round"/>
<path d="M7.91667 9.91333C7.91667 8.72012 7.91667 8.12351 8.16602 7.79044C8.38332 7.50019 8.71595 7.31859 9.07761 7.29276C9.49263 7.26312 9.99448 7.58574 10.9982 8.23097L11.133 8.31764C12.004 8.87755 12.4394 9.1575 12.5899 9.51348C12.7213 9.82451 12.7213 10.1755 12.5899 10.4865C12.4394 10.8425 12.004 11.1225 11.133 11.6824L10.9982 11.769C9.99448 12.4143 9.49263 12.7369 9.07761 12.7072C8.71595 12.6814 8.38332 12.4998 8.16602 12.2096C7.91667 11.8765 7.91667 11.2799 7.91667 10.0867V9.91333Z" stroke="#303A47" stroke-width="2" stroke-linecap="round" stroke-linejoin="round"/>
</g>
</g>
</svg>
