<svg width="20" height="20" viewBox="0 0 20 20" fill="none" xmlns="http://www.w3.org/2000/svg">
<g id="Edit/pencil line">
<path id="Vector" d="M10.8333 17.5H17.5M2.5 17.4963L4.77221 17.4999C5.09673 17.5004 5.259 17.5007 5.41171 17.464C5.54711 17.4315 5.67656 17.3778 5.79529 17.3048C5.92921 17.2225 6.04395 17.1072 6.27342 16.8767L17.0845 6.01814C17.5262 5.57451 17.636 4.88859 17.2995 4.34652C16.8927 3.69123 16.3364 3.12776 15.6889 2.70943C15.17 2.37413 14.4885 2.44757 14.0522 2.8858L3.17492 13.8109C2.9537 14.033 2.84309 14.1441 2.76286 14.2735C2.69172 14.3881 2.6384 14.513 2.60473 14.6439C2.56676 14.7914 2.56288 14.9484 2.55513 15.2626L2.5 17.4963Z" stroke="#303A47" stroke-width="2" stroke-linecap="round" stroke-linejoin="round"/>
</g>
</svg>
