<svg width="20" height="20" viewBox="0 0 20 20" fill="none" xmlns="http://www.w3.org/2000/svg">
<g id="User/3" clip-path="url(#clip0_6567_1408)">
<path id="Vector" d="M15.8335 2.5C17.2712 2.88207 18.3335 4.22961 18.3335 5.83333C18.3335 7.43706 17.2712 8.78459 15.8335 9.16667M4.16683 2.5C2.72914 2.88207 1.66683 4.22961 1.66683 5.83333C1.66683 7.43706 2.72914 8.78459 4.16683 9.16667M18.4609 13.6464C18.9021 14.1853 19.1668 14.8742 19.1668 15.625C19.1668 16.2184 18.8911 16.7474 18.4609 17.091M1.53947 13.3333C1.09824 13.8722 0.833496 14.5611 0.833496 15.3118C0.833496 15.9053 1.10918 16.4343 1.53947 16.7779M13.3335 5.83333C13.3335 7.67428 11.8411 9.16667 10.0002 9.16667C8.15921 9.16667 6.66683 7.67428 6.66683 5.83333C6.66683 3.99238 8.15921 2.5 10.0002 2.5C11.8411 2.5 13.3335 3.99238 13.3335 5.83333ZM6.04183 17.5H13.9585C14.994 17.5 15.8335 16.6605 15.8335 15.625C15.8335 13.8991 14.4344 12.5 12.7085 12.5H7.29183C5.56594 12.5 4.16683 13.8991 4.16683 15.625C4.16683 16.6605 5.00629 17.5 6.04183 17.5Z" stroke="#303A47" stroke-width="2" stroke-linecap="round" stroke-linejoin="round"/>
</g>
<defs>
<clipPath id="clip0_6567_1408">
<rect width="20" height="20" fill="white"/>
</clipPath>
</defs>
</svg>
