<svg width="28" height="29" viewBox="0 0 28 29" fill="none" xmlns="http://www.w3.org/2000/svg">
<circle cx="14" cy="14.5" r="14" fill="#B06001"/>
<g clip-path="url(#clip0_7980_60632)">
<path d="M8.625 19.375L19.875 19.375L19.875 17.5L8.625 17.5L8.625 19.375ZM8.625 21.25C7.58984 21.25 6.75 20.4102 6.75 19.375L6.75 17.5C6.75 16.4648 7.58984 15.625 8.625 15.625L19.875 15.625C20.9102 15.625 21.75 16.4648 21.75 17.5L21.75 19.375C21.75 20.4102 20.9102 21.25 19.875 21.25L8.625 21.25ZM8.625 12.5L19.875 12.5L19.875 10.625L8.625 10.625L8.625 12.5ZM8.625 14.375C7.58984 14.375 6.75 13.5352 6.75 12.5L6.75 10.625C6.75 9.58984 7.58984 8.75 8.625 8.75L19.875 8.75C20.9102 8.75 21.75 9.58984 21.75 10.625L21.75 12.5C21.75 13.5352 20.9102 14.375 19.875 14.375L8.625 14.375Z" fill="white"/>
</g>
<defs>
<clipPath id="clip0_7980_60632">
<rect width="12.5" height="20" fill="white" transform="translate(4.25 21.25) rotate(-90)"/>
</clipPath>
</defs>
</svg>
