<svg width="28" height="29" viewBox="0 0 28 29" fill="none" xmlns="http://www.w3.org/2000/svg">
<circle cx="14" cy="14.5" r="14" fill="#015EB0"/>
<path d="M9.32836 11.1912C7.89484 11.1912 6.73274 10.0291 6.73274 8.59562C6.73274 7.1621 7.89484 6 9.32836 6C10.7619 6 11.924 7.1621 11.924 8.59562C11.924 10.0291 10.7619 11.1912 9.32836 11.1912ZM9.32836 11.1912C11.2597 11.1912 12.967 12.15 14.0005 13.6175C15.0339 12.15 16.7413 11.1912 18.6726 11.1912M9.32836 11.1912C7.39706 11.1912 5.68969 12.15 4.65625 13.6175M18.6726 11.1912C17.2391 11.1912 16.077 10.0291 16.077 8.59562C16.077 7.1621 17.2391 6 18.6726 6C20.1061 6 21.2682 7.1621 21.2682 8.59562C21.2682 10.0291 20.1061 11.1912 18.6726 11.1912ZM18.6726 11.1912C20.6039 11.1912 22.3113 12.15 23.3447 13.6175M9.32836 21.5737C7.89484 21.5737 6.73274 20.4116 6.73274 18.9781C6.73274 17.5446 7.89484 16.3825 9.32836 16.3825C10.7619 16.3825 11.924 17.5446 11.924 18.9781C11.924 20.4116 10.7619 21.5737 9.32836 21.5737ZM9.32836 21.5737C11.2597 21.5737 12.967 22.5325 14.0005 24C15.0339 22.5325 16.7413 21.5737 18.6726 21.5737M9.32836 21.5737C7.39706 21.5737 5.68969 22.5325 4.65625 24M18.6726 21.5737C17.2391 21.5737 16.077 20.4116 16.077 18.9781C16.077 17.5446 17.2391 16.3825 18.6726 16.3825C20.1061 16.3825 21.2682 17.5446 21.2682 18.9781C21.2682 20.4116 20.1061 21.5737 18.6726 21.5737ZM18.6726 21.5737C20.6039 21.5737 22.3113 22.5325 23.3447 24" stroke="white" stroke-width="2" stroke-linecap="round" stroke-linejoin="round"/>
</svg>
