<svg width="24" height="24" viewBox="0 0 24 24" fill="none" xmlns="http://www.w3.org/2000/svg">
<g id="Server">
<path id="Vector" d="M17 12H7M17 12C17.4644 12 17.6966 12 17.8919 12.022C19.5145 12.2048 20.7952 13.4855 20.978 15.1081C21 15.3034 21 15.5356 21 16C21 16.4644 21 16.6966 20.978 16.8919C20.7952 18.5145 19.5145 19.7952 17.8919 19.978C17.6966 20 17.4644 20 17 20H7C6.53563 20 6.30344 20 6.10812 19.978C4.48545 19.7952 3.20484 18.5145 3.02201 16.8919C3 16.6966 3 16.4644 3 16C3 15.5356 3 15.3034 3.02201 15.1081C3.20484 13.4855 4.48545 12.2048 6.10812 12.022C6.30344 12 6.53563 12 7 12M17 12C17.4644 12 17.6966 12 17.8919 11.978C19.5145 11.7952 20.7952 10.5145 20.978 8.89188C21 8.69656 21 8.46437 21 8C21 7.53563 21 7.30344 20.978 7.10812C20.7952 5.48545 19.5145 4.20484 17.8919 4.02201C17.6966 4 17.4644 4 17 4H7C6.53563 4 6.30344 4 6.10812 4.02201C4.48545 4.20484 3.20484 5.48545 3.02201 7.10812C3 7.30344 3 7.53563 3 8C3 8.46437 3 8.69656 3.02201 8.89188C3.20484 10.5145 4.48545 11.7952 6.10812 11.978C6.30344 12 6.53563 12 7 12M17.001 8H17M17.001 16H17M13.001 8H13M13.001 16H13" stroke="white" stroke-width="2" stroke-linecap="round" stroke-linejoin="round"/>
</g>
</svg>
