<?xml version="1.0" encoding="UTF-8"?>
<svg xmlns="http://www.w3.org/2000/svg" xmlns:xlink="http://www.w3.org/1999/xlink" width="16px" height="16px" viewBox="0 0 16 16" version="1.1">
<g id="surface1">
<path style=" stroke:none;fill-rule:nonzero;fill:rgb(100%,78.431373%,21.960784%);fill-opacity:1;" d="M 14.921875 8.582031 C 14.921875 12.679688 11.597656 15.988281 7.511719 15.988281 C 3.425781 15.988281 0.09375 12.679688 0.09375 8.582031 C 0.09375 4.484375 3.414062 1.171875 7.503906 1.171875 C 11.589844 1.171875 14.910156 4.496094 14.910156 8.582031 Z M 14.921875 8.582031 "/>
<path style=" stroke:none;fill-rule:nonzero;fill:rgb(100%,78.431373%,21.960784%);fill-opacity:1;" d="M 6.453125 1.601562 C 6.453125 1.601562 5.21875 1.71875 4.988281 1.132812 C 4.757812 0.535156 6.316406 1.015625 6.316406 1.015625 C 6.316406 1.015625 4.839844 0.367188 5.238281 0.09375 C 5.648438 -0.179688 6.746094 0.628906 6.746094 0.628906 C 6.757812 0.628906 6.222656 0.03125 6.601562 0 C 6.976562 -0.03125 7.867188 1.371094 7.398438 1.601562 C 6.925781 1.832031 6.453125 1.601562 6.453125 1.601562 Z M 6.453125 1.601562 "/>
<path style=" stroke:none;fill-rule:nonzero;fill:rgb(100%,100%,100%);fill-opacity:1;" d="M 12.511719 10.164062 C 12.425781 10.121094 12.3125 10.132812 12.21875 10.175781 C 11.148438 10.75 9.921875 11.128906 8.5625 11.273438 C 8.203125 11.316406 7.847656 11.335938 7.503906 11.347656 C 7.15625 11.335938 6.800781 11.316406 6.445312 11.273438 C 5.082031 11.117188 3.84375 10.75 2.789062 10.175781 C 2.691406 10.121094 2.589844 10.121094 2.492188 10.164062 C 2.410156 10.207031 2.359375 10.289062 2.367188 10.375 C 2.367188 10.476562 2.621094 12.949219 4.871094 13.800781 C 5.65625 14.09375 6.382812 14.28125 7.082031 14.367188 C 7.207031 14.375 7.804688 14.375 7.933594 14.367188 C 8.632812 14.28125 9.355469 14.101562 10.144531 13.800781 C 12.386719 12.949219 12.636719 10.476562 12.648438 10.375 C 12.648438 10.289062 12.605469 10.207031 12.519531 10.164062 Z M 12.511719 10.164062 "/>
<path style=" stroke:none;fill-rule:nonzero;fill:rgb(100%,65.098039%,21.176471%);fill-opacity:1;" d="M 1.992188 9.648438 C 1.992188 9.648438 1.96875 9.261719 1.550781 8.875 C 1.132812 8.488281 0.480469 8.75 0.578125 9.304688 C 0.742188 10.269531 2 10.949219 1.992188 9.648438 Z M 1.992188 9.648438 "/>
<path style=" stroke:none;fill-rule:nonzero;fill:rgb(100%,65.098039%,21.176471%);fill-opacity:1;" d="M 13.015625 9.648438 C 13.015625 9.648438 13.035156 9.261719 13.453125 8.875 C 13.871094 8.488281 14.523438 8.75 14.429688 9.304688 C 14.261719 10.269531 13.003906 10.949219 13.015625 9.648438 Z M 13.015625 9.648438 "/>
<path style=" stroke:none;fill-rule:nonzero;fill:rgb(16.078431%,20%,15.294118%);fill-opacity:1;" d="M 4.601562 9.515625 C 4.601562 9.515625 5.449219 9.722656 5.617188 8.078125 C 5.785156 6.433594 4.832031 5.53125 4.359375 6.359375 C 3.886719 7.1875 3.8125 9.210938 4.601562 9.503906 Z M 4.601562 9.515625 "/>
<path style="fill:none;stroke-width:0.45;stroke-linecap:round;stroke-linejoin:round;stroke:rgb(16.078431%,20%,15.294118%);stroke-opacity:1;stroke-miterlimit:4;" d="M 4.968933 4.701042 C 4.968933 4.701042 4.230784 4.10083 3.541099 4.96946 " transform="matrix(1.047806,0,0,1.047806,0.0943026,0)"/>
<path style=" stroke:none;fill-rule:nonzero;fill:rgb(16.078431%,20%,15.294118%);fill-opacity:1;" d="M 10.445312 9.515625 C 10.445312 9.515625 9.609375 9.722656 9.417969 8.089844 C 9.242188 6.445312 10.195312 5.542969 10.667969 6.359375 C 11.136719 7.1875 11.234375 9.199219 10.445312 9.515625 Z M 10.445312 9.515625 "/>
<path style="fill:none;stroke-width:0.45;stroke-linecap:round;stroke-linejoin:round;stroke:rgb(16.078431%,20%,15.294118%);stroke-opacity:1;stroke-miterlimit:4;" d="M 9.181604 4.708499 C 9.181604 4.708499 9.919753 4.10083 10.609438 4.96946 " transform="matrix(1.047806,0,0,1.047806,0.0943026,0)"/>
<path style=" stroke:none;fill-rule:nonzero;fill:rgb(18.039216%,51.764706%,0%);fill-opacity:1;" d="M 15.90625 3.257812 C 15.90625 4.59375 14.820312 5.679688 13.484375 5.679688 C 12.148438 5.679688 11.066406 4.59375 11.066406 3.257812 C 11.066406 1.921875 12.148438 0.839844 13.484375 0.839844 C 14.820312 0.839844 15.90625 1.921875 15.90625 3.257812 Z M 15.90625 3.257812 "/>
<path style=" stroke:none;fill-rule:nonzero;fill:rgb(100%,100%,100%);fill-opacity:1;" d="M 12.453125 4.191406 L 14.886719 1.929688 L 15.246094 2.3125 L 12.8125 4.574219 Z M 12.453125 4.191406 "/>
<path style=" stroke:none;fill-rule:nonzero;fill:rgb(100%,100%,100%);fill-opacity:1;" d="M 11.714844 3.410156 L 12.097656 3.054688 L 13.054688 4.082031 L 12.671875 4.4375 Z M 11.714844 3.410156 "/>
</g>
</svg>
