<svg width="18" height="19" viewBox="0 0 18 19" fill="none" xmlns="http://www.w3.org/2000/svg">
<path d="M9.35437 9.87329C8.63868 10.5865 7.8036 11.18 6.88171 11.6212L5.74225 10.4817C5.15997 10.7104 4.54215 10.8684 3.89938 10.9451C3.40582 11.004 3.00147 11.4012 3.00147 11.8983V11.8983C3.00147 13.8865 4.64884 15.5524 6.54846 14.9654C9.31777 14.1098 11.6588 12.2786 13.1699 9.87329" stroke="#015EB0" stroke-linecap="round" stroke-linejoin="round"/>
<path d="M9.35632 9.87671C10.0794 9.15614 10.6806 8.31335 11.1263 7.38196L9.98684 6.2425C10.2155 5.66022 10.3735 5.0424 10.4502 4.39962C10.5091 3.90606 10.9064 3.50171 11.4034 3.50171V3.50171C13.3916 3.50171 15.0575 5.14887 14.4706 7.0485C14.1599 8.05413 13.7206 9.00327 13.1719 9.87671" stroke="#C61764" stroke-linecap="round" stroke-linejoin="round"/>
</svg>
