<?xml version="1.0" encoding="UTF-8"?>
<svg xmlns="http://www.w3.org/2000/svg" xmlns:xlink="http://www.w3.org/1999/xlink" width="16px" height="16px" viewBox="0 0 16 17" version="1.1">
<g id="surface1">
<path style=" stroke:none;fill-rule:nonzero;fill:rgb(100%,78.431373%,21.960784%);fill-opacity:1;" d="M 8.066406 2.015625 C 8.128906 1.675781 8.121094 1.34375 7.996094 1.242188 C 7.703125 1.003906 7.664062 1.789062 7.664062 1.789062 C 7.664062 1.789062 7.445312 0.453125 6.964844 0.359375 C 6.488281 0.277344 7.089844 1.757812 7.089844 1.757812 C 7.089844 1.757812 6.320312 0.339844 6.070312 0.917969 C 5.90625 1.304688 6.269531 1.757812 6.527344 2.027344 C 2.847656 2.441406 0 5.546875 0 9.308594 C 0 13.355469 3.296875 16.628906 7.351562 16.628906 C 11.40625 16.628906 14.699219 13.347656 14.699219 9.308594 C 14.699219 5.496094 11.777344 2.371094 8.058594 2.015625 Z M 8.066406 2.015625 "/>
<path style=" stroke:none;fill-rule:nonzero;fill:rgb(100%,65.098039%,21.176471%);fill-opacity:1;" d="M 1.882812 10.363281 C 1.882812 10.363281 1.859375 9.980469 1.445312 9.597656 C 1.027344 9.214844 0.382812 9.472656 0.476562 10.023438 C 0.644531 10.976562 1.890625 11.648438 1.882812 10.363281 Z M 1.882812 10.363281 "/>
<path style=" stroke:none;fill-rule:nonzero;fill:rgb(100%,65.098039%,21.176471%);fill-opacity:1;" d="M 12.820312 10.363281 C 12.820312 10.363281 12.839844 9.980469 13.253906 9.597656 C 13.671875 9.214844 14.316406 9.472656 14.222656 10.023438 C 14.054688 10.976562 12.808594 11.648438 12.820312 10.363281 Z M 12.820312 10.363281 "/>
<path style=" stroke:none;fill-rule:nonzero;fill:rgb(20%,17.647059%,15.294118%);fill-opacity:1;" d="M 4.46875 10.230469 C 4.46875 10.230469 5.3125 10.4375 5.480469 8.8125 C 5.644531 7.183594 4.699219 6.292969 4.230469 7.113281 C 3.761719 7.929688 3.691406 9.929688 4.46875 10.21875 Z M 4.46875 10.230469 "/>
<path style="fill:none;stroke-width:0.45;stroke-linecap:round;stroke-linejoin:round;stroke:rgb(20%,17.647059%,15.294118%);stroke-opacity:1;stroke-miterlimit:4;" d="M 4.97094 5.121485 C 4.97094 5.121485 4.230747 4.521728 3.539399 5.389301 " transform="matrix(1.039636,0,0,1.035575,0,0.36038)"/>
<path style=" stroke:none;fill-rule:nonzero;fill:rgb(20%,17.647059%,15.294118%);fill-opacity:1;" d="M 10.273438 10.230469 C 10.273438 10.230469 9.441406 10.4375 9.253906 8.820312 C 9.074219 7.195312 10.023438 6.304688 10.488281 7.113281 C 10.957031 7.929688 11.050781 9.917969 10.273438 10.230469 Z M 10.273438 10.230469 "/>
<path style="fill:none;stroke-width:0.45;stroke-linecap:round;stroke-linejoin:round;stroke:rgb(20%,17.647059%,15.294118%);stroke-opacity:1;stroke-miterlimit:4;" d="M 9.179143 5.129029 C 9.179143 5.129029 9.919336 4.521728 10.610684 5.389301 " transform="matrix(1.039636,0,0,1.035575,0,0.36038)"/>
<path style="fill:none;stroke-width:0.45;stroke-linecap:round;stroke-linejoin:round;stroke:rgb(20%,17.647059%,15.294118%);stroke-opacity:1;stroke-miterlimit:4;" d="M 12.121128 11.318978 C 12.121128 11.318978 11.38845 11.371787 11.489897 10.228853 " transform="matrix(1.039636,0,0,1.035575,0,0.36038)"/>
<path style="fill:none;stroke-width:0.45;stroke-linecap:round;stroke-linejoin:round;stroke:rgb(20%,17.647059%,15.294118%);stroke-opacity:1;stroke-miterlimit:4;" d="M 2.028955 11.318978 C 2.028955 11.318978 2.761633 11.371787 2.660186 10.228853 " transform="matrix(1.039636,0,0,1.035575,0,0.36038)"/>
<path style="fill:none;stroke-width:0.45;stroke-linecap:round;stroke-linejoin:round;stroke:rgb(20%,17.647059%,15.294118%);stroke-opacity:1;stroke-miterlimit:4;" d="M 11.471111 11.051162 C 11.471111 11.051162 9.641294 12.548669 6.999895 12.548669 C 4.358496 12.548669 2.521165 11.051162 2.521165 11.051162 " transform="matrix(1.039636,0,0,1.035575,0,0.36038)"/>
<path style=" stroke:none;fill-rule:nonzero;fill:rgb(94.117647%,33.333333%,12.156863%);fill-opacity:1;" d="M 12.371094 6.46875 C 12.371094 6.46875 15.417969 6.148438 15.9375 4.359375 C 16.332031 2.992188 14.554688 2.152344 13.785156 3.1875 C 13.785156 3.1875 13.546875 1.820312 12.527344 1.820312 C 10.65625 1.820312 10.53125 4.597656 12.371094 6.46875 Z M 12.371094 6.46875 "/>
</g>
</svg>
