<?xml version="1.0" encoding="UTF-8"?>
<svg xmlns="http://www.w3.org/2000/svg" xmlns:xlink="http://www.w3.org/1999/xlink" width="16px" height="16px" viewBox="0 0 16 18" version="1.1">
<defs>
<linearGradient id="linear0" gradientUnits="userSpaceOnUse" x1="7.07" y1="15.87" x2="7.07" y2="1.72" gradientTransform="matrix(1.130742,0,0,1.113074,0,0.167756)">
<stop offset="0.47" style="stop-color:rgb(100%,78.431373%,21.960784%);stop-opacity:0.929412;"/>
<stop offset="1" style="stop-color:rgb(87.843137%,43.921569%,0%);stop-opacity:1;"/>
</linearGradient>
</defs>
<g id="surface1">
<path style=" stroke:none;fill-rule:nonzero;fill:url(#linear0);" d="M 16 9.960938 C 16 14.316406 12.414062 17.832031 8.003906 17.832031 C 3.597656 17.832031 0 14.316406 0 9.960938 C 0 5.609375 3.585938 2.082031 7.996094 2.082031 C 12.402344 2.082031 15.988281 5.609375 15.988281 9.953125 Z M 16 9.960938 "/>
<path style=" stroke:none;fill-rule:nonzero;fill:rgb(100%,69.803922%,18.039216%);fill-opacity:1;" d="M 10.085938 9.664062 C 10.085938 9.664062 8.402344 8.359375 5.609375 9.886719 C 5.609375 9.886719 6.378906 9.441406 6.378906 8.328125 C 6.378906 6.847656 5.246094 6.445312 5.246094 6.445312 L 6.605469 5.84375 C 6.605469 5.84375 7.269531 5.277344 7.972656 5.988281 C 7.972656 5.988281 8.730469 5.34375 9.316406 5.84375 C 9.316406 5.84375 10.085938 6.457031 10.675781 6.445312 C 10.675781 6.445312 9.113281 7.179688 10.085938 9.664062 Z M 10.085938 9.664062 "/>
<path style=" stroke:none;fill-rule:nonzero;fill:rgb(100%,65.098039%,21.176471%);fill-opacity:1;" d="M 13.488281 9.953125 C 13.488281 9.953125 14.789062 10.375 14.765625 9.683594 C 14.746094 8.996094 12.382812 8.917969 13.488281 9.953125 Z M 13.488281 9.953125 "/>
<path style="fill:none;stroke-width:0.45;stroke-linecap:round;stroke-linejoin:round;stroke:rgb(20%,17.647059%,15.294118%);stroke-opacity:1;stroke-miterlimit:4;" d="M 9.869763 10.149447 C 9.869763 10.149447 4.570422 9.240506 4.459875 12.030499 " transform="matrix(1.130742,0,0,1.113074,0,0.167756)"/>
<path style=" stroke:none;fill-rule:nonzero;fill:rgb(100%,69.803922%,18.039216%);fill-opacity:1;" d="M 9.488281 15.90625 C 10.449219 15.460938 11.691406 14.761719 11.105469 13.492188 C 10.515625 12.234375 6.195312 13.179688 5.867188 15.027344 C 5.539062 16.875 8.265625 16.472656 9.488281 15.90625 Z M 9.488281 15.90625 "/>
<path style=" stroke:none;fill-rule:nonzero;fill:rgb(100%,65.098039%,21.176471%);fill-opacity:1;" d="M 2.441406 10.117188 C 2.441406 10.117188 3.8125 9.984375 3.503906 9.363281 C 3.199219 8.738281 1.007812 9.605469 2.441406 10.117188 Z M 2.441406 10.117188 "/>
<path style="fill-rule:nonzero;fill:rgb(20%,17.647059%,15.294118%);fill-opacity:1;stroke-width:0.08;stroke-linecap:butt;stroke-linejoin:miter;stroke:rgb(18.039216%,18.039216%,18.039216%);stroke-opacity:1;stroke-miterlimit:10;" d="M 4.960791 8.110471 C 4.960791 8.110471 5.769165 8.310508 5.931531 6.738286 C 6.090442 5.169573 5.17843 4.309764 4.729333 5.099385 C 4.280237 5.889005 4.211145 7.819189 4.960791 8.099943 Z M 4.960791 8.110471 " transform="matrix(1.130742,0,0,1.113074,0,0.167756)"/>
<path style="fill:none;stroke-width:0.45;stroke-linecap:round;stroke-linejoin:round;stroke:rgb(18.039216%,18.039216%,18.039216%);stroke-opacity:1;stroke-miterlimit:4;" d="M 5.088611 3.330635 C 5.088611 3.330635 4.131689 3.29905 4.110962 4.411538 " transform="matrix(1.130742,0,0,1.113074,0,0.167756)"/>
<path style="fill-rule:nonzero;fill:rgb(20%,17.647059%,15.294118%);fill-opacity:1;stroke-width:0.08;stroke-linecap:butt;stroke-linejoin:miter;stroke:rgb(18.039216%,18.039216%,18.039216%);stroke-opacity:1;stroke-miterlimit:10;" d="M 9.828308 8.191188 C 9.828308 8.191188 9.030298 8.391225 8.850659 6.829531 C 8.681384 5.260818 9.589941 4.401009 10.039038 5.180102 C 10.491589 5.969722 10.581409 7.889377 9.828308 8.191188 Z M 9.828308 8.191188 " transform="matrix(1.130742,0,0,1.113074,0,0.167756)"/>
<path style="fill:none;stroke-width:0.45;stroke-linecap:round;stroke-linejoin:round;stroke:rgb(18.039216%,18.039216%,18.039216%);stroke-opacity:1;stroke-miterlimit:4;" d="M 9.209937 3.488559 C 9.209937 3.488559 10.139221 3.270975 10.370679 4.358896 " transform="matrix(1.130742,0,0,1.113074,0,0.167756)"/>
<path style=" stroke:none;fill-rule:nonzero;fill:rgb(21.960784%,76.862745%,68.235294%);fill-opacity:1;" d="M 12.675781 2.738281 L 11.453125 2.59375 C 11.464844 2.070312 11.648438 1.648438 11.984375 1.324219 C 12.324219 1.003906 12.824219 0.835938 13.457031 0.835938 C 14.121094 0.835938 14.609375 0.980469 14.914062 1.28125 C 15.21875 1.582031 15.378906 1.925781 15.378906 2.316406 C 15.378906 2.628906 15.308594 2.882812 15.164062 3.085938 C 15.015625 3.296875 14.765625 3.519531 14.429688 3.773438 C 14.179688 3.953125 14.03125 4.085938 13.988281 4.175781 C 13.929688 4.265625 13.90625 4.429688 13.90625 4.675781 L 12.765625 4.675781 L 12.765625 4.496094 C 12.765625 4.175781 12.789062 3.941406 12.832031 3.808594 C 12.878906 3.664062 13.039062 3.484375 13.332031 3.25 C 13.570312 3.0625 13.738281 2.90625 13.828125 2.761719 C 13.917969 2.628906 13.964844 2.460938 13.964844 2.269531 C 13.964844 2.09375 13.90625 1.972656 13.796875 1.882812 C 13.683594 1.792969 13.558594 1.757812 13.398438 1.757812 C 12.9375 1.757812 12.710938 2.082031 12.699219 2.714844 Z M 12.675781 5.078125 L 13.953125 5.078125 L 13.953125 6.199219 L 12.675781 6.199219 Z M 12.675781 5.078125 "/>
<path style=" stroke:none;fill-rule:nonzero;fill:rgb(88.627451%,45.882353%,1.176471%);fill-opacity:1;" d="M 9.238281 2.195312 C 9.328125 1.828125 9.328125 1.480469 9.203125 1.359375 C 8.875 1.035156 8.742188 1.992188 8.742188 1.992188 C 8.742188 1.992188 8.617188 0.335938 8.027344 0.179688 C 7.453125 0.0234375 8.027344 1.894531 8.027344 1.894531 C 8.027344 1.894531 7.238281 0.078125 6.863281 0.757812 C 6.625 1.191406 7 1.78125 7.292969 2.148438 C 3.878906 2.472656 12.722656 2.695312 9.238281 2.195312 Z M 9.238281 2.195312 "/>
</g>
</svg>
