<?xml version="1.0" encoding="UTF-8"?>
<svg xmlns="http://www.w3.org/2000/svg" xmlns:xlink="http://www.w3.org/1999/xlink" width="16px" height="16px" viewBox="0 0 16 17" version="1.1">
<defs>
<filter id="alpha" filterUnits="objectBoundingBox" x="0%" y="0%" width="100%" height="100%">
  <feColorMatrix type="matrix" in="SourceGraphic" values="0 0 0 0 1 0 0 0 0 1 0 0 0 0 1 0 0 0 1 0"/>
</filter>
<mask id="mask0">
  <g filter="url(#alpha)">
<rect x="0" y="0" width="16" height="17" style="fill:rgb(0%,0%,0%);fill-opacity:0.819608;stroke:none;"/>
  </g>
</mask>
<clipPath id="clip1">
  <rect x="0" y="0" width="16" height="17"/>
</clipPath>
<g id="surface5" clip-path="url(#clip1)">
<path style=" stroke:none;fill-rule:nonzero;fill:rgb(20%,17.647059%,15.294118%);fill-opacity:1;" d="M 5.625 8.351562 C 5.625 8.351562 6.535156 8.574219 6.714844 6.824219 C 6.894531 5.078125 5.871094 4.121094 5.367188 5 C 4.863281 5.878906 4.785156 8.027344 5.625 8.339844 Z M 5.625 8.351562 "/>
</g>
</defs>
<g id="surface1">
<path style=" stroke:none;fill-rule:nonzero;fill:rgb(100%,78.431373%,21.960784%);fill-opacity:1;" d="M 15.941406 9.117188 C 15.941406 13.472656 12.382812 16.988281 8.003906 16.988281 C 3.628906 16.988281 0.0585938 13.472656 0.0585938 9.117188 C 0.0585938 4.765625 3.617188 1.246094 7.996094 1.246094 C 12.371094 1.246094 15.929688 4.777344 15.929688 9.117188 Z M 15.941406 9.117188 "/>
<path style=" stroke:none;fill-rule:nonzero;fill:rgb(100%,78.431373%,21.960784%);fill-opacity:1;" d="M 8.703125 1.703125 C 8.703125 1.703125 10.027344 1.824219 10.273438 1.203125 C 10.519531 0.566406 8.847656 1.078125 8.847656 1.078125 C 8.847656 1.078125 10.429688 0.390625 10.003906 0.101562 C 9.566406 -0.1875 8.386719 0.667969 8.386719 0.667969 C 8.386719 0.667969 8.949219 0.0351562 8.542969 0 C 8.140625 -0.0351562 7.1875 1.457031 7.691406 1.703125 C 8.195312 1.949219 8.703125 1.703125 8.703125 1.703125 Z M 8.703125 1.703125 "/>
<path style=" stroke:none;fill-rule:nonzero;fill:rgb(100%,65.098039%,21.176471%);fill-opacity:1;" d="M 13.449219 10.976562 C 13.449219 10.976562 14.742188 11.398438 14.71875 10.710938 C 14.695312 10.019531 12.351562 9.941406 13.449219 10.976562 Z M 13.449219 10.976562 "/>
<path style="fill:none;stroke-width:0.45;stroke-linecap:round;stroke-linejoin:round;stroke:rgb(20%,17.647059%,15.294118%);stroke-opacity:1;stroke-miterlimit:4;" d="M 9.869032 10.740227 L 4.778535 10.708649 " transform="matrix(1.122649,0,0,1.113294,0.0572551,0)"/>
<path style=" stroke:none;fill-rule:nonzero;fill:rgb(100%,69.803922%,18.039216%);fill-opacity:1;" d="M 8.410156 16.367188 C 9.464844 16.296875 10.867188 16.097656 10.800781 14.71875 C 10.734375 13.324219 6.398438 12.636719 5.402344 14.226562 C 4.414062 15.820312 7.074219 16.453125 8.398438 16.367188 Z M 8.410156 16.367188 "/>
<path style=" stroke:none;fill-rule:nonzero;fill:rgb(100%,65.098039%,21.176471%);fill-opacity:1;" d="M 2.480469 11.144531 C 2.480469 11.144531 3.839844 11.011719 3.539062 10.386719 C 3.234375 9.761719 1.054688 10.632812 2.480469 11.144531 Z M 2.480469 11.144531 "/>
<path style=" stroke:none;fill-rule:nonzero;fill:rgb(21.960784%,76.862745%,68.235294%);fill-opacity:1;" d="M 7.410156 8.605469 C 6.320312 9.453125 4.761719 9.261719 3.90625 8.183594 C 3.054688 7.101562 3.246094 5.554688 4.335938 4.710938 C 5.421875 3.863281 6.984375 4.050781 7.835938 5.132812 C 8.691406 6.210938 8.5 7.757812 7.410156 8.605469 Z M 7.410156 8.605469 "/>
<path style=" stroke:none;fill-rule:nonzero;fill:rgb(21.960784%,76.862745%,68.235294%);fill-opacity:1;" d="M 0.492188 10.394531 L 4.203125 7.507812 L 4.648438 8.070312 L 0.9375 10.953125 Z M 0.492188 10.394531 "/>
<use xlink:href="#surface5" mask="url(#mask0)"/>
<path style="fill:none;stroke-width:0.45;stroke-linecap:round;stroke-linejoin:round;stroke:rgb(20%,17.647059%,15.294118%);stroke-opacity:1;stroke-miterlimit:4;" d="M 5.631011 3.119262 C 5.631011 3.119262 4.889879 2.519269 4.200939 3.389435 " transform="matrix(1.122649,0,0,1.113294,0.0572551,0)"/>
<path style=" stroke:none;fill-rule:nonzero;fill:rgb(20%,17.647059%,15.294118%);fill-opacity:1;" d="M 11.09375 8.449219 C 11.09375 8.449219 10.195312 8.671875 9.992188 6.9375 C 9.800781 5.1875 10.824219 4.230469 11.328125 5.097656 C 11.832031 5.976562 11.933594 8.117188 11.09375 8.449219 Z M 11.09375 8.449219 "/>
<path style="fill:none;stroke-width:0.45;stroke-linecap:round;stroke-linejoin:round;stroke:rgb(20%,17.647059%,15.294118%);stroke-opacity:1;stroke-miterlimit:4;" d="M 9.120941 3.210489 C 9.120941 3.210489 9.858594 2.59997 10.551013 3.470136 " transform="matrix(1.122649,0,0,1.113294,0.0572551,0)"/>
</g>
</svg>
