<?xml version="1.0" encoding="UTF-8"?>
<svg xmlns="http://www.w3.org/2000/svg" xmlns:xlink="http://www.w3.org/1999/xlink" width="16px" height="16px" viewBox="0 0 16 18" version="1.1">
<g id="surface1">
<path style=" stroke:none;fill-rule:nonzero;fill:rgb(100%,78.431373%,21.960784%);fill-opacity:1;" d="M 16 10.035156 C 16 14.386719 12.414062 17.90625 8.003906 17.90625 C 3.597656 17.90625 0 14.375 0 10.035156 C 0 5.695312 3.585938 2.15625 7.996094 2.15625 C 12.402344 2.15625 15.988281 5.683594 15.988281 10.023438 Z M 16 10.035156 "/>
<path style=" stroke:none;fill-rule:nonzero;fill:rgb(100%,78.431373%,21.960784%);fill-opacity:1;" d="M 7.710938 2.175781 C 7.710938 2.175781 8.097656 0.183594 9.136719 0.09375 C 10.175781 0.0078125 8.707031 2.222656 8.707031 2.222656 C 8.707031 2.222656 10.414062 0.207031 10.664062 0.964844 C 10.910156 1.71875 9.113281 3.078125 9.113281 3.078125 C 9.113281 3.078125 10.300781 2.53125 10.175781 3.121094 C 10.050781 3.722656 7.417969 4.480469 7.257812 3.636719 C 7.113281 2.789062 7.710938 2.164062 7.710938 2.164062 Z M 7.710938 2.175781 "/>
<path style="fill:none;stroke-width:0.45;stroke-linecap:round;stroke-linejoin:round;stroke:rgb(20%,17.647059%,15.294118%);stroke-opacity:1;stroke-miterlimit:4;" d="M 5.610254 3.999256 C 5.610254 3.999256 4.870972 3.399144 4.180054 4.269482 " transform="matrix(1.130742,0,0,1.113074,0,0.0954064)"/>
<path style="fill:none;stroke-width:0.45;stroke-linecap:round;stroke-linejoin:round;stroke:rgb(20%,17.647059%,15.294118%);stroke-opacity:1;stroke-miterlimit:4;" d="M 8.781567 4.009784 C 8.781567 4.009784 9.52085 3.399144 10.208313 4.269482 " transform="matrix(1.130742,0,0,1.113074,0,0.0954064)"/>
<path style=" stroke:none;fill-rule:nonzero;fill:rgb(20%,17.647059%,15.294118%);fill-opacity:1;" d="M 9.351562 13.03125 C 9.351562 13.03125 9.441406 14.621094 8.3125 14.808594 C 7.167969 15.011719 7.203125 13.484375 7.203125 13.484375 C 7.203125 13.484375 8.0625 13.484375 8.21875 12.585938 C 8.21875 12.585938 8.164062 13.285156 9.339844 13.03125 Z M 9.351562 13.03125 "/>
<path style="fill:none;stroke-width:0.45;stroke-linecap:round;stroke-linejoin:round;stroke:rgb(20%,17.647059%,15.294118%);stroke-opacity:1;stroke-miterlimit:4;" d="M 6.200989 11.221652 C 6.190625 11.130407 6.121533 12.011272 6.60863 11.930556 C 7.078455 11.849839 7.33064 11.021615 7.33064 11.021615 C 7.33064 11.021615 7.479187 11.77965 7.928284 11.698934 C 8.370471 11.621726 8.418835 10.919841 8.418835 10.919841 " transform="matrix(1.130742,0,0,1.113074,0,0.0954064)"/>
<path style=" stroke:none;fill-rule:nonzero;fill:rgb(100%,65.098039%,21.176471%);fill-opacity:1;" d="M 4.691406 11.738281 C 4.691406 12.671875 3.933594 13.429688 2.996094 13.429688 C 2.058594 13.429688 1.300781 12.671875 1.300781 11.738281 C 1.300781 10.804688 2.058594 10.046875 2.996094 10.046875 C 3.933594 10.046875 4.691406 10.804688 4.691406 11.738281 Z M 4.691406 11.738281 "/>
<path style=" stroke:none;fill-rule:nonzero;fill:rgb(100%,65.098039%,21.176471%);fill-opacity:1;" d="M 14.699219 11.738281 C 14.699219 12.671875 13.941406 13.429688 13.003906 13.429688 C 12.066406 13.429688 11.308594 12.671875 11.308594 11.738281 C 11.308594 10.804688 12.066406 10.046875 13.003906 10.046875 C 13.941406 10.046875 14.699219 10.804688 14.699219 11.738281 Z M 14.699219 11.738281 "/>
<path style=" stroke:none;fill-rule:nonzero;fill:rgb(100%,69.803922%,18.039216%);fill-opacity:1;" d="M 8.640625 16.503906 C 8.640625 16.503906 9.148438 16.203125 8.75 15.757812 C 8.367188 15.320312 7.496094 15.890625 7.632812 16.125 C 7.78125 16.355469 8.085938 16.824219 8.628906 16.492188 Z M 8.640625 16.503906 "/>
<path style=" stroke:none;fill-rule:nonzero;fill:rgb(20%,17.647059%,15.294118%);fill-opacity:1;" d="M 5.347656 8.699219 C 5.347656 8.699219 6.265625 8.890625 6.445312 7.410156 C 6.625 5.929688 5.597656 5.125 5.089844 5.859375 C 4.578125 6.605469 4.5 8.421875 5.347656 8.699219 Z M 5.347656 8.699219 "/>
<path style=" stroke:none;fill-rule:nonzero;fill:rgb(20%,17.647059%,15.294118%);fill-opacity:1;" d="M 10.84375 8.777344 C 10.84375 8.777344 9.9375 8.964844 9.734375 7.496094 C 9.542969 6.015625 10.574219 5.203125 11.082031 5.949219 C 11.589844 6.695312 11.691406 8.511719 10.84375 8.789062 Z M 10.84375 8.777344 "/>
</g>
</svg>
