<svg xmlns="http://www.w3.org/2000/svg" width="684" height="35" viewBox="0 0 684 35" version="1.1"><path d="" stroke="none" fill="#d0cccc" fill-rule="evenodd"/><path d="M 102 8.417 C 102 14.172, 101.605 17.018, 100.750 17.417 C 99.750 17.883, 99.750 18.117, 100.750 18.583 C 101.573 18.968, 102 21.528, 102 26.083 C 102 30.028, 102.430 33, 103 33 C 103.626 33, 104 26.833, 104 16.500 C 104 6.167, 103.626 0, 103 0 C 102.413 0, 102 3.472, 102 8.417 M 512 8.500 C 512 16.333, 511.843 17, 510 17 C 508.900 17, 508 17.450, 508 18 C 508 18.550, 508.900 19, 510 19 C 511.810 19, 512 19.667, 512 26 C 512 30, 512.429 33, 513 33 C 513.571 33, 514 30, 514 26 C 514 22, 514.429 19, 515 19 C 515.550 19, 516 21.025, 516 23.500 C 516 25.975, 516.450 28, 517 28 C 517.603 28, 518 23.833, 518 17.500 C 518 11.167, 517.603 7, 517 7 C 516.450 7, 516 9.250, 516 12 C 516 14.750, 515.550 17, 515 17 C 514.412 17, 514 13.500, 514 8.500 C 514 3.500, 513.588 0, 513 0 C 512.412 0, 512 3.500, 512 8.500 M 72 10 C 72 14, 71.571 17, 71 17 C 70.450 17, 70 15.200, 70 13 C 70 10.800, 69.550 9, 69 9 C 68.450 9, 68 10.800, 68 13 C 68 15.200, 67.550 17, 67 17 C 66.450 17, 66 15.875, 66 14.500 C 66 13.125, 65.550 12, 65 12 C 64.450 12, 64 13.830, 64 16.067 C 64 19.680, 64.224 20.064, 66 19.500 C 67.703 18.959, 68 19.320, 68 21.933 C 68 23.620, 68.450 25, 69 25 C 69.550 25, 70 23.650, 70 22 C 70 20.350, 70.450 19, 71 19 C 71.564 19, 72 21.833, 72 25.500 C 72 29.167, 72.436 32, 73 32 C 73.621 32, 74 26.500, 74 17.500 C 74 8.500, 73.621 3, 73 3 C 72.429 3, 72 6, 72 10 M 482 10 C 482 14, 481.571 17, 481 17 C 480.450 17, 480 15.200, 480 13 C 480 10.800, 479.550 9, 479 9 C 478.417 9, 478 12.333, 478 17 C 478 21.667, 478.417 25, 479 25 C 479.550 25, 480 23.650, 480 22 C 480 20.350, 480.450 19, 481 19 C 481.564 19, 482 21.833, 482 25.500 C 482 29.167, 482.436 32, 483 32 C 483.564 32, 484 29.167, 484 25.500 C 484 19.667, 484.205 19, 486 19 C 487.100 19, 488 18.550, 488 18 C 488 17.450, 487.100 17, 486 17 C 484.190 17, 484 16.333, 484 10 C 484 6, 483.571 3, 483 3 C 482.429 3, 482 6, 482 10 M 151 11 C 151 16.333, 150.778 17, 149 17 C 147.851 17, 147 17.667, 147 18.567 C 147 19.680, 147.581 19.950, 149 19.500 C 150.887 18.901, 151 19.320, 151 26.933 C 151 31.644, 151.416 35, 152 35 C 152.622 35, 153 29.333, 153 20 C 153 10.667, 152.622 5, 152 5 C 151.444 5, 151 7.667, 151 11 M 182 10.500 C 182 15.333, 181.758 16, 180 16 C 178.851 16, 178 16.667, 178 17.567 C 178 18.680, 178.581 18.950, 180 18.500 C 181.894 17.899, 182 18.320, 182 26.433 C 182 31.478, 182.411 35, 183 35 C 183.622 35, 184 29.333, 184 20 C 184 10.667, 183.622 5, 183 5 C 182.450 5, 182 7.475, 182 10.500 M 208 20 C 208 29.333, 208.378 35, 209 35 C 209.583 35, 210 31.667, 210 27 C 210 22.333, 210.417 19, 211 19 C 211.550 19, 212 19.900, 212 21 C 212 22.100, 212.450 23, 213 23 C 213.550 23, 214 22.100, 214 21 C 214 17.004, 216.004 19.117, 216.134 23.250 L 216.267 27.500 216.968 22.500 C 217.354 19.750, 217.333 16.375, 216.921 15 C 216.207 12.618, 216.168 12.607, 216.086 14.750 C 216.017 16.564, 215.419 17, 213 17 L 210 17 210 11 C 210 7.667, 209.556 5, 209 5 C 208.378 5, 208 10.667, 208 20 M 400.835 11.415 C 400.335 20.985, 401.027 35, 402 35 C 402.973 35, 403.665 20.985, 403.165 11.415 C 402.980 7.887, 402.456 5, 402 5 C 401.544 5, 401.020 7.887, 400.835 11.415 M 561 20 C 561 29.333, 561.378 35, 562 35 C 562.583 35, 563 31.667, 563 27 C 563 20.556, 563.292 19, 564.500 19 C 565.325 19, 566 18.550, 566 18 C 566 17.450, 565.325 17, 564.500 17 C 563.333 17, 563 15.667, 563 11 C 563 7.667, 562.556 5, 562 5 C 561.378 5, 561 10.667, 561 20 M 592 20 C 592 29.333, 592.378 35, 593 35 C 593.582 35, 594 31.722, 594 27.167 L 594 19.333 597 19.333 C 599.812 19.333, 600 19.574, 600 23.167 C 600 25.275, 600.450 27, 601 27 C 601.571 27, 602 24, 602 20 C 602 16, 601.571 13, 601 13 C 600.450 13, 600 13.900, 600 15 C 600 16.556, 599.333 17, 597 17 L 594 17 594 11 C 594 7.667, 593.556 5, 593 5 C 592.378 5, 592 10.667, 592 20 M 618 10.980 L 618 16.961 614 16.575 C 610.335 16.222, 610 16.392, 610 18.595 C 610 19.918, 610.450 21, 611 21 C 611.550 21, 612 20.580, 612 20.067 C 612 19.554, 613.350 19.172, 615 19.219 L 618 19.304 618 27.152 C 618 31.717, 618.418 35, 619 35 C 619.584 35, 620 31.631, 620 26.893 C 620 20.098, 620.243 18.879, 621.500 19.362 C 622.414 19.712, 623 19.363, 623 18.469 C 623 17.661, 622.325 17, 621.500 17 C 620.333 17, 620 15.667, 620 11 C 620 7.667, 619.556 5, 619 5 C 618.445 5, 618 7.660, 618 10.980 M 94 17.500 C 94 23.833, 94.397 28, 95 28 C 95.550 28, 96 26.012, 96 23.583 C 96 21.028, 96.527 18.921, 97.250 18.583 C 98.250 18.117, 98.250 17.883, 97.250 17.417 C 96.499 17.066, 96 14.872, 96 11.917 C 96 9.213, 95.550 7, 95 7 C 94.397 7, 94 11.167, 94 17.500 M 106 17.500 C 106 23.833, 106.397 28, 107 28 C 107.550 28, 108 26.012, 108 23.583 C 108 21.028, 108.527 18.921, 109.250 18.583 C 110.250 18.117, 110.250 17.883, 109.250 17.417 C 108.499 17.066, 108 14.872, 108 11.917 C 108 9.213, 107.550 7, 107 7 C 106.397 7, 106 11.167, 106 17.500 M 504 11.917 C 504 14.872, 503.501 17.066, 502.750 17.417 C 501.750 17.883, 501.750 18.117, 502.750 18.583 C 503.473 18.921, 504 21.028, 504 23.583 C 504 26.012, 504.450 28, 505 28 C 505.603 28, 506 23.833, 506 17.500 C 506 11.167, 505.603 7, 505 7 C 504.450 7, 504 9.213, 504 11.917 M 130 20 C 130 27.333, 130.389 32, 131 32 C 131.564 32, 132 29.167, 132 25.500 C 132 21.833, 132.436 19, 133 19 C 133.550 19, 134 21.025, 134 23.500 C 134 25.975, 134.450 28, 135 28 C 135.550 28, 136 25.975, 136 23.500 C 136 19.667, 136.296 19, 138 19 C 139.100 19, 140 18.550, 140 18 C 140 17.450, 139.100 17, 138 17 C 136.533 17, 136 16.333, 136 14.500 C 136 13.125, 135.550 12, 135 12 C 134.450 12, 134 13.125, 134 14.500 C 134 15.875, 133.550 17, 133 17 C 132.450 17, 132 14.975, 132 12.500 C 132 10.025, 131.550 8, 131 8 C 130.389 8, 130 12.667, 130 20 M 540 12.500 C 540 14.975, 539.550 17, 539 17 C 538.450 17, 538 15.875, 538 14.500 C 538 13.125, 537.550 12, 537 12 C 536.450 12, 536 13.125, 536 14.500 C 536 16.333, 535.467 17, 534 17 C 532.900 17, 532 17.450, 532 18 C 532 18.550, 532.900 19, 534 19 C 535.704 19, 536 19.667, 536 23.500 C 536 25.975, 536.450 28, 537 28 C 537.550 28, 538 25.975, 538 23.500 C 538 21.025, 538.450 19, 539 19 C 539.564 19, 540 21.833, 540 25.500 C 540 29.167, 540.436 32, 541 32 C 541.611 32, 542 27.333, 542 20 C 542 12.667, 541.611 8, 541 8 C 540.450 8, 540 10.025, 540 12.500 M 272 13 C 272 16.333, 271.667 17, 270 17 C 268.900 17, 268 17.450, 268 18 C 268 18.550, 268.900 19, 270 19 C 271.778 19, 272 19.667, 272 25 C 272 28.333, 272.444 31, 273 31 C 273.556 31, 274 28.333, 274 25 C 274 19.667, 274.222 19, 276 19 C 277.100 19, 278 18.550, 278 18 C 278 17.450, 277.100 17, 276 17 C 274.333 17, 274 16.333, 274 13 C 274 10.800, 273.550 9, 273 9 C 272.450 9, 272 10.800, 272 13 M 337 13 C 337 15.200, 336.550 17, 336 17 C 335.450 17, 335 16.550, 335 16 C 335 15.450, 334.550 15, 334 15 C 333.450 15, 333 16.350, 333 18 C 333 19.650, 333.450 21, 334 21 C 334.550 21, 335 20.550, 335 20 C 335 19.450, 335.450 19, 336 19 C 336.556 19, 337 21.667, 337 25 C 337 28.333, 337.444 31, 338 31 C 338.606 31, 339 26.667, 339 20 C 339 13.333, 338.606 9, 338 9 C 337.450 9, 337 10.800, 337 13 M 433 12.969 C 433 16.085, 432.678 16.814, 431.500 16.362 C 430.445 15.957, 430 16.443, 430 18 C 430 19.557, 430.445 20.043, 431.500 19.638 C 432.730 19.166, 433 20.137, 433 25.031 C 433 28.344, 433.445 31, 434 31 C 434.606 31, 435 26.667, 435 20 C 435 13.333, 434.606 9, 434 9 C 433.450 9, 433 10.786, 433 12.969 M 682 20 C 682 32.243, 683.648 35.094, 684.168 23.750 C 684.578 14.803, 684.077 9, 682.895 9 C 682.403 9, 682 13.950, 682 20 M 126 14.417 C 126 15.746, 125.438 17.096, 124.750 17.417 C 123.750 17.883, 123.750 18.117, 124.750 18.583 C 125.473 18.921, 126 21.028, 126 23.583 C 126 26.012, 126.450 28, 127 28 C 127.583 28, 128 24.667, 128 20 C 128 15.333, 127.583 12, 127 12 C 126.450 12, 126 13.087, 126 14.417 M 544 20 C 544 24.667, 544.417 28, 545 28 C 545.550 28, 546 26.012, 546 23.583 C 546 21.028, 546.527 18.921, 547.250 18.583 C 548.250 18.117, 548.250 17.883, 547.250 17.417 C 546.563 17.096, 546 15.746, 546 14.417 C 546 13.087, 545.550 12, 545 12 C 544.417 12, 544 15.333, 544 20 M 159 20 C 159 24, 159.429 27, 160 27 C 160.550 27, 161 25.200, 161 23 C 161 20.800, 161.450 19, 162 19 C 162.550 19, 163 20.125, 163 21.500 C 163 22.875, 163.450 24, 164 24 C 164.550 24, 165 22.170, 165 19.933 C 165 16.320, 164.776 15.936, 163 16.500 C 161.440 16.995, 161 16.680, 161 15.067 C 161 13.930, 160.550 13, 160 13 C 159.429 13, 159 16, 159 20 M 190 20 C 190 24, 190.429 27, 191 27 C 191.550 27, 192 25.200, 192 23 C 192 18.718, 193.571 17.524, 194.303 21.250 L 194.746 23.500 195.490 21.250 C 196.285 18.843, 199.501 18.180, 200.341 20.250 C 200.723 21.194, 201.130 21.133, 202 20 C 202.870 18.867, 203.277 18.806, 203.659 19.750 C 204.522 21.877, 206 21.128, 206 18.564 C 206 16.266, 205.734 16.152, 201.311 16.567 C 198.247 16.854, 196.315 16.572, 195.735 15.753 C 195.026 14.752, 194.746 14.751, 194.341 15.750 C 193.546 17.709, 192 17.214, 192 15 C 192 13.900, 191.550 13, 191 13 C 190.429 13, 190 16, 190 20 M 409 15 C 409 16.111, 408.333 17, 407.500 17 C 406.675 17, 406 17.450, 406 18 C 406 18.550, 406.675 19, 407.500 19 C 408.583 19, 409 20.111, 409 23 C 409 25.200, 409.450 27, 410 27 C 410.571 27, 411 24, 411 20 C 411 16, 410.571 13, 410 13 C 409.450 13, 409 13.900, 409 15 M 568.822 15.250 C 568.220 18.539, 569.068 27, 570 27 C 570.932 27, 571.780 18.539, 571.178 15.250 C 570.952 14.012, 570.422 13, 570 13 C 569.578 13, 569.048 14.012, 568.822 15.250 M 625.643 15.750 C 625.360 17.262, 625.493 20.525, 625.939 23 C 626.711 27.284, 626.756 27.152, 626.875 20.250 C 627.005 12.729, 626.533 11.005, 625.643 15.750 M 628.720 15.687 C 627.914 19.903, 629.976 23.112, 631.290 19.687 C 631.948 17.972, 630.989 13, 630 13 C 629.578 13, 629.002 14.209, 628.720 15.687 M 280 17.436 C 280 19.733, 280.268 19.847, 284.668 19.435 C 291.659 18.780, 292.282 16.895, 285.570 16.705 C 283.606 16.649, 282 16.243, 282 15.802 C 282 15.361, 281.550 15, 281 15 C 280.450 15, 280 16.096, 280 17.436 M 340.638 16.500 C 339.955 18.280, 340.843 21, 342.107 21 C 342.598 21, 343.007 20.438, 343.015 19.750 C 343.026 18.914, 343.357 18.997, 344.015 20 C 344.891 21.333, 345.120 21.333, 346.076 20 C 346.886 18.871, 347.278 18.809, 347.659 19.750 C 348.600 22.069, 350 21.022, 350 18 C 350 14.978, 348.600 13.931, 347.659 16.250 C 347.278 17.191, 346.886 17.129, 346.076 16 C 345.120 14.667, 344.891 14.667, 344.015 16 C 343.357 17.003, 343.026 17.086, 343.015 16.250 C 342.994 14.509, 341.335 14.684, 340.638 16.500 M 352 18 C 352 21.022, 353.400 22.069, 354.341 19.750 C 354.722 18.809, 355.114 18.871, 355.924 20 C 356.880 21.333, 357.120 21.333, 358.076 20 C 358.886 18.871, 359.278 18.809, 359.659 19.750 C 360.600 22.069, 362 21.022, 362 18 C 362 14.978, 360.600 13.931, 359.659 16.250 C 359.278 17.191, 358.886 17.129, 358.076 16 C 357.120 14.667, 356.880 14.667, 355.924 16 C 355.114 17.129, 354.722 17.191, 354.341 16.250 C 353.400 13.931, 352 14.978, 352 18 M 185.218 17.154 C 185.737 18.712, 187.974 18.984, 188.053 17.500 C 188.082 16.950, 187.355 16.345, 186.438 16.154 C 185.395 15.939, 184.938 16.313, 185.218 17.154 M 219 19.893 C 219 22.152, 219.450 24, 220 24 C 220.550 24, 221 22.875, 221 21.500 C 221 19.944, 221.567 19, 222.500 19 C 223.325 19, 224 18.550, 224 18 C 224 17.450, 223.587 17, 223.082 17 C 222.577 17, 221.452 16.727, 220.582 16.393 C 219.298 15.900, 219 16.559, 219 19.893 M 412.711 16.697 C 411.967 17.960, 413.128 24, 414.113 24 C 414.601 24, 415.067 22.875, 415.150 21.500 C 415.233 20.125, 415.345 18.475, 415.400 17.833 C 415.519 16.446, 413.388 15.546, 412.711 16.697 M 436.446 17.087 C 435.416 18.755, 437.733 20.667, 439.113 19.287 C 440.267 18.133, 439.545 16, 438 16 C 437.515 16, 436.816 16.489, 436.446 17.087 M 573 19.893 C 573 22.152, 573.450 24, 574 24 C 574.550 24, 575 22.875, 575 21.500 C 575 19.944, 575.567 19, 576.500 19 C 577.325 19, 578 18.550, 578 18 C 578 17.450, 577.587 17, 577.082 17 C 576.577 17, 575.452 16.727, 574.582 16.393 C 573.298 15.900, 573 16.559, 573 19.893 M 604 20 C 604 22.200, 604.450 24, 605 24 C 605.550 24, 606 22.913, 606 21.583 C 606 20.254, 606.563 18.938, 607.250 18.659 C 608.191 18.278, 608.129 17.890, 607 17.091 C 604.508 15.329, 604 15.821, 604 20 M 4 18 C 4 18.550, 4.900 19, 6 19 C 7.100 19, 8 18.550, 8 18 C 8 17.450, 7.100 17, 6 17 C 4.900 17, 4 17.450, 4 18 M 10 18 C 10 18.550, 10.900 19, 12 19 C 13.100 19, 14 18.550, 14 18 C 14 17.450, 13.100 17, 12 17 C 10.900 17, 10 17.450, 10 18 M 16 18 C 16 18.550, 16.900 19, 18 19 C 19.100 19, 20 18.550, 20 18 C 20 17.450, 19.100 17, 18 17 C 16.900 17, 16 17.450, 16 18 M 22 18 C 22 18.550, 22.900 19, 24 19 C 25.100 19, 26 18.550, 26 18 C 26 17.450, 25.100 17, 24 17 C 22.900 17, 22 17.450, 22 18 M 28 18 C 28 18.550, 28.900 19, 30 19 C 31.100 19, 32 18.550, 32 18 C 32 17.450, 31.100 17, 30 17 C 28.900 17, 28 17.450, 28 18 M 34 18 C 34 18.550, 34.900 19, 36 19 C 37.100 19, 38 18.550, 38 18 C 38 17.450, 37.100 17, 36 17 C 34.900 17, 34 17.450, 34 18 M 40 18 C 40 18.550, 40.900 19, 42 19 C 43.100 19, 44 18.550, 44 18 C 44 17.450, 43.100 17, 42 17 C 40.900 17, 40 17.450, 40 18 M 46 18 C 46 18.550, 46.900 19, 48 19 C 49.100 19, 50 18.550, 50 18 C 50 17.450, 49.100 17, 48 17 C 46.900 17, 46 17.450, 46 18 M 52 18 C 52 18.550, 52.900 19, 54 19 C 55.100 19, 56 18.550, 56 18 C 56 17.450, 55.100 17, 54 17 C 52.900 17, 52 17.450, 52 18 M 58 18 C 58 18.550, 58.900 19, 60 19 C 61.100 19, 62 18.550, 62 18 C 62 17.450, 61.100 17, 60 17 C 58.900 17, 58 17.450, 58 18 M 76 18 C 76 18.550, 76.900 19, 78 19 C 79.100 19, 80 18.550, 80 18 C 80 17.450, 79.100 17, 78 17 C 76.900 17, 76 17.450, 76 18 M 82 18 C 82 18.550, 82.900 19, 84 19 C 85.100 19, 86 18.550, 86 18 C 86 17.450, 85.100 17, 84 17 C 82.900 17, 82 17.450, 82 18 M 88 18 C 88 18.550, 88.900 19, 90 19 C 91.100 19, 92 18.550, 92 18 C 92 17.450, 91.100 17, 90 17 C 88.900 17, 88 17.450, 88 18 M 112 18 C 112 18.550, 112.900 19, 114 19 C 115.100 19, 116 18.550, 116 18 C 116 17.450, 115.100 17, 114 17 C 112.900 17, 112 17.450, 112 18 M 118 18 C 118 18.550, 118.900 19, 120 19 C 121.100 19, 122 18.550, 122 18 C 122 17.450, 121.100 17, 120 17 C 118.900 17, 118 17.450, 118 18 M 142 18 C 142 18.550, 142.900 19, 144 19 C 145.100 19, 146 18.550, 146 18 C 146 17.450, 145.100 17, 144 17 C 142.900 17, 142 17.450, 142 18 M 154.250 18.250 C 154.479 18.938, 155.267 19.500, 156 19.500 C 156.733 19.500, 157.521 18.938, 157.750 18.250 C 157.998 17.506, 157.289 17, 156 17 C 154.711 17, 154.002 17.506, 154.250 18.250 M 166 18 C 166 18.550, 166.900 19, 168 19 C 169.100 19, 170 18.550, 170 18 C 170 17.450, 169.100 17, 168 17 C 166.900 17, 166 17.450, 166 18 M 172 18 C 172 18.550, 172.900 19, 174 19 C 175.100 19, 176 18.550, 176 18 C 176 17.450, 175.100 17, 174 17 C 172.900 17, 172 17.450, 172 18 M 226 18 C 226 18.550, 226.900 19, 228 19 C 229.100 19, 230 18.550, 230 18 C 230 17.450, 229.100 17, 228 17 C 226.900 17, 226 17.450, 226 18 M 232 18 C 232 18.550, 232.900 19, 234 19 C 235.100 19, 236 18.550, 236 18 C 236 17.450, 235.100 17, 234 17 C 232.900 17, 232 17.450, 232 18 M 238 18 C 238 18.550, 238.900 19, 240 19 C 241.100 19, 242 18.550, 242 18 C 242 17.450, 241.100 17, 240 17 C 238.900 17, 238 17.450, 238 18 M 244 18 C 244 18.550, 244.900 19, 246 19 C 247.100 19, 248 18.550, 248 18 C 248 17.450, 247.100 17, 246 17 C 244.900 17, 244 17.450, 244 18 M 250 18 C 250 18.550, 250.900 19, 252 19 C 253.100 19, 254 18.550, 254 18 C 254 17.450, 253.100 17, 252 17 C 250.900 17, 250 17.450, 250 18 M 256 18 C 256 18.550, 256.900 19, 258 19 C 259.100 19, 260 18.550, 260 18 C 260 17.450, 259.100 17, 258 17 C 256.900 17, 256 17.450, 256 18 M 262 18 C 262 18.550, 262.900 19, 264 19 C 265.100 19, 266 18.550, 266 18 C 266 17.450, 265.100 17, 264 17 C 262.900 17, 262 17.450, 262 18 M 292 18 C 292 18.550, 292.900 19, 294 19 C 295.100 19, 296 18.550, 296 18 C 296 17.450, 295.100 17, 294 17 C 292.900 17, 292 17.450, 292 18 M 298 18 C 298 18.550, 298.900 19, 300 19 C 301.100 19, 302 18.550, 302 18 C 302 17.450, 301.100 17, 300 17 C 298.900 17, 298 17.450, 298 18 M 304 18 C 304 18.550, 304.900 19, 306 19 C 307.100 19, 308 18.550, 308 18 C 308 17.450, 307.100 17, 306 17 C 304.900 17, 304 17.450, 304 18 M 310 18 C 310 18.550, 310.900 19, 312 19 C 313.100 19, 314 18.550, 314 18 C 314 17.450, 313.100 17, 312 17 C 310.900 17, 310 17.450, 310 18 M 316 18 C 316 18.550, 316.900 19, 318 19 C 319.100 19, 320 18.550, 320 18 C 320 17.450, 319.100 17, 318 17 C 316.900 17, 316 17.450, 316 18 M 322 18 C 322 18.550, 322.900 19, 324 19 C 325.100 19, 326 18.550, 326 18 C 326 17.450, 325.100 17, 324 17 C 322.900 17, 322 17.450, 322 18 M 328 18 C 328 18.550, 328.900 19, 330 19 C 331.100 19, 332 18.550, 332 18 C 332 17.450, 331.100 17, 330 17 C 328.900 17, 328 17.450, 328 18 M 364 18 C 364 18.550, 364.900 19, 366 19 C 367.100 19, 368 18.550, 368 18 C 368 17.450, 367.100 17, 366 17 C 364.900 17, 364 17.450, 364 18 M 370 18 C 370 18.550, 370.900 19, 372 19 C 373.100 19, 374 18.550, 374 18 C 374 17.450, 373.100 17, 372 17 C 370.900 17, 370 17.450, 370 18 M 376 18 C 376 18.550, 376.900 19, 378 19 C 379.100 19, 380 18.550, 380 18 C 380 17.450, 379.100 17, 378 17 C 376.900 17, 376 17.450, 376 18 M 382 18 C 382 18.550, 382.900 19, 384 19 C 385.100 19, 386 18.550, 386 18 C 386 17.450, 385.100 17, 384 17 C 382.900 17, 382 17.450, 382 18 M 388 18 C 388 18.550, 388.900 19, 390 19 C 391.100 19, 392 18.550, 392 18 C 392 17.450, 391.100 17, 390 17 C 388.900 17, 388 17.450, 388 18 M 394 18 C 394 18.550, 394.900 19, 396 19 C 397.100 19, 398 18.550, 398 18 C 398 17.450, 397.100 17, 396 17 C 394.900 17, 394 17.450, 394 18 M 418 18 C 418 18.550, 418.900 19, 420 19 C 421.100 19, 422 18.550, 422 18 C 422 17.450, 421.100 17, 420 17 C 418.900 17, 418 17.450, 418 18 M 424 18 C 424 18.550, 424.900 19, 426 19 C 427.100 19, 428 18.550, 428 18 C 428 17.450, 427.100 17, 426 17 C 424.900 17, 424 17.450, 424 18 M 442 18 C 442 18.550, 442.900 19, 444 19 C 445.100 19, 446 18.550, 446 18 C 446 17.450, 445.100 17, 444 17 C 442.900 17, 442 17.450, 442 18 M 448 18 C 448 18.550, 448.900 19, 450 19 C 451.100 19, 452 18.550, 452 18 C 452 17.450, 451.100 17, 450 17 C 448.900 17, 448 17.450, 448 18 M 454 18 C 454 18.550, 454.900 19, 456 19 C 457.100 19, 458 18.550, 458 18 C 458 17.450, 457.100 17, 456 17 C 454.900 17, 454 17.450, 454 18 M 460 18 C 460 18.550, 460.900 19, 462 19 C 463.100 19, 464 18.550, 464 18 C 464 17.450, 463.100 17, 462 17 C 460.900 17, 460 17.450, 460 18 M 466 18 C 466 18.550, 466.900 19, 468 19 C 469.100 19, 470 18.550, 470 18 C 470 17.450, 469.100 17, 468 17 C 466.900 17, 466 17.450, 466 18 M 472 18 C 472 18.550, 472.900 19, 474 19 C 475.100 19, 476 18.550, 476 18 C 476 17.450, 475.100 17, 474 17 C 472.900 17, 472 17.450, 472 18 M 490 18 C 490 18.550, 490.900 19, 492 19 C 493.100 19, 494 18.550, 494 18 C 494 17.450, 493.100 17, 492 17 C 490.900 17, 490 17.450, 490 18 M 496 18 C 496 18.550, 496.900 19, 498 19 C 499.100 19, 500 18.550, 500 18 C 500 17.450, 499.100 17, 498 17 C 496.900 17, 496 17.450, 496 18 M 520 18 C 520 18.550, 520.900 19, 522 19 C 523.100 19, 524 18.550, 524 18 C 524 17.450, 523.100 17, 522 17 C 520.900 17, 520 17.450, 520 18 M 526 18 C 526 18.550, 526.900 19, 528 19 C 529.100 19, 530 18.550, 530 18 C 530 17.450, 529.100 17, 528 17 C 526.900 17, 526 17.450, 526 18 M 550 18 C 550 18.550, 550.900 19, 552 19 C 553.100 19, 554 18.550, 554 18 C 554 17.450, 553.100 17, 552 17 C 550.900 17, 550 17.450, 550 18 M 556 18 C 556 18.550, 556.900 19, 558 19 C 559.100 19, 560 18.550, 560 18 C 560 17.450, 559.100 17, 558 17 C 556.900 17, 556 17.450, 556 18 M 580 18 C 580 18.550, 580.900 19, 582 19 C 583.100 19, 584 18.550, 584 18 C 584 17.450, 583.100 17, 582 17 C 580.900 17, 580 17.450, 580 18 M 586 17.893 C 586 18.384, 586.712 19.059, 587.582 19.393 C 589.817 20.251, 590 20.183, 590 18.500 C 590 17.667, 589.111 17, 588 17 C 586.900 17, 586 17.402, 586 17.893 M 634 18 C 634 18.550, 634.900 19, 636 19 C 637.100 19, 638 18.550, 638 18 C 638 17.450, 637.100 17, 636 17 C 634.900 17, 634 17.450, 634 18 M 640 18 C 640 18.550, 640.900 19, 642 19 C 643.100 19, 644 18.550, 644 18 C 644 17.450, 643.100 17, 642 17 C 640.900 17, 640 17.450, 640 18 M 646 18 C 646 18.550, 646.900 19, 648 19 C 649.100 19, 650 18.550, 650 18 C 650 17.450, 649.100 17, 648 17 C 646.900 17, 646 17.450, 646 18 M 652 18 C 652 18.550, 652.900 19, 654 19 C 655.100 19, 656 18.550, 656 18 C 656 17.450, 655.100 17, 654 17 C 652.900 17, 652 17.450, 652 18 M 658 18 C 658 18.550, 658.900 19, 660 19 C 661.100 19, 662 18.550, 662 18 C 662 17.450, 661.100 17, 660 17 C 658.900 17, 658 17.450, 658 18 M 664 18 C 664 18.550, 664.900 19, 666 19 C 667.100 19, 668 18.550, 668 18 C 668 17.450, 667.100 17, 666 17 C 664.900 17, 664 17.450, 664 18 M 670 18 C 670 18.550, 670.900 19, 672 19 C 673.100 19, 674 18.550, 674 18 C 674 17.450, 673.100 17, 672 17 C 670.900 17, 670 17.450, 670 18 M 676 18 C 676 18.550, 676.900 19, 678 19 C 679.100 19, 680 18.550, 680 18 C 680 17.450, 679.100 17, 678 17 C 676.900 17, 676 17.450, 676 18" stroke="none" fill="#cccccc" fill-rule="evenodd"/></svg>