<svg width="35" height="34" viewBox="0 0 35 34" fill="none" xmlns="http://www.w3.org/2000/svg">
<g clip-path="url(#clip0_429_17074)">
<path d="M31.3125 17C31.3125 13.3367 29.8573 9.82343 27.2669 7.23309C24.6766 4.64274 21.1633 3.1875 17.5 3.1875C13.8367 3.1875 10.3234 4.64274 7.73309 7.23309C5.14274 9.82343 3.6875 13.3367 3.6875 17C3.6875 20.6633 5.14274 24.1766 7.73309 26.7669C10.3234 29.3573 13.8367 30.8125 17.5 30.8125C21.1633 30.8125 24.6766 29.3573 27.2669 26.7669C29.8573 24.1766 31.3125 20.6633 31.3125 17ZM0.5 17C0.5 12.4913 2.29107 8.1673 5.47919 4.97919C8.6673 1.79107 12.9913 0 17.5 0C22.0087 0 26.3327 1.79107 29.5208 4.97919C32.7089 8.1673 34.5 12.4913 34.5 17C34.5 21.5087 32.7089 25.8327 29.5208 29.0208C26.3327 32.2089 22.0087 34 17.5 34C12.9913 34 8.6673 32.2089 5.47919 29.0208C2.29107 25.8327 0.5 21.5087 0.5 17ZM12.2938 21.1238C13.3031 22.2129 15.0297 23.375 17.5 23.375C19.9703 23.375 21.6969 22.2129 22.7062 21.1238C23.3039 20.4797 24.3133 20.4332 24.9574 21.0309C25.6016 21.6285 25.648 22.6379 25.0504 23.282C23.5895 24.8625 21.066 26.5625 17.5066 26.5625C13.9473 26.5625 11.4172 24.8691 9.96289 23.282C9.36523 22.6379 9.40508 21.6285 10.0559 21.0309C10.7066 20.4332 11.7094 20.473 12.307 21.1238H12.2938ZM10.0891 13.8125C10.0891 13.2489 10.3129 12.7084 10.7115 12.3099C11.11 11.9114 11.6505 11.6875 12.2141 11.6875C12.7776 11.6875 13.3181 11.9114 13.7167 12.3099C14.1152 12.7084 14.3391 13.2489 14.3391 13.8125C14.3391 14.3761 14.1152 14.9166 13.7167 15.3151C13.3181 15.7136 12.7776 15.9375 12.2141 15.9375C11.6505 15.9375 11.11 15.7136 10.7115 15.3151C10.3129 14.9166 10.0891 14.3761 10.0891 13.8125ZM22.8391 11.6875C23.4026 11.6875 23.9431 11.9114 24.3417 12.3099C24.7402 12.7084 24.9641 13.2489 24.9641 13.8125C24.9641 14.3761 24.7402 14.9166 24.3417 15.3151C23.9431 15.7136 23.4026 15.9375 22.8391 15.9375C22.2755 15.9375 21.735 15.7136 21.3365 15.3151C20.9379 14.9166 20.7141 14.3761 20.7141 13.8125C20.7141 13.2489 20.9379 12.7084 21.3365 12.3099C21.735 11.9114 22.2755 11.6875 22.8391 11.6875Z" fill="#008344"/>
</g>
<defs>
<clipPath id="clip0_429_17074">
<rect width="34" height="34" fill="white" transform="translate(0.5)"/>
</clipPath>
</defs>
</svg>
