<svg width="159" height="34" viewBox="0 0 159 34" fill="none" xmlns="http://www.w3.org/2000/svg">
<g clip-path="url(#clip0_2940_37437)">
<path d="M32.4097 26.7381C32.2337 25.0718 32.1428 23.4072 32.0776 21.7362C32.0407 20.9031 32.0322 20.07 32.0066 19.2353L31.9839 16.7344L32.0066 14.2335C32.0293 13.4004 32.0378 12.5688 32.0776 11.7326C32.14 10.0663 32.2337 8.40164 32.4097 6.73071C32.5885 8.39539 32.6935 10.0601 32.7417 11.7326C32.7814 12.5657 32.7899 13.3972 32.8127 14.2335L32.8354 16.7344L32.8127 19.2353C32.7899 20.0684 32.7814 20.9015 32.7417 21.7362C32.6793 23.4072 32.5856 25.0718 32.4097 26.7381Z" fill="#E06065"/>
<path d="M34.1892 23.1694C34.0104 22.0987 33.9054 21.028 33.8571 19.9573C33.8174 19.4227 33.8089 18.8866 33.7862 18.352L33.7635 16.7452L33.7833 15.1399C33.8089 14.6038 33.8146 14.0692 33.8543 13.5331C33.9167 12.4624 34.0104 11.3932 34.1892 10.3225C34.3652 11.3932 34.473 12.4624 34.5213 13.5331C34.561 14.0692 34.5667 14.6038 34.5922 15.1399L34.6121 16.7452L34.5894 18.352C34.5667 18.8866 34.5582 19.4227 34.5184 19.9573C34.456 21.028 34.3652 22.0987 34.1892 23.1694Z" fill="#E06065"/>
<path d="M41.299 29.3093C41.1343 27.2148 41.0237 25.1208 40.9669 23.0273C40.93 21.98 40.9215 20.9328 40.896 19.8871L40.8732 16.7453L40.896 13.6051C40.9187 12.5578 40.9272 11.5106 40.9669 10.4649C41.0237 8.37034 41.1343 6.27634 41.299 4.18286C41.4636 6.27738 41.5743 8.37138 41.631 10.4649C41.6708 11.5106 41.6793 12.5578 41.702 13.6051L41.7247 16.7453L41.702 19.8871C41.6793 20.9328 41.6708 21.98 41.631 23.0273C41.5743 25.1208 41.4636 27.2148 41.299 29.3093Z" fill="#E06065"/>
<path d="M46.632 26.7381C46.456 25.0734 46.3652 23.4072 46.3027 21.7362C46.263 20.9031 46.2545 20.07 46.2318 19.2353L46.2062 16.7344L46.2289 14.2335C46.2545 13.4004 46.2602 12.5688 46.2999 11.7326C46.3623 10.0663 46.456 8.40164 46.632 6.73071C46.8108 8.39539 46.9016 10.0601 46.9641 11.7326C47.0038 12.5657 47.0123 13.3972 47.035 14.2335L47.0577 16.7344L47.035 19.2353C47.0123 20.0684 47.0038 20.9015 46.9641 21.7362C46.9016 23.4072 46.8079 25.0734 46.632 26.7381Z" fill="#E06065"/>
<path d="M59.0719 22.9226C58.8959 21.8925 58.7881 20.864 58.7398 19.8339C58.7001 19.3197 58.6916 18.8039 58.6689 18.2896L58.6461 16.7453L58.6689 15.201C58.6916 14.6867 58.7001 14.1725 58.7398 13.6567C58.8023 12.6281 58.8931 11.5981 59.0719 10.5696C59.2479 11.5981 59.3557 12.6281 59.404 13.6567C59.4437 14.1725 59.4522 14.6867 59.4749 15.201L59.4976 16.7453L59.4721 18.2896C59.4494 18.8039 59.4409 19.3197 59.4011 19.8339C59.3387 20.864 59.2479 21.8925 59.0719 22.9226Z" fill="#191815"/>
<path d="M30.6329 23.1694C30.4569 22.0987 30.3491 21.028 30.3008 19.9573C30.2611 19.4227 30.2526 18.8866 30.2299 18.352L30.2072 16.7452L30.2299 15.1399C30.2526 14.6038 30.2611 14.0692 30.3008 13.5331C30.3633 12.4624 30.4541 11.3932 30.6329 10.3225C30.8089 11.3932 30.9168 12.4624 30.965 13.5331C31.0047 14.0692 31.0104 14.6038 31.036 15.1399L31.0587 16.7452L31.0331 18.352C31.0104 18.8866 31.0019 19.4227 30.9622 19.9573C30.8997 21.028 30.8089 22.0987 30.6329 23.1694Z" fill="#E06065"/>
<path d="M35.966 21.8595C35.79 21.0061 35.6821 20.1542 35.6339 19.3023C35.5941 18.8756 35.5856 18.4505 35.5629 18.0237L35.5402 16.7451L35.5629 15.4666C35.5856 15.0414 35.5941 14.6147 35.6339 14.1895C35.6963 13.3361 35.7871 12.4842 35.966 11.6323C36.1419 12.4842 36.2498 13.3361 36.298 14.1895C36.3377 14.6147 36.3463 15.0414 36.369 15.4666L36.3917 16.7451L36.369 18.0237C36.3434 18.4505 36.3349 18.8756 36.298 19.3023C36.2356 20.1542 36.1419 21.0061 35.966 21.8595Z" fill="#E06065"/>
<path d="M28.8562 21.8595C28.6802 21.0061 28.5894 20.1542 28.527 19.3023C28.4872 18.8756 28.4787 18.4505 28.456 18.0237L28.4305 16.7451L28.4532 15.4666C28.4787 15.0414 28.4844 14.6147 28.5241 14.1895C28.5866 13.3361 28.6802 12.4842 28.8562 11.6323C29.035 12.4842 29.14 13.3361 29.1883 14.1895C29.228 14.6147 29.2365 15.0414 29.2592 15.4666L29.2819 16.7451L29.2592 18.0237C29.2365 18.4505 29.228 18.8756 29.1883 19.3023C29.123 20.1542 29.0293 21.0061 28.8562 21.8595Z" fill="#E06065"/>
<path d="M25.2999 21.8595C25.1211 21.0061 25.0161 20.1542 24.9678 19.3023C24.9281 18.8756 24.9196 18.4505 24.8969 18.0237L24.8741 16.7451L24.894 15.4666C24.9196 15.0414 24.9253 14.6147 24.965 14.1895C25.0274 13.3361 25.1211 12.4842 25.2999 11.6323C25.4758 12.4842 25.5837 13.3361 25.632 14.1895C25.6717 14.6147 25.6774 15.0414 25.7029 15.4666L25.7256 16.7451L25.7001 18.0237C25.6774 18.4505 25.6689 18.8756 25.6291 19.3023C25.5667 20.1542 25.4758 21.0061 25.2999 21.8595Z" fill="#E06065"/>
<path d="M21.7436 21.8595C21.5676 21.0061 21.4598 20.1542 21.4116 19.3023C21.3718 18.8756 21.3633 18.4505 21.3406 18.0237L21.3179 16.7451L21.3406 15.4666C21.3633 15.0414 21.3718 14.6147 21.4116 14.1895C21.474 13.3361 21.5648 12.4842 21.7436 11.6323C21.9196 12.4842 22.0274 13.3361 22.0757 14.1895C22.1154 14.6147 22.1211 15.0414 22.1466 15.4666L22.1693 16.7451L22.1438 18.0237C22.1211 18.4505 22.1126 18.8756 22.0728 19.3023C22.0104 20.1542 21.9196 21.0061 21.7436 21.8595Z" fill="#E06065"/>
<path d="M23.5203 24.5247C23.3444 23.2289 23.2536 21.9315 23.1911 20.6357C23.1514 19.9871 23.1429 19.3384 23.1173 18.6897L23.0946 16.7452L23.1173 14.8008C23.14 14.1521 23.1485 13.505 23.1883 12.8563C23.2507 11.559 23.3444 10.2632 23.5203 8.96582C23.6991 10.2632 23.8042 11.559 23.8524 12.8563C23.8921 13.505 23.9007 14.1521 23.9234 14.8008L23.9461 16.7452L23.9234 18.6897C23.9007 19.3384 23.8921 19.9871 23.8524 20.6357C23.79 21.9331 23.6963 23.2289 23.5203 24.5247Z" fill="#E06065"/>
<path d="M18.1873 22.9226C18.0114 21.8925 17.9035 20.864 17.8552 19.8339C17.8155 19.3197 17.807 18.8039 17.7843 18.2896L17.7616 16.7453L17.7843 15.201C17.807 14.6867 17.8155 14.1725 17.8552 13.6567C17.9177 12.6281 18.0085 11.5981 18.1873 10.5696C18.3633 11.5981 18.4569 12.6281 18.5194 13.6567C18.5591 14.1725 18.5676 14.6867 18.5903 15.201L18.6131 16.7453L18.5903 18.2896C18.5676 18.8039 18.5563 19.3197 18.5194 19.8339C18.4569 20.864 18.3548 21.8925 18.1873 22.9226Z" fill="#E06065"/>
<path d="M39.5222 27.0505C39.3462 25.3311 39.2526 23.6117 39.1902 21.8924C39.1504 21.0342 39.1419 20.173 39.1192 19.3164L39.0965 16.7405L39.1192 14.1645C39.1419 13.3064 39.1504 12.4451 39.1902 11.5886C39.2526 9.86918 39.3434 8.1498 39.5222 6.43042C39.6982 8.1498 39.806 9.86918 39.8543 11.5886C39.894 12.4467 39.8997 13.3079 39.9253 14.1645L39.9479 16.7405L39.9224 19.3164C39.8997 20.1761 39.8912 21.0358 39.8515 21.8924C39.789 23.6149 39.6982 25.3327 39.5222 27.0505Z" fill="#E06065"/>
<path d="M43.0757 21.8799C42.8997 21.0233 42.8089 20.1683 42.7464 19.3118C42.7067 18.885 42.6982 18.4568 42.6755 18.0285L42.6528 16.7452L42.6727 15.4619C42.6982 15.0336 42.7039 14.6069 42.7436 14.1786C42.8061 13.3236 42.8997 12.4671 43.0757 11.6121C43.2545 12.4671 43.3595 13.3236 43.4106 14.1786C43.4503 14.6069 43.456 15.0336 43.4816 15.4619L43.5014 16.7452L43.4787 18.0285C43.456 18.4568 43.4475 18.885 43.4078 19.3118C43.3453 20.1683 43.2545 21.0233 43.0757 21.8799Z" fill="#E06065"/>
<path d="M51.965 21.8799C51.7891 21.0233 51.6982 20.1683 51.6358 19.3118C51.596 18.885 51.5875 18.4568 51.5648 18.0285L51.5393 16.7452L51.562 15.4619C51.5875 15.0336 51.5932 14.6069 51.6329 14.1786C51.6954 13.3236 51.7891 12.4671 51.965 11.6121C52.1438 12.4671 52.2488 13.3236 52.2999 14.1786C52.3368 14.6069 52.3453 15.0336 52.3709 15.4619L52.3908 16.7452L52.368 18.0285C52.3453 18.4568 52.3368 18.885 52.2971 19.3118C52.2346 20.1683 52.1438 21.0233 51.965 21.8799Z" fill="#191815"/>
<path d="M57.2923 21.8799C57.1163 21.0233 57.0255 20.1683 56.9631 19.3118C56.9234 18.885 56.9149 18.4568 56.8921 18.0285L56.8666 16.7452L56.8893 15.4619C56.9148 15.0336 56.9205 14.6069 56.9603 14.1786C57.0227 13.3236 57.1163 12.4671 57.2923 11.6121C57.4711 12.4671 57.5761 13.3236 57.6272 14.1786C57.6641 14.6069 57.6726 15.0336 57.6982 15.4619L57.718 16.7452L57.6954 18.0285C57.6726 18.4568 57.6641 18.885 57.6244 19.3118C57.562 20.1683 57.4711 21.0233 57.2923 21.8799Z" fill="#191815"/>
<path d="M37.7427 24.5247C37.5667 23.2289 37.4759 21.9315 37.4134 20.6357C37.3737 19.9871 37.3652 19.3384 37.3425 18.6897L37.317 16.7452L37.3396 14.8008C37.3652 14.1521 37.3709 13.505 37.4106 12.8563C37.473 11.559 37.5667 10.2632 37.7427 8.96582C37.9215 10.2632 38.0265 11.559 38.0747 12.8563C38.1145 13.505 38.123 14.1521 38.1457 14.8008L38.1684 16.7452L38.1457 18.6897C38.123 19.3384 38.1145 19.9871 38.0747 20.6357C38.0123 21.9331 37.9187 23.2289 37.7427 24.5247Z" fill="#E06065"/>
<path d="M27.0766 20.0354C26.9099 19.4911 26.7991 18.9421 26.7446 18.391C26.6764 17.8424 26.6537 17.2969 26.6509 16.7451C26.648 16.1933 26.6764 15.6509 26.7446 15.1007C26.7977 14.549 26.9085 13.9995 27.0766 13.4548C27.2433 13.9996 27.3542 14.5491 27.4087 15.1007C27.4768 15.6494 27.5023 16.1949 27.5023 16.7451C27.5023 17.2953 27.474 17.8393 27.4087 18.391C27.3542 18.9421 27.2433 19.4911 27.0766 20.0354Z" fill="#E06065"/>
<path d="M19.9641 19.44C19.8004 18.9953 19.6894 18.5453 19.632 18.0926C19.5695 17.644 19.5412 17.1954 19.5383 16.7453C19.5355 16.2951 19.5667 15.8481 19.6291 15.3979C19.6865 14.9452 19.7984 14.4951 19.9641 14.0505C20.1311 14.495 20.243 14.9451 20.299 15.3979C20.3614 15.8481 20.3917 16.2972 20.3898 16.7453C20.3898 17.1954 20.3614 17.644 20.299 18.0926C20.242 18.5454 20.1301 18.9955 19.9641 19.44Z" fill="#E06065"/>
<path d="M16.4106 19.44C16.2446 18.9955 16.1327 18.5454 16.0757 18.0926C16.0132 17.644 15.9849 17.1954 15.9849 16.7453C15.9849 16.2951 16.0132 15.8481 16.0757 15.3979C16.1317 14.9451 16.2436 14.495 16.4106 14.0505C16.5749 14.4952 16.6867 14.9453 16.7455 15.3979C16.8079 15.8481 16.8363 16.2967 16.8363 16.7453C16.8363 17.1939 16.8051 17.644 16.7426 18.0926C16.6852 18.5453 16.5743 18.9953 16.4106 19.44Z" fill="#E06065"/>
<path d="M9.30653 19.44C9.14282 18.9953 9.03188 18.5453 8.97445 18.0926C8.91201 17.6446 8.8808 17.1954 8.8808 16.7453C8.8808 16.2967 8.90917 15.8481 8.97161 15.3979C9.02898 14.9452 9.14088 14.4951 9.30653 14.0505C9.47354 14.495 9.58545 14.9451 9.64146 15.3979C9.7039 15.8481 9.73416 16.2972 9.73226 16.7453C9.73226 17.1954 9.7039 17.644 9.64146 18.0926C9.58447 18.5454 9.47257 18.9955 9.30653 19.44Z" fill="#E06065"/>
<path d="M3.97349 20.3386C3.8081 19.7434 3.69729 19.144 3.64144 18.5427C3.60455 18.2425 3.59603 17.944 3.57049 17.6439L3.54776 16.7451C3.54776 16.1465 3.579 15.5478 3.64144 14.9491C3.69602 14.3472 3.80683 13.7473 3.97349 13.1516C4.14155 13.7472 4.25241 14.3472 4.30558 14.9491C4.36802 15.5478 4.40206 16.1465 4.39923 16.7451L4.37653 17.6439C4.35383 17.944 4.34531 18.2425 4.30558 18.5427C4.25114 19.1441 4.14029 19.7435 3.97349 20.3386Z" fill="#E06065"/>
<path d="M2.20243 19.6666C2.03596 19.1838 1.92507 18.6957 1.87038 18.2052C1.80226 17.7191 1.77954 17.2329 1.7767 16.7453C1.77386 16.2576 1.80226 15.7715 1.87038 15.2853C1.92367 14.7953 2.03457 14.3076 2.20243 13.8254C2.3689 14.3077 2.47982 14.7953 2.53451 15.2853C2.60263 15.7715 2.62816 16.2591 2.62816 16.7453C2.62816 17.2314 2.59979 17.7191 2.53451 18.2052C2.47983 18.6957 2.3689 19.1838 2.20243 19.6666Z" fill="#E06065"/>
<path d="M0.425657 18.7288C0.260753 18.4046 0.148692 18.073 0.0907662 17.7378C0.0293714 17.408 -0.000963017 17.0768 -7.63157e-05 16.7453C-0.00238103 16.4143 0.0279573 16.0834 0.0907662 15.7543C0.147298 15.4185 0.259381 15.0863 0.425657 14.7617C0.589208 15.0866 0.70128 15.4187 0.760582 15.7543C0.821976 16.0835 0.852276 16.4143 0.85139 16.7453C0.85139 17.0766 0.820182 17.4064 0.757741 17.7378C0.699418 18.0728 0.588297 18.4044 0.425657 18.7288Z" fill="#E06065"/>
<path d="M14.631 20.8591C14.4551 20.1729 14.3642 19.4883 14.3018 18.8021C14.262 18.4598 14.2535 18.1175 14.2308 17.7736L14.2053 16.7451C14.2053 16.0605 14.2365 15.3743 14.2989 14.6881C14.3614 14.0019 14.4551 13.3173 14.631 12.6311C14.8098 13.3173 14.9007 14.0035 14.9631 14.6881C15.0256 15.3727 15.0596 16.0605 15.0568 16.7451L15.0341 17.7736C15.0114 18.1175 15.0028 18.4598 14.9631 18.8021C14.9007 19.4883 14.807 20.1729 14.631 20.8591Z" fill="#E06065"/>
<path d="M11.0861 20.8591C10.9101 20.1729 10.8023 19.4883 10.754 18.8021C10.7143 18.4598 10.7058 18.1175 10.683 17.7736L10.6604 16.7451C10.6604 16.0605 10.6916 15.3743 10.754 14.6881C10.8164 14.0019 10.9073 13.3173 11.0861 12.6311C11.2621 13.3173 11.3557 14.0035 11.4182 14.6881C11.4806 15.3727 11.5147 16.0605 11.5118 16.7451L11.4863 17.7736C11.4636 18.1175 11.4551 18.4598 11.4153 18.8021C11.3529 19.4883 11.2592 20.1729 11.0861 20.8591Z" fill="#E06065"/>
<path d="M12.8571 21.8799C12.6812 21.0233 12.5733 20.1683 12.5251 19.3118C12.4853 18.885 12.4768 18.4568 12.4541 18.0285L12.4314 16.7452L12.4541 15.4619C12.4768 15.0336 12.4853 14.6069 12.5251 14.1786C12.5875 13.3236 12.6783 12.4671 12.8571 11.6121C13.0331 12.4671 13.1268 13.3236 13.1892 14.1786C13.229 14.6069 13.2375 15.0336 13.2602 15.4619L13.2829 16.7452L13.2602 18.0285C13.2346 18.4568 13.2261 18.885 13.1892 19.3118C13.124 20.1683 13.0331 21.0233 12.8571 21.8799Z" fill="#E06065"/>
<path d="M7.5298 21.8799C7.35383 21.0233 7.26015 20.1683 7.19771 19.3118C7.15798 18.885 7.14946 18.4568 7.12676 18.0285L7.10406 16.7452L7.12676 15.4619C7.14946 15.0336 7.15798 14.6069 7.19771 14.1786C7.26015 13.3236 7.35099 12.4671 7.5298 11.6121C7.70577 12.4671 7.81363 13.3236 7.86188 14.1786C7.90162 14.6069 7.91013 15.0336 7.93284 15.4619L7.95553 16.7452L7.93284 18.0285C7.90729 18.4568 7.89878 18.885 7.86188 19.3118C7.7966 20.1683 7.70577 21.0233 7.5298 21.8799Z" fill="#E06065"/>
<path d="M5.75306 22.9226C5.57426 21.8925 5.48346 20.864 5.42102 19.8339C5.38128 19.3197 5.37277 18.8039 5.35006 18.2896L5.32733 16.7453L5.34722 15.201C5.37276 14.6867 5.37844 14.1725 5.41817 13.6567C5.48061 12.6281 5.57426 11.5981 5.75306 10.5696C5.92903 11.5981 6.0369 12.6281 6.08515 13.6567C6.12488 14.1725 6.13056 14.6867 6.1561 15.201L6.17596 16.7453L6.15326 18.2896C6.13056 18.8039 6.12204 19.3197 6.08231 19.8339C6.01987 20.864 5.92903 21.8925 5.75306 22.9226Z" fill="#E06065"/>
<path d="M60.8486 20.3386C60.6828 19.7435 60.5729 19.144 60.5194 18.5427C60.4797 18.2425 60.4712 17.944 60.4485 17.6439L60.4229 16.7451C60.4229 16.1465 60.4541 15.5478 60.5166 14.9491C60.5711 14.3472 60.682 13.7473 60.8486 13.1516C61.0167 13.7472 61.1275 14.3472 61.1807 14.9491C61.2431 15.5478 61.2772 16.1465 61.2743 16.7451L61.2517 17.6439C61.2289 17.944 61.2204 18.2425 61.1807 18.5427C61.1263 19.1441 61.0154 19.7435 60.8486 20.3386Z" fill="#191815"/>
<path d="M50.1883 20.8591C50.0123 20.1729 49.9045 19.4883 49.8562 18.8021C49.8193 18.4598 49.8108 18.1175 49.7853 17.7736L49.7626 16.7451C49.7626 16.0605 49.7938 15.3743 49.8562 14.6881C49.9186 14.0019 50.0123 13.3173 50.1883 12.6311C50.3671 13.3173 50.4579 14.0035 50.5203 14.6881C50.5828 15.3727 50.6169 16.0605 50.614 16.7451L50.5913 17.7736C50.5686 18.1175 50.5601 18.4598 50.5203 18.8021C50.4579 19.4883 50.3643 20.1729 50.1883 20.8591Z" fill="#191815"/>
<path d="M53.7389 20.8591C53.5629 20.1729 53.4551 19.4883 53.4068 18.8021C53.3671 18.4598 53.3586 18.1175 53.3359 17.7736L53.3132 16.7451C53.3132 16.0605 53.3444 15.3743 53.4068 14.6881C53.4693 14.0019 53.5601 13.3173 53.7389 12.6311C53.9149 13.3173 54.0085 14.0035 54.071 14.6881C54.1334 15.3727 54.1646 16.0605 54.1646 16.7451L54.1391 17.7736C54.1164 18.1175 54.1078 18.4598 54.0681 18.8021C54.0057 19.4883 53.9149 20.1729 53.7389 20.8591Z" fill="#E06065"/>
<path d="M44.8553 31.1864C44.6906 28.7792 44.5799 26.3721 44.5232 23.9649C44.4834 22.7629 44.4749 21.5594 44.4522 20.3558L44.4295 16.7451L44.4522 13.136C44.4749 11.9324 44.4834 10.7288 44.5232 9.52526C44.578 7.11813 44.6887 4.71151 44.8553 2.30542C45.0199 4.71255 45.1306 7.11917 45.1873 9.52526C45.2271 10.7288 45.2356 11.9324 45.2583 13.136L45.281 16.7451L45.2583 20.3558C45.2327 21.5594 45.2242 22.7629 45.1873 23.9649C45.1306 26.3721 45.0199 28.7792 44.8553 31.1864Z" fill="#E06065"/>
<path d="M48.4115 19.44C48.2455 18.9955 48.1336 18.5454 48.0766 18.0926C48.0142 17.644 47.9858 17.1954 47.9858 16.7453C47.9858 16.2951 48.0142 15.8481 48.0766 15.3979C48.1326 14.9451 48.2445 14.495 48.4115 14.0505C48.5772 14.4951 48.6891 14.9452 48.7464 15.3979C48.8089 15.8481 48.8373 16.2967 48.8373 16.7453C48.8373 17.1939 48.806 17.644 48.7436 18.0926C48.6862 18.5453 48.5753 18.9953 48.4115 19.44Z" fill="#191815"/>
<path d="M55.5156 19.44C55.351 18.9954 55.2391 18.5453 55.1807 18.0926C55.1182 17.644 55.0899 17.1954 55.0899 16.7453C55.0899 16.2951 55.1182 15.8481 55.1807 15.3979C55.2381 14.9452 55.35 14.4951 55.5156 14.0505C55.6813 14.4951 55.7931 14.9452 55.8505 15.3979C55.9129 15.8481 55.9413 16.2967 55.9413 16.7453C55.9413 17.1939 55.9129 17.644 55.8505 18.0926C55.7935 18.5454 55.6816 18.9955 55.5156 19.44Z" fill="#191815"/>
<path d="M62.631 19.6666C62.4655 19.1838 62.3555 18.6957 62.3018 18.2052C62.2337 17.7191 62.2081 17.2329 62.2053 16.7453C62.2025 16.2576 62.2337 15.7715 62.299 15.2853C62.3536 14.7953 62.4646 14.3077 62.631 13.8254C62.8002 14.3075 62.9112 14.7952 62.9631 15.2853C63.0312 15.7715 63.0568 16.2591 63.0568 16.7453C63.0568 17.2314 63.0312 17.7191 62.9631 18.2052C62.9084 18.6957 62.7975 19.1838 62.631 19.6666Z" fill="#191815"/>
<path d="M64.3992 18.7288C64.2343 18.4046 64.1223 18.073 64.0643 17.7378C63.9432 17.0783 63.9432 16.4138 64.0643 15.7543C64.1222 15.4186 64.2343 15.0864 64.3992 14.7617C64.5641 15.0864 64.6762 15.4186 64.7341 15.7543C64.8571 16.4137 64.8571 17.0784 64.7341 17.7378C64.6749 18.0729 64.5628 18.4044 64.3992 18.7288Z" fill="#191815"/>
<path d="M126.585 27.9227C126.409 26.0595 126.318 24.1979 126.255 22.3347C126.216 21.3969 126.207 20.4715 126.184 19.54L126.159 16.7452L126.182 13.9504C126.207 13.0204 126.213 12.0888 126.253 11.1572C126.315 9.294 126.409 7.43081 126.585 5.56763C126.763 7.43081 126.868 9.294 126.917 11.1572C126.956 12.095 126.965 13.0204 126.988 13.9504L127.01 16.7452L126.988 19.54C126.965 20.4778 126.956 21.4031 126.917 22.3347C126.854 24.1979 126.775 26.0595 126.585 27.9227Z" fill="#191815"/>
<path d="M128.364 23.1694C128.188 22.0987 128.095 21.028 128.032 19.9573C127.992 19.4227 127.984 18.8866 127.961 18.352L127.939 16.7452L127.961 15.1399C127.984 14.6038 127.992 14.0692 128.032 13.5331C128.095 12.4624 128.185 11.3932 128.364 10.3225C128.54 11.3932 128.648 12.4624 128.696 13.5331C128.736 14.0692 128.742 14.6038 128.767 15.1399L128.79 16.7452L128.764 18.352C128.742 18.8866 128.733 19.4227 128.693 19.9573C128.631 21.028 128.54 22.0987 128.364 23.1694Z" fill="#191815"/>
<path d="M135.474 25.6844C135.298 24.1932 135.207 22.7036 135.145 21.2124C135.105 20.4668 135.096 19.7212 135.074 18.9772L135.048 16.7404L135.071 14.5052C135.096 13.7597 135.102 13.0141 135.142 12.2701C135.204 10.7789 135.298 9.28771 135.474 7.7981C135.653 9.28771 135.744 10.7789 135.806 12.2701C135.846 13.0141 135.854 13.7597 135.877 14.5052L135.9 16.7404L135.877 18.9772C135.854 19.7212 135.846 20.4668 135.806 21.2124C135.744 22.7145 135.65 24.1979 135.474 25.6844Z" fill="#191815"/>
<path d="M140.807 24.5247C140.631 23.2289 140.54 21.9315 140.478 20.6357C140.438 19.9871 140.43 19.3384 140.407 18.6897L140.384 16.7452L140.404 14.8008C140.43 14.1521 140.435 13.505 140.475 12.8563C140.537 11.559 140.631 10.2632 140.807 8.96582C140.986 10.2632 141.091 11.559 141.142 12.8563C141.182 13.505 141.187 14.1521 141.213 14.8008L141.233 16.7452L141.21 18.6897C141.187 19.3384 141.179 19.9871 141.139 20.6357C141.077 21.9331 140.986 23.2289 140.807 24.5247Z" fill="#191815"/>
<path d="M153.247 22.9226C153.071 21.8925 152.977 20.864 152.915 19.8339C152.878 19.3197 152.867 18.8039 152.844 18.2896L152.821 16.7453L152.844 15.201C152.867 14.6867 152.875 14.1725 152.915 13.6567C152.977 12.6281 153.071 11.5981 153.247 10.5696C153.423 11.5981 153.517 12.6281 153.579 13.6567C153.619 14.1725 153.627 14.6867 153.65 15.201L153.673 16.7453L153.65 18.2896C153.627 18.8039 153.616 19.3197 153.579 19.8339C153.517 20.864 153.423 21.8925 153.247 22.9226Z" fill="#191815"/>
<path d="M124.808 23.1694C124.632 22.0987 124.524 21.028 124.476 19.9573C124.436 19.4227 124.428 18.8866 124.405 18.352L124.382 16.7452L124.405 15.1399C124.428 14.6038 124.436 14.0692 124.476 13.5331C124.538 12.4624 124.629 11.3932 124.808 10.3225C124.984 11.3932 125.078 12.4624 125.14 13.5331C125.18 14.0692 125.188 14.6038 125.211 15.1399L125.234 16.7452L125.211 18.352C125.185 18.8866 125.177 19.4227 125.14 19.9573C125.072 21.028 124.984 22.0987 124.808 23.1694Z" fill="#191815"/>
<path d="M130.141 21.8595C129.965 21.0061 129.874 20.1542 129.809 19.3023C129.772 18.8756 129.763 18.4505 129.738 18.0237L129.715 16.7451L129.738 15.4666C129.761 15.0414 129.769 14.6147 129.809 14.1895C129.871 13.3361 129.965 12.4842 130.141 11.6323C130.32 12.4842 130.411 13.3361 130.473 14.1895C130.513 14.6147 130.521 15.0414 130.544 15.4666L130.567 16.7451L130.544 18.0237C130.521 18.4505 130.513 18.8756 130.473 19.3023C130.411 20.1542 130.317 21.0061 130.141 21.8595Z" fill="#191815"/>
<path d="M123.031 21.8595C122.852 21.0061 122.762 20.1542 122.699 19.3023C122.659 18.8756 122.651 18.4505 122.628 18.0237L122.606 16.7451L122.625 15.4666C122.651 15.0414 122.657 14.6147 122.696 14.1895C122.759 13.3361 122.852 12.4842 123.031 11.6323C123.207 12.4842 123.315 13.3361 123.363 14.1895C123.403 14.6147 123.409 15.0414 123.434 15.4666L123.454 16.7451L123.431 18.0237C123.409 18.4505 123.4 18.8756 123.36 19.3023C123.298 20.1542 123.207 21.0061 123.031 21.8595Z" fill="#191815"/>
<path d="M119.475 27.0505C119.299 25.3311 119.191 23.6117 119.143 21.8924C119.103 21.0342 119.095 20.173 119.072 19.3164L119.049 16.7405L119.072 14.1645C119.095 13.3064 119.103 12.4451 119.143 11.5886C119.205 9.86918 119.296 8.1498 119.475 6.43042C119.651 8.1498 119.745 9.86918 119.807 11.5886C119.847 12.4467 119.852 13.3079 119.878 14.1645L119.901 16.7405L119.875 19.3164C119.852 20.1761 119.844 21.0358 119.804 21.8924C119.742 23.6149 119.651 25.3327 119.475 27.0505Z" fill="#191815"/>
<path d="M115.919 27.9695C115.743 26.0939 115.649 24.2275 115.587 22.3565C115.547 21.4187 115.538 20.4809 115.516 19.543L115.493 16.7295L115.516 13.9238C115.538 12.9859 115.547 12.0481 115.587 11.1102C115.649 9.23453 115.74 7.36978 115.919 5.49878C116.095 7.37447 116.188 9.23922 116.251 11.1102C116.29 12.0481 116.299 12.9859 116.322 13.9238L116.344 16.7295L116.322 19.543C116.296 20.4809 116.288 21.4187 116.251 22.3565C116.188 24.2275 116.095 26.0985 115.919 27.9695Z" fill="#191815"/>
<path d="M117.693 31.1864C117.528 28.7792 117.418 26.3721 117.363 23.9649C117.324 22.7629 117.315 21.5594 117.292 20.3558L117.267 16.7451L117.29 13.136C117.315 11.9324 117.321 10.7288 117.36 9.52526C117.417 7.11813 117.528 4.71151 117.693 2.30542C117.859 4.71255 117.97 7.11917 118.025 9.52526C118.064 10.7288 118.073 11.9324 118.096 13.136L118.118 16.7451L118.096 20.3558C118.073 21.5594 118.064 22.7629 118.025 23.9649C117.97 26.3721 117.859 28.7792 117.693 31.1864Z" fill="#191815"/>
<path d="M112.362 22.9226C112.186 21.8925 112.096 20.864 112.033 19.8339C111.993 19.3197 111.985 18.8039 111.959 18.2896L111.937 16.7453L111.959 15.201C111.982 14.6867 111.991 14.1725 112.03 13.6567C112.093 12.6281 112.186 11.5981 112.362 10.5696C112.541 11.5981 112.646 12.6281 112.694 13.6567C112.734 14.1725 112.743 14.6867 112.765 15.201L112.788 16.7453L112.765 18.2896C112.743 18.8039 112.734 19.3197 112.694 19.8339C112.632 20.864 112.538 21.8925 112.362 22.9226Z" fill="#191815"/>
<path d="M133.697 21.8799C133.521 21.0233 133.428 20.1683 133.365 19.3118C133.325 18.885 133.317 18.4568 133.294 18.0285L133.271 16.7452L133.294 15.4619C133.317 15.0336 133.325 14.6069 133.365 14.1786C133.428 13.3236 133.518 12.4671 133.697 11.6121C133.873 12.4671 133.981 13.3236 134.029 14.1786C134.069 14.6069 134.078 15.0336 134.1 15.4619L134.123 16.7452L134.1 18.0285C134.075 18.4568 134.066 18.885 134.029 19.3118C133.964 20.1683 133.87 21.0233 133.697 21.8799Z" fill="#191815"/>
<path d="M137.254 21.8799C137.078 21.0233 136.97 20.1683 136.921 19.3118C136.882 18.885 136.873 18.4568 136.851 18.0285L136.828 16.7452L136.851 15.4619C136.873 15.0336 136.882 14.6069 136.921 14.1786C136.984 13.3236 137.075 12.4671 137.254 11.6121C137.429 12.4671 137.523 13.3236 137.586 14.1786C137.625 14.6069 137.631 15.0336 137.657 15.4619L137.679 16.7452L137.654 18.0285C137.631 18.4568 137.623 18.885 137.583 19.3118C137.52 20.1683 137.429 21.0233 137.254 21.8799Z" fill="#191815"/>
<path d="M146.143 21.8799C145.967 21.0233 145.873 20.1683 145.811 19.3118C145.771 18.885 145.763 18.4568 145.74 18.0285L145.717 16.7452L145.74 15.4619C145.763 15.0336 145.771 14.6069 145.811 14.1786C145.873 13.3236 145.964 12.4671 146.143 11.6121C146.319 12.4671 146.427 13.3236 146.475 14.1786C146.515 14.6069 146.52 15.0336 146.546 15.4619L146.569 16.7452L146.543 18.0285C146.52 18.4568 146.512 18.885 146.472 19.3118C146.41 20.1683 146.319 21.0233 146.143 21.8799Z" fill="#191815"/>
<path d="M151.467 21.8799C151.291 21.0233 151.184 20.1683 151.135 19.3118C151.096 18.885 151.087 18.4568 151.064 18.0285L151.042 16.7452L151.064 15.4619C151.087 15.0336 151.096 14.6069 151.135 14.1786C151.198 13.3236 151.289 12.4671 151.467 11.6121C151.643 12.4671 151.737 13.3236 151.799 14.1786C151.839 14.6069 151.845 15.0336 151.87 15.4619L151.893 16.7452L151.867 18.0285C151.845 18.4568 151.836 18.885 151.797 19.3118C151.751 20.1683 151.646 21.0233 151.467 21.8799Z" fill="#191815"/>
<path d="M131.918 20.0354C131.752 19.4911 131.642 18.9421 131.588 18.391C131.52 17.8424 131.495 17.2969 131.492 16.7451C131.489 16.1933 131.52 15.6509 131.586 15.1007C131.64 14.5491 131.751 13.9996 131.918 13.4548C132.087 13.9995 132.198 14.549 132.253 15.1007C132.318 15.6494 132.343 16.1949 132.346 16.7451C132.349 17.2953 132.318 17.8393 132.25 18.391C132.196 18.9422 132.086 19.4912 131.918 20.0354Z" fill="#191815"/>
<path d="M121.252 20.0354C121.087 19.491 120.976 18.9421 120.92 18.391C120.854 17.8424 120.829 17.2969 120.826 16.7451C120.823 16.1933 120.851 15.6509 120.92 15.1007C120.974 14.5491 121.085 13.9996 121.252 13.4548C121.42 13.9995 121.531 14.549 121.584 15.1007C121.652 15.6494 121.677 16.1949 121.677 16.7451C121.677 17.2953 121.652 17.8393 121.584 18.391C121.529 18.9421 121.418 19.4911 121.252 20.0354Z" fill="#191815"/>
<path d="M114.142 25.6844C113.963 24.1932 113.872 22.7036 113.81 21.2124C113.77 20.4668 113.762 19.7212 113.739 18.9772L113.716 16.7404L113.736 14.5052C113.762 13.7597 113.77 13.0141 113.807 12.2701C113.869 10.7789 113.963 9.28771 114.142 7.7981C114.318 9.28771 114.426 10.7789 114.474 12.2701C114.514 13.0141 114.519 13.7597 114.545 14.5052L114.568 16.7404L114.542 18.9772C114.519 19.7212 114.511 20.4668 114.471 21.2124C114.409 22.7145 114.318 24.1979 114.142 25.6844Z" fill="#191815"/>
<path d="M110.597 19.44C110.431 18.9955 110.319 18.5454 110.262 18.0926C110.2 17.644 110.171 17.1954 110.171 16.7453C110.171 16.2951 110.2 15.8481 110.262 15.3979C110.319 14.9452 110.431 14.4951 110.597 14.0505C110.763 14.4951 110.874 14.9452 110.932 15.3979C110.994 15.8481 111.023 16.2967 111.023 16.7453C111.023 17.1939 110.991 17.644 110.929 18.0926C110.872 18.5453 110.761 18.9953 110.597 19.44Z" fill="#191815"/>
<path d="M103.484 19.44C103.318 18.9955 103.206 18.5454 103.149 18.0926C103.087 17.644 103.059 17.1954 103.059 16.7453C103.059 16.2951 103.087 15.8481 103.149 15.3979C103.205 14.9451 103.317 14.495 103.484 14.0505C103.649 14.4951 103.76 14.9452 103.816 15.3979C103.879 15.8481 103.91 16.2972 103.91 16.7453C103.91 17.1954 103.879 17.644 103.816 18.0926C103.759 18.5453 103.648 18.9953 103.484 19.44Z" fill="#191815"/>
<path d="M98.1485 20.3386C97.9826 19.7435 97.8728 19.144 97.8193 18.5427C97.7796 18.2425 97.7711 17.944 97.7483 17.6439L97.7228 16.7451C97.7228 16.1465 97.754 15.5478 97.8165 14.9491C97.871 14.3472 97.9819 13.7473 98.1485 13.1516C98.3166 13.7472 98.4275 14.3472 98.4806 14.9491C98.5431 15.5478 98.5771 16.1465 98.5742 16.7451L98.5516 17.6439C98.5289 17.944 98.5204 18.2425 98.4806 18.5427C98.4262 19.1441 98.3153 19.7435 98.1485 20.3386Z" fill="#191815"/>
<path d="M96.3775 19.6666C96.2124 19.1837 96.1015 18.6956 96.0454 18.2052C95.9801 17.7191 95.9546 17.2329 95.9517 16.7453C95.9489 16.2576 95.9773 15.7715 96.0454 15.2853C96.1001 14.7953 96.211 14.3077 96.3775 13.8254C96.5453 14.3076 96.6563 14.7953 96.7096 15.2853C96.7777 15.7715 96.8032 16.2591 96.8032 16.7453C96.8032 17.2314 96.7777 17.7191 96.7096 18.2052C96.6549 18.6957 96.5439 19.1838 96.3775 19.6666Z" fill="#191815"/>
<path d="M94.6007 18.7288C94.4358 18.4046 94.3238 18.073 94.2658 17.7378C94.1447 17.0783 94.1447 16.4138 94.2658 15.7543C94.3237 15.4186 94.4358 15.0864 94.6007 14.7617C94.7656 15.0864 94.8778 15.4186 94.9357 15.7543C95.0587 16.4137 95.0587 17.0784 94.9357 17.7378C94.8764 18.0729 94.7643 18.4044 94.6007 18.7288Z" fill="#191815"/>
<path d="M108.806 20.8591C108.63 20.1729 108.539 19.4883 108.477 18.8021C108.437 18.4598 108.429 18.1175 108.406 17.7736L108.38 16.7451C108.38 16.0605 108.414 15.3743 108.474 14.6881C108.534 14.0019 108.63 13.3173 108.806 12.6311C108.985 13.3173 109.076 14.0035 109.138 14.6881C109.201 15.3727 109.235 16.0605 109.232 16.7451L109.209 17.7736C109.186 18.1175 109.178 18.4598 109.138 18.8021C109.076 19.4883 108.982 20.1729 108.806 20.8591Z" fill="#191815"/>
<path d="M105.261 20.8591C105.085 20.1729 104.991 19.4883 104.929 18.8021C104.889 18.4598 104.881 18.1175 104.858 17.7736L104.835 16.7451C104.835 16.0605 104.867 15.3743 104.929 14.6881C104.991 14.0019 105.082 13.3173 105.261 12.6311C105.437 13.3173 105.545 14.0035 105.593 14.6881C105.641 15.3727 105.69 16.0605 105.687 16.7451L105.664 17.7736C105.639 18.1175 105.63 18.4598 105.593 18.8021C105.528 19.4883 105.437 20.1729 105.261 20.8591Z" fill="#191815"/>
<path d="M107.032 21.8799C106.856 21.0233 106.765 20.1683 106.7 19.3118C106.663 18.885 106.655 18.4568 106.629 18.0285L106.606 16.7452L106.629 15.4619C106.652 15.0336 106.66 14.6069 106.7 14.1786C106.763 13.3236 106.856 12.4671 107.032 11.6121C107.211 12.4671 107.302 13.3236 107.364 14.1786C107.404 14.6069 107.413 15.0336 107.435 15.4619L107.458 16.7452L107.435 18.0285C107.413 18.4568 107.404 18.885 107.364 19.3118C107.302 20.1683 107.208 21.0233 107.032 21.8799Z" fill="#191815"/>
<path d="M101.705 21.8799C101.529 21.0233 101.438 20.1683 101.373 19.3118C101.336 18.885 101.327 18.4568 101.302 18.0285L101.279 16.7452L101.302 15.4619C101.325 15.0336 101.333 14.6069 101.373 14.1786C101.435 13.3236 101.529 12.4671 101.705 11.6121C101.884 12.4671 101.974 13.3236 102.037 14.1786C102.077 14.6069 102.085 15.0336 102.108 15.4619L102.131 16.7452L102.108 18.0285C102.085 18.4568 102.077 18.885 102.037 19.3118C101.974 20.1683 101.881 21.0233 101.705 21.8799Z" fill="#191815"/>
<path d="M99.9281 22.9226C99.7521 21.8925 99.6584 20.864 99.596 19.8339C99.5563 19.3197 99.5478 18.8039 99.525 18.2896L99.5023 16.7453L99.525 15.201C99.5478 14.6867 99.5563 14.1725 99.596 13.6567C99.6584 12.6281 99.7492 11.5981 99.9281 10.5696C100.104 11.5981 100.212 12.6281 100.26 13.6567C100.3 14.1725 100.306 14.6867 100.331 15.201L100.354 16.7453L100.328 18.2896C100.306 18.8039 100.297 19.3197 100.257 19.8339C100.195 20.864 100.096 21.8925 99.9281 22.9226Z" fill="#191815"/>
<path d="M155.024 20.3386C154.858 19.7435 154.748 19.144 154.694 18.5427C154.655 18.2425 154.646 17.944 154.623 17.6439L154.598 16.7451C154.598 16.1465 154.632 15.5478 154.692 14.9491C154.746 14.3472 154.857 13.7473 155.024 13.1516C155.193 13.7471 155.304 14.3471 155.359 14.9491C155.418 15.5478 155.452 16.1465 155.449 16.7451L155.427 17.6439C155.404 17.944 155.395 18.2425 155.356 18.5427C155.303 19.1441 155.192 19.7436 155.024 20.3386Z" fill="#191815"/>
<path d="M144.372 20.8591C144.196 20.1729 144.105 19.4883 144.043 18.8021C144.003 18.4598 143.995 18.1175 143.972 17.7736L143.946 16.7451C143.946 16.0605 143.978 15.3743 144.04 14.6881C144.102 14.0019 144.196 13.3173 144.372 12.6311C144.551 13.3173 144.656 14.0035 144.704 14.6881C144.752 15.3727 144.801 16.0605 144.798 16.7451L144.775 17.7736C144.752 18.1175 144.744 18.4598 144.704 18.8021C144.633 19.4883 144.539 20.1729 144.372 20.8591Z" fill="#191815"/>
<path d="M147.914 20.8591C147.738 20.1729 147.644 19.4883 147.582 18.8021C147.542 18.4598 147.534 18.1175 147.511 17.7736L147.488 16.7451C147.488 16.0605 147.519 15.3743 147.582 14.6881C147.644 14.0019 147.735 13.3173 147.914 12.6311C148.09 13.3173 148.183 14.0035 148.246 14.6881C148.308 15.3727 148.342 16.0605 148.34 16.7451L148.317 17.7736C148.291 18.1175 148.283 18.4598 148.243 18.8021C148.181 19.4883 148.09 20.1729 147.914 20.8591Z" fill="#191815"/>
<path d="M139.03 19.44C138.866 18.9954 138.754 18.5453 138.695 18.0926C138.633 17.644 138.605 17.1954 138.605 16.7453C138.605 16.2951 138.633 15.8481 138.695 15.3979C138.753 14.9452 138.865 14.4951 139.03 14.0505C139.196 14.4951 139.308 14.9452 139.365 15.3979C139.428 15.8481 139.456 16.2967 139.456 16.7453C139.456 17.1939 139.428 17.644 139.365 18.0926C139.308 18.5454 139.196 18.9955 139.03 19.44Z" fill="#191815"/>
<path d="M142.587 19.44C142.421 18.9955 142.309 18.5454 142.252 18.0926C142.189 17.644 142.161 17.1954 142.161 16.7453C142.161 16.2951 142.189 15.8481 142.252 15.3979C142.309 14.9452 142.421 14.4951 142.587 14.0505C142.752 14.4951 142.864 14.9452 142.921 15.3979C142.984 15.8481 143.012 16.2967 143.012 16.7453C143.012 17.1939 142.981 17.644 142.919 18.0926C142.863 18.5453 142.752 18.9955 142.587 19.44Z" fill="#191815"/>
<path d="M149.691 19.44C149.527 18.9953 149.416 18.5453 149.359 18.0926C149.296 17.6446 149.265 17.1954 149.265 16.7453C149.265 16.2967 149.293 15.8481 149.356 15.3979C149.413 14.9452 149.525 14.4951 149.691 14.0505C149.856 14.4951 149.968 14.9452 150.026 15.3979C150.088 15.8481 150.116 16.2967 150.116 16.7453C150.116 17.1939 150.088 17.644 150.026 18.0926C149.969 18.5454 149.857 18.9955 149.691 19.44Z" fill="#191815"/>
<path d="M156.798 19.6651C156.631 19.1828 156.52 18.6952 156.465 18.2052C156.397 17.7191 156.372 17.2329 156.372 16.7453C156.372 16.2576 156.397 15.7715 156.465 15.2853C156.517 14.7952 156.628 14.3075 156.798 13.8254C156.964 14.3077 157.075 14.7953 157.13 15.2853C157.195 15.7715 157.22 16.2591 157.223 16.7453C157.226 17.2314 157.195 17.7191 157.127 18.2052C157.073 18.6952 156.963 19.1828 156.798 19.6651Z" fill="#191815"/>
<path d="M158.563 18.7288C158.398 18.4046 158.286 18.073 158.228 17.7378C158.107 17.0783 158.107 16.4138 158.228 15.7543C158.286 15.4186 158.398 15.0864 158.563 14.7617C158.728 15.0864 158.84 15.4186 158.898 15.7543C159.019 16.4138 159.019 17.0783 158.898 17.7378C158.84 18.073 158.728 18.4046 158.563 18.7288Z" fill="#191815"/>
<path d="M80.3813 34C80.2167 31.1667 80.1069 28.3333 80.052 25.5C80.0123 24.0839 80.0038 22.6661 79.9811 21.25L79.9556 17L79.9783 12.75C80.0038 11.3339 80.0095 9.91615 80.0492 8.5C80.106 5.66667 80.2167 2.83333 80.3813 0C80.5497 2.83438 80.6604 5.66771 80.7133 8.5C80.7531 9.91615 80.7616 11.3339 80.7843 12.75L80.807 17L80.7843 21.25C80.7616 22.6661 80.7531 24.0839 80.7133 25.5C80.6566 28.3323 80.5459 31.1656 80.3813 34Z" fill="#191815"/>
<path d="M82.1608 31.3614C81.9962 28.9647 81.8855 26.5711 81.8287 24.1807C81.789 22.9834 81.7805 21.7876 81.7578 20.5856L81.7351 16.9905L81.7578 13.3955C81.7805 12.1982 81.789 11.0024 81.8287 9.80039C81.8836 7.40368 81.9943 5.01009 82.1608 2.61963C82.3255 5.01634 82.4361 7.40993 82.4929 9.80039C82.5326 10.9977 82.5383 12.1935 82.5638 13.3955L82.5866 16.9905L82.561 20.5856C82.5383 21.7829 82.5298 22.9787 82.49 24.1807C82.4371 26.5743 82.3273 28.9679 82.1608 31.3614Z" fill="#191815"/>
<path d="M89.2706 30.8097C89.106 28.5068 88.9962 26.2049 88.9413 23.904C88.9016 22.7536 88.8931 21.6032 88.8704 20.4528L88.8449 16.9999L88.8675 13.5471C88.8931 12.3967 88.8988 11.2463 88.9385 10.0958C88.9953 7.79292 89.106 5.49103 89.2706 3.19019C89.4371 5.49311 89.5478 7.795 89.6027 10.0958C89.6424 11.2463 89.6509 12.3967 89.6736 13.5471L89.6963 16.9999L89.6736 20.4528C89.6509 21.6032 89.6424 22.7536 89.6027 23.904C89.5459 26.207 89.4352 28.5089 89.2706 30.8097Z" fill="#191815"/>
<path d="M94.6036 30.8097C94.439 28.5068 94.3293 26.2049 94.2744 23.904C94.2346 22.7536 94.2261 21.6032 94.2034 20.4528L94.1779 16.9999L94.2006 13.5471C94.2261 12.3967 94.2318 11.2463 94.2715 10.0958C94.3283 7.79292 94.439 5.49103 94.6036 3.19019C94.7701 5.49311 94.8808 7.795 94.9357 10.0958C94.9754 11.2463 94.984 12.3967 95.0067 13.5471L95.0293 16.9999L95.0067 20.4528C94.984 21.6032 94.9754 22.7536 94.9357 23.904C94.8789 26.207 94.7682 28.5089 94.6036 30.8097Z" fill="#191815"/>
<path d="M107.044 28.4778C106.868 26.5646 106.774 24.6514 106.711 22.7397C106.672 21.7831 106.663 20.8265 106.641 19.8699L106.618 17.0001L106.641 14.1303C106.663 13.1737 106.672 12.2171 106.711 11.2621C106.774 9.34886 106.865 7.43566 107.044 5.52246C107.219 7.43566 107.313 9.34886 107.376 11.2621C107.415 12.2171 107.424 13.1737 107.447 14.1303L107.469 17.0001L107.447 19.8699C107.421 20.8265 107.412 21.7831 107.376 22.7397C107.313 24.6514 107.219 26.5646 107.044 28.4778Z" fill="#191815"/>
<path d="M78.6046 31.3614C78.4399 28.9647 78.3293 26.5711 78.2725 24.1807C78.2328 22.9834 78.2243 21.7876 78.2016 20.5856L78.1788 16.9905L78.2016 13.3955C78.2243 12.1982 78.2328 11.0024 78.2725 9.80039C78.3274 7.40368 78.4381 5.01009 78.6046 2.61963C78.7692 5.01634 78.8799 7.40993 78.9366 9.80039C78.9764 10.9977 78.9849 12.1935 79.0076 13.3955L79.0303 16.9905L79.0076 20.5856C78.982 21.7829 78.9735 22.9787 78.9366 24.1807C78.8799 26.5743 78.7692 28.9679 78.6046 31.3614Z" fill="#191815"/>
<path d="M83.9376 28.4323C83.7616 26.5269 83.6537 24.6215 83.6055 22.7161C83.5686 21.7642 83.5572 20.8107 83.5345 19.8588L83.5118 17L83.5345 14.1427C83.5572 13.1892 83.5657 12.2373 83.6055 11.2838C83.6679 9.3784 83.7616 7.47301 83.9376 5.56763C84.1164 7.47301 84.2072 9.3784 84.2696 11.2838C84.3094 12.2373 84.3179 13.1892 84.3406 14.1427L84.3633 17L84.3406 19.8588C84.3179 20.8107 84.3094 21.7642 84.2696 22.7161C84.2015 24.6215 84.1135 26.5269 83.9376 28.4323Z" fill="#191815"/>
<path d="M76.8221 28.4323C76.6462 26.5269 76.5554 24.6215 76.4929 22.7161C76.4532 21.7642 76.4447 20.8107 76.422 19.8588L76.3992 17L76.4191 14.1427C76.4447 13.1892 76.4504 12.2373 76.4901 11.2838C76.5525 9.3784 76.6462 7.47301 76.8221 5.56763C77.0009 7.47301 77.1059 9.3784 77.157 11.2838C77.1968 12.2373 77.2024 13.1892 77.228 14.1427L77.2479 17L77.2251 19.8588C77.2024 20.8107 77.1939 21.7642 77.1542 22.7161C77.1059 24.6215 77.0038 26.5269 76.8221 28.4323Z" fill="#191815"/>
<path d="M73.2715 28.4323C73.0956 26.5269 73.0019 24.6215 72.9394 22.7161C72.8997 21.7642 72.8912 20.8107 72.8685 19.8588L72.8458 17L72.8685 14.1427C72.8912 13.1892 72.8997 12.2373 72.9394 11.2838C73.0019 9.3784 73.0927 7.47301 73.2715 5.56763C73.4475 7.47301 73.5553 9.3784 73.6036 11.2838C73.6433 12.2373 73.649 13.1892 73.6745 14.1427L73.6973 17L73.6717 19.8588C73.649 20.8107 73.6405 21.7642 73.6007 22.7161C73.5383 24.6215 73.4475 26.5269 73.2715 28.4323Z" fill="#191815"/>
<path d="M69.7266 28.4323C69.5506 26.5269 69.4427 24.6215 69.3945 22.7161C69.3548 21.7642 69.3462 20.8107 69.3235 19.8588L69.3008 17L69.3235 14.1427C69.3462 13.1892 69.3548 12.2373 69.3945 11.2838C69.4569 9.3784 69.5478 7.47301 69.7266 5.56763C69.9025 7.47301 70.0104 9.3784 70.0587 11.2838C70.0984 12.2373 70.1069 13.1892 70.1296 14.1427L70.1523 17L70.1296 19.8588C70.1041 20.8107 70.0956 21.7642 70.0587 22.7161C69.982 24.6215 69.8912 26.5269 69.7266 28.4323Z" fill="#191815"/>
<path d="M71.492 30.8097C71.3273 28.5068 71.2176 26.2049 71.1627 23.904C71.123 22.7536 71.1145 21.6032 71.0918 20.4528L71.0662 16.9999L71.089 13.5471C71.1145 12.3967 71.1202 11.2463 71.1599 10.0958C71.2167 7.79292 71.3273 5.49103 71.492 3.19019C71.6585 5.49311 71.7692 7.795 71.824 10.0958C71.8638 11.2463 71.8723 12.3967 71.895 13.5471L71.9177 16.9999L71.895 20.4528C71.8723 21.6032 71.8638 22.7536 71.824 23.904C71.7673 26.207 71.6566 28.5089 71.492 30.8097Z" fill="#191815"/>
<path d="M66.1589 30.8097C65.9943 28.5068 65.8836 26.2049 65.8269 23.904C65.79 22.7536 65.7815 21.6032 65.7559 20.4528L65.7332 16.9999L65.7559 13.5471C65.7786 12.3967 65.7871 11.2463 65.8269 10.0958C65.8836 7.79292 65.9943 5.49103 66.1589 3.19019C66.3236 5.49311 66.4342 7.795 66.491 10.0958C66.5307 11.2463 66.5392 12.3967 66.562 13.5471L66.5847 16.9999L66.562 20.4528C66.5392 21.6032 66.5307 22.7536 66.491 23.904C66.4342 26.207 66.3236 28.5089 66.1589 30.8097Z" fill="#E06065"/>
<path d="M87.4939 28.4778C87.3179 26.5646 87.2242 24.6514 87.1618 22.7397C87.1221 21.7831 87.1135 20.8265 87.0908 19.8699L87.0682 17.0001L87.0908 14.1303C87.1135 13.1737 87.1221 12.2171 87.1618 11.2621C87.2242 9.34886 87.3151 7.43566 87.4939 5.52246C87.6699 7.43566 87.7777 9.34886 87.826 11.2621C87.8657 12.2171 87.8742 13.1737 87.8969 14.1303L87.9196 17.0001L87.8912 19.8699C87.8685 20.8265 87.86 21.7831 87.8203 22.7397C87.7607 24.6514 87.6699 26.5646 87.4939 28.4778Z" fill="#191815"/>
<path d="M91.0501 28.4778C90.8741 26.5646 90.7663 24.6514 90.7181 22.7397C90.6783 21.7831 90.6698 20.8265 90.6471 19.8699L90.6244 17.0001L90.6471 14.1303C90.6698 13.1737 90.6783 12.2171 90.7181 11.2621C90.7805 9.34886 90.8713 7.43566 91.0501 5.52246C91.2261 7.43566 91.3198 9.34886 91.3822 11.2621C91.422 12.2171 91.4276 13.1737 91.4532 14.1303L91.4758 17.0001L91.4503 19.8699C91.4276 20.8265 91.4191 21.7831 91.3794 22.7397C91.3169 24.6514 91.2261 26.5646 91.0501 28.4778Z" fill="#191815"/>
<path d="M99.9394 28.4778C99.7606 26.5646 99.6698 24.6514 99.6074 22.7397C99.5676 21.7831 99.5591 20.8265 99.5364 19.8699L99.5137 17.0001L99.5364 14.1303C99.5591 13.1737 99.5676 12.2171 99.6045 11.2621C99.667 9.34886 99.7606 7.43566 99.9394 5.52246C100.115 7.43566 100.223 9.34886 100.272 11.2621C100.311 12.2171 100.317 13.1737 100.342 14.1303L100.365 17.0001L100.34 19.8699C100.317 20.8265 100.308 21.7831 100.269 22.7397C100.206 24.6514 100.115 26.5646 99.9394 28.4778Z" fill="#191815"/>
<path d="M85.7143 24.3559C85.5384 23.1305 85.4475 21.9035 85.385 20.678C85.3453 20.0653 85.3368 19.4526 85.3141 18.8399L85.2886 17.0001L85.3112 15.1619C85.3368 14.5477 85.3425 13.9349 85.3822 13.3222C85.4446 12.0967 85.5384 10.8697 85.7143 9.64429C85.8931 10.8697 85.9981 12.0967 86.0492 13.3222C86.0861 13.9349 86.0946 14.5477 86.1202 15.1619L86.1401 17.0001L86.1173 18.8399C86.0946 19.4526 86.0861 20.0653 86.0464 20.678C85.9839 21.9035 85.9045 23.1305 85.7143 24.3559Z" fill="#191815"/>
<path d="M75.0482 24.356C74.8723 23.1305 74.7815 21.9035 74.7162 20.678C74.6793 20.0653 74.6708 19.4526 74.6452 18.8399L74.6225 17.0001L74.6452 15.1619C74.6679 14.5477 74.6765 13.9349 74.7162 13.3222C74.7786 12.0967 74.8723 10.8697 75.0482 9.64429C75.2271 10.8697 75.3179 12.0967 75.3803 13.3222C75.42 13.9349 75.4285 14.5477 75.4513 15.1619L75.474 17.0001L75.4513 18.8399C75.4285 19.4526 75.42 20.0653 75.3803 20.678C75.3179 21.9035 75.2242 23.1305 75.0482 24.356Z" fill="#191815"/>
<path d="M67.9356 23.0273C67.7597 22.0222 67.6689 21.0187 67.6064 20.0137C67.5667 19.5119 67.5582 19.0102 67.5355 18.5084L67.5128 17.0016L67.5326 15.4948C67.5582 14.9931 67.5639 14.4913 67.6036 13.9896C67.666 12.9845 67.7597 11.981 67.9356 10.9775C68.1145 11.981 68.2195 12.9845 68.2706 13.9896C68.3103 14.4913 68.316 14.9931 68.3415 15.4948L68.3614 17.0016L68.3387 18.5084C68.316 19.0102 68.3075 19.5119 68.2677 20.0137C68.2053 21.0172 68.1145 22.0207 67.9356 23.0273Z" fill="#191815"/>
<path d="M64.3822 23.0273C64.2063 22.0222 64.0984 21.0187 64.0501 20.0137C64.0104 19.5119 64.0019 19.0102 63.9792 18.5084L63.9565 17.0016L63.9792 15.4948C64.0019 14.9931 64.0104 14.4913 64.0501 13.9896C64.1126 12.9845 64.2034 11.981 64.3822 10.9775C64.5582 11.981 64.6518 12.9845 64.7143 13.9896C64.754 14.4913 64.7597 14.9931 64.7852 15.4948L64.808 17.0016L64.7824 18.5084C64.7597 19.0102 64.7512 19.5119 64.7114 20.0137C64.649 21.0172 64.5582 22.0207 64.3822 23.0273Z" fill="#E06065"/>
<path d="M57.2782 23.0273C57.1022 22.0222 57.0113 21.0187 56.9489 20.0137C56.9092 19.5119 56.9007 19.0102 56.878 18.5084L56.8524 17.0016L56.8751 15.4948C56.9007 14.9931 56.9063 14.4913 56.9461 13.9896C57.0085 12.9845 57.1022 11.981 57.2782 10.9775C57.457 11.981 57.562 12.9845 57.613 13.9896C57.6499 14.4913 57.6585 14.9931 57.684 15.4948L57.7039 17.0016L57.6812 18.5084C57.6585 19.0102 57.65 19.5119 57.6102 20.0137C57.5478 21.0172 57.457 22.0207 57.2782 23.0273Z" fill="#E06065"/>
<path d="M51.9451 25.0342C51.7691 23.6947 51.6783 22.3567 51.6159 21.0171C51.5761 20.3481 51.5676 19.6776 51.5449 19.0086L51.5194 17L51.5421 14.9915C51.5677 14.3225 51.5733 13.6535 51.6131 12.9829C51.6755 11.6449 51.7691 10.3054 51.9451 8.96582C52.1239 10.3054 52.2289 11.6449 52.2772 12.9829C52.3169 13.6535 52.3254 14.3225 52.3482 14.9915L52.3708 17L52.3482 19.0086C52.3254 19.6776 52.3169 20.3481 52.2772 21.0171C52.2148 22.3567 52.1296 23.6947 51.9451 25.0342Z" fill="#E06065"/>
<path d="M50.1741 23.5289C49.9981 22.4347 49.9072 21.3531 49.842 20.2652C49.8051 19.7197 49.7966 19.171 49.771 18.6318L49.7483 16.9999L49.771 15.3681C49.7937 14.8241 49.8022 14.2739 49.842 13.7362C49.9044 12.6421 49.9981 11.5588 50.1741 10.4709C50.3529 11.5651 50.4579 12.6467 50.5061 13.7362C50.5459 14.2802 50.5544 14.8304 50.5771 15.3681L50.5998 16.9999L50.5771 18.6318C50.5544 19.1757 50.5459 19.7259 50.5061 20.2652C50.4437 21.3531 50.35 22.441 50.1741 23.5289Z" fill="#E06065"/>
<path d="M48.3973 21.4361C48.2214 20.6968 48.1277 19.9575 48.0653 19.2181C48.0256 18.8477 48.017 18.4788 47.9943 18.1083L47.9716 17.0001L47.9943 15.8919C48.017 15.5214 48.0256 15.1526 48.0653 14.7821C48.1277 14.0428 48.2185 13.3034 48.3973 12.5657C48.5733 13.3034 48.6812 14.0428 48.7294 14.7821C48.7692 15.1526 48.7748 15.5214 48.8004 15.8919L48.8231 17.0001L48.7975 18.1083C48.7748 18.4788 48.7663 18.8477 48.7266 19.2181C48.6641 19.9575 48.5733 20.6968 48.3973 21.4361Z" fill="#E06065"/>
<path d="M62.6027 26.1972C62.4267 24.6654 62.3359 23.1321 62.2734 21.5987C62.2337 20.8328 62.2252 20.0653 62.2025 19.2994L62.1769 17.0001L62.1996 14.7008C62.2252 13.9349 62.2308 13.1675 62.2706 12.4016C62.333 10.8682 62.4267 9.33635 62.6027 7.80298C62.7815 9.33635 62.8723 10.8682 62.9347 12.4016C62.9744 13.1675 62.983 13.9349 63.0057 14.7008L63.0284 17.0001L63.0057 19.2994C62.983 20.0653 62.9744 20.8328 62.9347 21.5987C62.8723 23.1321 62.7786 24.6654 62.6027 26.1972Z" fill="#E06065"/>
<path d="M59.0577 26.1972C58.8818 24.6654 58.7739 23.1321 58.7256 21.5987C58.6859 20.8328 58.6774 20.0653 58.6547 19.2994L58.632 17.0001L58.6547 14.7008C58.6774 13.9349 58.6859 13.1675 58.7256 12.4016C58.7881 10.8682 58.8789 9.33635 59.0577 7.80298C59.2337 9.33635 59.3273 10.8682 59.3898 12.4016C59.4295 13.1675 59.438 13.9349 59.4607 14.7008L59.4835 17.0001L59.4607 19.2994C59.4352 20.0653 59.4267 20.8328 59.3869 21.5987C59.3245 23.1321 59.2252 24.6654 59.0577 26.1972Z" fill="#E06065"/>
<path d="M60.8288 28.4778C60.6528 26.5646 60.5449 24.6514 60.4967 22.7397C60.4598 21.7831 60.4484 20.8265 60.4257 19.8699L60.403 17.0001L60.4257 14.1303C60.4484 13.1737 60.4569 12.2171 60.4967 11.2621C60.5591 9.34886 60.6528 7.43566 60.8288 5.52246C61.0047 7.43566 61.0984 9.34886 61.1608 11.2621C61.2005 12.2171 61.2091 13.1737 61.2318 14.1303L61.2545 17.0001L61.2318 19.8699C61.2091 20.8265 61.1977 21.7831 61.1608 22.7397C61.0984 24.6514 61.0047 26.5646 60.8288 28.4778Z" fill="#E06065"/>
<path d="M55.5014 28.4778C55.3254 26.5646 55.2176 24.6529 55.1693 22.7397C55.1324 21.7831 55.1239 20.8265 55.0984 19.8699L55.0757 17.0001L55.0984 14.1303C55.1211 13.1737 55.1296 12.2171 55.1693 11.2621C55.2318 9.34886 55.3254 7.43566 55.5014 5.52246C55.6802 7.43566 55.7711 9.34886 55.8335 11.2621C55.8732 12.2171 55.8818 13.1737 55.9045 14.1303L55.9271 17.0001L55.9045 19.8699C55.8818 20.8265 55.8732 21.7831 55.8335 22.7397C55.7711 24.6529 55.6774 26.5646 55.5014 28.4778Z" fill="#E06065"/>
<path d="M108.82 25.0342C108.644 23.6947 108.553 22.3551 108.491 21.0171C108.451 20.3481 108.443 19.6776 108.42 19.0086L108.395 17L108.417 14.9915C108.443 14.3225 108.448 13.6535 108.488 12.9829C108.551 11.6449 108.644 10.3054 108.82 8.96582C108.999 10.3054 109.104 11.6449 109.152 12.9829C109.192 13.6535 109.201 14.3225 109.223 14.9915L109.246 17L109.223 19.0086C109.201 19.6776 109.192 20.3481 109.152 21.0171C109.09 22.3551 108.996 23.6947 108.82 25.0342Z" fill="#191815"/>
<path d="M98.1601 26.1972C97.9841 24.6654 97.8933 23.1321 97.8309 21.5987C97.7912 20.8328 97.7826 20.0653 97.7599 19.2994L97.7344 17.0001L97.7571 14.7008C97.7798 13.9349 97.7883 13.1675 97.8281 12.4016C97.8905 10.8682 97.9841 9.33635 98.1601 7.80298C98.3389 9.33635 98.444 10.8682 98.4922 12.4016C98.532 13.1675 98.5405 13.9349 98.5632 14.7008L98.5858 17.0001L98.5632 19.2994C98.5405 20.0653 98.532 20.8328 98.4922 21.5987C98.4298 23.1321 98.3361 24.6654 98.1601 26.1972Z" fill="#191815"/>
<path d="M101.71 26.1972C101.534 24.6654 101.427 23.1321 101.378 21.5987C101.339 20.8328 101.33 20.0653 101.307 19.2994L101.285 17.0001L101.307 14.7008C101.33 13.9349 101.339 13.1675 101.378 12.4016C101.441 10.8682 101.532 9.33635 101.71 7.80298C101.886 9.33635 101.98 10.8682 102.043 12.4016C102.082 13.1675 102.088 13.9349 102.114 14.7008L102.136 17.0001L102.111 19.2994C102.088 20.0653 102.079 20.8328 102.04 21.5987C101.977 23.1321 101.886 24.6654 101.71 26.1972Z" fill="#191815"/>
<path d="M92.8269 23.0273C92.6509 22.0222 92.5572 21.0187 92.4948 20.0137C92.4579 19.5119 92.4466 19.0102 92.4239 18.5084L92.4011 17.0016L92.4239 15.4948C92.4466 14.9931 92.4551 14.4913 92.4948 13.9896C92.5572 12.9845 92.6509 11.981 92.8269 10.9775C93.0028 11.981 93.1107 12.9845 93.159 13.9896C93.1987 14.4913 93.2072 14.9931 93.2299 15.4948L93.2526 17.0016L93.2299 18.5084C93.2072 19.0102 93.1959 19.5119 93.159 20.0137C93.0965 21.0172 93 22.0207 92.8269 23.0273Z" fill="#191815"/>
<path d="M96.3831 23.0273C96.2072 22.0222 96.0993 21.0187 96.0511 20.0137C96.0114 19.5119 96.0028 19.0102 95.9801 18.5084L95.9574 17.0016L95.9801 15.4948C96.0028 14.9931 96.0114 14.4913 96.0511 13.9896C96.1135 12.9845 96.2043 11.981 96.3831 10.9775C96.5591 11.981 96.6528 12.9845 96.7153 13.9896C96.755 14.4913 96.7635 14.9931 96.7862 15.4948L96.8089 17.0016L96.7834 18.5084C96.7607 19.0102 96.7522 19.5119 96.7124 20.0137C96.65 21.0172 96.5591 22.0207 96.3831 23.0273Z" fill="#191815"/>
<path d="M103.501 23.0273C103.325 22.0222 103.235 21.0187 103.172 20.0137C103.132 19.5119 103.124 19.0102 103.098 18.5084L103.076 17.0016L103.098 15.4948C103.121 14.9931 103.13 14.4913 103.169 13.9896C103.232 12.9845 103.325 11.981 103.501 10.9775C103.68 11.981 103.785 12.9845 103.833 13.9896C103.873 14.4913 103.882 14.9931 103.904 15.4948L103.927 17.0016L103.904 18.5084C103.882 19.0102 103.873 19.5119 103.833 20.0137C103.757 21.0172 103.663 22.0207 103.501 23.0273Z" fill="#191815"/>
<path d="M110.597 23.5289C110.418 22.4347 110.327 21.3531 110.265 20.2652C110.225 19.7197 110.217 19.171 110.194 18.6318L110.171 16.9999L110.191 15.3681C110.217 14.8241 110.222 14.2739 110.262 13.7362C110.325 12.6421 110.418 11.5588 110.597 10.4709C110.773 11.5651 110.881 12.6467 110.929 13.7362C110.969 14.2802 110.974 14.8304 111 15.3681L111.02 16.9999L110.997 18.6318C110.974 19.1757 110.966 19.7259 110.926 20.2652C110.861 21.3531 110.77 22.441 110.597 23.5289Z" fill="#191815"/>
<path d="M112.371 21.4361C112.195 20.6968 112.101 19.9575 112.039 19.2181C111.999 18.8477 111.991 18.4788 111.968 18.1083L111.945 17.0001L111.968 15.8919C111.991 15.5214 111.999 15.1526 112.039 14.7821C112.101 14.0428 112.192 13.3034 112.371 12.5657C112.547 13.3034 112.64 14.0428 112.703 14.7821C112.743 15.1526 112.751 15.5214 112.774 15.8919L112.797 17.0001L112.774 18.1083C112.748 18.4788 112.74 18.8477 112.703 19.2181C112.64 19.9575 112.547 20.6968 112.371 21.4361Z" fill="#191815"/>
</g>
<defs>
<clipPath id="clip0_2940_37437">
<rect width="159" height="34" fill="white"/>
</clipPath>
</defs>
</svg>
