<svg width="474" height="34" viewBox="0 0 474 34" fill="none" xmlns="http://www.w3.org/2000/svg">
<g clip-path="url(#clip0_5928_44530)">
<path d="M96.6176 26.7378C96.093 25.0716 95.8222 23.4069 95.6276 21.736C95.5176 20.9029 95.4922 20.0697 95.416 19.2351L95.3484 16.7341L95.416 14.2332C95.4837 13.4001 95.5091 12.5686 95.6276 11.7323C95.8137 10.0661 96.093 8.4014 96.6176 6.73047C97.1506 8.39514 97.4636 10.0598 97.6074 11.7323C97.7259 12.5654 97.7513 13.397 97.819 14.2332L97.8867 16.7341L97.819 19.2351C97.7513 20.0682 97.7259 20.9013 97.6074 21.736C97.4213 23.4069 97.1421 25.0716 96.6176 26.7378Z" fill="#BB1865"/>
<path d="M101.922 23.1692C101.389 22.0985 101.076 21.0278 100.932 19.9571C100.814 19.4225 100.789 18.8864 100.721 18.3518L100.653 16.7449L100.713 15.1397C100.789 14.6035 100.806 14.069 100.924 13.5328C101.11 12.4621 101.389 11.393 101.922 10.3223C102.447 11.393 102.769 12.4621 102.912 13.5328C103.031 14.069 103.048 14.6035 103.124 15.1397L103.183 16.7449L103.115 18.3518C103.048 18.8864 103.022 19.4225 102.904 19.9571C102.718 21.0278 102.447 22.0985 101.922 23.1692Z" fill="#BB1865"/>
<path d="M123.118 29.31C122.627 27.2155 122.297 25.1215 122.128 23.028C122.018 21.9808 121.993 20.9335 121.916 19.8878L121.849 16.746L121.916 13.6058C121.984 12.5585 122.009 11.5113 122.128 10.4656C122.297 8.37107 122.627 6.27707 123.118 4.18359C123.609 6.27811 123.939 8.37211 124.108 10.4656C124.226 11.5113 124.252 12.5585 124.319 13.6058L124.387 16.746L124.319 19.8878C124.252 20.9335 124.226 21.9808 124.108 23.028C123.939 25.1215 123.609 27.2155 123.118 29.31Z" fill="#BB1865"/>
<path d="M139.016 26.7378C138.491 25.0731 138.221 23.4069 138.034 21.736C137.916 20.9029 137.891 20.0697 137.823 19.2351L137.747 16.7341L137.814 14.2332C137.891 13.4001 137.908 12.5686 138.026 11.7323C138.212 10.0661 138.491 8.4014 139.016 6.73047C139.549 8.39514 139.82 10.0598 140.006 11.7323C140.124 12.5654 140.15 13.397 140.218 14.2332L140.285 16.7341L140.218 19.2351C140.15 20.0682 140.124 20.9013 140.006 21.736C139.82 23.4069 139.541 25.0731 139.016 26.7378Z" fill="#BB1865"/>
<path d="M176.101 22.9233C175.577 21.8932 175.255 20.8647 175.112 19.8347C174.993 19.3204 174.968 18.8046 174.9 18.2903L174.832 16.746L174.9 15.2017C174.968 14.6875 174.993 14.1732 175.112 13.6574C175.298 12.6289 175.568 11.5988 176.101 10.5703C176.626 11.5988 176.948 12.6289 177.091 13.6574C177.21 14.1732 177.235 14.6875 177.303 15.2017L177.371 16.746L177.294 18.2903C177.227 18.8046 177.201 19.3204 177.083 19.8347C176.897 20.8647 176.626 21.8932 176.101 22.9233Z" fill="#191815"/>
<path d="M91.3209 23.1692C90.7963 22.0985 90.4748 21.0278 90.3309 19.9571C90.2125 19.4225 90.1871 18.8864 90.1194 18.3518L90.0518 16.7449L90.1194 15.1397C90.1871 14.6035 90.2125 14.069 90.3309 13.5328C90.5171 12.4621 90.7879 11.393 91.3209 10.3223C91.8455 11.393 92.1671 12.4621 92.3109 13.5328C92.4294 14.069 92.4463 14.6035 92.5224 15.1397L92.5901 16.7449L92.514 18.3518C92.4463 18.8864 92.4209 19.4225 92.3024 19.9571C92.1163 21.0278 91.8455 22.0985 91.3209 23.1692Z" fill="#BB1865"/>
<path d="M107.219 21.86C106.695 21.0066 106.373 20.1547 106.229 19.3028C106.111 18.8761 106.086 18.4509 106.018 18.0242L105.95 16.7456L106.018 15.467C106.086 15.0419 106.111 14.6152 106.229 14.19C106.416 13.3366 106.686 12.4847 107.219 11.6328C107.744 12.4847 108.065 13.3366 108.209 14.19C108.328 14.6152 108.353 15.0419 108.421 15.467L108.489 16.7456L108.421 18.0242C108.345 18.4509 108.319 18.8761 108.209 19.3028C108.023 20.1547 107.744 21.0066 107.219 21.86Z" fill="#BB1865"/>
<path d="M86.024 21.86C85.4995 21.0066 85.2287 20.1547 85.0425 19.3028C84.9241 18.8761 84.8987 18.4509 84.831 18.0242L84.7549 16.7456L84.8225 15.467C84.8987 15.0419 84.9156 14.6152 85.0341 14.19C85.2202 13.3366 85.4995 12.4847 86.024 11.6328C86.5571 12.4847 86.8702 13.3366 87.014 14.19C87.1325 14.6152 87.1579 15.0419 87.2256 15.467L87.2932 16.7456L87.2256 18.0242C87.1579 18.4509 87.1325 18.8761 87.014 19.3028C86.8194 20.1547 86.5402 21.0066 86.024 21.86Z" fill="#BB1865"/>
<path d="M75.4222 21.86C74.8892 21.0066 74.5762 20.1547 74.4324 19.3028C74.3139 18.8761 74.2885 18.4509 74.2208 18.0242L74.1531 16.7456L74.2124 15.467C74.2885 15.0419 74.3054 14.6152 74.4239 14.19C74.61 13.3366 74.8892 12.4847 75.4222 11.6328C75.9468 12.4847 76.2684 13.3366 76.4122 14.19C76.5307 14.6152 76.5476 15.0419 76.6238 15.467L76.6914 16.7456L76.6153 18.0242C76.5476 18.4509 76.5222 18.8761 76.4038 19.3028C76.2176 20.1547 75.9468 21.0066 75.4222 21.86Z" fill="#BB1865"/>
<path d="M64.8204 21.86C64.2958 21.0066 63.9744 20.1547 63.8306 19.3028C63.7121 18.8761 63.6867 18.4509 63.619 18.0242L63.5513 16.7456L63.619 15.467C63.6867 15.0419 63.7121 14.6152 63.8306 14.19C64.0167 13.3366 64.2874 12.4847 64.8204 11.6328C65.345 12.4847 65.6666 13.3366 65.8104 14.19C65.9289 14.6152 65.9458 15.0419 66.022 15.467L66.0896 16.7456L66.0135 18.0242C65.9458 18.4509 65.9204 18.8761 65.802 19.3028C65.6158 20.1547 65.345 21.0066 64.8204 21.86Z" fill="#BB1865"/>
<path d="M70.1173 24.5237C69.5927 23.2279 69.322 21.9306 69.1359 20.6348C69.0174 19.9861 68.992 19.3374 68.9159 18.6887L68.8481 16.7443L68.9159 14.7998C68.9836 14.1511 69.009 13.504 69.1274 12.8553C69.3136 11.558 69.5927 10.2622 70.1173 8.96484C70.6504 10.2622 70.9635 11.558 71.1073 12.8553C71.2258 13.504 71.2511 14.1511 71.3188 14.7998L71.3865 16.7443L71.3188 18.6887C71.2511 19.3374 71.2258 19.9861 71.1073 20.6348C70.9212 21.9321 70.6419 23.2279 70.1173 24.5237Z" fill="#BB1865"/>
<path d="M54.2189 22.9233C53.6943 21.8932 53.3727 20.8647 53.2289 19.8347C53.1104 19.3204 53.085 18.8046 53.0174 18.2903L52.9497 16.746L53.0174 15.2017C53.085 14.6875 53.1104 14.1732 53.2289 13.6574C53.415 12.6289 53.6858 11.5988 54.2189 10.5703C54.7435 11.5988 55.0226 12.6289 55.2088 13.6574C55.3272 14.1732 55.3526 14.6875 55.4203 15.2017L55.488 16.746L55.4203 18.2903C55.3526 18.8046 55.3188 19.3204 55.2088 19.8347C55.0226 20.8647 54.7181 21.8932 54.2189 22.9233Z" fill="#BB1865"/>
<path d="M117.821 27.0498C117.296 25.3304 117.017 23.611 116.831 21.8916C116.713 21.0335 116.687 20.1722 116.62 19.3157L116.552 16.7397L116.62 14.1638C116.687 13.3057 116.713 12.4444 116.831 11.5878C117.017 9.86845 117.288 8.14907 117.821 6.42969C118.346 8.14907 118.667 9.86845 118.811 11.5878C118.929 12.446 118.946 13.3072 119.022 14.1638L119.09 16.7397L119.014 19.3157C118.946 20.1754 118.921 21.0351 118.802 21.8916C118.616 23.6141 118.346 25.3319 117.821 27.0498Z" fill="#BB1865"/>
<path d="M128.415 21.8792C127.89 21.0226 127.619 20.1676 127.433 19.311C127.315 18.8843 127.289 18.456 127.221 18.0278L127.154 16.7445L127.213 15.4612C127.289 15.0329 127.306 14.6062 127.425 14.1779C127.611 13.3229 127.89 12.4663 128.415 11.6113C128.948 12.4663 129.261 13.3229 129.413 14.1779C129.531 14.6062 129.548 15.0329 129.624 15.4612L129.684 16.7445L129.616 18.0278C129.548 18.456 129.523 18.8843 129.404 19.311C129.218 20.1676 128.948 21.0226 128.415 21.8792Z" fill="#BB1865"/>
<path d="M154.915 21.8792C154.39 21.0226 154.119 20.1676 153.933 19.311C153.815 18.8843 153.789 18.456 153.722 18.0278L153.646 16.7445L153.713 15.4612C153.789 15.0329 153.806 14.6062 153.925 14.1779C154.111 13.3229 154.39 12.4663 154.915 11.6113C155.448 12.4663 155.761 13.3229 155.913 14.1779C156.023 14.6062 156.048 15.0329 156.125 15.4612L156.184 16.7445L156.116 18.0278C156.048 18.456 156.023 18.8843 155.905 19.311C155.718 20.1676 155.448 21.0226 154.915 21.8792Z" fill="#191815"/>
<path d="M170.796 21.8792C170.271 21.0226 170 20.1676 169.814 19.311C169.696 18.8843 169.67 18.456 169.603 18.0278L169.526 16.7445L169.594 15.4612C169.67 15.0329 169.687 14.6062 169.806 14.1779C169.992 13.3229 170.271 12.4663 170.796 11.6113C171.329 12.4663 171.642 13.3229 171.794 14.1779C171.904 14.6062 171.929 15.0329 172.006 15.4612L172.065 16.7445L171.997 18.0278C171.929 18.456 171.904 18.8843 171.786 19.311C171.599 20.1676 171.329 21.0226 170.796 21.8792Z" fill="#191815"/>
<path d="M112.516 24.5237C111.991 23.2279 111.72 21.9306 111.534 20.6348C111.416 19.9861 111.39 19.3374 111.323 18.6887L111.247 16.7443L111.314 14.7998C111.39 14.1511 111.407 13.504 111.526 12.8553C111.712 11.558 111.991 10.2622 112.516 8.96484C113.049 10.2622 113.362 11.558 113.506 12.8553C113.624 13.504 113.649 14.1511 113.717 14.7998L113.785 16.7443L113.717 18.6887C113.649 19.3374 113.624 19.9861 113.506 20.6348C113.319 21.9321 113.04 23.2279 112.516 24.5237Z" fill="#BB1865"/>
<path d="M80.719 20.0356C80.2221 19.4914 79.8916 18.9424 79.7291 18.3913C79.526 17.8426 79.4583 17.2971 79.4498 16.7453C79.4413 16.1936 79.526 15.6512 79.7291 15.101C79.8875 14.5493 80.2179 13.9997 80.719 13.4551C81.2158 13.9999 81.5464 14.5494 81.7089 15.101C81.912 15.6496 81.9881 16.1951 81.9881 16.7453C81.9881 17.2956 81.9036 17.8395 81.7089 18.3913C81.5464 18.9424 81.2159 19.4914 80.719 20.0356Z" fill="#BB1865"/>
<path d="M59.5158 19.4403C59.0277 18.9956 58.697 18.5455 58.5258 18.0929C58.3397 17.6443 58.2551 17.1957 58.2466 16.7455C58.2382 16.2954 58.3312 15.8483 58.5173 15.3982C58.6884 14.9454 59.022 14.4953 59.5158 14.0508C60.0137 14.4952 60.3472 14.9454 60.5141 15.3982C60.7003 15.8483 60.7906 16.2974 60.785 16.7455C60.785 17.1957 60.7003 17.6443 60.5141 18.0929C60.3443 18.5456 60.0108 18.9957 59.5158 19.4403Z" fill="#BB1865"/>
<path d="M48.9222 19.4403C48.4273 18.9957 48.0937 18.5456 47.9238 18.0929C47.7376 17.6443 47.6531 17.1957 47.6531 16.7455C47.6531 16.2954 47.7376 15.8483 47.9238 15.3982C48.0908 14.9454 48.4244 14.4952 48.9222 14.0508C49.4119 14.4955 49.7454 14.9455 49.9206 15.3982C50.1067 15.8483 50.1914 16.2969 50.1914 16.7455C50.1914 17.1941 50.0983 17.6443 49.9121 18.0929C49.7409 18.5455 49.4103 18.9956 48.9222 19.4403Z" fill="#BB1865"/>
<path d="M27.7438 19.4403C27.2557 18.9956 26.925 18.5455 26.7538 18.0929C26.5676 17.6448 26.4746 17.1957 26.4746 16.7455C26.4746 16.2969 26.5592 15.8483 26.7453 15.3982C26.9164 14.9454 27.2499 14.4953 27.7438 14.0508C28.2416 14.4952 28.5753 14.9454 28.7422 15.3982C28.9284 15.8483 29.0186 16.2974 29.0129 16.7455C29.0129 17.1957 28.9284 17.6443 28.7422 18.0929C28.5723 18.5456 28.2387 18.9957 27.7438 19.4403Z" fill="#BB1865"/>
<path d="M11.8455 20.3394C11.3524 19.7442 11.0221 19.1447 10.8556 18.5434C10.7456 18.2433 10.7202 17.9447 10.644 17.6446L10.5763 16.7459C10.5763 16.1472 10.6694 15.5485 10.8556 14.9499C11.0183 14.348 11.3486 13.748 11.8455 13.1523C12.3465 13.7479 12.6769 14.3479 12.8354 14.9499C13.0216 15.5485 13.1231 16.1472 13.1146 16.7459L13.047 17.6446C12.9793 17.9447 12.9539 18.2433 12.8354 18.5434C12.6732 19.1448 12.3427 19.7443 11.8455 20.3394Z" fill="#BB1865"/>
<path d="M6.56564 19.6674C6.06936 19.1846 5.73879 18.6964 5.57576 18.2059C5.37269 17.7198 5.30493 17.2337 5.29647 16.746C5.28801 16.2583 5.37269 15.7722 5.57576 15.2861C5.73461 14.796 6.06522 14.3083 6.56564 13.8262C7.0619 14.3085 7.39258 14.7961 7.55563 15.2861C7.75869 15.7722 7.83481 16.2599 7.83481 16.746C7.83481 17.2321 7.75023 17.7198 7.55563 18.2059C7.3926 18.6964 7.06192 19.1846 6.56564 19.6674Z" fill="#BB1865"/>
<path d="M1.26904 18.7288C0.777443 18.4046 0.443374 18.073 0.270689 17.7378C0.0876632 17.408 -0.00276781 17.0768 -0.000124438 16.7453C-0.00699511 16.4143 0.0834476 16.0834 0.270689 15.7543C0.439219 15.4185 0.773353 15.0863 1.26904 14.7617C1.75661 15.0866 2.09071 15.4187 2.2675 15.7543C2.45052 16.0835 2.54085 16.4143 2.53821 16.7453C2.53821 17.0766 2.44517 17.4064 2.25903 17.7378C2.08516 18.0728 1.75389 18.4044 1.26904 18.7288Z" fill="#BB1865"/>
<path d="M43.6171 20.8589C43.0925 20.1727 42.8217 19.4881 42.6355 18.8019C42.5171 18.4596 42.4917 18.1173 42.424 17.7734L42.3479 16.7449C42.3479 16.0602 42.4409 15.3741 42.6271 14.6879C42.8132 14.0017 43.0925 13.317 43.6171 12.6309C44.1501 13.317 44.4209 14.0032 44.6071 14.6879C44.7932 15.3725 44.8947 16.0602 44.8862 16.7449L44.8186 17.7734C44.7509 18.1173 44.7255 18.4596 44.6071 18.8019C44.4209 19.4881 44.1417 20.1727 43.6171 20.8589Z" fill="#BB1865"/>
<path d="M33.0492 20.8589C32.5246 20.1727 32.203 19.4881 32.0592 18.8019C31.9408 18.4596 31.9154 18.1173 31.8477 17.7734L31.78 16.7449C31.78 16.0602 31.8731 15.3741 32.0592 14.6879C32.2454 14.0017 32.5161 13.317 33.0492 12.6309C33.5738 13.317 33.853 14.0032 34.0392 14.6879C34.2253 15.3725 34.3268 16.0602 34.3184 16.7449L34.2422 17.7734C34.1746 18.1173 34.1492 18.4596 34.0307 18.8019C33.8446 19.4881 33.5653 20.1727 33.0492 20.8589Z" fill="#BB1865"/>
<path d="M38.3287 21.8792C37.8041 21.0226 37.4826 20.1676 37.3387 19.311C37.2203 18.8843 37.1949 18.456 37.1272 18.0278L37.0596 16.7445L37.1272 15.4612C37.1949 15.0329 37.2203 14.6062 37.3387 14.1779C37.5249 13.3229 37.7957 12.4663 38.3287 11.6113C38.8533 12.4663 39.1326 13.3229 39.3187 14.1779C39.4372 14.6062 39.4626 15.0329 39.5303 15.4612L39.5979 16.7445L39.5303 18.0278C39.4541 18.456 39.4287 18.8843 39.3187 19.311C39.1241 20.1676 38.8533 21.0226 38.3287 21.8792Z" fill="#BB1865"/>
<path d="M22.4471 21.8792C21.9226 21.0226 21.6433 20.1676 21.4572 19.311C21.3387 18.8843 21.3133 18.456 21.2456 18.0278L21.178 16.7445L21.2456 15.4612C21.3133 15.0329 21.3387 14.6062 21.4572 14.1779C21.6433 13.3229 21.9141 12.4663 22.4471 11.6113C22.9717 12.4663 23.2933 13.3229 23.4371 14.1779C23.5556 14.6062 23.581 15.0329 23.6487 15.4612L23.7163 16.7445L23.6487 18.0278C23.5725 18.456 23.5471 18.8843 23.4371 19.311C23.2425 20.1676 22.9717 21.0226 22.4471 21.8792Z" fill="#BB1865"/>
<path d="M17.1509 22.9233C16.6178 21.8932 16.3471 20.8647 16.161 19.8347C16.0425 19.3204 16.0172 18.8046 15.9495 18.2903L15.8817 16.746L15.941 15.2017C16.0171 14.6875 16.0341 14.1732 16.1525 13.6574C16.3387 12.6289 16.6178 11.5988 17.1509 10.5703C17.6755 11.5988 17.997 12.6289 18.1409 13.6574C18.2593 14.1732 18.2762 14.6875 18.3524 15.2017L18.4116 16.746L18.3439 18.2903C18.2762 18.8046 18.2509 19.3204 18.1324 19.8347C17.9463 20.8647 17.6755 21.8932 17.1509 22.9233Z" fill="#BB1865"/>
<path d="M181.398 20.3394C180.903 19.7442 180.576 19.1448 180.416 18.5434C180.298 18.2433 180.272 17.9447 180.205 17.6446L180.128 16.7459C180.128 16.1472 180.222 15.5485 180.408 14.9499C180.57 14.348 180.901 13.748 181.398 13.1523C181.899 13.7479 182.229 14.3479 182.388 14.9499C182.574 15.5485 182.675 16.1472 182.667 16.7459L182.599 17.6446C182.531 17.9447 182.506 18.2433 182.388 18.5434C182.225 19.1448 181.895 19.7443 181.398 20.3394Z" fill="#191815"/>
<path d="M149.618 20.8589C149.093 20.1727 148.771 19.4881 148.628 18.8019C148.518 18.4596 148.492 18.1173 148.416 17.7734L148.348 16.7449C148.348 16.0602 148.441 15.3741 148.628 14.6879C148.814 14.0017 149.093 13.317 149.618 12.6309C150.151 13.317 150.421 14.0032 150.607 14.6879C150.794 15.3725 150.895 16.0602 150.887 16.7449L150.819 17.7734C150.751 18.1173 150.726 18.4596 150.607 18.8019C150.421 19.4881 150.142 20.1727 149.618 20.8589Z" fill="#191815"/>
<path d="M160.203 20.8589C159.678 20.1727 159.357 19.4881 159.213 18.8019C159.095 18.4596 159.069 18.1173 159.001 17.7734L158.934 16.7449C158.934 16.0602 159.027 15.3741 159.213 14.6879C159.399 14.0017 159.67 13.317 160.203 12.6309C160.728 13.317 161.007 14.0032 161.193 14.6879C161.379 15.3725 161.472 16.0602 161.472 16.7449L161.396 17.7734C161.328 18.1173 161.303 18.4596 161.184 18.8019C160.998 19.4881 160.728 20.1727 160.203 20.8589Z" fill="#BB1865"/>
<path d="M133.719 31.1856C133.228 28.7785 132.898 26.3714 132.729 23.9642C132.611 22.7622 132.585 21.5586 132.518 20.3551L132.45 16.7444L132.518 13.1352C132.585 11.9317 132.611 10.7281 132.729 9.52453C132.893 7.11739 133.223 4.71078 133.719 2.30469C134.21 4.71182 134.54 7.11844 134.709 9.52453C134.828 10.7281 134.853 11.9317 134.921 13.1352L134.988 16.7444L134.921 20.3551C134.844 21.5586 134.819 22.7622 134.709 23.9642C134.54 26.3714 134.21 28.7785 133.719 31.1856Z" fill="#BB1865"/>
<path d="M144.321 19.4403C143.826 18.9957 143.493 18.5456 143.323 18.0929C143.137 17.6443 143.052 17.1957 143.052 16.7455C143.052 16.2954 143.137 15.8483 143.323 15.3982C143.49 14.9454 143.824 14.4952 144.321 14.0508C144.815 14.4953 145.149 14.9454 145.32 15.3982C145.506 15.8483 145.591 16.2969 145.591 16.7455C145.591 17.1941 145.497 17.6443 145.311 18.0929C145.14 18.5455 144.809 18.9956 144.321 19.4403Z" fill="#191815"/>
<path d="M165.499 19.4403C165.008 18.9956 164.675 18.5455 164.501 18.0929C164.315 17.6443 164.23 17.1957 164.23 16.7455C164.23 16.2954 164.315 15.8483 164.501 15.3982C164.672 14.9454 165.005 14.4953 165.499 14.0508C165.993 14.4953 166.326 14.9454 166.498 15.3982C166.684 15.8483 166.768 16.2969 166.768 16.7455C166.768 17.1941 166.684 17.6443 166.498 18.0929C166.328 18.5456 165.994 18.9957 165.499 19.4403Z" fill="#191815"/>
<path d="M186.711 19.6674C186.218 19.1845 185.89 18.6964 185.73 18.2059C185.527 17.7198 185.451 17.2337 185.442 16.746C185.434 16.2583 185.527 15.7722 185.721 15.2861C185.884 14.7961 186.215 14.3085 186.711 13.8262C187.216 14.3082 187.547 14.7959 187.701 15.2861C187.904 15.7722 187.981 16.2599 187.981 16.746C187.981 17.2321 187.904 17.7198 187.701 18.2059C187.538 18.6964 187.208 19.1846 186.711 19.6674Z" fill="#191815"/>
<path d="M191.983 18.7288C191.491 18.4046 191.157 18.073 190.984 17.7378C190.623 17.0783 190.623 16.4138 190.984 15.7543C191.157 15.4186 191.491 15.0864 191.983 14.7617C192.474 15.0864 192.808 15.4186 192.981 15.7543C193.348 16.4137 193.348 17.0784 192.981 17.7378C192.804 18.0729 192.47 18.4044 191.983 18.7288Z" fill="#191815"/>
<path d="M377.366 27.9235C376.841 26.0603 376.57 24.1987 376.384 22.3355C376.266 21.3976 376.24 20.4723 376.172 19.5407L376.096 16.7459L376.164 13.9511C376.24 13.0211 376.257 12.0895 376.376 11.1579C376.562 9.29473 376.841 7.43154 377.366 5.56836C377.899 7.43154 378.212 9.29473 378.355 11.1579C378.474 12.0958 378.499 13.0211 378.567 13.9511L378.635 16.7459L378.567 19.5407C378.499 20.4785 378.474 21.4039 378.355 22.3355C378.169 24.1987 377.932 26.0603 377.366 27.9235Z" fill="#191815"/>
<path d="M382.671 23.1692C382.146 22.0985 381.867 21.0278 381.68 19.9571C381.562 19.4225 381.537 18.8864 381.469 18.3518L381.401 16.7449L381.469 15.1397C381.537 14.6035 381.562 14.069 381.68 13.5328C381.867 12.4621 382.137 11.393 382.671 10.3223C383.195 11.393 383.517 12.4621 383.66 13.5328C383.779 14.069 383.796 14.6035 383.872 15.1397L383.94 16.7449L383.863 18.3518C383.796 18.8864 383.77 19.4225 383.652 19.9571C383.466 21.0278 383.195 22.0985 382.671 23.1692Z" fill="#191815"/>
<path d="M403.866 25.6851C403.342 24.1939 403.071 22.7043 402.885 21.2131C402.766 20.4676 402.741 19.722 402.673 18.9779L402.597 16.7412L402.665 14.506C402.741 13.7604 402.758 13.0148 402.876 12.2708C403.062 10.7796 403.342 9.28844 403.866 7.79883C404.399 9.28844 404.67 10.7796 404.856 12.2708C404.975 13.0148 405 13.7604 405.068 14.506L405.135 16.7412L405.068 18.9779C405 19.722 404.975 20.4676 404.856 21.2131C404.67 22.7153 404.391 24.1986 403.866 25.6851Z" fill="#191815"/>
<path d="M419.764 24.5237C419.24 23.2279 418.969 21.9306 418.783 20.6348C418.664 19.9861 418.639 19.3374 418.571 18.6887L418.503 16.7443L418.563 14.7998C418.639 14.1511 418.656 13.504 418.774 12.8553C418.96 11.558 419.24 10.2622 419.764 8.96484C420.297 10.2622 420.61 11.558 420.763 12.8553C420.881 13.504 420.898 14.1511 420.974 14.7998L421.033 16.7443L420.966 18.6887C420.898 19.3374 420.873 19.9861 420.754 20.6348C420.568 21.9321 420.297 23.2279 419.764 24.5237Z" fill="#191815"/>
<path d="M456.85 22.9233C456.325 21.8932 456.046 20.8647 455.86 19.8347C455.75 19.3204 455.716 18.8046 455.648 18.2903L455.581 16.746L455.648 15.2017C455.716 14.6875 455.741 14.1732 455.86 13.6574C456.046 12.6289 456.325 11.5988 456.85 10.5703C457.374 11.5988 457.653 12.6289 457.84 13.6574C457.958 14.1732 457.983 14.6875 458.051 15.2017L458.119 16.746L458.051 18.2903C457.983 18.8046 457.95 19.3204 457.84 19.8347C457.653 20.8647 457.374 21.8932 456.85 22.9233Z" fill="#191815"/>
<path d="M372.069 23.1692C371.545 22.0985 371.223 21.0278 371.079 19.9571C370.961 19.4225 370.935 18.8864 370.868 18.3518L370.8 16.7449L370.868 15.1397C370.935 14.6035 370.961 14.069 371.079 13.5328C371.265 12.4621 371.536 11.393 372.069 10.3223C372.594 11.393 372.873 12.4621 373.059 13.5328C373.178 14.069 373.203 14.6035 373.271 15.1397L373.338 16.7449L373.271 18.3518C373.194 18.8864 373.169 19.4225 373.059 19.9571C372.856 21.0278 372.594 22.0985 372.069 23.1692Z" fill="#191815"/>
<path d="M387.968 21.86C387.443 21.0066 387.172 20.1547 386.978 19.3028C386.868 18.8761 386.842 18.4509 386.766 18.0242L386.698 16.7456L386.766 15.467C386.834 15.0419 386.859 14.6152 386.978 14.19C387.164 13.3366 387.443 12.4847 387.968 11.6328C388.501 12.4847 388.771 13.3366 388.958 14.19C389.076 14.6152 389.101 15.0419 389.169 15.467L389.237 16.7456L389.169 18.0242C389.101 18.4509 389.076 18.8761 388.958 19.3028C388.771 20.1547 388.492 21.0066 387.968 21.86Z" fill="#191815"/>
<path d="M366.772 21.86C366.239 21.0066 365.968 20.1547 365.782 19.3028C365.664 18.8761 365.638 18.4509 365.571 18.0242L365.503 16.7456L365.562 15.467C365.638 15.0419 365.655 14.6152 365.774 14.19C365.96 13.3366 366.239 12.4847 366.772 11.6328C367.297 12.4847 367.618 13.3366 367.762 14.19C367.881 14.6152 367.898 15.0419 367.974 15.467L368.033 16.7456L367.965 18.0242C367.898 18.4509 367.872 18.8761 367.754 19.3028C367.568 20.1547 367.297 21.0066 366.772 21.86Z" fill="#191815"/>
<path d="M356.171 27.0498C355.646 25.3304 355.325 23.611 355.181 21.8916C355.063 21.0335 355.037 20.1722 354.97 19.3157L354.902 16.7397L354.97 14.1638C355.037 13.3057 355.063 12.4444 355.181 11.5878C355.367 9.86845 355.638 8.14907 356.171 6.42969C356.696 8.14907 356.975 9.86845 357.161 11.5878C357.279 12.446 357.296 13.3072 357.372 14.1638L357.44 16.7397L357.364 19.3157C357.296 20.1754 357.271 21.0351 357.152 21.8916C356.966 23.6141 356.696 25.3319 356.171 27.0498Z" fill="#191815"/>
<path d="M345.569 27.9688C345.044 26.0931 344.765 24.2268 344.579 22.3558C344.46 21.418 344.435 20.4801 344.367 19.5423L344.3 16.7287L344.367 13.923C344.435 12.9852 344.46 12.0473 344.579 11.1095C344.765 9.2338 345.036 7.36905 345.569 5.49805C346.093 7.37374 346.372 9.23849 346.559 11.1095C346.677 12.0473 346.702 12.9852 346.77 13.923L346.838 16.7287L346.77 19.5423C346.694 20.4801 346.669 21.418 346.559 22.3558C346.372 24.2268 346.093 26.0978 345.569 27.9688Z" fill="#191815"/>
<path d="M350.857 31.1856C350.366 28.7785 350.039 26.3714 349.876 23.9642C349.757 22.7622 349.732 21.5586 349.664 20.3551L349.588 16.7444L349.656 13.1352C349.732 11.9317 349.749 10.7281 349.867 9.52453C350.036 7.11739 350.366 4.71078 350.857 2.30469C351.353 4.71182 351.683 7.11844 351.847 9.52453C351.965 10.7281 351.991 11.9317 352.058 13.1352L352.126 16.7444L352.058 20.3551C351.991 21.5586 351.965 22.7622 351.847 23.9642C351.683 26.3714 351.353 28.7785 350.857 31.1856Z" fill="#191815"/>
<path d="M334.967 22.9233C334.442 21.8932 334.171 20.8647 333.985 19.8347C333.867 19.3204 333.841 18.8046 333.765 18.2903L333.698 16.746L333.765 15.2017C333.833 14.6875 333.858 14.1732 333.977 13.6574C334.163 12.6289 334.442 11.5988 334.967 10.5703C335.5 11.5988 335.813 12.6289 335.957 13.6574C336.075 14.1732 336.1 14.6875 336.168 15.2017L336.236 16.746L336.168 18.2903C336.1 18.8046 336.075 19.3204 335.957 19.8347C335.77 20.8647 335.491 21.8932 334.967 22.9233Z" fill="#191815"/>
<path d="M398.569 21.8792C398.044 21.0226 397.765 20.1676 397.579 19.311C397.461 18.8843 397.435 18.456 397.368 18.0278L397.3 16.7445L397.368 15.4612C397.435 15.0329 397.461 14.6062 397.579 14.1779C397.765 13.3229 398.036 12.4663 398.569 11.6113C399.094 12.4663 399.415 13.3229 399.559 14.1779C399.678 14.6062 399.703 15.0329 399.771 15.4612L399.838 16.7445L399.771 18.0278C399.694 18.456 399.669 18.8843 399.559 19.311C399.364 20.1676 399.085 21.0226 398.569 21.8792Z" fill="#191815"/>
<path d="M409.171 21.8792C408.646 21.0226 408.325 20.1676 408.181 19.311C408.063 18.8843 408.037 18.456 407.97 18.0278L407.902 16.7445L407.97 15.4612C408.037 15.0329 408.063 14.6062 408.181 14.1779C408.367 13.3229 408.638 12.4663 409.171 11.6113C409.696 12.4663 409.975 13.3229 410.161 14.1779C410.28 14.6062 410.296 15.0329 410.373 15.4612L410.44 16.7445L410.364 18.0278C410.296 18.456 410.271 18.8843 410.153 19.311C409.966 20.1676 409.696 21.0226 409.171 21.8792Z" fill="#191815"/>
<path d="M435.671 21.8792C435.146 21.0226 434.867 20.1676 434.681 19.311C434.563 18.8843 434.537 18.456 434.47 18.0278L434.402 16.7445L434.47 15.4612C434.537 15.0329 434.563 14.6062 434.681 14.1779C434.867 13.3229 435.138 12.4663 435.671 11.6113C436.196 12.4663 436.517 13.3229 436.661 14.1779C436.779 14.6062 436.796 15.0329 436.872 15.4612L436.94 16.7445L436.864 18.0278C436.796 18.456 436.771 18.8843 436.652 19.311C436.466 20.1676 436.196 21.0226 435.671 21.8792Z" fill="#191815"/>
<path d="M451.544 21.8792C451.019 21.0226 450.698 20.1676 450.554 19.311C450.435 18.8843 450.41 18.456 450.342 18.0278L450.275 16.7445L450.342 15.4612C450.41 15.0329 450.435 14.6062 450.554 14.1779C450.74 13.3229 451.011 12.4663 451.544 11.6113C452.068 12.4663 452.348 13.3229 452.534 14.1779C452.652 14.6062 452.669 15.0329 452.745 15.4612L452.813 16.7445L452.737 18.0278C452.669 18.456 452.644 18.8843 452.525 19.311C452.39 20.1676 452.077 21.0226 451.544 21.8792Z" fill="#191815"/>
<path d="M393.264 20.0356C392.77 19.4913 392.443 18.9424 392.282 18.3913C392.079 17.8426 392.003 17.2971 391.995 16.7453C391.986 16.1936 392.079 15.6512 392.274 15.101C392.437 14.5494 392.767 13.9999 393.264 13.4551C393.768 13.9997 394.101 14.5493 394.262 15.101C394.457 15.6496 394.533 16.1951 394.542 16.7453C394.55 17.2956 394.457 17.8395 394.254 18.3913C394.095 18.9424 393.765 19.4915 393.264 20.0356Z" fill="#191815"/>
<path d="M361.467 20.0356C360.975 19.4913 360.645 18.9423 360.477 18.3913C360.283 17.8426 360.207 17.2971 360.198 16.7453C360.19 16.1936 360.274 15.6512 360.477 15.101C360.64 14.5494 360.97 13.9999 361.467 13.4551C361.968 13.9997 362.299 14.5493 362.457 15.101C362.66 15.6496 362.736 16.1951 362.736 16.7453C362.736 17.2956 362.66 17.8395 362.457 18.3913C362.294 18.9424 361.964 19.4914 361.467 20.0356Z" fill="#191815"/>
<path d="M340.272 25.6851C339.739 24.1939 339.468 22.7043 339.282 21.2131C339.164 20.4676 339.138 19.722 339.07 18.9779L339.003 16.7412L339.062 14.506C339.138 13.7604 339.164 13.0148 339.273 12.2708C339.46 10.7796 339.739 9.28844 340.272 7.79883C340.796 9.28844 341.118 10.7796 341.262 12.2708C341.38 13.0148 341.397 13.7604 341.473 14.506L341.541 16.7412L341.465 18.9779C341.397 19.722 341.372 20.4676 341.253 21.2131C341.067 22.7153 340.796 24.1986 340.272 25.6851Z" fill="#191815"/>
<path d="M329.704 19.4403C329.209 18.9957 328.876 18.5456 328.706 18.0929C328.519 17.6443 328.435 17.1957 328.435 16.7455C328.435 16.2954 328.519 15.8483 328.706 15.3982C328.877 14.9454 329.21 14.4953 329.704 14.0508C330.198 14.4953 330.531 14.9454 330.702 15.3982C330.888 15.8483 330.973 16.2969 330.973 16.7455C330.973 17.1941 330.88 17.6443 330.694 18.0929C330.523 18.5455 330.192 18.9956 329.704 19.4403Z" fill="#191815"/>
<path d="M308.5 19.4403C308.005 18.9957 307.672 18.5456 307.502 18.0929C307.316 17.6443 307.231 17.1957 307.231 16.7455C307.231 16.2954 307.316 15.8483 307.502 15.3982C307.669 14.9454 308.003 14.4952 308.5 14.0508C308.991 14.4954 309.322 14.9455 309.49 15.3982C309.677 15.8483 309.77 16.2974 309.77 16.7455C309.77 17.1957 309.677 17.6443 309.49 18.0929C309.319 18.5455 308.988 18.9956 308.5 19.4403Z" fill="#191815"/>
<path d="M292.593 20.3394C292.099 19.7442 291.771 19.1448 291.612 18.5434C291.494 18.2433 291.468 17.9447 291.4 17.6446L291.324 16.7459C291.324 16.1472 291.417 15.5485 291.604 14.9499C291.766 14.348 292.097 13.748 292.593 13.1523C293.094 13.7479 293.425 14.3479 293.583 14.9499C293.77 15.5485 293.871 16.1472 293.863 16.7459L293.795 17.6446C293.727 17.9447 293.702 18.2433 293.583 18.5434C293.421 19.1448 293.091 19.7443 292.593 20.3394Z" fill="#191815"/>
<path d="M287.314 19.6674C286.822 19.1844 286.491 18.6964 286.324 18.2059C286.129 17.7198 286.053 17.2337 286.045 16.746C286.036 16.2583 286.121 15.7722 286.324 15.2861C286.487 14.7961 286.817 14.3085 287.314 13.8262C287.814 14.3083 288.145 14.796 288.304 15.2861C288.507 15.7722 288.583 16.2599 288.583 16.746C288.583 17.2321 288.507 17.7198 288.304 18.2059C288.141 18.6964 287.81 19.1846 287.314 19.6674Z" fill="#191815"/>
<path d="M282.017 18.7288C281.526 18.4046 281.192 18.073 281.019 17.7378C280.658 17.0783 280.658 16.4138 281.019 15.7543C281.191 15.4186 281.526 15.0864 282.017 14.7617C282.509 15.0864 282.843 15.4186 283.016 15.7543C283.382 16.4137 283.382 17.0784 283.016 17.7378C282.839 18.0729 282.505 18.4044 282.017 18.7288Z" fill="#191815"/>
<path d="M324.365 20.8589C323.841 20.1727 323.57 19.4881 323.384 18.8019C323.265 18.4596 323.24 18.1173 323.172 17.7734L323.096 16.7449C323.096 16.0602 323.198 15.3741 323.375 14.6879C323.553 14.0017 323.841 13.317 324.365 12.6309C324.898 13.317 325.169 14.0032 325.355 14.6879C325.542 15.3725 325.643 16.0602 325.635 16.7449L325.567 17.7734C325.499 18.1173 325.474 18.4596 325.355 18.8019C325.169 19.4881 324.89 20.1727 324.365 20.8589Z" fill="#191815"/>
<path d="M313.797 20.8589C313.273 20.1727 312.994 19.4881 312.808 18.8019C312.689 18.4596 312.664 18.1173 312.596 17.7734L312.528 16.7449C312.528 16.0602 312.621 15.3741 312.808 14.6879C312.994 14.0017 313.264 13.317 313.797 12.6309C314.322 13.317 314.644 14.0032 314.788 14.6879C314.931 15.3725 315.075 16.0602 315.067 16.7449L314.999 17.7734C314.923 18.1173 314.898 18.4596 314.788 18.8019C314.593 19.4881 314.322 20.1727 313.797 20.8589Z" fill="#191815"/>
<path d="M319.077 21.8792C318.552 21.0226 318.282 20.1676 318.087 19.311C317.977 18.8843 317.952 18.456 317.876 18.0278L317.808 16.7445L317.876 15.4612C317.943 15.0329 317.969 14.6062 318.087 14.1779C318.273 13.3229 318.552 12.4663 319.077 11.6113C319.61 12.4663 319.881 13.3229 320.067 14.1779C320.186 14.6062 320.211 15.0329 320.279 15.4612L320.346 16.7445L320.279 18.0278C320.211 18.456 320.186 18.8843 320.067 19.311C319.881 20.1676 319.602 21.0226 319.077 21.8792Z" fill="#191815"/>
<path d="M303.195 21.8792C302.671 21.0226 302.4 20.1676 302.206 19.311C302.096 18.8843 302.07 18.456 301.994 18.0278L301.926 16.7445L301.994 15.4612C302.062 15.0329 302.087 14.6062 302.206 14.1779C302.392 13.3229 302.671 12.4663 303.195 11.6113C303.728 12.4663 303.999 13.3229 304.186 14.1779C304.304 14.6062 304.329 15.0329 304.397 15.4612L304.465 16.7445L304.397 18.0278C304.329 18.456 304.304 18.8843 304.186 19.311C303.999 20.1676 303.72 21.0226 303.195 21.8792Z" fill="#191815"/>
<path d="M297.898 22.9233C297.374 21.8932 297.095 20.8647 296.908 19.8347C296.79 19.3204 296.765 18.8046 296.697 18.2903L296.629 16.746L296.697 15.2017C296.765 14.6875 296.79 14.1732 296.908 13.6574C297.095 12.6289 297.365 11.5988 297.898 10.5703C298.423 11.5988 298.745 12.6289 298.888 13.6574C299.007 14.1732 299.024 14.6875 299.1 15.2017L299.167 16.746L299.091 18.2903C299.024 18.8046 298.998 19.3204 298.88 19.8347C298.694 20.8647 298.398 21.8932 297.898 22.9233Z" fill="#191815"/>
<path d="M462.146 20.3394C461.651 19.7442 461.324 19.1448 461.164 18.5434C461.046 18.2433 461.021 17.9447 460.953 17.6446L460.877 16.7459C460.877 16.1472 460.978 15.5485 461.156 14.9499C461.319 14.348 461.649 13.748 462.146 13.1523C462.65 13.7479 462.983 14.3479 463.144 14.9499C463.322 15.5485 463.424 16.1472 463.415 16.7459L463.347 17.6446C463.28 17.9447 463.254 18.2433 463.136 18.5434C462.978 19.1449 462.647 19.7443 462.146 20.3394Z" fill="#191815"/>
<path d="M430.392 20.8589C429.867 20.1727 429.597 19.4881 429.411 18.8019C429.292 18.4596 429.267 18.1173 429.199 17.7734L429.123 16.7449C429.123 16.0602 429.216 15.3741 429.402 14.6879C429.588 14.0017 429.867 13.317 430.392 12.6309C430.925 13.317 431.238 14.0032 431.382 14.6879C431.526 15.3725 431.67 16.0602 431.661 16.7449L431.593 17.7734C431.526 18.1173 431.5 18.4596 431.382 18.8019C431.17 19.4881 430.891 20.1727 430.392 20.8589Z" fill="#191815"/>
<path d="M440.951 20.8589C440.426 20.1727 440.147 19.4881 439.961 18.8019C439.842 18.4596 439.817 18.1173 439.749 17.7734L439.681 16.7449C439.681 16.0602 439.775 15.3741 439.961 14.6879C440.147 14.0017 440.418 13.317 440.951 12.6309C441.475 13.317 441.754 14.0032 441.94 14.6879C442.127 15.3725 442.228 16.0602 442.22 16.7449L442.152 17.7734C442.076 18.1173 442.05 18.4596 441.932 18.8019C441.746 19.4881 441.475 20.1727 440.951 20.8589Z" fill="#191815"/>
<path d="M414.467 19.4403C413.977 18.9956 413.643 18.5455 413.469 18.0929C413.283 17.6443 413.198 17.1957 413.198 16.7455C413.198 16.2954 413.283 15.8483 413.469 15.3982C413.64 14.9454 413.974 14.4953 414.467 14.0508C414.961 14.4953 415.295 14.9454 415.466 15.3982C415.652 15.8483 415.737 16.2969 415.737 16.7455C415.737 17.1941 415.652 17.6443 415.466 18.0929C415.296 18.5456 414.962 18.9957 414.467 19.4403Z" fill="#191815"/>
<path d="M425.069 19.4403C424.574 18.9957 424.241 18.5456 424.071 18.0929C423.885 17.6443 423.8 17.1957 423.8 16.7455C423.8 16.2954 423.885 15.8483 424.071 15.3982C424.242 14.9454 424.576 14.4953 425.069 14.0508C425.563 14.4953 425.897 14.9454 426.068 15.3982C426.254 15.8483 426.339 16.2969 426.339 16.7455C426.339 17.1941 426.245 17.6443 426.059 18.0929C425.892 18.5456 425.562 18.9957 425.069 19.4403Z" fill="#191815"/>
<path d="M446.247 19.4403C445.759 18.9956 445.429 18.5455 445.258 18.0929C445.071 17.6448 444.978 17.1957 444.978 16.7455C444.978 16.2969 445.063 15.8483 445.249 15.3982C445.42 14.9454 445.754 14.4953 446.247 14.0508C446.741 14.4953 447.075 14.9454 447.246 15.3982C447.432 15.8483 447.517 16.2969 447.517 16.7455C447.517 17.1941 447.432 17.6443 447.246 18.0929C447.076 18.5456 446.742 18.9957 446.247 19.4403Z" fill="#191815"/>
<path d="M467.434 19.6658C466.937 19.1835 466.607 18.6959 466.444 18.2059C466.241 17.7198 466.165 17.2337 466.165 16.746C466.165 16.2583 466.241 15.7722 466.444 15.2861C466.599 14.7959 466.93 14.3082 467.434 13.8262C467.93 14.3085 468.261 14.7961 468.424 15.2861C468.619 15.7722 468.695 16.2599 468.703 16.746C468.712 17.2321 468.619 17.7198 468.416 18.2059C468.256 18.6959 467.928 19.1835 467.434 19.6658Z" fill="#191815"/>
<path d="M472.697 18.7288C472.205 18.4046 471.871 18.073 471.699 17.7378C471.337 17.0783 471.337 16.4138 471.699 15.7543C471.871 15.4186 472.205 15.0864 472.697 14.7617C473.189 15.0864 473.523 15.4186 473.695 15.7543C474.056 16.4138 474.056 17.0783 473.695 17.7378C473.523 18.073 473.188 18.4046 472.697 18.7288Z" fill="#191815"/>
<path d="M239.627 34C239.137 31.1667 238.809 28.3333 238.646 25.5C238.527 24.0839 238.502 22.6661 238.434 21.25L238.358 17L238.426 12.75C238.502 11.3339 238.519 9.91615 238.637 8.5C238.807 5.66667 239.137 2.83333 239.627 0C240.129 2.83438 240.459 5.66771 240.617 8.5C240.736 9.91615 240.761 11.3339 240.829 12.75L240.896 17L240.829 21.25C240.761 22.6661 240.736 24.0839 240.617 25.5C240.448 28.3323 240.118 31.1656 239.627 34Z" fill="#191815"/>
<path d="M244.932 31.361C244.442 28.9642 244.111 26.5707 243.942 24.1802C243.824 22.9829 243.798 21.7871 243.731 20.5851L243.663 16.99L243.731 13.395C243.798 12.1977 243.824 11.0019 243.942 9.79991C244.106 7.40319 244.436 5.0096 244.932 2.61914C245.423 5.01585 245.753 7.40944 245.922 9.79991C246.041 10.9972 246.058 12.193 246.134 13.395L246.201 16.99L246.125 20.5851C246.058 21.7824 246.032 22.9782 245.914 24.1802C245.756 26.5738 245.429 28.9674 244.932 31.361Z" fill="#191815"/>
<path d="M266.128 30.809C265.637 28.506 265.31 26.2042 265.146 23.9033C265.028 22.7529 265.002 21.6025 264.935 20.452L264.859 16.9992L264.926 13.5464C265.002 12.396 265.019 11.2455 265.138 10.0951C265.307 7.79218 265.637 5.4903 266.128 3.18945C266.624 5.49238 266.954 7.79427 267.118 10.0951C267.236 11.2455 267.262 12.396 267.329 13.5464L267.397 16.9992L267.329 20.452C267.262 21.6025 267.236 22.7529 267.118 23.9033C266.948 26.2062 266.619 28.5081 266.128 30.809Z" fill="#191815"/>
<path d="M282.026 30.809C281.535 28.506 281.208 26.2042 281.044 23.9033C280.926 22.7529 280.9 21.6025 280.833 20.452L280.756 16.9992L280.824 13.5464C280.9 12.396 280.917 11.2455 281.036 10.0951C281.205 7.79218 281.535 5.4903 282.026 3.18945C282.522 5.49238 282.852 7.79427 283.016 10.0951C283.134 11.2455 283.159 12.396 283.227 13.5464L283.295 16.9992L283.227 20.452C283.159 21.6025 283.134 22.7529 283.016 23.9033C282.846 26.2062 282.516 28.5081 282.026 30.809Z" fill="#191815"/>
<path d="M319.11 28.4768C318.586 26.5636 318.307 24.6504 318.121 22.7387C318.002 21.7821 317.977 20.8255 317.909 19.8689L317.841 16.9991L317.909 14.1293C317.977 13.1727 318.002 12.2161 318.121 11.2611C318.307 9.34789 318.577 7.43469 319.11 5.52148C319.635 7.43469 319.914 9.34789 320.1 11.2611C320.219 12.2161 320.244 13.1727 320.312 14.1293L320.38 16.9991L320.312 19.8689C320.236 20.8255 320.21 21.7821 320.1 22.7387C319.914 24.6504 319.635 26.5636 319.11 28.4768Z" fill="#191815"/>
<path d="M234.33 31.361C233.839 28.9642 233.51 26.5707 233.34 24.1802C233.222 22.9829 233.196 21.7871 233.129 20.5851L233.061 16.99L233.129 13.395C233.196 12.1977 233.222 11.0019 233.34 9.79991C233.504 7.40319 233.834 5.0096 234.33 2.61914C234.821 5.01585 235.151 7.40944 235.32 9.79991C235.439 10.9972 235.464 12.193 235.532 13.395L235.599 16.99L235.532 20.5851C235.455 21.7824 235.43 22.9782 235.32 24.1802C235.151 26.5738 234.821 28.9674 234.33 31.361Z" fill="#191815"/>
<path d="M250.229 28.433C249.704 26.5276 249.382 24.6222 249.239 22.7169C249.129 21.7649 249.095 20.8115 249.027 19.8595L248.959 17.0007L249.027 14.1434C249.095 13.1899 249.12 12.238 249.239 11.2845C249.425 9.37914 249.704 7.47375 250.229 5.56836C250.762 7.47375 251.032 9.37914 251.219 11.2845C251.337 12.238 251.362 13.1899 251.43 14.1434L251.498 17.0007L251.43 19.8595C251.362 20.8115 251.337 21.7649 251.219 22.7169C251.015 24.6222 250.753 26.5276 250.229 28.433Z" fill="#191815"/>
<path d="M229.017 28.433C228.492 26.5276 228.222 24.6222 228.035 22.7169C227.917 21.7649 227.892 20.8115 227.824 19.8595L227.756 17.0007L227.815 14.1434C227.892 13.1899 227.908 12.238 228.027 11.2845C228.213 9.37914 228.492 7.47375 229.017 5.56836C229.55 7.47375 229.863 9.37914 230.015 11.2845C230.134 12.238 230.151 13.1899 230.227 14.1434L230.286 17.0007L230.218 19.8595C230.151 20.8115 230.125 21.7649 230.007 22.7169C229.863 24.6222 229.558 26.5276 229.017 28.433Z" fill="#191815"/>
<path d="M218.432 28.433C217.907 26.5276 217.628 24.6222 217.442 22.7169C217.323 21.7649 217.298 20.8115 217.23 19.8595L217.163 17.0007L217.23 14.1434C217.298 13.1899 217.323 12.238 217.442 11.2845C217.628 9.37914 217.899 7.47375 218.432 5.56836C218.956 7.47375 219.278 9.37914 219.422 11.2845C219.54 12.238 219.557 13.1899 219.633 14.1434L219.701 17.0007L219.625 19.8595C219.557 20.8115 219.532 21.7649 219.413 22.7169C219.227 24.6222 218.956 26.5276 218.432 28.433Z" fill="#191815"/>
<path d="M207.864 28.433C207.339 26.5276 207.018 24.6222 206.874 22.7169C206.755 21.7649 206.73 20.8115 206.662 19.8595L206.595 17.0007L206.662 14.1434C206.73 13.1899 206.755 12.238 206.874 11.2845C207.06 9.37914 207.331 7.47375 207.864 5.56836C208.388 7.47375 208.71 9.37914 208.854 11.2845C208.972 12.238 208.998 13.1899 209.065 14.1434L209.133 17.0007L209.065 19.8595C208.989 20.8115 208.964 21.7649 208.854 22.7169C208.625 24.6222 208.355 26.5276 207.864 28.433Z" fill="#191815"/>
<path d="M213.127 30.809C212.636 28.506 212.309 26.2042 212.145 23.9033C212.027 22.7529 212.002 21.6025 211.934 20.452L211.858 16.9992L211.925 13.5464C212.002 12.396 212.018 11.2455 212.137 10.0951C212.306 7.79218 212.636 5.4903 213.127 3.18945C213.623 5.49238 213.953 7.79427 214.117 10.0951C214.235 11.2455 214.261 12.396 214.328 13.5464L214.396 16.9992L214.328 20.452C214.261 21.6025 214.235 22.7529 214.117 23.9033C213.948 26.2062 213.618 28.5081 213.127 30.809Z" fill="#191815"/>
<path d="M197.228 30.809C196.738 28.506 196.408 26.2042 196.238 23.9033C196.128 22.7529 196.103 21.6025 196.027 20.452L195.959 16.9992L196.027 13.5464C196.095 12.396 196.12 11.2455 196.238 10.0951C196.408 7.79218 196.738 5.4903 197.228 3.18945C197.719 5.49238 198.049 7.79427 198.218 10.0951C198.337 11.2455 198.362 12.396 198.43 13.5464L198.498 16.9992L198.43 20.452C198.362 21.6025 198.337 22.7529 198.218 23.9033C198.049 26.2062 197.719 28.5081 197.228 30.809Z" fill="#BB1865"/>
<path d="M260.831 28.4768C260.306 26.5636 260.027 24.6504 259.841 22.7387C259.722 21.7821 259.697 20.8255 259.629 19.8689L259.562 16.9991L259.629 14.1293C259.697 13.1727 259.722 12.2161 259.841 11.2611C260.027 9.34789 260.298 7.43469 260.831 5.52148C261.355 7.43469 261.677 9.34789 261.821 11.2611C261.939 12.2161 261.964 13.1727 262.032 14.1293L262.1 16.9991L262.015 19.8689C261.947 20.8255 261.922 21.7821 261.804 22.7387C261.626 24.6504 261.355 26.5636 260.831 28.4768Z" fill="#191815"/>
<path d="M271.432 28.4768C270.907 26.5636 270.586 24.6504 270.442 22.7387C270.324 21.7821 270.298 20.8255 270.231 19.8689L270.163 16.9991L270.231 14.1293C270.298 13.1727 270.324 12.2161 270.442 11.2611C270.628 9.34789 270.899 7.43469 271.432 5.52148C271.957 7.43469 272.236 9.34789 272.422 11.2611C272.541 12.2161 272.557 13.1727 272.634 14.1293L272.701 16.9991L272.625 19.8689C272.557 20.8255 272.532 21.7821 272.414 22.7387C272.227 24.6504 271.957 26.5636 271.432 28.4768Z" fill="#191815"/>
<path d="M297.932 28.4768C297.399 26.5636 297.129 24.6504 296.943 22.7387C296.824 21.7821 296.799 20.8255 296.731 19.8689L296.663 16.9991L296.731 14.1293C296.799 13.1727 296.824 12.2161 296.934 11.2611C297.12 9.34789 297.399 7.43469 297.932 5.52148C298.457 7.43469 298.779 9.34789 298.923 11.2611C299.041 12.2161 299.058 13.1727 299.134 14.1293L299.202 16.9991L299.126 19.8689C299.058 20.8255 299.033 21.7821 298.914 22.7387C298.728 24.6504 298.457 26.5636 297.932 28.4768Z" fill="#191815"/>
<path d="M255.526 24.3562C255.001 23.1307 254.73 21.9037 254.544 20.6783C254.426 20.0655 254.4 19.4528 254.333 18.8401L254.257 17.0004L254.324 15.1622C254.4 14.5479 254.417 13.9352 254.536 13.3224C254.722 12.097 255.001 10.87 255.526 9.64453C256.059 10.87 256.372 12.097 256.524 13.3224C256.634 13.9352 256.659 14.5479 256.736 15.1622L256.795 17.0004L256.727 18.8401C256.659 19.4528 256.634 20.0655 256.516 20.6783C256.329 21.9037 256.093 23.1307 255.526 24.3562Z" fill="#191815"/>
<path d="M223.729 24.3562C223.204 23.1307 222.934 21.9037 222.739 20.6783C222.629 20.0655 222.604 19.4528 222.527 18.8401L222.46 17.0004L222.527 15.1622C222.595 14.5479 222.621 13.9352 222.739 13.3224C222.925 12.097 223.204 10.87 223.729 9.64453C224.262 10.87 224.533 12.097 224.719 13.3224C224.837 13.9352 224.863 14.5479 224.93 15.1622L224.998 17.0004L224.93 18.8401C224.863 19.4528 224.837 20.0655 224.719 20.6783C224.533 21.9037 224.253 23.1307 223.729 24.3562Z" fill="#191815"/>
<path d="M202.525 23.0263C202 22.0213 201.73 21.0178 201.543 20.0127C201.425 19.511 201.4 19.0092 201.332 18.5075L201.264 17.0007L201.323 15.4939C201.4 14.9921 201.417 14.4904 201.535 13.9886C201.721 12.9836 202 11.9801 202.525 10.9766C203.058 11.9801 203.371 12.9836 203.523 13.9886C203.642 14.4904 203.659 14.9921 203.735 15.4939L203.794 17.0007L203.726 18.5075C203.659 19.0092 203.633 19.511 203.515 20.0127C203.329 21.0162 203.058 22.0197 202.525 23.0263Z" fill="#191815"/>
<path d="M191.932 23.0263C191.407 22.0213 191.086 21.0178 190.942 20.0127C190.824 19.511 190.798 19.0092 190.73 18.5075L190.663 17.0007L190.73 15.4939C190.798 14.9921 190.824 14.4904 190.942 13.9886C191.128 12.9836 191.399 11.9801 191.932 10.9766C192.457 11.9801 192.736 12.9836 192.922 13.9886C193.04 14.4904 193.057 14.9921 193.133 15.4939L193.201 17.0007L193.125 18.5075C193.057 19.0092 193.032 19.511 192.913 20.0127C192.727 21.0162 192.457 22.0197 191.932 23.0263Z" fill="#BB1865"/>
<path d="M170.753 23.0263C170.229 22.0213 169.958 21.0178 169.772 20.0127C169.653 19.511 169.628 19.0092 169.56 18.5075L169.484 17.0007L169.552 15.4939C169.628 14.9921 169.645 14.4904 169.763 13.9886C169.949 12.9836 170.229 11.9801 170.753 10.9766C171.286 11.9801 171.599 12.9836 171.752 13.9886C171.862 14.4904 171.887 14.9921 171.963 15.4939L172.022 17.0007L171.955 18.5075C171.887 19.0092 171.862 19.511 171.743 20.0127C171.557 21.0162 171.286 22.0197 170.753 23.0263Z" fill="#BB1865"/>
<path d="M154.855 25.0333C154.33 23.6937 154.059 22.3557 153.873 21.0162C153.755 20.3472 153.73 19.6766 153.662 19.0076L153.586 16.9991L153.653 14.9905C153.73 14.3215 153.747 13.6525 153.865 12.9819C154.051 11.644 154.33 10.3044 154.855 8.96484C155.388 10.3044 155.701 11.644 155.845 12.9819C155.963 13.6525 155.989 14.3215 156.056 14.9905L156.124 16.9991L156.056 19.0076C155.989 19.6766 155.963 20.3472 155.845 21.0162C155.659 22.3557 155.405 23.6937 154.855 25.0333Z" fill="#BB1865"/>
<path d="M149.575 23.5286C149.051 22.4345 148.78 21.3528 148.585 20.2649C148.475 19.7194 148.45 19.1708 148.374 18.6315L148.306 16.9997L148.374 15.3678C148.441 14.8239 148.467 14.2737 148.585 13.736C148.771 12.6418 149.051 11.5586 149.575 10.4707C150.108 11.5649 150.421 12.6465 150.565 13.736C150.684 14.2799 150.709 14.8301 150.777 15.3678L150.844 16.9997L150.777 18.6315C150.709 19.1755 150.684 19.7257 150.565 20.2649C150.379 21.3528 150.1 22.4407 149.575 23.5286Z" fill="#BB1865"/>
<path d="M144.279 21.4369C143.755 20.6975 143.475 19.9582 143.289 19.2189C143.171 18.8484 143.145 18.4795 143.078 18.1091L143.01 17.0008L143.078 15.8926C143.145 15.5222 143.171 15.1533 143.289 14.7828C143.475 14.0435 143.746 13.3042 144.279 12.5664C144.804 13.3042 145.125 14.0435 145.269 14.7828C145.388 15.1533 145.405 15.5222 145.481 15.8926L145.548 17.0008L145.472 18.1091C145.405 18.4795 145.379 18.8484 145.261 19.2189C145.075 19.9582 144.804 20.6975 144.279 21.4369Z" fill="#BB1865"/>
<path d="M186.627 26.197C186.102 24.6652 185.831 23.1318 185.645 21.5984C185.527 20.8325 185.501 20.0651 185.434 19.2992L185.358 16.9999L185.425 14.7006C185.501 13.9347 185.518 13.1672 185.637 12.4013C185.823 10.8679 186.102 9.33611 186.627 7.80273C187.16 9.33611 187.431 10.8679 187.617 12.4013C187.735 13.1672 187.761 13.9347 187.828 14.7006L187.896 16.9999L187.828 19.2992C187.761 20.0651 187.735 20.8325 187.617 21.5984C187.431 23.1318 187.151 24.6652 186.627 26.197Z" fill="#BB1865"/>
<path d="M176.059 26.197C175.534 24.6652 175.213 23.1318 175.069 21.5984C174.951 20.8325 174.925 20.0651 174.857 19.2992L174.79 16.9999L174.857 14.7006C174.925 13.9347 174.951 13.1672 175.069 12.4013C175.255 10.8679 175.526 9.33611 176.059 7.80273C176.584 9.33611 176.863 10.8679 177.049 12.4013C177.167 13.1672 177.193 13.9347 177.26 14.7006L177.328 16.9999L177.26 19.2992C177.184 20.0651 177.159 20.8325 177.04 21.5984C176.854 23.1318 176.558 24.6652 176.059 26.197Z" fill="#BB1865"/>
<path d="M181.339 28.4768C180.814 26.5636 180.493 24.6504 180.349 22.7387C180.239 21.7821 180.205 20.8255 180.137 19.8689L180.07 16.9991L180.137 14.1293C180.205 13.1727 180.23 12.2161 180.349 11.2611C180.535 9.34789 180.814 7.43469 181.339 5.52148C181.863 7.43469 182.142 9.34789 182.329 11.2611C182.447 12.2161 182.472 13.1727 182.54 14.1293L182.608 16.9991L182.54 19.8689C182.472 20.8255 182.439 21.7821 182.329 22.7387C182.142 24.6504 181.863 26.5636 181.339 28.4768Z" fill="#BB1865"/>
<path d="M165.457 28.4768C164.933 26.5636 164.611 24.6519 164.467 22.7387C164.357 21.7821 164.332 20.8255 164.256 19.8689L164.188 16.9991L164.256 14.1293C164.323 13.1727 164.349 12.2161 164.467 11.2611C164.653 9.34789 164.933 7.43469 165.457 5.52148C165.99 7.43469 166.261 9.34789 166.447 11.2611C166.566 12.2161 166.591 13.1727 166.659 14.1293L166.726 16.9991L166.659 19.8689C166.591 20.8255 166.566 21.7821 166.447 22.7387C166.261 24.6519 165.982 26.5636 165.457 28.4768Z" fill="#BB1865"/>
<path d="M324.408 25.0333C323.883 23.6937 323.612 22.3541 323.426 21.0162C323.308 20.3472 323.282 19.6766 323.215 19.0076L323.138 16.9991L323.206 14.9905C323.282 14.3215 323.299 13.6525 323.418 12.9819C323.604 11.644 323.883 10.3044 324.408 8.96484C324.941 10.3044 325.254 11.644 325.397 12.9819C325.516 13.6525 325.541 14.3215 325.609 14.9905L325.677 16.9991L325.609 19.0076C325.541 19.6766 325.516 20.3472 325.397 21.0162C325.211 22.3541 324.932 23.6937 324.408 25.0333Z" fill="#191815"/>
<path d="M292.628 26.197C292.104 24.6652 291.833 23.1318 291.647 21.5984C291.528 20.8325 291.503 20.0651 291.435 19.2992L291.359 16.9999L291.427 14.7006C291.495 13.9347 291.52 13.1672 291.638 12.4013C291.825 10.8679 292.104 9.33611 292.628 7.80273C293.161 9.33611 293.475 10.8679 293.618 12.4013C293.737 13.1672 293.762 13.9347 293.83 14.7006L293.897 16.9999L293.83 19.2992C293.762 20.0651 293.737 20.8325 293.618 21.5984C293.432 23.1318 293.153 24.6652 292.628 26.197Z" fill="#191815"/>
<path d="M303.212 26.197C302.688 24.6652 302.366 23.1318 302.222 21.5984C302.104 20.8325 302.079 20.0651 302.011 19.2992L301.943 16.9999L302.011 14.7006C302.079 13.9347 302.104 13.1672 302.222 12.4013C302.409 10.8679 302.679 9.33611 303.212 7.80273C303.737 9.33611 304.016 10.8679 304.202 12.4013C304.321 13.1672 304.338 13.9347 304.414 14.7006L304.481 16.9999L304.405 19.2992C304.338 20.0651 304.312 20.8325 304.194 21.5984C304.008 23.1318 303.737 24.6652 303.212 26.197Z" fill="#191815"/>
<path d="M276.729 23.0263C276.205 22.0213 275.925 21.0178 275.739 20.0127C275.629 19.511 275.595 19.0092 275.528 18.5075L275.46 17.0007L275.528 15.4939C275.595 14.9921 275.621 14.4904 275.739 13.9886C275.925 12.9836 276.205 11.9801 276.729 10.9766C277.254 11.9801 277.575 12.9836 277.719 13.9886C277.838 14.4904 277.863 14.9921 277.931 15.4939L277.998 17.0007L277.931 18.5075C277.863 19.0092 277.829 19.511 277.719 20.0127C277.533 21.0162 277.245 22.0197 276.729 23.0263Z" fill="#191815"/>
<path d="M287.331 23.0263C286.807 22.0213 286.485 21.0178 286.341 20.0127C286.223 19.511 286.197 19.0092 286.13 18.5075L286.062 17.0007L286.13 15.4939C286.197 14.9921 286.223 14.4904 286.341 13.9886C286.527 12.9836 286.798 11.9801 287.331 10.9766C287.856 11.9801 288.135 12.9836 288.321 13.9886C288.44 14.4904 288.465 14.9921 288.533 15.4939L288.6 17.0007L288.524 18.5075C288.457 19.0092 288.431 19.511 288.313 20.0127C288.127 21.0162 287.856 22.0197 287.331 23.0263Z" fill="#191815"/>
<path d="M308.551 23.0263C308.027 22.0213 307.756 21.0178 307.57 20.0127C307.452 19.511 307.426 19.0092 307.35 18.5075L307.282 17.0007L307.35 15.4939C307.418 14.9921 307.443 14.4904 307.562 13.9886C307.748 12.9836 308.027 11.9801 308.551 10.9766C309.084 11.9801 309.397 12.9836 309.541 13.9886C309.66 14.4904 309.685 14.9921 309.753 15.4939L309.821 17.0007L309.753 18.5075C309.685 19.0092 309.66 19.511 309.541 20.0127C309.313 21.0162 309.034 22.0197 308.551 23.0263Z" fill="#191815"/>
<path d="M329.704 23.5286C329.171 22.4345 328.9 21.3528 328.714 20.2649C328.596 19.7194 328.57 19.1708 328.503 18.6315L328.435 16.9997L328.494 15.3678C328.57 14.8239 328.587 14.2737 328.706 13.736C328.892 12.6418 329.171 11.5586 329.704 10.4707C330.229 11.5649 330.55 12.6465 330.694 13.736C330.812 14.2799 330.829 14.8301 330.905 15.3678L330.965 16.9997L330.897 18.6315C330.829 19.1755 330.804 19.7257 330.685 20.2649C330.491 21.3528 330.22 22.4407 329.704 23.5286Z" fill="#191815"/>
<path d="M334.992 21.4369C334.468 20.6975 334.189 19.9582 334.002 19.2189C333.884 18.8484 333.859 18.4795 333.791 18.1091L333.723 17.0008L333.791 15.8926C333.859 15.5222 333.884 15.1533 334.002 14.7828C334.189 14.0435 334.459 13.3042 334.992 12.5664C335.517 13.3042 335.796 14.0435 335.982 14.7828C336.101 15.1533 336.126 15.5222 336.194 15.8926L336.261 17.0008L336.194 18.1091C336.118 18.4795 336.092 18.8484 335.982 19.2189C335.796 19.9582 335.517 20.6975 334.992 21.4369Z" fill="#191815"/>
</g>
<defs>
<clipPath id="clip0_5928_44530">
<rect width="474" height="34" fill="white"/>
</clipPath>
</defs>
</svg>
