<svg width="24" height="24" viewBox="0 0 24 24" fill="none" xmlns="http://www.w3.org/2000/svg">
<path d="M9.54 16.6701C9.13 16.6701 8.79 16.3301 8.79 15.9201V12.5301L8.6 12.7501C8.32 13.0601 7.85 13.0801 7.54 12.8101C7.23 12.5301 7.21 12.0601 7.48 11.7501L8.98 10.0801C9.19 9.85008 9.52 9.77008 9.81 9.88008C10.1 9.99008 10.29 10.2701 10.29 10.5801V15.9301C10.29 16.3401 9.96 16.6701 9.54 16.6701Z" fill="#939394"/>
<path d="M12 3.47998C11.92 3.47998 11.84 3.48998 11.76 3.48998L12.58 2.46998C12.84 2.14998 12.79 1.66998 12.46 1.41998C12.14 1.15998 11.67 1.20998 11.41 1.53998L9.44 3.99998C9.43 4.00998 9.43 4.01998 9.42 4.03998C9.39 4.07998 9.37 4.12998 9.35 4.16998C9.33 4.21998 9.31 4.25998 9.3 4.29998C9.29 4.34998 9.29 4.38998 9.29 4.43998C9.29 4.48998 9.29 4.53998 9.29 4.58998C9.29 4.60998 9.29 4.61998 9.29 4.63998C9.3 4.66998 9.32 4.68998 9.33 4.72998C9.35 4.77998 9.36 4.81998 9.39 4.85998C9.42 4.89998 9.45 4.93998 9.49 4.97998C9.51 4.99998 9.53 5.02998 9.55 5.04998C9.56 5.05998 9.58 5.05998 9.59 5.06998C9.62 5.08998 9.65 5.10998 9.69 5.11998C9.74 5.14998 9.79 5.16998 9.84 5.17998C9.88 5.19998 9.91 5.19998 9.95 5.19998C9.98 5.19998 10 5.20998 10.03 5.20998C10.05 5.20998 10.08 5.19998 10.1 5.18998C10.13 5.18998 10.16 5.18998 10.2 5.18998C10.84 5.03998 11.44 4.96998 12.01 4.96998C16.5 4.96998 20.15 8.61998 20.15 13.11C20.15 17.6 16.5 21.25 12.01 21.25C7.52 21.25 3.87 17.6 3.87 13.11C3.87 11.37 4.44 9.68998 5.52 8.24998C5.77 7.91998 5.7 7.44998 5.37 7.19998C5.04 6.94998 4.57 7.01998 4.32 7.34998C3.04 9.04998 2.37 11.04 2.37 13.11C2.37 18.42 6.69 22.75 12.01 22.75C17.33 22.75 21.65 18.43 21.65 13.11C21.65 7.78998 17.31 3.47998 12 3.47998Z" fill="#939394"/>
<path d="M14 16.6701C12.48 16.6701 11.25 15.4401 11.25 13.9201V12.5701C11.25 11.0501 12.48 9.82007 14 9.82007C15.52 9.82007 16.75 11.0501 16.75 12.5701V13.9201C16.75 15.4401 15.52 16.6701 14 16.6701ZM14 11.3301C13.31 11.3301 12.75 11.8901 12.75 12.5801V13.9301C12.75 14.6201 13.31 15.1801 14 15.1801C14.69 15.1801 15.25 14.6201 15.25 13.9301V12.5801C15.25 11.8901 14.69 11.3301 14 11.3301Z" fill="#939394"/>
</svg>
