<svg width="16" height="16" viewBox="0 0 16 16" fill="none" xmlns="http://www.w3.org/2000/svg">
<path d="M3.60491 8.64932C2.77996 7.2514 2.23754 5.62176 2.02332 3.80611C1.92926 3.00882 2.4235 2.16918 3.26492 2.03158C3.52933 1.98835 3.85624 1.99488 4.12515 2.01913C5.24724 2.12034 5.71109 3.11073 5.95734 4.07202C6.28704 5.35913 5.88539 6.72346 4.91092 7.62646C4.50768 8.00012 4.04041 8.31471 3.60491 8.64932ZM3.60491 8.64932C4.48274 10.1369 5.68049 11.362 7.14311 12.2698M7.14311 12.2698C8.58584 13.1652 10.2863 13.7518 12.1916 13.9767C12.989 14.0708 13.8283 13.5762 13.9658 12.7348C14.013 12.4462 14.0074 12.1143 13.973 11.8241C13.8333 10.6439 12.697 10.1978 11.683 9.9653C10.5275 9.70033 9.31558 10.0181 8.43861 10.8158C7.96259 11.2489 7.56441 11.7845 7.14311 12.2698ZM9.33333 4.66667H11.3333M11.3333 4.66667H13.3333M11.3333 4.66667V2.66667M11.3333 4.66667L11.3333 6.66667" stroke="#4E545F" stroke-width="2" stroke-linecap="round" stroke-linejoin="round"/>
</svg>
