<svg width="21" height="20" viewBox="0 0 21 20" fill="none" xmlns="http://www.w3.org/2000/svg">
<path d="M13.9942 15.7215C14.1134 15.7224 14.2492 15.7321 14.5205 15.7515L16.1355 15.8668C16.7786 15.9128 17.1001 15.9357 17.3406 15.8217C17.5517 15.7216 17.7217 15.5517 17.8217 15.3406C17.9357 15.1001 17.9128 14.7786 17.8668 14.1355L17.7515 12.5205C17.7321 12.2491 17.7224 12.1134 17.7215 11.9942C17.72 11.8006 17.7176 11.8698 17.7324 11.6768C17.7416 11.558 17.8055 11.1066 17.9331 10.2038C17.9772 9.89219 18 9.57376 18 9.25C18 5.52208 14.9779 2.5 11.25 2.5C8.59971 2.5 6.30617 4.02742 5.20164 6.25M12 13C12 10.5147 9.98528 8.5 7.5 8.5C6.3527 8.5 5.30568 8.92935 4.51086 9.63615C3.58393 10.4604 3 11.662 3 13C3 13.2428 3.01922 13.481 3.05623 13.7134C3.13579 14.2129 3.17557 14.4626 3.18246 14.5397C3.19281 14.6554 3.19169 14.6296 3.1914 14.7458C3.1912 14.8232 3.18456 14.9162 3.17127 15.1022L3.08878 16.257C3.05816 16.6857 3.04285 16.9001 3.11885 17.0604C3.18557 17.2011 3.29889 17.3144 3.43961 17.3812C3.59991 17.4572 3.81427 17.4418 4.24299 17.4112L5.39784 17.3287C5.58381 17.3154 5.6768 17.3088 5.7542 17.3086C5.87037 17.3083 5.84456 17.3072 5.96027 17.3175C6.03735 17.3244 6.28726 17.3642 6.78663 17.4438C7.01897 17.4808 7.25724 17.5 7.5 17.5C8.83798 17.5 10.0396 16.9161 10.8638 15.9891C11.5706 15.1943 12 14.1473 12 13Z" stroke="white" stroke-width="2" stroke-linecap="round" stroke-linejoin="round"/>
</svg>
