<svg width="24" height="24" viewBox="0 0 24 24" fill="none" xmlns="http://www.w3.org/2000/svg">
<path d="M13.98 4.46997L12 2" stroke="#939394" stroke-width="1.5" stroke-linecap="round" stroke-linejoin="round"/>
<path d="M19.0899 7.80072C20.1999 9.28072 20.8899 11.1107 20.8899 13.1107C20.8899 18.0207 16.9099 22.0007 11.9999 22.0007C7.08988 22.0007 3.10986 18.0207 3.10986 13.1107C3.10986 8.20072 7.08988 4.2207 11.9999 4.2207C12.6799 4.2207 13.3399 4.31075 13.9799 4.46075" stroke="#939394" stroke-width="1.5" stroke-linecap="round" stroke-linejoin="round"/>
<path d="M9.54004 15.92V10.5801L8.04004 12.2501" stroke="#939394" stroke-width="1.5" stroke-linecap="round" stroke-linejoin="round"/>
<path d="M14 10.5801C15.1 10.5801 16 11.4801 16 12.5801V13.9301C16 15.0301 15.1 15.9301 14 15.9301C12.9 15.9301 12 15.0301 12 13.9301V12.5801C12 11.4701 12.9 10.5801 14 10.5801Z" stroke="#939394" stroke-width="1.5" stroke-linecap="round" stroke-linejoin="round"/>
</svg>
