<svg width="18" height="18" viewBox="0 0 18 18" fill="none" xmlns="http://www.w3.org/2000/svg">
<circle cx="9" cy="9" r="9" fill="#BB1865"/>
<path d="M7.2 8.64027H7.20054M9.36 8.64027H9.36054M11.52 8.64027H11.5205M14.22 8.64027C14.22 11.3244 12.0441 13.5003 9.36 13.5003C9.12689 13.5003 8.89762 13.4839 8.67327 13.4521C8.02328 13.3602 7.69827 13.3142 7.61272 13.3076C7.47373 13.2969 7.52356 13.2986 7.38417 13.2997C7.29837 13.3004 7.20057 13.3074 7.00522 13.3213L5.84243 13.4044C5.37942 13.4375 5.1479 13.454 4.97478 13.3719C4.8228 13.2999 4.70041 13.1775 4.62836 13.0255C4.54628 12.8524 4.56282 12.6209 4.59589 12.1578L4.67894 10.9951C4.6929 10.7996 4.69988 10.7019 4.70055 10.6161C4.70163 10.4767 4.70336 10.5265 4.69264 10.3876C4.68604 10.302 4.64007 9.977 4.54814 9.327C4.51641 9.10265 4.5 8.87338 4.5 8.64027C4.5 5.95617 6.6759 3.78027 9.36 3.78027C12.0441 3.78027 14.22 5.95617 14.22 8.64027Z" stroke="white" stroke-width="1.5" stroke-linecap="round" stroke-linejoin="round"/>
</svg>
