<svg width="12" height="12" viewBox="0 0 12 12" fill="none" xmlns="http://www.w3.org/2000/svg">
<g id="pause">
<g id="vuesax/bold/pause">
<g id="pause_2">
<path id="Vector" d="M5.61515 8.99334V2.55409C5.61515 1.94277 5.35704 1.69824 4.70496 1.69824H3.06119C2.40911 1.69824 2.151 1.94277 2.151 2.55409V8.99334C2.151 9.60466 2.40911 9.84919 3.06119 9.84919H4.70496C5.35704 9.84919 5.61515 9.60466 5.61515 8.99334Z" fill="#00539F"/>
<path id="Vector_2" d="M10.3019 8.99334V2.55409C10.3019 1.94277 10.0438 1.69824 9.39173 1.69824H7.74796C7.10041 1.69824 6.83777 1.94277 6.83777 2.55409V8.99334C6.83777 9.60466 7.09588 9.84919 7.74796 9.84919H9.39173C10.0438 9.84919 10.3019 9.60466 10.3019 8.99334Z" fill="#00539F"/>
</g>
</g>
</g>
</svg>
