<svg xmlns="http://www.w3.org/2000/svg" width="474" height="34" viewBox="0 0 474 34" version="1.1"><path d="" stroke="none" fill="#14140c" fill-rule="evenodd"/><path d="M 238.675 3.543 C 238.316 5.719, 238.022 11.775, 238.022 17 C 238.022 22.225, 238.316 28.281, 238.675 30.457 C 239.855 37.598, 240.859 31.407, 240.859 17 C 240.859 2.593, 239.855 -3.598, 238.675 3.543 M 132.639 6.770 C 131.840 11.602, 131.848 22.448, 132.654 27.327 C 133.818 34.370, 134.969 28.929, 134.985 16.309 C 135 4.264, 133.835 -0.470, 132.639 6.770 M 212.625 3.854 C 211.413 5.737, 211.573 28.973, 212.807 30.207 C 214.321 31.721, 215.396 17.262, 214.365 9.253 C 213.792 4.799, 213.200 2.961, 212.625 3.854 M 233.723 4.332 C 232.718 6.879, 232.843 28.204, 233.872 29.827 C 235.709 32.725, 236.717 12.839, 235.104 5.500 C 234.557 3.011, 234.322 2.812, 233.723 4.332 M 243.500 10 C 242.744 17.525, 243.719 31.292, 244.954 30.529 C 246.965 29.286, 246.968 3, 244.956 3 C 244.542 3, 243.887 6.150, 243.500 10 M 265.656 3.804 C 264.466 5.650, 264.604 29.004, 265.812 30.212 C 267.320 31.720, 268.394 17.240, 267.365 9.253 C 266.816 4.980, 266.188 2.979, 265.656 3.804 M 349.474 9.396 C 348.615 17.416, 349.759 31.641, 351.151 30.249 C 352.406 28.994, 352.402 5.002, 351.147 3.747 C 350.528 3.128, 349.929 5.150, 349.474 9.396 M 122.611 4.861 C 121.344 6.852, 121.458 26.858, 122.744 28.144 C 123.509 28.909, 124.017 27.351, 124.512 22.730 C 125.310 15.284, 123.973 2.721, 122.611 4.861 M 196.750 4.577 C 195.696 5.640, 195.810 28.764, 196.872 29.421 C 198.063 30.157, 199 23.860, 198.871 16 C 198.746 8.459, 197.824 3.494, 196.750 4.577 M 280.610 10.500 C 279.894 17.490, 280.800 30, 282.022 30 C 282.432 30, 283.080 27.075, 283.463 23.500 C 284.202 16.598, 283.271 4, 282.022 4 C 281.612 4, 280.977 6.925, 280.610 10.500 M 164.639 7.498 C 163.701 9.943, 163.889 25.277, 164.877 26.835 C 166.170 28.875, 166.973 24.721, 166.971 16 C 166.969 8.274, 165.874 4.280, 164.639 7.498 M 180.719 6.615 C 179.712 7.622, 179.847 25.210, 180.874 26.831 C 182.045 28.677, 183.019 23.367, 182.930 15.625 C 182.856 9.186, 181.928 5.405, 180.719 6.615 M 206.471 11.386 C 205.617 18.221, 206.729 28.671, 208.158 27.242 C 208.699 26.701, 209.143 22.091, 209.143 17 C 209.143 6.215, 207.538 2.844, 206.471 11.386 M 217.675 7.405 C 216.710 9.920, 216.869 25.245, 217.877 26.835 C 218.508 27.831, 218.881 27.578, 219.348 25.835 C 220.202 22.643, 220.033 9.944, 219.105 7.573 C 218.404 5.785, 218.301 5.773, 217.675 7.405 M 227.629 11.500 C 226.927 17.470, 227.817 28, 229.022 28 C 229.433 28, 230.079 25.525, 230.457 22.500 C 231.190 16.634, 230.265 6, 229.022 6 C 228.612 6, 227.984 8.475, 227.629 11.500 M 249.745 6.588 C 248.692 7.641, 248.814 26.767, 249.878 27.425 C 251.080 28.167, 252.021 22.910, 251.900 16.125 C 251.786 9.698, 250.837 5.496, 249.745 6.588 M 259.458 11.486 C 258.660 17.873, 259.715 28.294, 261.074 27.454 C 261.583 27.140, 262 22.435, 262 17 C 262 6.072, 260.533 2.889, 259.458 11.486 M 270.675 7.405 C 269.710 9.920, 269.869 25.245, 270.877 26.835 C 271.508 27.831, 271.881 27.578, 272.348 25.835 C 273.202 22.643, 273.033 9.944, 272.105 7.573 C 271.404 5.785, 271.301 5.773, 270.675 7.405 M 296.543 11.500 C 295.811 17.361, 296.734 28, 297.975 28 C 298.385 28, 298.976 25.525, 299.288 22.500 C 299.928 16.301, 299.108 6, 297.975 6 C 297.566 6, 296.921 8.475, 296.543 11.500 M 317.712 11.500 C 317.061 17.806, 317.899 28, 319.068 28 C 320.345 28, 321.287 17.456, 320.543 11.500 C 320.165 8.475, 319.501 6, 319.068 6 C 318.634 6, 318.024 8.475, 317.712 11.500 M 344.652 8.165 C 343.795 11.369, 343.968 24.060, 344.902 26.446 C 345.608 28.249, 345.712 28.212, 346.318 25.946 C 347.263 22.416, 347.121 8.739, 346.123 7.165 C 345.492 6.169, 345.119 6.422, 344.652 8.165 M 376.675 7.405 C 375.711 9.917, 375.868 25.244, 376.874 26.831 C 378.718 29.740, 379.850 12.029, 378.105 7.573 C 377.404 5.785, 377.301 5.773, 376.675 7.405 M 95.652 9.165 C 95.309 10.449, 95.027 13.975, 95.027 17 C 95.027 20.025, 95.309 23.551, 95.652 24.835 C 96.774 29.022, 97.969 24.979, 97.969 17 C 97.969 9.021, 96.774 4.978, 95.652 9.165 M 116.622 10.141 C 115.344 16.531, 116.356 27.516, 118.122 26.425 C 118.605 26.126, 119 21.885, 119 17 C 119 8.012, 117.762 4.441, 116.622 10.141 M 137.628 11.699 C 136.922 16.846, 137.810 26, 139.015 26 C 140.280 26, 141.137 17.511, 140.418 12.095 C 140.046 9.293, 139.411 7, 139.007 7 C 138.603 7, 137.982 9.114, 137.628 11.699 M 355.745 7.588 C 354.696 8.637, 354.812 25.766, 355.872 26.421 C 357.626 27.505, 358.598 14.337, 357.146 9.171 C 356.785 7.891, 356.155 7.178, 355.745 7.588 M 174.655 12.500 C 173.975 17.459, 174.840 26, 176.022 26 C 177.257 26, 178.172 17.330, 177.448 12.500 C 177.077 10.025, 176.435 8, 176.022 8 C 175.610 8, 174.994 10.025, 174.655 12.500 M 185.652 10.165 C 185.309 11.449, 185.027 14.525, 185.027 17 C 185.027 19.475, 185.309 22.551, 185.652 23.835 C 186.719 27.820, 187.969 24.133, 187.969 17 C 187.969 9.867, 186.719 6.180, 185.652 10.165 M 291.627 10.261 C 290.844 13.183, 290.858 20.869, 291.652 23.835 C 292.755 27.951, 293.968 24.036, 293.985 16.309 C 294 9.151, 292.770 5.996, 291.627 10.261 M 302.638 8.777 C 302.210 9.469, 301.870 13.185, 301.883 17.036 C 301.907 24.737, 302.973 28.068, 304.108 23.990 C 305.624 18.540, 304.405 5.918, 302.638 8.777 M 339.719 8.615 C 339.323 9.010, 339.007 12.521, 339.015 16.417 C 339.033 24.454, 340.333 28.083, 341.359 22.956 C 342.650 16.502, 341.539 6.794, 339.719 8.615 M 402.513 11.923 C 401.632 17.137, 402.827 26.573, 404.195 25.205 C 404.735 24.665, 405.176 20.973, 405.176 17 C 405.176 8.645, 403.581 5.604, 402.513 11.923 M 69.674 10 C 68.248 13.319, 68.462 24, 69.955 24 C 71.519 24, 72.323 17.155, 71.285 12.673 C 70.663 9.988, 70.089 9.035, 69.674 10 M 111.516 11.080 C 110.600 14.728, 111.313 23.545, 112.500 23.262 C 113.844 22.941, 114.351 12.450, 113.128 10.264 C 112.271 8.732, 112.081 8.828, 111.516 11.080 M 153.516 12.904 C 153.136 15.157, 153.136 18.843, 153.516 21.096 C 154.528 27.084, 156.333 24.459, 156.333 17 C 156.333 9.541, 154.528 6.916, 153.516 12.904 M 323.639 10.498 C 322.716 12.904, 322.882 22.266, 323.876 23.834 C 325.140 25.828, 326.003 22.897, 325.985 16.668 C 325.968 10.926, 324.727 7.663, 323.639 10.498 M 418.627 11.261 C 417.369 15.956, 418.310 24, 420.117 24 C 421.272 24, 421.269 10.284, 420.114 9.570 C 419.626 9.269, 418.957 10.030, 418.627 11.261 M 16.611 10.820 C 15.483 12.646, 15.657 21.057, 16.847 22.247 C 17.532 22.932, 18.070 22.143, 18.507 19.815 C 19.263 15.784, 17.809 8.883, 16.611 10.820 M 53.750 10.579 C 52.660 11.676, 52.829 21.776, 53.949 22.469 C 55.351 23.335, 56.387 16.336, 55.374 12.842 C 54.894 11.182, 54.163 10.163, 53.750 10.579 M 90.719 10.615 C 89.681 11.652, 89.833 21.779, 90.895 22.435 C 91.388 22.740, 92.063 22.279, 92.395 21.412 C 93.738 17.914, 92.351 8.982, 90.719 10.615 M 100.564 13.509 C 99.799 17.588, 100.663 23, 102.079 23 C 103.682 23, 103.691 12.291, 102.090 10.690 C 101.628 10.228, 100.942 11.497, 100.564 13.509 M 222.605 11.588 C 221.122 15.452, 222.276 24.566, 224.105 23.435 C 224.597 23.131, 225 20.235, 225 17 C 225 11.217, 223.793 8.490, 222.605 11.588 M 254.605 11.588 C 253.122 15.452, 254.276 24.566, 256.105 23.435 C 256.597 23.131, 257 20.235, 257 17 C 257 11.217, 255.793 8.490, 254.605 11.588 M 371.628 11.250 C 370.117 15.462, 369.994 16.453, 370.591 19.634 C 371.396 23.924, 372.732 23.947, 373.531 19.685 C 374.271 15.743, 372.628 8.462, 371.628 11.250 M 381.605 11.588 C 380.163 15.344, 381.298 23.552, 383.105 22.435 C 383.597 22.131, 384 19.460, 384 16.500 C 384 11.140, 382.756 8.588, 381.605 11.588 M 455.564 13.509 C 454.724 17.990, 455.773 23.627, 457.184 22.216 C 458.447 20.953, 458.466 12.066, 457.209 10.809 C 456.598 10.198, 456.002 11.177, 455.564 13.509 M 21.639 12.498 C 20.696 14.957, 20.863 20.797, 21.895 21.435 C 23.788 22.605, 24.818 14.838, 23.124 12.166 C 22.449 11.102, 22.149 11.169, 21.639 12.498 M 37.750 11.579 C 36.653 12.683, 36.833 20.779, 37.971 21.482 C 38.505 21.812, 39.236 20.908, 39.596 19.473 C 40.334 16.534, 38.904 10.418, 37.750 11.579 M 127.639 12.498 C 126.696 14.957, 126.863 20.797, 127.895 21.435 C 129.788 22.605, 130.818 14.838, 129.124 12.166 C 128.449 11.102, 128.149 11.169, 127.639 12.498 M 148.639 11.694 C 147.704 12.629, 147.888 21.274, 148.876 22.834 C 150.082 24.736, 151 21.988, 151 16.477 C 151 12.316, 150.015 10.319, 148.639 11.694 M 169.605 12.588 C 168.212 16.218, 169.326 23.535, 171.105 22.435 C 171.597 22.131, 172 19.685, 172 17 C 172 12.061, 170.715 9.694, 169.605 12.588 M 190.500 14 C 189.776 17.298, 190.697 23, 191.954 23 C 193.159 23, 194.028 17.392, 193.350 14 C 192.583 10.164, 191.343 10.164, 190.500 14 M 201.605 12.588 C 200.212 16.218, 201.326 23.535, 203.105 22.435 C 203.597 22.131, 204 19.685, 204 17 C 204 12.061, 202.715 9.694, 201.605 12.588 M 275.605 12.588 C 274.212 16.218, 275.326 23.535, 277.105 22.435 C 277.597 22.131, 278 19.685, 278 17 C 278 12.061, 276.715 9.694, 275.605 12.588 M 286.682 11.652 C 285.673 12.660, 285.854 21.792, 286.895 22.435 C 288.076 23.165, 289.004 20.605, 288.985 16.668 C 288.968 13.205, 287.760 10.573, 286.682 11.652 M 307.605 12.588 C 306.212 16.218, 307.326 23.535, 309.105 22.435 C 309.597 22.131, 310 19.685, 310 17 C 310 12.061, 308.715 9.694, 307.605 12.588 M 328.605 12.588 C 327.830 14.606, 327.852 18.846, 328.652 21.835 C 329.601 25.379, 330.966 22.437, 330.985 16.809 C 331 12.035, 329.701 9.731, 328.605 12.588 M 333.574 13.560 C 332.847 16.457, 333.826 23, 334.986 23 C 336.164 23, 337.020 17.350, 336.350 14 C 335.615 10.325, 334.433 10.137, 333.574 13.560 M 397.639 12.498 C 396.273 16.059, 397.334 22.530, 399.105 21.435 C 400.236 20.736, 400.250 13.942, 399.124 12.166 C 398.449 11.102, 398.149 11.169, 397.639 12.498 M 408.711 11.622 C 407.654 12.679, 407.850 20.789, 408.949 21.469 C 410.286 22.295, 411.300 15.971, 410.274 13.205 C 409.806 11.943, 409.103 11.231, 408.711 11.622 M 434.605 12.588 C 433.268 16.071, 434.360 22.513, 436.105 21.435 C 436.597 21.131, 437 18.910, 437 16.500 C 437 11.980, 435.671 9.809, 434.605 12.588 M 450.639 12.498 C 449.273 16.059, 450.334 22.530, 452.105 21.435 C 453.236 20.736, 453.250 13.942, 452.124 12.166 C 451.449 11.102, 451.149 11.169, 450.639 12.498 M 63.411 14.500 C 62.632 17.604, 63.718 22.292, 65.029 21.482 C 66.302 20.695, 66.293 12, 65.019 12 C 64.480 12, 63.756 13.125, 63.411 14.500 M 74.639 12.694 C 73.667 13.666, 73.876 20.805, 74.895 21.435 C 76.038 22.142, 77 19.648, 77 15.977 C 77 13.112, 75.838 11.495, 74.639 12.694 M 84.589 14.500 C 83.893 17.276, 84.781 22, 86 22 C 87.219 22, 88.107 17.276, 87.411 14.500 C 86.608 11.304, 85.392 11.304, 84.589 14.500 M 106 16.441 C 106 18.884, 106.437 21.152, 106.971 21.482 C 108.282 22.292, 109.368 17.604, 108.589 14.500 C 107.574 10.454, 106 11.634, 106 16.441 M 143.682 12.652 C 142.678 13.655, 142.852 20.790, 143.895 21.435 C 145.719 22.562, 146.772 15.765, 145.166 13.235 C 144.725 12.539, 144.057 12.277, 143.682 12.652 M 365.411 14.500 C 364.632 17.604, 365.718 22.292, 367.029 21.482 C 368.302 20.695, 368.293 12, 367.019 12 C 366.480 12, 365.756 13.125, 365.411 14.500 M 386.589 14.500 C 385.897 17.258, 386.779 22, 387.983 22 C 389.082 22, 389.992 16.687, 389.329 14.149 C 388.577 11.275, 387.359 11.432, 386.589 14.500 M 10.435 15.402 C 9.779 18.018, 10.479 20, 12.059 20 C 13.303 20, 13.277 14.289, 12.029 13.518 C 11.495 13.188, 10.778 14.036, 10.435 15.402 M 31.710 15 C 31.098 17.340, 31.890 21, 33.008 21 C 34.124 21, 35.107 16.442, 34.392 14.579 C 33.559 12.408, 32.338 12.600, 31.710 15 M 42.390 14.427 C 41.597 16.493, 42.329 20.500, 43.500 20.500 C 44.050 20.500, 44.640 18.813, 44.810 16.750 C 45.117 13.045, 43.511 11.504, 42.390 14.427 M 79.435 15.402 C 78.779 18.018, 79.479 20, 81.059 20 C 82.303 20, 82.277 14.289, 81.029 13.518 C 80.495 13.188, 79.778 14.036, 79.435 15.402 M 159 16.441 C 159 18.334, 159.418 20.140, 159.928 20.456 C 161.194 21.238, 162.282 17.464, 161.500 15 C 160.491 11.820, 159 12.679, 159 16.441 M 312.361 14.502 C 311.558 16.593, 312.847 21.212, 314.029 20.482 C 315.331 19.677, 315.277 13, 313.969 13 C 313.401 13, 312.678 13.676, 312.361 14.502 M 360.448 14.274 C 359.652 16.348, 360.218 19.050, 361.500 19.303 C 362.894 19.578, 363.400 15, 362.117 13.717 C 361.382 12.982, 360.880 13.149, 360.448 14.274 M 392.731 13.602 C 391.614 14.720, 391.861 20, 393.031 20 C 393.599 20, 394.331 19.300, 394.660 18.445 C 395.375 16.581, 393.773 12.560, 392.731 13.602 M 429 16.441 C 429 18.334, 429.437 20.152, 429.971 20.482 C 431.153 21.212, 432.442 16.593, 431.639 14.502 C 430.592 11.772, 429 12.941, 429 16.441 M 439.500 15 C 438.789 17.240, 439.698 21, 440.951 21 C 441.400 21, 442.002 20.100, 442.290 19 C 442.912 16.622, 442.103 13, 440.951 13 C 440.502 13, 439.849 13.900, 439.500 15 M 461.731 13.602 C 460.614 14.720, 460.861 20, 462.031 20 C 462.599 20, 463.331 19.300, 463.660 18.445 C 464.375 16.581, 462.773 12.560, 461.731 13.602 M 5.362 15.500 C 4.593 17.503, 5.727 20.287, 6.993 19.504 C 8.318 18.685, 8.297 14, 6.969 14 C 6.401 14, 5.678 14.675, 5.362 15.500 M 26.494 15.009 C 25.621 16.423, 26.944 20.153, 28.072 19.456 C 29.288 18.704, 29.277 14, 28.059 14 C 27.541 14, 26.837 14.454, 26.494 15.009 M 47.638 15.500 C 47.322 16.325, 47.346 17.738, 47.692 18.640 C 48.268 20.140, 48.430 20.132, 49.592 18.543 C 50.859 16.811, 50.492 14, 49 14 C 48.568 14, 47.955 14.675, 47.638 15.500 M 58.386 15.437 C 57.598 17.490, 58.708 20.299, 59.993 19.504 C 60.547 19.162, 61 18.035, 61 17 C 61 14.536, 59.155 13.433, 58.386 15.437 M 413.386 15.437 C 412.598 17.490, 413.708 20.299, 414.993 19.504 C 415.547 19.162, 416 18.035, 416 17 C 416 14.536, 414.155 13.433, 413.386 15.437 M 423.676 15.403 C 423.380 16.174, 423.709 17.587, 424.408 18.543 C 425.570 20.132, 425.732 20.140, 426.308 18.640 C 427.009 16.814, 426.216 14, 425 14 C 424.568 14, 423.972 14.631, 423.676 15.403 M 445 16.441 C 445 17.784, 445.418 19.140, 445.928 19.456 C 447.056 20.153, 448.379 16.423, 447.506 15.009 C 446.372 13.175, 445 13.960, 445 16.441 M 466.173 16.422 C 466.353 17.874, 466.950 19.048, 467.500 19.031 C 468.996 18.985, 468.707 14.736, 467.173 14.224 C 466.246 13.915, 465.945 14.578, 466.173 16.422 M 0 17.083 C 0 19.520, 2.337 19.176, 2.823 16.667 C 3.015 15.680, 2.505 15, 1.573 15 C 0.646 15, 0 15.855, 0 17.083 M 471.177 16.667 C 471.663 19.176, 474 19.520, 474 17.083 C 474 15.855, 473.354 15, 472.427 15 C 471.495 15, 470.985 15.680, 471.177 16.667" stroke="none" fill="#0c0c0c" fill-rule="evenodd"/></svg>