<svg width="21" height="20" viewBox="0 0 21 20" fill="none" xmlns="http://www.w3.org/2000/svg">
<g id="Video call/add">
<path id="Vector" d="M5.91669 10.0003H8.41669M8.41669 10.0003H10.9167M8.41669 10.0003V7.50033M8.41669 10.0003V12.5003M14.6676 11.6117C14.6831 12.0838 14.8984 12.5282 15.2614 12.8332L16.0947 13.5332C17.179 14.444 18.8334 13.6732 18.8334 12.257V7.74366C18.8334 6.32749 17.179 5.55666 16.0947 6.46749L15.2614 7.16749C14.9 7.47099 14.685 7.91283 14.6678 8.38249M14.6676 11.6117L14.6667 12.5003C14.6667 14.3412 13.1743 15.8337 11.3334 15.8337H5.50002C3.65907 15.8337 2.16669 14.3412 2.16669 12.5003V7.50033C2.16669 5.65941 3.65907 4.16699 5.50002 4.16699H11.3334C13.1743 4.16699 14.6667 5.65941 14.6667 7.50033L14.6678 8.38249M14.6676 11.6117L14.6678 8.38249" stroke="white" stroke-width="2" stroke-linecap="round" stroke-linejoin="round"/>
</g>
</svg>
