<svg width="18" height="19" viewBox="0 0 18 19" fill="none" xmlns="http://www.w3.org/2000/svg">
<circle cx="9" cy="9.75" r="9" fill="#008344"/>
<path d="M8.07715 10.0341C7.71623 9.42249 7.47892 8.70952 7.38521 7.91517C7.37727 7.8479 7.3733 7.81427 7.37569 7.76073C7.38857 7.47203 7.64327 7.18545 7.92841 7.13882C8.04408 7.1199 8.18711 7.12276 8.30476 7.13337C8.5867 7.1588 8.83362 7.33285 8.95239 7.58987C8.96733 7.62221 8.98049 7.65907 9.00681 7.73278C9.06107 7.88474 9.0882 7.96072 9.10634 8.03151C9.25058 8.59462 9.07486 9.19151 8.64853 9.58657C8.59494 9.63624 8.53096 9.68539 8.40303 9.78369L8.07715 10.0341ZM8.07715 10.0341C8.4612 10.6849 8.98522 11.2209 9.62511 11.618M9.62511 11.618C10.2563 12.0098 11.0002 12.2664 11.8338 12.3648C11.9011 12.3727 11.9347 12.3767 11.9883 12.3743C12.2769 12.3614 12.5634 12.1067 12.61 11.8215C12.6307 11.6952 12.6282 11.55 12.6132 11.423C12.5818 11.1575 12.4185 10.9258 12.179 10.8068C12.1372 10.786 12.0886 10.7687 11.9915 10.734C11.7987 10.6651 11.7022 10.6307 11.6113 10.6098C11.1058 10.4939 10.5756 10.6329 10.1919 10.9819C10.1229 11.0447 10.0561 11.1216 9.92249 11.2755L9.62511 11.618ZM10 15C12.8995 15 15.25 12.6495 15.25 9.75C15.25 6.85051 12.8995 4.5 10 4.5C7.10051 4.5 4.75 6.85051 4.75 9.75C4.75 10.3963 4.86679 11.0153 5.0804 11.5871C5.15 11.7734 5.1848 11.8666 5.19734 11.9349C5.21008 12.0044 5.21291 12.0485 5.20915 12.119C5.20544 12.1884 5.18743 12.2656 5.15141 12.4198L4.9487 13.2878C4.79588 13.9421 4.71947 14.2692 4.81113 14.4991C4.89118 14.6998 5.05019 14.8588 5.2509 14.9389C5.48075 15.0305 5.80792 14.9541 6.46224 14.8013L7.33019 14.5986C7.48443 14.5626 7.56155 14.5446 7.63097 14.5408C7.70145 14.5371 7.74564 14.5399 7.81507 14.5527C7.88344 14.5652 7.9766 14.6 8.16287 14.6696C8.73467 14.8832 9.3537 15 10 15Z" stroke="white" stroke-width="1.5" stroke-linecap="round" stroke-linejoin="round"/>
</svg>
