<svg width="14" height="15" viewBox="0 0 14 15" fill="none" xmlns="http://www.w3.org/2000/svg">
<path d="M5.07715 8.03408C4.71623 7.42249 4.47892 6.70952 4.38521 5.91517C4.37727 5.8479 4.3733 5.81427 4.37569 5.76073C4.38857 5.47203 4.64327 5.18545 4.92841 5.13882C5.04408 5.1199 5.18711 5.12276 5.30476 5.13337C5.5867 5.1588 5.83362 5.33285 5.95239 5.58987C5.96733 5.62221 5.98049 5.65907 6.00681 5.73278C6.06107 5.88474 6.0882 5.96072 6.10634 6.03151C6.25058 6.59462 6.07486 7.19151 5.64853 7.58657C5.59494 7.63624 5.53096 7.68539 5.40303 7.78369L5.07715 8.03408ZM5.07715 8.03408C5.4612 8.68488 5.98522 9.22089 6.62511 9.61803M6.62511 9.61803C7.2563 10.0098 8.00025 10.2664 8.83384 10.3648C8.9011 10.3727 8.93474 10.3767 8.98827 10.3743C9.27691 10.3614 9.56343 10.1067 9.61005 9.82147C9.63069 9.6952 9.62823 9.55 9.6132 9.42305C9.58176 9.1575 9.41848 8.92575 9.17903 8.80683C9.13719 8.78605 9.08864 8.7687 8.99155 8.73402C8.79866 8.66512 8.70221 8.63066 8.6113 8.60982C8.10579 8.4939 7.57557 8.6329 7.19189 8.98193C7.1229 9.0447 7.05609 9.12164 6.92249 9.27552L6.62511 9.61803ZM7 13C9.89949 13 12.25 10.6495 12.25 7.75C12.25 4.85051 9.89949 2.5 7 2.5C4.10051 2.5 1.75 4.85051 1.75 7.75C1.75 8.3963 1.86679 9.01533 2.0804 9.58713C2.15 9.77342 2.1848 9.86656 2.19734 9.93493C2.21008 10.0044 2.21291 10.0485 2.20915 10.119C2.20544 10.1884 2.18743 10.2656 2.15141 10.4198L1.9487 11.2878C1.79588 11.9421 1.71947 12.2692 1.81113 12.4991C1.89118 12.6998 2.05019 12.8588 2.2509 12.9389C2.48075 13.0305 2.80792 12.9541 3.46224 12.8013L4.33019 12.5986C4.48443 12.5626 4.56155 12.5446 4.63097 12.5408C4.70145 12.5371 4.74564 12.5399 4.81507 12.5527C4.88344 12.5652 4.9766 12.6 5.16287 12.6696C5.73467 12.8832 6.3537 13 7 13Z" stroke="white" stroke-width="1.5" stroke-linecap="round" stroke-linejoin="round"/>
</svg>
