<svg width="15" height="14" viewBox="0 0 15 14" fill="none" xmlns="http://www.w3.org/2000/svg">
<g clip-path="url(#clip0_5540_42954)">
<path d="M8.40625 0C11.909 0 14.75 2.84102 14.75 6.34375C14.75 6.70742 14.4574 7 14.0938 7C13.7301 7 13.4375 6.70742 13.4375 6.34375C13.4375 3.56562 11.1844 1.3125 8.40625 1.3125C8.04258 1.3125 7.75 1.01992 7.75 0.65625C7.75 0.292578 8.04258 0 8.40625 0ZM8.625 5.25C8.85706 5.25 9.07962 5.34219 9.24372 5.50628C9.40781 5.67038 9.5 5.89294 9.5 6.125C9.5 6.35706 9.40781 6.57962 9.24372 6.74372C9.07962 6.90781 8.85706 7 8.625 7C8.39294 7 8.17038 6.90781 8.00628 6.74372C7.84219 6.57962 7.75 6.35706 7.75 6.125C7.75 5.89294 7.84219 5.67038 8.00628 5.50628C8.17038 5.34219 8.39294 5.25 8.625 5.25ZM7.75 3.28125C7.75 2.91758 8.04258 2.625 8.40625 2.625C10.4598 2.625 12.125 4.29023 12.125 6.34375C12.125 6.70742 11.8324 7 11.4688 7C11.1051 7 10.8125 6.70742 10.8125 6.34375C10.8125 5.01484 9.73516 3.9375 8.40625 3.9375C8.04258 3.9375 7.75 3.64492 7.75 3.28125ZM9.74609 7.83945C10.0551 7.46211 10.5746 7.33359 11.023 7.52773L14.0855 8.84023C14.5668 9.04531 14.8348 9.56484 14.7254 10.0734L14.0691 13.1359C13.9598 13.6391 13.5141 14 13 14C12.8332 14 12.6664 13.9973 12.5023 13.9891H12.4996C12.2262 13.9781 11.9582 13.959 11.6902 13.9289C5.54063 13.2781 0.75 8.07187 0.75 1.75C0.75 1.2332 1.11094 0.7875 1.61406 0.680859L4.67656 0.0246094C5.18789 -0.0847656 5.70469 0.183203 5.90977 0.664453L7.22227 3.72695C7.41367 4.17539 7.28789 4.69492 6.91055 5.00391L5.80039 5.91172C6.53047 7.16953 7.58047 8.21953 8.83828 8.94961L9.74609 7.83945ZM13.4047 9.975L10.6594 8.79922L9.85547 9.77812C9.44805 10.2758 8.73984 10.4043 8.18203 10.0816C6.72461 9.23672 5.51055 8.02266 4.66562 6.56523C4.34297 6.00742 4.47148 5.29922 4.96914 4.8918L5.95078 4.08789L4.775 1.34258L2.06523 1.92773C2.1582 7.82578 6.92422 12.5918 12.8223 12.6875L13.4047 9.975Z" fill="#015EB0"/>
</g>
<defs>
<clipPath id="clip0_5540_42954">
<rect width="14" height="14" fill="white" transform="translate(0.75)"/>
</clipPath>
</defs>
</svg>
