<svg width="25" height="25" viewBox="0 0 25 25" fill="none" xmlns="http://www.w3.org/2000/svg">
<g clip-path="url(#clip0_5540_43542)">
<path d="M22.6562 12.5C22.6562 9.80639 21.5862 7.22311 19.6816 5.31845C17.7769 3.41378 15.1936 2.34375 12.5 2.34375C9.80639 2.34375 7.22311 3.41378 5.31845 5.31845C3.41378 7.22311 2.34375 9.80639 2.34375 12.5C2.34375 15.1936 3.41378 17.7769 5.31845 19.6816C7.22311 21.5862 9.80639 22.6562 12.5 22.6562C15.1936 22.6562 17.7769 21.5862 19.6816 19.6816C21.5862 17.7769 22.6562 15.1936 22.6562 12.5ZM0 12.5C0 9.18479 1.31696 6.00537 3.66117 3.66117C6.00537 1.31696 9.18479 0 12.5 0C15.8152 0 18.9946 1.31696 21.3388 3.66117C23.683 6.00537 25 9.18479 25 12.5C25 15.8152 23.683 18.9946 21.3388 21.3388C18.9946 23.683 15.8152 25 12.5 25C9.18479 25 6.00537 23.683 3.66117 21.3388C1.31696 18.9946 0 15.8152 0 12.5ZM8.67188 15.5322C9.41406 16.333 10.6836 17.1875 12.5 17.1875C14.3164 17.1875 15.5859 16.333 16.3281 15.5322C16.7676 15.0586 17.5098 15.0244 17.9834 15.4639C18.457 15.9033 18.4912 16.6455 18.0518 17.1191C16.9775 18.2812 15.1221 19.5312 12.5049 19.5312C9.8877 19.5312 8.02734 18.2861 6.95801 17.1191C6.51855 16.6455 6.54785 15.9033 7.02637 15.4639C7.50488 15.0244 8.24219 15.0537 8.68164 15.5322H8.67188ZM7.05078 10.1562C7.05078 9.74185 7.2154 9.34442 7.50843 9.0514C7.80145 8.75837 8.19888 8.59375 8.61328 8.59375C9.02768 8.59375 9.42511 8.75837 9.71814 9.0514C10.0112 9.34442 10.1758 9.74185 10.1758 10.1562C10.1758 10.5707 10.0112 10.9681 9.71814 11.2611C9.42511 11.5541 9.02768 11.7188 8.61328 11.7188C8.19888 11.7188 7.80145 11.5541 7.50843 11.2611C7.2154 10.9681 7.05078 10.5707 7.05078 10.1562ZM16.4258 8.59375C16.8402 8.59375 17.2376 8.75837 17.5306 9.0514C17.8237 9.34442 17.9883 9.74185 17.9883 10.1562C17.9883 10.5707 17.8237 10.9681 17.5306 11.2611C17.2376 11.5541 16.8402 11.7188 16.4258 11.7188C16.0114 11.7188 15.614 11.5541 15.3209 11.2611C15.0279 10.9681 14.8633 10.5707 14.8633 10.1562C14.8633 9.74185 15.0279 9.34442 15.3209 9.0514C15.614 8.75837 16.0114 8.59375 16.4258 8.59375Z" fill="#008344"/>
</g>
<defs>
<clipPath id="clip0_5540_43542">
<rect width="25" height="25" fill="white"/>
</clipPath>
</defs>
</svg>
