<svg width="13" height="14" viewBox="0 0 13 14" fill="none" xmlns="http://www.w3.org/2000/svg">
<g clip-path="url(#clip0_5540_42962)">
<path d="M11.0402 2.65508C9.89453 1.50664 8.36875 0.875 6.74727 0.875C3.40039 0.875 0.676953 3.59844 0.676953 6.94531C0.676953 8.01445 0.955859 9.05898 1.48633 9.98047L0.625 13.125L3.84336 12.2801C4.7293 12.7641 5.72734 13.0184 6.74453 13.0184H6.74727C10.0914 13.0184 12.875 10.2949 12.875 6.94805C12.875 5.32656 12.1859 3.80352 11.0402 2.65508ZM6.74727 11.9957C5.83945 11.9957 4.95078 11.7523 4.17695 11.293L3.99375 11.1836L2.08516 11.684L2.59375 9.82188L2.47344 9.63047C1.96758 8.82656 1.70234 7.89961 1.70234 6.94531C1.70234 4.16445 3.96641 1.90039 6.75 1.90039C8.09805 1.90039 9.36406 2.42539 10.3156 3.37969C11.2672 4.33398 11.8523 5.6 11.8496 6.94805C11.8496 9.73164 9.52812 11.9957 6.74727 11.9957ZM9.51445 8.2168C9.36406 8.14023 8.61758 7.77383 8.47813 7.72461C8.33867 7.67266 8.2375 7.64805 8.13633 7.80117C8.03516 7.9543 7.74531 8.29336 7.65508 8.39727C7.56758 8.49844 7.47734 8.51211 7.32695 8.43555C6.43555 7.98984 5.85039 7.63984 5.2625 6.63086C5.10664 6.36289 5.41836 6.38203 5.7082 5.80234C5.75742 5.70117 5.73281 5.61367 5.69453 5.53711C5.65625 5.46055 5.35273 4.71406 5.22695 4.41055C5.10391 4.11523 4.97813 4.15625 4.88516 4.15078C4.79766 4.14531 4.69648 4.14531 4.59531 4.14531C4.49414 4.14531 4.33008 4.18359 4.19062 4.33398C4.05117 4.48711 3.66016 4.85352 3.66016 5.6C3.66016 6.34648 4.2043 7.06836 4.27813 7.16953C4.35469 7.2707 5.34727 8.80195 6.87031 9.46094C7.83281 9.87656 8.21016 9.91211 8.69141 9.84102C8.98398 9.79727 9.58828 9.47461 9.71406 9.11914C9.83984 8.76367 9.83984 8.46016 9.80156 8.39727C9.76602 8.32891 9.66484 8.29063 9.51445 8.2168Z" fill="#12CB19"/>
</g>
<defs>
<clipPath id="clip0_5540_42962">
<rect width="12.25" height="14" fill="white" transform="translate(0.625)"/>
</clipPath>
</defs>
</svg>
