<svg width="24" height="24" viewBox="0 0 24 24" fill="none" xmlns="http://www.w3.org/2000/svg">
<path d="M17 14.0001C17.317 13.7374 17.5685 13.4256 17.7401 13.0825C17.9117 12.7393 18 12.3715 18 12.0001C18 11.6286 17.9117 11.2608 17.7401 10.9177C17.5685 10.5745 17.317 10.2627 17 10.0001M18 19.0001C18.7861 18.6193 19.5005 18.0612 20.1022 17.3576C20.7038 16.6541 21.1811 15.8188 21.5068 14.8996C21.8324 13.9803 22 12.9951 22 12.0001C22 11.0051 21.8324 10.0198 21.5068 9.10056C21.1811 8.18131 20.7038 7.34606 20.1022 6.64249C19.5005 5.93893 18.7861 5.38083 18 5.00006M14 5.08755V18.9126C14 20.6235 12.0661 21.6187 10.6739 20.6243L7.86092 18.615C7.29344 18.2097 6.6464 17.9293 5.96255 17.7926C3.6585 17.3318 2 15.3087 2 12.959V11.0411C2 8.6914 3.6585 6.66836 5.96255 6.20755C6.6464 6.07078 7.29344 5.79046 7.86092 5.38512L10.6739 3.37587C12.0661 2.38141 14 3.37663 14 5.08755Z" stroke="#00539F" stroke-width="2" stroke-linecap="round" stroke-linejoin="round"/>
</svg>
