<svg width="18" height="19" viewBox="0 0 18 19" fill="none" xmlns="http://www.w3.org/2000/svg">
<path d="M12 6.5V10.625C12 11.6605 12.8395 12.5 13.875 12.5C15.5106 12.5 15.75 10.7999 15.75 9.5C15.75 5.77208 12.7279 2.75 9 2.75C5.27208 2.75 2.25 5.77208 2.25 9.5C2.25 13.2279 5.27208 16.25 9 16.25C9.78893 16.25 10.5462 16.1147 11.25 15.8659M12 9.5C12 11.1569 10.6569 12.5 9 12.5C7.34315 12.5 6 11.1569 6 9.5C6 7.84315 7.34315 6.5 9 6.5C10.6569 6.5 12 7.84315 12 9.5Z" stroke="#939394" stroke-width="1.75" stroke-linecap="round" stroke-linejoin="round"/>
</svg>
