<svg width="18" height="18" viewBox="0 0 18 18" fill="none" xmlns="http://www.w3.org/2000/svg">
<path d="M9 14.25H9.00075M8.55 16.5H9.45C11.1302 16.5 11.9702 16.5 12.612 16.173C13.1765 15.8854 13.6354 15.4265 13.923 14.862C14.25 14.2202 14.25 13.3802 14.25 11.7V6.3C14.25 4.61984 14.25 3.77976 13.923 3.13803C13.6354 2.57354 13.1765 2.1146 12.612 1.82698C11.9702 1.5 11.1302 1.5 9.45 1.5H8.55C6.86984 1.5 6.02976 1.5 5.38803 1.82698C4.82354 2.1146 4.3646 2.57354 4.07698 3.13803C3.75 3.77976 3.75 4.61984 3.75 6.3V11.7C3.75 13.3802 3.75 14.2202 4.07698 14.862C4.3646 15.4265 4.82354 15.8854 5.38803 16.173C6.02976 16.5 6.86984 16.5 8.55 16.5Z" stroke="#939394" stroke-width="1.75" stroke-linecap="round" stroke-linejoin="round"/>
</svg>
