<svg width="18" height="18" viewBox="0 0 18 18" fill="none" xmlns="http://www.w3.org/2000/svg">
<path d="M4.05555 9.73049C3.12747 8.15782 2.51725 6.32448 2.27626 4.28187C2.17044 3.38492 2.72646 2.44033 3.67306 2.28553C3.97052 2.23689 4.3383 2.24424 4.64082 2.27153C5.90317 2.38538 6.425 3.49957 6.70202 4.58102C7.07294 6.02902 6.62108 7.56389 5.52481 8.57976C5.07116 9.00014 4.54548 9.35405 4.05555 9.73049ZM4.05555 9.73049C5.04311 11.404 6.39057 12.7823 8.03602 13.8035M8.03602 13.8035C9.65909 14.8108 11.5721 15.4707 13.7156 15.7237C14.6126 15.8296 15.5568 15.2732 15.7116 14.3267C15.7646 14.0019 15.7583 13.6286 15.7197 13.3021C15.5625 11.9744 14.2841 11.4726 13.1434 11.211C11.8435 10.9129 10.48 11.2703 9.49346 12.1678C8.95794 12.655 8.50999 13.2576 8.03602 13.8035Z" stroke="#939394" stroke-width="1.75" stroke-linecap="round" stroke-linejoin="round"/>
</svg>
