<svg width="18" height="18" viewBox="0 0 18 18" fill="none" xmlns="http://www.w3.org/2000/svg">
<path d="M6 1.5V3.09583M6 4.5V3.09583M12 1.5V3.09583M12 4.5V3.09583M15.7198 7.5C15.75 8.09086 15.75 8.81653 15.75 9.75C15.75 11.8467 15.75 12.8951 15.4075 13.7221C14.9507 14.8247 14.0747 15.7007 12.9721 16.1575C12.1451 16.5 11.0967 16.5 9 16.5C6.90326 16.5 5.85489 16.5 5.02792 16.1575C3.9253 15.7007 3.04926 14.8247 2.59254 13.7221C2.25 12.8951 2.25 11.8467 2.25 9.75C2.25 8.81653 2.25 8.09086 2.28023 7.5M15.7198 7.5C15.6821 6.76368 15.5975 6.23673 15.4075 5.77792C14.9507 4.6753 14.0747 3.79926 12.9721 3.34254C12.686 3.22403 12.3734 3.14652 12 3.09583M15.7198 7.5L2.28023 7.5M2.28023 7.5C2.31789 6.76368 2.4025 6.23673 2.59254 5.77792C3.04926 4.6753 3.9253 3.79926 5.02792 3.34254C5.31403 3.22403 5.62664 3.14652 6 3.09583M6 3.09583C6.70579 3 7.62868 3 9 3C10.3713 3 11.2942 3 12 3.09583" stroke="#939394" stroke-width="1.75" stroke-linecap="round" stroke-linejoin="round"/>
</svg>
