<svg width="32" height="33" viewBox="0 0 32 33" fill="none" xmlns="http://www.w3.org/2000/svg">
<rect x="0.5" y="0.5" width="31" height="32" rx="3.5" stroke="#939394"/>
<path d="M9.40731 17.974C8.16988 15.8771 7.35625 13.4326 7.03493 10.7092C6.89384 9.51323 7.63519 8.25377 8.89733 8.04738C9.29394 7.98252 9.78431 7.99232 10.1877 8.0287C11.8708 8.18051 12.5666 9.6661 12.936 11.108C13.4305 13.0387 12.828 15.0852 11.3663 16.4397C10.7615 17.0002 10.0606 17.4721 9.40731 17.974ZM9.40731 17.974C10.7241 20.2053 12.5207 22.043 14.7146 23.4047M14.7146 23.4047C16.8787 24.7478 19.4294 25.6276 22.2874 25.965C23.4834 26.1062 24.7424 25.3643 24.9487 24.1022C25.0194 23.6693 25.011 23.1714 24.9595 22.7362C24.7499 20.9658 23.0455 20.2967 21.5244 19.9479C19.7912 19.5505 17.9733 20.0271 16.6579 21.2238C15.9438 21.8733 15.3466 22.6768 14.7146 23.4047Z" stroke="#BB1865" stroke-width="1.75" stroke-linecap="round" stroke-linejoin="round"/>
</svg>
