<svg width="32" height="33" viewBox="0 0 32 33" fill="none" xmlns="http://www.w3.org/2000/svg">
<rect x="0.5" y="0.5" width="31" height="32" rx="3.5" stroke="#939394"/>
<path d="M25.8032 12.7616L20.295 16.2668C18.7385 17.2573 17.9602 17.7526 17.1238 17.9455C16.3843 18.1161 15.6157 18.1161 14.8762 17.9455C14.0398 17.7526 13.2615 17.2573 11.705 16.2668L6.19678 12.7616M25.8032 12.7616C26 13.7219 26 15.006 26 17C26 19.8003 26 21.2004 25.455 22.27C24.9757 23.2108 24.2108 23.9757 23.27 24.455C22.2004 25 20.8003 25 18 25H14C11.1997 25 9.79961 25 8.73005 24.455C7.78924 23.9757 7.02433 23.2108 6.54497 22.27C6 21.2004 6 19.8003 6 17C6 15.006 6 13.7219 6.19678 12.7616M25.8032 12.7616C25.7237 12.3733 25.6119 12.038 25.455 11.73C24.9757 10.7892 24.2108 10.0243 23.27 9.54497C22.2004 9 20.8003 9 18 9H14C11.1997 9 9.79961 9 8.73005 9.54497C7.78924 10.0243 7.02433 10.7892 6.54497 11.73C6.38807 12.038 6.27634 12.3733 6.19678 12.7616" stroke="#BB1865" stroke-width="1.75" stroke-linecap="round" stroke-linejoin="round"/>
</svg>
