<svg width="18" height="18" viewBox="0 0 18 18" fill="none" xmlns="http://www.w3.org/2000/svg">
<g id="map/map-location">
<path id="vector" d="M14.5891 3.96588C14.9565 4.05112 15.2804 4.27236 15.4934 4.58799C15.75 4.96828 15.75 5.59334 15.75 6.84347V11.2667C15.75 11.8052 15.75 12.0744 15.668 12.3121C15.5955 12.5223 15.4772 12.7137 15.3216 12.8725C15.1457 13.0522 14.9049 13.1726 14.4233 13.4134L12.3233 14.4634C11.9298 14.6601 11.733 14.7585 11.5266 14.7972C11.3438 14.8315 11.1562 14.8315 10.9734 14.7972C10.767 14.7585 10.5702 14.6601 10.1767 14.4634L7.81231 13.2812C7.42956 13.0898 7.23819 12.9941 7.0378 12.9549C6.84773 12.9178 6.65227 12.9178 6.4622 12.9549C6.26181 12.9941 6.07044 13.0898 5.68769 13.2812C4.56954 13.8402 4.01047 14.1198 3.55556 14.0603C3.12916 14.0046 2.74719 13.7685 2.50664 13.412C2.25 13.0317 2.25 12.4067 2.25 11.1566V6.73329C2.25 6.19486 2.25 5.92564 2.33198 5.68796C2.40448 5.47777 2.5228 5.28633 2.67837 5.12748C2.81172 4.99133 2.98234 4.88921 3.26685 4.74289M9 5.25H9.0075M12.1576 5.58333C12.1576 8.08333 9.78917 9.75 8.99969 9.75C8.21022 9.75 5.8418 8.08333 5.8418 5.58333C5.8418 3.08333 7.81548 2.25 8.99969 2.25C10.1839 2.25 12.1576 3.08333 12.1576 5.58333Z" stroke="#939394" stroke-width="2" stroke-linecap="round" stroke-linejoin="round"/>
</g>
</svg>
