<svg width="32" height="33" viewBox="0 0 32 33" fill="none" xmlns="http://www.w3.org/2000/svg">
<rect x="0.5" y="0.5" width="31" height="32" rx="3.5" stroke="#939394"/>
<path d="M12 15H20M12 19H16M25 17C25 21.9706 20.9706 26 16 26C15.5683 26 15.1437 25.9696 14.7283 25.9108C13.5246 25.7406 12.9227 25.6555 12.7643 25.6433C12.5069 25.6234 12.5992 25.6266 12.341 25.6286C12.1822 25.6298 12.0011 25.6428 11.6393 25.6686L9.48597 25.8224C8.62856 25.8837 8.19982 25.9143 7.87922 25.7623C7.59778 25.6289 7.37113 25.4022 7.2377 25.1208C7.0857 24.8002 7.11632 24.3715 7.17757 23.514L7.33138 21.3607C7.35723 20.9988 7.37015 20.8179 7.37139 20.6589C7.37339 20.4008 7.37659 20.4931 7.35674 20.2357C7.34452 20.0773 7.2594 19.4754 7.08915 18.2717C7.03039 17.8563 7 17.4317 7 17C7 12.0294 11.0294 8 16 8C20.9706 8 25 12.0294 25 17Z" stroke="#BB1865" stroke-width="1.75" stroke-linecap="round" stroke-linejoin="round"/>
</svg>
