<svg width="32" height="33" viewBox="0 0 32 33" fill="none" xmlns="http://www.w3.org/2000/svg">
<rect x="0.5" y="0.5" width="31" height="32" rx="3.5" stroke="#939394"/>
<path d="M12.7037 17.487C12.085 16.4385 11.6782 15.2163 11.5175 13.8546C11.5039 13.7393 11.4971 13.6816 11.5012 13.5898C11.5233 13.0949 11.9599 12.6036 12.4487 12.5237C12.647 12.4913 12.8922 12.4962 13.0939 12.5143C13.5772 12.5579 14.0005 12.8563 14.2041 13.2969C14.2297 13.3524 14.2523 13.4156 14.2974 13.5419C14.3904 13.8024 14.4369 13.9327 14.468 14.054C14.7153 15.0193 14.414 16.0426 13.6832 16.7198C13.5913 16.805 13.4817 16.8892 13.2623 17.0578L12.7037 17.487ZM12.7037 17.487C13.3621 18.6026 14.2604 19.5215 15.3573 20.2023M15.3573 20.2023C16.4394 20.8739 17.7147 21.3138 19.1437 21.4825C19.259 21.4961 19.3167 21.5029 19.4085 21.4988C19.9033 21.4767 20.3944 21.04 20.4744 20.5511C20.5097 20.3346 20.5055 20.0857 20.4798 19.8681C20.4259 19.4129 20.146 19.0156 19.7355 18.8117C19.6638 18.7761 19.5805 18.7463 19.4141 18.6869C19.0834 18.5688 18.9181 18.5097 18.7622 18.474C17.8956 18.2753 16.9867 18.5135 16.329 19.1119C16.2107 19.2195 16.0962 19.3514 15.8671 19.6152L15.3573 20.2023ZM16 26C20.9706 26 25 21.9706 25 17C25 12.0294 20.9706 8 16 8C11.0294 8 7 12.0294 7 17C7 18.1079 7.2002 19.1691 7.56641 20.1494C7.68572 20.4687 7.74537 20.6284 7.76687 20.7456C7.78871 20.8646 7.79357 20.9404 7.78711 21.0612C7.78076 21.1802 7.74988 21.3124 7.68813 21.5768L7.34063 23.0647C7.07865 24.1864 6.94767 24.7473 7.1048 25.1413C7.24202 25.4854 7.5146 25.758 7.85869 25.8952C8.25271 26.0523 8.81358 25.9213 9.93527 25.6594L11.4232 25.3119C11.6876 25.2501 11.8198 25.2192 11.9388 25.2129C12.0596 25.2064 12.1354 25.2113 12.2544 25.2331C12.3716 25.2546 12.5313 25.3143 12.8506 25.4336C13.8309 25.7998 14.8921 26 16 26Z" stroke="#BB1865" stroke-width="1.75" stroke-linecap="round" stroke-linejoin="round"/>
</svg>
