<svg width="20" height="20" viewBox="0 0 20 20" fill="none" xmlns="http://www.w3.org/2000/svg">
<path d="M3.40731 10.974C2.16988 8.87709 1.35625 6.43264 1.03493 3.70916C0.893835 2.51323 1.63519 1.25377 2.89733 1.04738C3.29394 0.982518 3.78431 0.992319 4.18768 1.0287C5.87081 1.18051 6.56658 2.6661 6.93595 4.10803C7.43051 6.03869 6.82802 8.08519 5.36633 9.43968C4.76147 10.0002 4.06056 10.4721 3.40731 10.974ZM3.40731 10.974C4.72406 13.2053 6.52068 15.043 8.71461 16.4047M8.71461 16.4047C10.8787 17.7478 13.4294 18.6276 16.2874 18.965C17.4834 19.1062 18.7424 18.3643 18.9487 17.1022C19.0194 16.6693 19.011 16.1714 18.9595 15.7362C18.7499 13.9658 17.0455 13.2967 15.5244 12.9479C13.7912 12.5505 11.9733 13.0271 10.6579 14.2238C9.94383 14.8733 9.34657 15.6768 8.71461 16.4047ZM17.8888 6.35286C18.038 5.14689 18.0356 3.92184 17.882 2.70599C17.8623 2.55007 17.793 2.41266 17.6897 2.3093M13.6461 2.11021C14.8521 1.96096 16.0771 1.96339 17.293 2.11695C17.4489 2.13664 17.5863 2.20594 17.6897 2.3093M12.7399 7.25905L17.6897 2.3093" stroke="#BB1865" stroke-width="2" stroke-linecap="round" stroke-linejoin="round"/>
</svg>
