<svg width="22" height="18" viewBox="0 0 22 18" fill="none" xmlns="http://www.w3.org/2000/svg">
<path d="M20.9282 8H15.9231C15.4133 8 15 8.41328 15 8.92308C15 10.6224 13.6224 12 11.9231 12H10.0769C8.37759 12 7 10.6224 7 8.92308C7 8.41328 6.58672 8 6.07692 8H1.07181M20.9282 8C20.9114 7.93922 20.8918 7.87922 20.8694 7.82022C20.8139 7.67435 20.7354 7.53693 20.5784 7.26216L18.8427 4.22471C18.1716 3.05024 17.836 2.463 17.3645 2.03578C16.9473 1.65778 16.455 1.37211 15.9199 1.19743M20.9282 8C20.9482 8.07263 20.9641 8.14638 20.9758 8.2209C21 8.37507 21 8.53332 21 8.84981V9C21 11.8003 21 13.2004 20.455 14.27C19.9757 15.2108 19.2108 15.9757 18.27 16.455C17.2004 17 15.8003 17 13 17H9C6.19974 17 4.79961 17 3.73005 16.455C2.78924 15.9757 2.02433 15.2108 1.54497 14.27C1 13.2004 1 11.8003 1 9V8.84981C1 8.53331 1 8.37507 1.02421 8.2209C1.03591 8.14638 1.05181 8.07263 1.07181 8M1.07181 8C1.08856 7.93922 1.10817 7.87922 1.13061 7.82022C1.18609 7.67435 1.2646 7.53695 1.42162 7.26216L3.15731 4.22471C3.82844 3.05024 4.164 2.463 4.63552 2.03578C5.0527 1.65778 5.54497 1.37211 6.08014 1.19743M9 4.12564C9.4935 4.78364 10.066 5.37785 10.7043 5.89507C10.7906 5.96502 10.8953 6 11 6M13 4.12564C12.5065 4.78364 11.934 5.37785 11.2957 5.89507C11.2094 5.96502 11.1047 6 11 6M11 6V1" stroke="#BB1865" stroke-width="2" stroke-linecap="round" stroke-linejoin="round"/>
</svg>
