<svg width="20" height="20" viewBox="0 0 20 20" fill="none" xmlns="http://www.w3.org/2000/svg">
<path d="M14.1931 16.8658C14.336 16.8669 14.499 16.8785 14.8246 16.9018L16.7626 17.0402C17.5343 17.0953 17.9202 17.1229 18.2087 16.9861C18.462 16.866 18.666 16.662 18.7861 16.4087C18.9229 16.1202 18.8953 15.7343 18.8402 14.9626L18.7018 13.0246C18.6785 12.6989 18.6669 12.5361 18.6658 12.3931C18.6639 12.1607 18.6611 12.2438 18.6789 12.0121C18.6899 11.8695 18.7665 11.3279 18.9198 10.2445C18.9726 9.87063 19 9.48851 19 9.1C19 4.62649 15.3735 1 10.9 1C7.71965 1 4.9674 2.83291 3.64197 5.5M11.8 13.6C11.8 10.6177 9.38234 8.2 6.4 8.2C5.02324 8.2 3.76682 8.71523 2.81303 9.56338C1.70072 10.5525 1 11.9944 1 13.6C1 13.8913 1.02307 14.1772 1.06748 14.456C1.16295 15.0555 1.21068 15.3552 1.21896 15.4477C1.23137 15.5865 1.23003 15.5556 1.22967 15.695C1.22944 15.7878 1.22147 15.8994 1.20553 16.1226L1.10654 17.5084C1.06979 18.0229 1.05142 18.2801 1.14262 18.4725C1.22268 18.6413 1.35867 18.7773 1.52753 18.8574C1.71989 18.9486 1.97712 18.9302 2.49158 18.8935L3.8774 18.7945C4.10057 18.7785 4.21216 18.7706 4.30504 18.7703C4.44444 18.77 4.41347 18.7686 4.55232 18.781C4.64482 18.7893 4.94471 18.8371 5.54395 18.9325C5.82276 18.9769 6.10869 19 6.4 19C8.00558 19 9.4475 18.2993 10.4366 17.187C11.2848 16.2332 11.8 14.9768 11.8 13.6Z" stroke="#BB1865" stroke-width="2" stroke-linecap="round" stroke-linejoin="round"/>
</svg>
