<svg width="24" height="19" viewBox="0 0 24 19" fill="none" xmlns="http://www.w3.org/2000/svg">
<path d="M23.71 14.6699C20.66 11.7799 16.54 9.99988 12 9.99988C7.46 9.99988 3.34 11.7799 0.29 14.6699C0.11 14.8499 0 15.0999 0 15.3799C0 15.6599 0.11 15.9099 0.29 16.0899L2.77 18.5699C2.95 18.7499 3.2 18.8599 3.48 18.8599C3.75 18.8599 4 18.7499 4.18 18.5799C4.97 17.8399 5.87 17.2199 6.84 16.7299C7.17 16.5699 7.4 16.2299 7.4 15.8299V12.7299C8.85 12.2499 10.4 11.9999 12 11.9999C13.6 11.9999 15.15 12.2499 16.6 12.7199V15.8199C16.6 16.2099 16.83 16.5599 17.16 16.7199C18.14 17.2099 19.03 17.8399 19.83 18.5699C20.01 18.7499 20.26 18.8499 20.53 18.8499C20.81 18.8499 21.06 18.7399 21.24 18.5599L23.72 16.0799C23.9 15.8999 24.01 15.6499 24.01 15.3699C24.01 15.0899 23.89 14.8499 23.71 14.6699ZM5.4 15.2299C4.74 15.5999 4.11 16.0299 3.53 16.4999L2.46 15.4299C3.37 14.6799 4.36 14.0399 5.41 13.5299V15.2299H5.4ZM20.48 16.4899C19.88 16.0099 19.26 15.5899 18.6 15.2199V13.5199C19.65 14.0299 20.63 14.6699 21.55 15.4199L20.48 16.4899ZM7 4.42988L11.94 9.36988L19.01 2.29988L17.6 0.879883L11.94 6.53988L8.4 2.99988H11V0.999883H5V6.99988H7V4.42988Z" fill="#BB1865"/>
</svg>
