<svg width="20" height="20" viewBox="0 0 20 20" fill="none" xmlns="http://www.w3.org/2000/svg">
<path d="M9.00006 10C9.00006 9.44772 9.44778 9 10.0001 9C10.5523 9 11.0001 9.44772 11.0001 10C11.0001 10.5523 10.5523 11 10.0001 11C9.44778 11 9.00006 10.5523 9.00006 10Z" stroke="#BB1865" stroke-width="2" stroke-linecap="round" stroke-linejoin="round"/>
<path d="M6.56156 2.31944C7.8142 1.59668 8.44052 1.23531 9.10639 1.09386C9.69555 0.968712 10.3045 0.968712 10.8936 1.09386C11.5595 1.23531 12.1858 1.59668 13.4384 2.31944L14.9366 3.18383C16.1892 3.90658 16.8155 4.26796 17.271 4.77353C17.6741 5.22086 17.9785 5.74785 18.1646 6.32033C18.375 6.96735 18.375 7.6901 18.375 9.13561V10.8644C18.375 12.3099 18.375 13.0326 18.1646 13.6797C17.9785 14.2521 17.6741 14.7791 17.271 15.2265C16.8155 15.732 16.1892 16.0934 14.9366 16.8162L13.4384 17.6806C12.1858 18.4033 11.5595 18.7647 10.8936 18.9061C10.3045 19.0313 9.69555 19.0313 9.10639 18.9061C8.44052 18.7647 7.8142 18.4033 6.56156 17.6806L5.06344 16.8162C3.8108 16.0934 3.18448 15.732 2.72898 15.2265C2.32594 14.7791 2.02149 14.2521 1.83536 13.6797C1.625 13.0326 1.625 12.3099 1.625 10.8644V9.13561C1.625 7.6901 1.625 6.96735 1.83536 6.32033C2.02149 5.74785 2.32594 5.22086 2.72898 4.77353C3.18448 4.26796 3.8108 3.90658 5.06344 3.18383L6.56156 2.31944Z" stroke="#BB1865" stroke-width="2" stroke-linecap="round" stroke-linejoin="round"/>
</svg>
