<svg width="18" height="18" viewBox="0 0 18 18" fill="none" xmlns="http://www.w3.org/2000/svg">
<path d="M16.4461 8.25H12.6923C12.31 8.25 12 8.55996 12 8.94231C12 10.2168 10.9668 11.25 9.69231 11.25H8.30769C7.03319 11.25 6 10.2168 6 8.94231C6 8.55996 5.69004 8.25 5.30769 8.25H1.55386M16.4461 8.25C16.4336 8.20441 16.4189 8.15942 16.402 8.11516C16.3604 8.00577 16.3015 7.9027 16.1838 7.69662L14.882 5.41853C14.3787 4.53768 14.127 4.09725 13.7734 3.77683C13.4605 3.49334 13.0913 3.27908 12.6899 3.14807M16.4461 8.25C16.4611 8.30447 16.4731 8.35978 16.4818 8.41567C16.5 8.5313 16.5 8.64999 16.5 8.88735V9C16.5 11.1002 16.5 12.1503 16.0913 12.9525C15.7317 13.6581 15.1581 14.2317 14.4525 14.5913C13.6503 15 12.6002 15 10.5 15H7.5C5.3998 15 4.3497 15 3.54754 14.5913C2.84193 14.2317 2.26825 13.6581 1.90873 12.9525C1.5 12.1503 1.5 11.1002 1.5 9V8.88735C1.5 8.64999 1.5 8.5313 1.51816 8.41567C1.52693 8.35978 1.53886 8.30447 1.55386 8.25M1.55386 8.25C1.56642 8.20441 1.58113 8.15942 1.59796 8.11516C1.63956 8.00576 1.69845 7.90271 1.81622 7.69662L3.11798 5.41853C3.62133 4.53768 3.873 4.09725 4.22664 3.77683C4.53952 3.49334 4.90873 3.27908 5.31011 3.14807M7.5 5.34423C7.87012 5.83773 8.2995 6.28339 8.77821 6.6713C8.84296 6.72377 8.92148 6.75 9 6.75M10.5 5.34423C10.1299 5.83773 9.7005 6.28339 9.22179 6.6713C9.15704 6.72377 9.07852 6.75 9 6.75M9 6.75V3" stroke="#00539F" stroke-width="1.75" stroke-linecap="round" stroke-linejoin="round"/>
</svg>
