<svg width="14" height="14" viewBox="0 0 14 14" fill="none" xmlns="http://www.w3.org/2000/svg">
<path fill-rule="evenodd" clip-rule="evenodd" d="M4.0653 1.44006C4.10594 1.39931 4.15422 1.36699 4.20737 1.34493C4.26052 1.32288 4.3175 1.31152 4.37505 1.31152C4.4326 1.31152 4.48958 1.32288 4.54273 1.34493C4.59588 1.36699 4.64416 1.39931 4.6848 1.44006L9.9348 6.69006C9.97554 6.7307 10.0079 6.77897 10.0299 6.83213C10.052 6.88528 10.0633 6.94226 10.0633 6.99981C10.0633 7.05735 10.052 7.11433 10.0299 7.16748C10.0079 7.22064 9.97554 7.26892 9.9348 7.30956L4.6848 12.5596C4.60265 12.6417 4.49123 12.6879 4.37505 12.6879C4.25887 12.6879 4.14745 12.6417 4.0653 12.5596C3.98315 12.4774 3.937 12.366 3.937 12.2498C3.937 12.1336 3.98315 12.0222 4.0653 11.9401L9.00642 6.99981L4.0653 2.05956C4.02456 2.01892 3.99223 1.97064 3.97018 1.91748C3.94812 1.86433 3.93677 1.80735 3.93677 1.74981C3.93677 1.69226 3.94812 1.63528 3.97018 1.58213C3.99223 1.52897 4.02456 1.4807 4.0653 1.44006Z" fill="#00539F"/>
</svg>
