<svg width="18" height="18" viewBox="0 0 18 18" fill="none" xmlns="http://www.w3.org/2000/svg">
<path d="M5.49578 6.14342C4.42064 6.14342 3.54907 5.27185 3.54907 4.19671C3.54907 3.12157 4.42064 2.25 5.49578 2.25C6.57092 2.25 7.44249 3.12157 7.44249 4.19671C7.44249 5.27185 6.57092 6.14342 5.49578 6.14342ZM5.49578 6.14342C6.94426 6.14342 8.22479 6.8625 8.99986 7.96315C9.77494 6.8625 11.0555 6.14342 12.5039 6.14342M5.49578 6.14342C4.0473 6.14342 2.76678 6.8625 1.9917 7.96315M12.5039 6.14342C11.4288 6.14342 10.5572 5.27185 10.5572 4.19671C10.5572 3.12157 11.4288 2.25 12.5039 2.25C13.5791 2.25 14.4507 3.12157 14.4507 4.19671C14.4507 5.27185 13.5791 6.14342 12.5039 6.14342ZM12.5039 6.14342C13.9524 6.14342 15.233 6.8625 16.008 7.96315M5.49578 13.9303C4.42064 13.9303 3.54907 13.0587 3.54907 11.9836C3.54907 10.9084 4.42064 10.0368 5.49578 10.0368C6.57092 10.0368 7.44249 10.9084 7.44249 11.9836C7.44249 13.0587 6.57092 13.9303 5.49578 13.9303ZM5.49578 13.9303C6.94426 13.9303 8.22479 14.6494 8.99986 15.75C9.77494 14.6494 11.0555 13.9303 12.5039 13.9303M5.49578 13.9303C4.0473 13.9303 2.76678 14.6494 1.9917 15.75M12.5039 13.9303C11.4288 13.9303 10.5572 13.0587 10.5572 11.9836C10.5572 10.9084 11.4288 10.0368 12.5039 10.0368C13.5791 10.0368 14.4507 10.9084 14.4507 11.9836C14.4507 13.0587 13.5791 13.9303 12.5039 13.9303ZM12.5039 13.9303C13.9524 13.9303 15.233 14.6494 16.008 15.75" stroke="#00539F" stroke-width="1.75" stroke-linecap="round" stroke-linejoin="round"/>
</svg>
