<svg width="18" height="18" viewBox="0 0 18 18" fill="none" xmlns="http://www.w3.org/2000/svg">
<path d="M16.5 6.75H16.4958M16.4958 6.75H1.50419M16.4958 6.75C16.5 7.05946 16.5 7.40671 16.5 7.8V10.5M16.4958 6.75C16.4821 5.73742 16.4235 5.12955 16.173 4.63803C15.8854 4.07354 15.4265 3.6146 14.862 3.32698C14.2202 3 13.3802 3 11.7 3H6.3C4.61984 3 3.77976 3 3.13803 3.32698C2.57354 3.6146 2.1146 4.07354 1.82698 4.63803C1.57654 5.12955 1.51792 5.73742 1.50419 6.75M1.50419 6.75H1.5M1.50419 6.75C1.5 7.05946 1.5 7.40671 1.5 7.8V10.2C1.5 11.8802 1.5 12.7202 1.82698 13.362C2.1146 13.9265 2.57354 14.3854 3.13803 14.673C3.77976 15 4.61984 15 6.3 15H8.25M13.5 9.75H11.25M15.0942 13.5C15.5877 13.8701 16.0334 14.2995 16.4213 14.7782C16.4738 14.843 16.5 14.9215 16.5 15M15.0942 16.5C15.5877 16.1299 16.0334 15.7005 16.4213 15.2218C16.4738 15.157 16.5 15.0785 16.5 15M16.5 15H11.25" stroke="#00539F" stroke-width="1.75" stroke-linecap="round" stroke-linejoin="round"/>
</svg>
