<svg width="18" height="18" viewBox="0 0 18 18" fill="none" xmlns="http://www.w3.org/2000/svg">
<path d="M1.5 8.25C1.5 6.1498 1.5 5.0997 1.90873 4.29754C2.26825 3.59193 2.84193 3.01825 3.54754 2.65873C4.3497 2.25 5.3998 2.25 7.5 2.25H10.5C12.6002 2.25 13.6503 2.25 14.4525 2.65873C15.1581 3.01825 15.7317 3.59193 16.0913 4.29754C16.5 5.0997 16.5 6.1498 16.5 8.25V9.75C16.5 11.8502 16.5 12.9003 16.0913 13.7025C15.7317 14.4081 15.1581 14.9817 14.4525 15.3413C13.6503 15.75 12.6002 15.75 10.5 15.75H7.5C5.3998 15.75 4.3497 15.75 3.54754 15.3413C2.84193 14.9817 2.26825 14.4081 1.90873 13.7025C1.5 12.9003 1.5 11.8502 1.5 9.75V8.25Z" stroke="#00539F" stroke-width="1.75" stroke-linecap="round" stroke-linejoin="round"/>
<path d="M12 9C12 10.6569 10.6569 12 9 12C7.34315 12 6 10.6569 6 9C6 7.34315 7.34315 6 9 6C10.6569 6 12 7.34315 12 9Z" stroke="#00539F" stroke-width="1.75" stroke-linecap="round" stroke-linejoin="round"/>
</svg>
