<svg width="18" height="18" viewBox="0 0 18 18" fill="none" xmlns="http://www.w3.org/2000/svg">
<path d="M6.75048 13.9062C5.76388 13.859 4.77842 13.7809 3.79558 13.6717C3.00045 13.5833 2.48905 12.7843 2.74205 12.0254C2.87032 11.6405 2.9995 11.262 3.03347 10.8544L3.31451 7.48186C3.56095 4.52464 6.03303 2.25 9.00049 2.25C11.9679 2.25 14.44 4.52464 14.6865 7.48186L14.9677 10.8563C15.0016 11.2637 15.1307 11.6421 15.2584 12.0268C15.5103 12.7854 14.9991 13.5832 14.2048 13.6715C13.2222 13.7807 12.2369 13.859 11.2505 13.9061M6.75048 13.9062V14.25C6.75048 15.4927 7.75782 16.5 9.00049 16.5C10.2431 16.5 11.2505 15.4927 11.2505 14.25V13.9061M6.75048 13.9062C8.24959 13.9778 9.75132 13.9778 11.2505 13.9061M6.74997 8.44403L8.27712 9.96952C9.01159 8.68515 10.0281 7.58437 11.25 6.75" stroke="#00539F" stroke-width="1.75" stroke-linecap="round" stroke-linejoin="round"/>
</svg>
