<svg width="18" height="18" viewBox="0 0 18 18" fill="none" xmlns="http://www.w3.org/2000/svg">
<path d="M5.25 3V2.95069C5.25 2.66913 5.39072 2.40619 5.625 2.25C5.85928 2.09381 6 1.83087 6 1.54931V1.5M8.25 3V2.95069C8.25 2.66913 8.39072 2.40619 8.625 2.25C8.85928 2.09381 9 1.83087 9 1.54931V1.5M11.25 3V2.95069C11.25 2.66913 11.3907 2.40619 11.625 2.25C11.8593 2.09381 12 1.83087 12 1.54931V1.5M13.4371 12C13.4462 11.9461 13.4543 11.8919 13.4615 11.8374C13.5 11.5449 13.5 11.1966 13.5 10.5V8.4C13.5 8.02629 13.5 7.73571 13.4856 7.5M13.4371 12C13.1095 13.9415 11.5521 15.4528 9.58737 15.7115C9.29495 15.75 8.94663 15.75 8.25 15.75C7.55337 15.75 7.20505 15.75 6.91263 15.7115C4.89333 15.4457 3.30434 13.8567 3.0385 11.8374C3 11.5449 3 11.1966 3 10.5V8.4C3 7.55992 3 7.13988 3.16349 6.81901C3.3073 6.53677 3.53677 6.3073 3.81901 6.16349C4.13988 6 4.55992 6 5.4 6H11.1C11.9401 6 12.3601 6 12.681 6.16349C12.9632 6.3073 13.1927 6.53677 13.3365 6.81901C13.4273 6.99715 13.4676 7.20584 13.4856 7.5M13.4371 12H14.25C15.4926 12 16.5 10.9926 16.5 9.75C16.5 8.50736 15.4926 7.5 14.25 7.5H13.4856" stroke="#00539F" stroke-width="1.75" stroke-linecap="round" stroke-linejoin="round"/>
</svg>
