<svg width="18" height="18" viewBox="0 0 18 18" fill="none" xmlns="http://www.w3.org/2000/svg">
<path d="M7.64341 9.41313C7.73036 9.14567 7.73036 8.85432 7.64341 8.58686C6.91623 6.35004 3.30204 6.0041 3.01082 3.36327C2.95094 2.82023 3.14217 2.2801 3.52253 1.91792C3.96145 1.5 4.96812 1.5 6.98145 1.5H11.0185C13.0319 1.5 14.0386 1.5 14.4775 1.91792C14.8578 2.2801 15.0491 2.82023 14.9892 3.36327C14.698 6.0041 11.0838 6.35005 10.3566 8.58686C10.2696 8.85433 10.2696 9.14568 10.3566 9.41314C11.0838 11.65 14.698 11.9959 14.9892 14.6367C15.0491 15.1798 14.8578 15.7199 14.4775 16.0821C14.0386 16.5 13.0319 16.5 11.0185 16.5L6.98145 16.5C4.96811 16.5 3.96144 16.5 3.52253 16.0821C3.14216 15.7199 2.95093 15.1798 3.01082 14.6367C3.30204 11.9959 6.91623 11.65 7.64341 9.41313Z" stroke="#00539F" stroke-width="1.75" stroke-linecap="round" stroke-linejoin="round"/>
</svg>
