<svg width="20" height="20" viewBox="0 0 20 20" fill="none" xmlns="http://www.w3.org/2000/svg">
<g id="Shape/More">
<path id="Shape/More_2" d="M9.99286 7.80488C11.1833 7.80488 12.1357 8.78049 12.1357 10C12.1357 11.2195 11.1833 12.1951 9.99286 12.1951C8.80239 12.1951 7.85001 11.2195 7.85001 10C7.85001 8.78049 8.80239 7.80488 9.99286 7.80488ZM7.85001 2.19512C7.85001 3.41463 8.80239 4.39024 9.99286 4.39024C11.1833 4.39024 12.1357 3.41463 12.1357 2.19512C12.1357 0.97561 11.1833 0 9.99286 0C8.80239 0 7.85001 0.97561 7.85001 2.19512ZM7.85001 17.8049C7.85001 19.0244 8.80239 20 9.99286 20C11.1833 20 12.1357 19.0244 12.1357 17.8049C12.1357 16.5854 11.1833 15.6098 9.99286 15.6098C8.80239 15.6098 7.85001 16.5854 7.85001 17.8049Z" fill="#015EB0"/>
</g>
</svg>
