<svg width="38" height="39" viewBox="0 0 38 39" fill="none" xmlns="http://www.w3.org/2000/svg">
<circle cx="19" cy="19.5" r="19" fill="#BB1865"/>
<path d="M12.443 13.0899C10.5807 13.0899 9.07096 11.5801 9.07096 9.71779C9.07096 7.85544 10.5807 6.3457 12.443 6.3457C14.3054 6.3457 15.8151 7.85544 15.8151 9.71779C15.8151 11.5801 14.3054 13.0899 12.443 13.0899ZM12.443 13.0899C14.9521 13.0899 17.1702 14.3354 18.5128 16.242C19.8554 14.3354 22.0735 13.0899 24.5825 13.0899M12.443 13.0899C9.934 13.0899 7.71588 14.3354 6.37329 16.242M24.5825 13.0899C22.7202 13.0899 21.2105 11.5801 21.2105 9.71779C21.2105 7.85544 22.7202 6.3457 24.5825 6.3457C26.4449 6.3457 27.9546 7.85544 27.9546 9.71779C27.9546 11.5801 26.4449 13.0899 24.5825 13.0899ZM24.5825 13.0899C27.0916 13.0899 29.3097 14.3354 30.6523 16.242M12.443 26.5782C10.5807 26.5782 9.07096 25.0685 9.07096 23.2061C9.07096 21.3438 10.5807 19.834 12.443 19.834C14.3054 19.834 15.8151 21.3438 15.8151 23.2061C15.8151 25.0685 14.3054 26.5782 12.443 26.5782ZM12.443 26.5782C14.9521 26.5782 17.1702 27.8238 18.5128 29.7303C19.8554 27.8238 22.0735 26.5782 24.5825 26.5782M12.443 26.5782C9.934 26.5782 7.71588 27.8238 6.37329 29.7303M24.5825 26.5782C22.7202 26.5782 21.2105 25.0685 21.2105 23.2061C21.2105 21.3438 22.7202 19.834 24.5825 19.834C26.4449 19.834 27.9546 21.3438 27.9546 23.2061C27.9546 25.0685 26.4449 26.5782 24.5825 26.5782ZM24.5825 26.5782C27.0916 26.5782 29.3097 27.8238 30.6523 29.7303" stroke="white" stroke-width="2" stroke-linecap="round" stroke-linejoin="round"/>
</svg>
