<svg width="38" height="39" viewBox="0 0 38 39" fill="none" xmlns="http://www.w3.org/2000/svg">
<circle cx="19" cy="19.5" r="19" fill="#058DDA"/>
<path d="M13.3163 29.7303H9.41885C7.98385 29.7303 6.82056 28.567 6.82056 27.132C6.82056 24.262 9.14715 21.9354 12.0171 21.9354H15.9146M22.4103 11.5423C22.4103 14.4123 20.0837 16.7389 17.2137 16.7389C14.3437 16.7389 12.0171 14.4123 12.0171 11.5423C12.0171 8.67229 14.3437 6.3457 17.2137 6.3457C20.0837 6.3457 22.4103 8.67229 22.4103 11.5423ZM18.5129 29.7857L20.0804 29.7755C20.5527 29.7725 20.7889 29.7709 21.0111 29.7165C21.208 29.6683 21.3963 29.5896 21.569 29.4833C21.7637 29.3634 21.9308 29.1964 22.2648 28.8624L29.9528 21.1744C30.3618 20.7654 30.4281 20.1256 30.1115 19.6415L30.0862 19.6028C29.7239 19.0487 29.248 18.5779 28.69 18.2216C28.2279 17.9266 27.6229 17.9926 27.2353 18.3802L19.4752 26.1403C19.1532 26.4622 18.9923 26.6231 18.875 26.8103C18.771 26.9763 18.6926 27.1571 18.6425 27.3465C18.586 27.56 18.5786 27.7875 18.5636 28.2425L18.5129 29.7857Z" stroke="white" stroke-width="2" stroke-linecap="round" stroke-linejoin="round"/>
</svg>
