<svg width="38" height="39" viewBox="0 0 38 39" fill="none" xmlns="http://www.w3.org/2000/svg">
<circle cx="19" cy="19.5" r="19" fill="#705BAD"/>
<path d="M13.3163 12.8414H23.7094M13.3163 18.038H19.812M18.5129 29.7303H15.1351C12.2247 29.7303 10.7695 29.7303 9.65794 29.1639C8.68014 28.6657 7.88516 27.8707 7.38695 26.8929C6.82056 25.7813 6.82056 24.3261 6.82056 21.4158V14.6602C6.82056 11.7499 6.82056 10.2947 7.38695 9.18309C7.88516 8.20529 8.68014 7.41031 9.65794 6.9121C10.7695 6.3457 12.2247 6.3457 15.1351 6.3457H21.8906C24.801 6.3457 26.2562 6.3457 27.3678 6.9121C28.3456 7.41031 29.1406 8.20529 29.6388 9.18309C30.2052 10.2947 30.2052 11.7499 30.2052 14.6602V16.7389M23.3457 27.0801L24.6448 28.8123C25.209 29.5644 25.491 29.9405 25.8368 30.075C26.1397 30.1928 26.4758 30.1928 26.7786 30.075C27.1244 29.9405 27.4065 29.5644 27.9706 28.8123L29.2698 27.0801C29.6052 26.6328 29.7729 26.4092 29.8376 26.1636C29.8947 25.9468 29.8947 25.719 29.8376 25.5022C29.7729 25.2566 29.6052 25.0329 29.2698 24.5857L27.9706 22.8535C27.4065 22.1013 27.1244 21.7252 26.7786 21.5907C26.4758 21.4729 26.1397 21.4729 25.8368 21.5907C25.491 21.7252 25.209 22.1013 24.6448 22.8535L23.3457 24.5857C23.0103 25.0329 22.8425 25.2566 22.7779 25.5022C22.7208 25.719 22.7208 25.9468 22.7779 26.1636C22.8425 26.4092 23.0103 26.6328 23.3457 27.0801Z" stroke="white" stroke-width="2" stroke-linecap="round" stroke-linejoin="round"/>
</svg>
