<svg width="18" height="18" viewBox="0 0 18 18" fill="none" xmlns="http://www.w3.org/2000/svg">
<path d="M3.2625 13.05V14.0625M3.2625 14.0625V15.075M3.2625 14.0625H4.275M3.2625 14.0625H2.25M9.675 2.25L9.91519 4.13978C10.2182 6.52407 12.0606 8.4211 14.435 8.79367L15.75 9L14.435 9.20633C12.0606 9.5789 10.2182 11.4759 9.91519 13.8602L9.675 15.75L9.43481 13.8602C9.13178 11.4759 7.2894 9.5789 4.91498 9.20633L3.6 9L4.91498 8.79367C7.2894 8.4211 9.13178 6.52408 9.43481 4.13979L9.675 2.25ZM4.275 2.25L4.32535 2.55569C4.46644 3.41223 5.13777 4.08356 5.99431 4.22465L6.3 4.275L5.99431 4.32535C5.13777 4.46644 4.46644 5.13777 4.32535 5.99431L4.275 6.3L4.22465 5.99431C4.08356 5.13777 3.41223 4.46644 2.55569 4.32535L2.25 4.275L2.55569 4.22465C3.41223 4.08356 4.08356 3.41223 4.22465 2.55569L4.275 2.25Z" stroke="#00539F" stroke-width="1.75" stroke-linecap="round" stroke-linejoin="round"/>
</svg>
