<svg width="18" height="18" viewBox="0 0 18 18" fill="none" xmlns="http://www.w3.org/2000/svg">
<path d="M9.75 15.75H15.75M2.25 15.7466L4.29499 15.7499C4.58706 15.7504 4.7331 15.7506 4.87054 15.7176C4.9924 15.6884 5.10891 15.64 5.21576 15.5743C5.33629 15.5002 5.43955 15.3965 5.64608 15.1891L15.3761 5.41633C15.7736 5.01705 15.8724 4.39973 15.5696 3.91187C15.2035 3.32211 14.7027 2.81498 14.12 2.43849C13.653 2.13672 13.0396 2.20281 12.647 2.59722L2.85742 12.4298C2.65833 12.6297 2.55878 12.7297 2.48658 12.8461C2.42255 12.9493 2.37456 13.0617 2.34426 13.1795C2.31008 13.3122 2.3066 13.4536 2.29962 13.7363L2.25 15.7466Z" stroke="#00539F" stroke-width="1.75" stroke-linecap="round" stroke-linejoin="round"/>
</svg>
