<svg width="18" height="18" viewBox="0 0 18 18" fill="none" xmlns="http://www.w3.org/2000/svg">
<path d="M2.787 11.3311C2.31433 10.4803 2.07799 10.0549 1.98533 9.60436C1.90333 9.20563 1.90333 8.79438 1.98533 8.39565C2.07799 7.94513 2.31433 7.51973 2.787 6.66891L3.87033 4.71892C4.36954 3.82034 4.61914 3.37106 4.97415 3.0439C5.28822 2.75447 5.66047 2.53544 6.066 2.40145C6.52439 2.25 7.03836 2.25 8.06629 2.25L9.91761 2.25C10.9455 2.25 11.4595 2.25 11.9179 2.40145C12.3234 2.53544 12.6957 2.75447 13.0097 3.0439C13.3648 3.37106 13.6144 3.82034 14.1136 4.71891L15.2231 6.71603C15.6307 7.44968 15.8591 7.8608 15.9717 8.25C15.9872 8.30345 16.0005 8.3565 16.0118 8.4099C16.0944 8.80138 16.0979 9.20544 16.022 9.59829C15.9363 10.0421 15.7118 10.4632 15.2627 11.3055L14.8923 12L14.1252 13.3378C13.6214 14.2164 13.3695 14.6557 13.016 14.9753C12.7033 15.2581 12.3344 15.4717 11.9336 15.6024C11.4805 15.75 10.9741 15.75 9.96126 15.75H8.06629C7.03836 15.75 6.52439 15.75 6.066 15.5985C5.66047 15.4646 5.28822 15.2455 4.97415 14.9561C4.61914 14.6289 4.36954 14.1797 3.87033 13.2811L2.787 11.3311Z" stroke="#00539F" stroke-width="1.75" stroke-linecap="round" stroke-linejoin="round"/>
<path d="M10.4919 6.75003C10.4919 7.57846 9.82034 8.25003 8.99192 8.25003C8.16349 8.25003 7.49192 7.57846 7.49192 6.75003C7.49192 5.92161 8.16349 5.25003 8.99192 5.25003C9.82034 5.25003 10.4919 5.92161 10.4919 6.75003Z" stroke="#00539F" stroke-width="1.75" stroke-linecap="round" stroke-linejoin="round"/>
<path d="M10.4919 10.5L7.49192 10.5C6.66349 10.5 5.99192 11.1716 5.99192 12C5.99192 12.4142 6.3277 12.75 6.74192 12.75L11.2419 12.75C11.6561 12.75 11.9919 12.4142 11.9919 12C11.9919 11.1716 11.3203 10.5 10.4919 10.5Z" stroke="#00539F" stroke-width="1.75" stroke-linecap="round" stroke-linejoin="round"/>
</svg>
