<svg width="18" height="18" viewBox="0 0 18 18" fill="none" xmlns="http://www.w3.org/2000/svg">
<path d="M6 10.5C5.58215 9.94286 5.3277 9.28038 5.26515 8.58677C5.20261 7.89317 5.33445 7.19585 5.6459 6.57295C5.95735 5.95005 6.4361 5.42619 7.02851 5.06006C7.62092 4.69393 8.30358 4.5 9 4.5C9.69642 4.5 10.3791 4.69393 10.9715 5.06006C11.5639 5.42619 12.0427 5.95005 12.3541 6.57295C12.6656 7.19585 12.7974 7.89317 12.7348 8.58677C12.6723 9.28038 12.4179 9.94286 12 10.5M12.75 13.8625C13.9541 13.058 14.8675 11.8876 15.3554 10.5241C15.8433 9.16063 15.8797 7.67641 15.4594 6.29064C15.039 4.90487 14.1841 3.69102 13.021 2.82837C11.8579 1.96572 10.4481 1.5 9 1.5C7.55188 1.5 6.14215 1.96572 4.97901 2.82837C3.81587 3.69102 2.96099 4.90487 2.54064 6.29064C2.12028 7.67641 2.15673 9.16063 2.64461 10.5241C3.13248 11.8876 4.04592 13.058 5.25 13.8625M9 16.5L10.0257 13.423C10.259 12.723 9.73794 12 9 12C8.26206 12 7.74098 12.723 7.97434 13.423L9 16.5ZM9 9C8.58579 9 8.25 8.66421 8.25 8.25C8.25 7.83579 8.58579 7.5 9 7.5C9.41421 7.5 9.75 7.83579 9.75 8.25C9.75 8.66421 9.41421 9 9 9Z" stroke="#00539F" stroke-width="1.75" stroke-linecap="round" stroke-linejoin="round"/>
</svg>
