<svg width="42" height="42" viewBox="0 0 42 42" fill="none" xmlns="http://www.w3.org/2000/svg">
<g filter="url(#filter0_b_3240_38392)">
<circle cx="20.6305" cy="21.331" r="20.5858" fill="black" fill-opacity="0.52"/>
</g>
<path d="M21.4878 13.6113C20.6347 13.6113 19.8166 13.9502 19.2134 14.5534C18.6102 15.1566 18.2713 15.9748 18.2713 16.8279V21.331C18.2713 22.1841 18.6102 23.0022 19.2134 23.6055C19.8166 24.2087 20.6347 24.5476 21.4878 24.5476C22.3409 24.5476 23.159 24.2087 23.7623 23.6055C24.3655 23.0022 24.7044 22.1841 24.7044 21.331V16.8279C24.7044 15.9748 24.3655 15.1566 23.7623 14.5534C23.159 13.9502 22.3409 13.6113 21.4878 13.6113ZM16.3414 20.6877C16.512 20.6877 16.6756 20.7555 16.7963 20.8761C16.9169 20.9968 16.9847 21.1604 16.9847 21.331C16.9847 22.5253 17.4591 23.6707 18.3036 24.5152C19.1481 25.3597 20.2935 25.8342 21.4878 25.8342C22.6821 25.8342 23.8275 25.3597 24.672 24.5152C25.5165 23.6707 25.991 22.5253 25.991 21.331C25.991 21.1604 26.0588 20.9968 26.1794 20.8761C26.3 20.7555 26.4637 20.6877 26.6343 20.6877C26.8049 20.6877 26.9685 20.7555 27.0892 20.8761C27.2098 20.9968 27.2776 21.1604 27.2776 21.331C27.2779 22.7554 26.7531 24.1298 25.8036 25.1916C24.8542 26.2533 23.5467 26.9278 22.1311 27.0861V28.4074C22.1311 28.578 22.0634 28.7417 21.9427 28.8623C21.8221 28.9829 21.6584 29.0507 21.4878 29.0507C21.3172 29.0507 21.1536 28.9829 21.0329 28.8623C20.9123 28.7417 20.8445 28.578 20.8445 28.4074V27.0861C19.429 26.9278 18.1215 26.2533 17.172 25.1916C16.2226 24.1298 15.6978 22.7554 15.6981 21.331C15.6981 21.1604 15.7658 20.9968 15.8865 20.8761C16.0071 20.7555 16.1708 20.6877 16.3414 20.6877Z" fill="white"/>
<defs>
<filter id="filter0_b_3240_38392" x="-34.2651" y="-33.5646" width="109.791" height="109.791" filterUnits="userSpaceOnUse" color-interpolation-filters="sRGB">
<feFlood flood-opacity="0" result="BackgroundImageFix"/>
<feGaussianBlur in="BackgroundImageFix" stdDeviation="17.1549"/>
<feComposite in2="SourceAlpha" operator="in" result="effect1_backgroundBlur_3240_38392"/>
<feBlend mode="normal" in="SourceGraphic" in2="effect1_backgroundBlur_3240_38392" result="shape"/>
</filter>
</defs>
</svg>
