<svg width="24" height="24" viewBox="0 0 24 24" fill="none" xmlns="http://www.w3.org/2000/svg">
<path d="M11.9996 8.24625C14.0728 8.24625 15.7535 9.92691 15.7535 12.0001C15.7535 14.0733 14.0728 15.7539 11.9996 15.7539C9.92642 15.7539 8.24576 14.0733 8.24576 12.0001C8.24576 9.92691 9.92642 8.24625 11.9996 8.24625ZM11.9996 8.24625H20.3466M8.75249 13.8771L4.57519 6.65099M15.2467 13.877L11.0778 21.1042M11.0778 21.1042C11.381 21.1346 11.6885 21.1501 11.9996 21.1501C17.053 21.1501 21.1496 17.0535 21.1496 12.0001C21.1496 6.94669 17.053 2.8501 11.9996 2.8501C8.94326 2.8501 6.23691 4.34861 4.57519 6.65099M11.0778 21.1042C6.45729 20.642 2.84961 16.7424 2.84961 12.0001C2.84961 10.003 3.4894 8.15541 4.57519 6.65099" stroke="#1D1E21" stroke-width="1.75" stroke-linecap="round" stroke-linejoin="round"/>
</svg>
