<svg width="24" height="24" viewBox="0 0 24 24" fill="none" xmlns="http://www.w3.org/2000/svg">
<path d="M13 20H11C8.19974 20 6.79961 20 5.73005 19.455C4.78924 18.9757 4.02433 18.2108 3.54497 17.27C3 16.2004 3 14.8003 3 12C3 10.006 3 8.72189 3.19678 7.76159M22.8032 7.76159L17.295 11.2668C15.7385 12.2573 14.9602 12.7526 14.1238 12.9455C13.3843 13.1161 12.6157 13.1161 11.8762 12.9455C11.0398 12.7526 10.2615 12.2573 8.70499 11.2668L3.19678 7.76159M22.8032 7.76159C23 8.72189 23 10.006 23 12C23 12.7635 23 13.423 22.989 14M22.8032 7.76159C22.7237 7.37332 22.6119 7.03798 22.455 6.73005C21.9757 5.78924 21.2108 5.02433 20.27 4.54497C19.2004 4 17.8003 4 15 4H11C8.19974 4 6.79961 4 5.73005 4.54497C4.78924 5.02433 4.02433 5.78924 3.54497 6.73005C3.38807 7.03798 3.27634 7.37332 3.19678 7.76159M17 20H23M23 20C23 20.1047 22.965 20.2094 22.8951 20.2957C22.3779 20.934 21.7836 21.5065 21.1256 22M23 20C23 19.8953 22.965 19.7906 22.8951 19.7043C22.3779 19.066 21.7836 18.4935 21.1256 18" stroke="#1D1E21" stroke-width="1.75" stroke-linecap="round" stroke-linejoin="round"/>
</svg>
