<svg width="65" height="59" viewBox="0 0 65 59" fill="none" xmlns="http://www.w3.org/2000/svg">
<rect x="0.688477" y="3.58594" width="63.473" height="54.8956" rx="10.2929" fill="#F8000F"/>
<g clip-path="url(#clip0_1451_8023)">
<path d="M46.5475 31.8102L46.2202 33.3152C45.9125 34.7262 44.5624 35.6439 43.0658 35.46L40.0849 35.0929C38.7872 34.9326 37.7022 33.9786 37.403 32.7353L36.5718 29.2719C35.2215 28.6765 33.7242 28.382 32.0807 28.3872C30.4979 28.3794 28.9297 28.6893 27.4689 29.2985L26.8147 32.5041C26.5659 33.7177 25.5343 34.602 24.2568 34.6957L21.279 34.9177C19.7922 35.0276 18.3966 34.0471 18.0123 32.6239L17.5998 31.0995C17.1901 29.5813 17.6322 28.0056 18.7618 26.9653C21.4287 24.506 25.7952 23.3539 31.8643 23.5044C37.9425 23.6554 42.3808 25.0324 45.1739 27.6337C46.3495 28.7281 46.873 30.3166 46.5475 31.8102Z" fill="white"/>
</g>
<defs>
<clipPath id="clip0_1451_8023">
<rect width="32.7235" height="32.7235" fill="white" transform="translate(54.7256 17.3101) rotate(120)"/>
</clipPath>
</defs>
</svg>
