<svg width="12" height="12" viewBox="0 0 12 12" fill="none" xmlns="http://www.w3.org/2000/svg">
<path d="M7.69201 6.42245C7.8174 6.17092 7.88383 5.89413 7.88626 5.6131V3.30068C7.88115 2.84383 7.70716 2.40504 7.39783 2.06882C7.08849 1.73261 6.66568 1.52275 6.21084 1.47968C5.756 1.43661 5.30132 1.56337 4.93436 1.83554C4.56741 2.10772 4.31416 2.50605 4.22338 2.95381L7.69201 6.42245ZM9.27371 5.6131C9.27371 5.49044 9.22498 5.3728 9.13825 5.28607C9.05152 5.19934 8.93388 5.15061 8.81123 5.15061C8.68857 5.15061 8.57093 5.19934 8.4842 5.28607C8.39747 5.3728 8.34874 5.49044 8.34874 5.6131C8.3474 6.01715 8.23716 6.41337 8.02963 6.76006L8.70948 7.46303C9.08166 6.91829 9.27853 6.27283 9.27371 5.6131ZM6.03632 7.46303H6.11032L4.18638 5.53448V5.6131C4.18638 6.10373 4.38129 6.57427 4.72822 6.9212C5.07515 7.26813 5.54569 7.46303 6.03632 7.46303ZM10.0646 9.44709L2.66481 2.04735C2.62169 2.00422 2.5705 1.97002 2.51416 1.94668C2.45782 1.92334 2.39743 1.91133 2.33645 1.91133C2.27546 1.91133 2.21508 1.92334 2.15874 1.94668C2.1024 1.97002 2.0512 2.00422 2.00808 2.04735C1.921 2.13443 1.87207 2.25255 1.87207 2.37571C1.87207 2.49887 1.921 2.61699 2.00808 2.70407L9.40783 10.1038C9.45082 10.1472 9.50198 10.1816 9.55833 10.2051C9.61469 10.2285 9.67514 10.2406 9.73619 10.2406C9.79725 10.2406 9.8577 10.2285 9.91405 10.2051C9.97041 10.1816 10.0216 10.1472 10.0646 10.1038C10.1079 10.0608 10.1423 10.0097 10.1658 9.95332C10.1893 9.89696 10.2014 9.83651 10.2014 9.77545C10.2014 9.7144 10.1893 9.65395 10.1658 9.59759C10.1423 9.54124 10.1079 9.49009 10.0646 9.44709Z" fill="white"/>
<path d="M7.42269 9.77523H6.49773V8.81327C6.75944 8.77683 7.01572 8.70849 7.26082 8.60977L6.52085 7.8698C6.36167 7.90701 6.19871 7.92564 6.03524 7.9253C5.42195 7.9253 4.83378 7.68167 4.40011 7.248C3.96645 6.81434 3.72282 6.22617 3.72282 5.61287C3.72282 5.49022 3.67409 5.37258 3.58736 5.28585C3.50063 5.19912 3.38299 5.15039 3.26034 5.15039C3.13768 5.15039 3.02004 5.19912 2.93331 5.28585C2.84658 5.37258 2.79785 5.49022 2.79785 5.61287C2.79876 6.3907 3.07969 7.1422 3.58925 7.72988C4.0988 8.31757 4.80291 8.70215 5.57276 8.81327V9.77523H4.64779C4.52513 9.77523 4.4075 9.82396 4.32076 9.91069C4.23403 9.99742 4.1853 10.1151 4.1853 10.2377C4.1853 10.3604 4.23403 10.478 4.32076 10.5647C4.4075 10.6515 4.52513 10.7002 4.64779 10.7002H7.42269C7.54535 10.7002 7.66299 10.6515 7.74972 10.5647C7.83645 10.478 7.88518 10.3604 7.88518 10.2377C7.88518 10.1151 7.83645 9.99742 7.74972 9.91069C7.66299 9.82396 7.54535 9.77523 7.42269 9.77523Z" fill="white"/>
</svg>
