<svg width="23" height="22" viewBox="0 0 23 22" fill="none" xmlns="http://www.w3.org/2000/svg">
<circle cx="11.3826" cy="11.1114" r="10.7528" fill="#01CE22"/>
<rect x="8.0957" y="5.24658" width="0.646551" height="11.7457" rx="0.323275" fill="white"/>
<rect x="6.91016" y="7.18628" width="0.646551" height="7.86637" rx="0.323275" fill="white"/>
<rect x="5.72559" y="9.2334" width="0.646551" height="3.77155" rx="0.323275" fill="white"/>
<rect x="4.53906" y="9.2334" width="0.646551" height="3.77155" rx="0.323275" fill="white"/>
<rect x="9.28027" y="6.43164" width="0.646551" height="9.37499" rx="0.323275" fill="white"/>
<rect x="10.4658" y="8.15576" width="0.646551" height="5.92672" rx="0.323275" fill="white"/>
<rect x="11.6514" y="7.18628" width="0.646551" height="7.86637" rx="0.323275" fill="white"/>
<rect x="12.8369" y="9.2334" width="0.646551" height="3.77155" rx="0.323275" fill="white"/>
<rect x="14.0225" y="7.18628" width="0.646551" height="7.86637" rx="0.323275" fill="white"/>
<rect x="15.208" y="9.87964" width="0.646551" height="2.47845" rx="0.323275" fill="white"/>
<rect x="16.3926" y="8.15576" width="0.646551" height="5.92672" rx="0.323275" fill="white"/>
<rect x="17.5791" y="9.2334" width="0.646551" height="3.77155" rx="0.323275" fill="white"/>
</svg>
