<svg width="43" height="42" viewBox="0 0 43 42" fill="none" xmlns="http://www.w3.org/2000/svg">
<g filter="url(#filter0_b_3240_38406)">
<circle cx="21.4313" cy="21.331" r="20.5858" fill="black" fill-opacity="0.52"/>
</g>
<path d="M22.9446 15.5523C22.9444 15.4151 22.9055 15.2808 22.8323 15.1647C22.7592 15.0486 22.6548 14.9555 22.5311 14.8961C22.4074 14.8367 22.2695 14.8134 22.1332 14.8289C21.9969 14.8444 21.8677 14.898 21.7605 14.9836L18.3145 17.7398H14.924C14.7306 17.7398 14.5452 17.8166 14.4084 17.9533C14.2717 18.0901 14.1949 18.2755 14.1949 18.4689V24.3021C14.1949 24.4954 14.2717 24.6809 14.4084 24.8176C14.5452 24.9544 14.7306 25.0312 14.924 25.0312H18.3145L21.7605 27.7874C21.8677 27.873 21.9969 27.9266 22.1332 27.9421C22.2695 27.9576 22.4074 27.9343 22.5311 27.8749C22.6548 27.8155 22.7592 27.7224 22.8323 27.6063C22.9055 27.4902 22.9444 27.3558 22.9446 27.2186V15.5523ZM27.3559 21.3855C27.357 22.2474 27.1878 23.1011 26.858 23.8974C26.5281 24.6938 26.0442 25.4171 25.4339 26.0258L24.4029 24.9947C24.8775 24.5213 25.2539 23.9587 25.5104 23.3393C25.767 22.7199 25.8985 22.0559 25.8976 21.3855C25.8985 20.7151 25.7668 20.0511 25.5103 19.4317C25.2538 18.8123 24.8775 18.2497 24.4029 17.7762L25.4339 16.7452C26.0442 17.3539 26.5281 18.0772 26.858 18.8735C27.1878 19.6699 27.357 20.5235 27.3559 21.3855Z" fill="white"/>
<defs>
<filter id="filter0_b_3240_38406" x="-33.4643" y="-33.5646" width="109.791" height="109.791" filterUnits="userSpaceOnUse" color-interpolation-filters="sRGB">
<feFlood flood-opacity="0" result="BackgroundImageFix"/>
<feGaussianBlur in="BackgroundImageFix" stdDeviation="17.1549"/>
<feComposite in2="SourceAlpha" operator="in" result="effect1_backgroundBlur_3240_38406"/>
<feBlend mode="normal" in="SourceGraphic" in2="effect1_backgroundBlur_3240_38406" result="shape"/>
</filter>
</defs>
</svg>
