<svg width="18" height="19" viewBox="0 0 18 19" fill="none" xmlns="http://www.w3.org/2000/svg">
<path d="M10.1232 5.46301C10.1231 5.35718 10.0931 5.25353 10.0366 5.16399C9.98022 5.07444 9.89968 5.00264 9.80428 4.95681C9.70888 4.91099 9.60248 4.89302 9.49732 4.90496C9.39216 4.9169 9.2925 4.95826 9.2098 5.02431L6.55167 7.15036H3.93629C3.78712 7.15036 3.64406 7.20962 3.53858 7.3151C3.4331 7.42058 3.37384 7.56364 3.37384 7.71281V12.2124C3.37384 12.3616 3.4331 12.5046 3.53858 12.6101C3.64406 12.7156 3.78712 12.7748 3.93629 12.7748H6.55167L9.2098 14.9009C9.2925 14.9669 9.39216 15.0083 9.49732 15.0202C9.60248 15.0322 9.70888 15.0142 9.80428 14.9684C9.89968 14.9226 9.98022 14.8508 10.0366 14.7612C10.0931 14.6717 10.1231 14.568 10.1232 14.4622V5.46301ZM13.526 9.9626C13.5269 10.6275 13.3964 11.286 13.1419 11.9003C12.8875 12.5145 12.5142 13.0725 12.0434 13.542L11.2481 12.7467C11.6142 12.3815 11.9046 11.9475 12.1025 11.4697C12.3003 10.9919 12.4018 10.4797 12.4011 9.9626C12.4018 9.44546 12.3003 8.93329 12.1024 8.45551C11.9045 7.97772 11.6142 7.54374 11.2481 7.17848L12.0434 6.38318C12.5142 6.85272 12.8875 7.41066 13.1419 8.02494C13.3964 8.63921 13.5269 9.29771 13.526 9.9626Z" fill="white"/>
</svg>
