<svg width="14" height="15" viewBox="0 0 14 15" fill="none" xmlns="http://www.w3.org/2000/svg">
<g clip-path="url(#clip0_1451_5205)">
<path d="M12.6875 7.5C12.6875 5.99158 12.0883 4.54494 11.0217 3.47833C9.95506 2.41172 8.50842 1.8125 7 1.8125C5.49158 1.8125 4.04494 2.41172 2.97833 3.47833C1.91172 4.54494 1.3125 5.99158 1.3125 7.5C1.3125 9.00842 1.91172 10.4551 2.97833 11.5217C4.04494 12.5883 5.49158 13.1875 7 13.1875C8.50842 13.1875 9.95506 12.5883 11.0217 11.5217C12.0883 10.4551 12.6875 9.00842 12.6875 7.5ZM0 7.5C0 5.64348 0.737498 3.86301 2.05025 2.55025C3.36301 1.2375 5.14348 0.5 7 0.5C8.85652 0.5 10.637 1.2375 11.9497 2.55025C13.2625 3.86301 14 5.64348 14 7.5C14 9.35652 13.2625 11.137 11.9497 12.4497C10.637 13.7625 8.85652 14.5 7 14.5C5.14348 14.5 3.36301 13.7625 2.05025 12.4497C0.737498 11.137 0 9.35652 0 7.5ZM4.85625 9.19805C5.27188 9.64648 5.98281 10.125 7 10.125C8.01719 10.125 8.72812 9.64648 9.14375 9.19805C9.38984 8.93281 9.80547 8.91367 10.0707 9.15977C10.3359 9.40586 10.3551 9.82148 10.109 10.0867C9.50742 10.7375 8.46836 11.4375 7.00273 11.4375C5.53711 11.4375 4.49531 10.7402 3.89648 10.0867C3.65039 9.82148 3.6668 9.40586 3.93477 9.15977C4.20273 8.91367 4.61562 8.93008 4.86172 9.19805H4.85625ZM3.94844 6.1875C3.94844 5.95544 4.04062 5.73288 4.20472 5.56878C4.36881 5.40469 4.59137 5.3125 4.82344 5.3125C5.0555 5.3125 5.27806 5.40469 5.44216 5.56878C5.60625 5.73288 5.69844 5.95544 5.69844 6.1875C5.69844 6.41956 5.60625 6.64212 5.44216 6.80622C5.27806 6.97031 5.0555 7.0625 4.82344 7.0625C4.59137 7.0625 4.36881 6.97031 4.20472 6.80622C4.04062 6.64212 3.94844 6.41956 3.94844 6.1875ZM9.19844 5.3125C9.4305 5.3125 9.65306 5.40469 9.81716 5.56878C9.98125 5.73288 10.0734 5.95544 10.0734 6.1875C10.0734 6.41956 9.98125 6.64212 9.81716 6.80622C9.65306 6.97031 9.4305 7.0625 9.19844 7.0625C8.96637 7.0625 8.74381 6.97031 8.57972 6.80622C8.41562 6.64212 8.32344 6.41956 8.32344 6.1875C8.32344 5.95544 8.41562 5.73288 8.57972 5.56878C8.74381 5.40469 8.96637 5.3125 9.19844 5.3125Z" fill="#99FFCE"/>
</g>
<defs>
<clipPath id="clip0_1451_5205">
<rect width="14" height="14" fill="white" transform="translate(0 0.5)"/>
</clipPath>
</defs>
</svg>
