<svg width="20" height="21" viewBox="0 0 20 21" fill="none" xmlns="http://www.w3.org/2000/svg">
<path d="M13.333 6.33333L12.4117 4.49071C11.9549 3.57711 11.0211 3 9.99967 3C8.97823 3 8.04446 3.57711 7.58765 4.49071L6.66634 6.33333M3.33301 6.33333H16.6663M4.99967 6.33333H14.9997V13C14.9997 14.5531 14.9997 15.3297 14.7459 15.9423C14.4076 16.759 13.7587 17.408 12.942 17.7463C12.3294 18 11.5528 18 9.99967 18C8.44654 18 7.66997 18 7.0574 17.7463C6.24064 17.408 5.59172 16.759 5.25341 15.9423C4.99967 15.3297 4.99967 14.5531 4.99967 13V6.33333Z" stroke="#4E545F" stroke-width="2" stroke-linecap="round" stroke-linejoin="round"/>
</svg>
