<svg width="31" height="24" viewBox="0 0 31 24" fill="none" xmlns="http://www.w3.org/2000/svg">
<g clip-path="url(#clip0_6988_51616)">
<path d="M23.625 12C23.625 17.3859 19.2609 21.75 13.875 21.75C10.8094 21.75 8.07188 20.3344 6.28125 18.1172C6.09844 18.9188 5.65312 19.6172 5.04375 20.1234C7.2375 22.5094 10.3828 24 13.875 24C20.5031 24 25.875 18.6281 25.875 12C25.875 5.37188 20.5031 0 13.875 0C7.24688 0 1.875 5.37188 1.875 12C1.875 12.0516 1.875 12.1031 1.875 12.1547C2.63906 11.8219 3.58125 12.0234 4.125 12.7547L4.15781 12.7969C4.13437 12.5344 4.125 12.2672 4.125 12C4.125 6.61406 8.48906 2.25 13.875 2.25C19.2609 2.25 23.625 6.61406 23.625 12ZM2.04844 14.0344C1.37813 14.9578 0.375 16.4859 0.375 17.2969C0.375 18.5156 1.38281 19.5 2.625 19.5C3.1875 19.5 3.70312 19.2984 4.10156 18.9609C4.575 18.5578 4.875 17.9625 4.875 17.2969C4.875 16.3594 3.54375 14.4656 2.925 13.6547C2.775 13.4484 2.475 13.4484 2.325 13.6547C2.24531 13.7625 2.14688 13.8891 2.04844 14.0344ZM17.2687 19.1953C17.7234 18.7734 17.7469 18.0609 17.325 17.6063C16.6547 16.8891 15.4969 16.125 13.875 16.125C12.2531 16.125 11.0953 16.8891 10.4297 17.6063C10.0078 18.0609 10.0312 18.7734 10.4859 19.1953C10.9406 19.6172 11.6531 19.5938 12.075 19.1391C12.4219 18.7687 13.0125 18.3703 13.8797 18.3703C14.7469 18.3703 15.3375 18.7687 15.6844 19.1391C16.1063 19.5938 16.8188 19.6172 17.2734 19.1953H17.2687ZM17.6063 14.25C18.0041 14.25 18.3856 14.092 18.6669 13.8107C18.9482 13.5294 19.1063 13.1478 19.1063 12.75C19.1063 12.3522 18.9482 11.9706 18.6669 11.6893C18.3856 11.408 18.0041 11.25 17.6063 11.25C17.2084 11.25 16.8269 11.408 16.5456 11.6893C16.2643 11.9706 16.1063 12.3522 16.1063 12.75C16.1063 13.1478 16.2643 13.5294 16.5456 13.8107C16.8269 14.092 17.2084 14.25 17.6063 14.25ZM8.60625 12.75C8.60625 13.1478 8.76429 13.5294 9.04559 13.8107C9.32689 14.092 9.70843 14.25 10.1063 14.25C10.5041 14.25 10.8856 14.092 11.1669 13.8107C11.4482 13.5294 11.6063 13.1478 11.6063 12.75C11.6063 12.3522 11.4482 11.9706 11.1669 11.6893C10.8856 11.408 10.5041 11.25 10.1063 11.25C9.70843 11.25 9.32689 11.408 9.04559 11.6893C8.76429 11.9706 8.60625 12.3522 8.60625 12.75ZM11.0297 8.02969C11.3203 7.73906 11.3203 7.26094 11.0297 6.97031C10.7391 6.67969 10.2609 6.67969 9.97031 6.97031L9.62344 7.31719C8.7375 8.20312 7.59844 8.78906 6.36563 8.99063L6.24844 9.00937C5.84063 9.07969 5.56406 9.46406 5.62969 9.87188C5.69531 10.2797 6.08437 10.5563 6.49219 10.4906L6.60938 10.4719C8.15156 10.2141 9.57656 9.48281 10.6781 8.37656L11.025 8.02969H11.0297ZM16.7203 6.97031C16.4297 7.26094 16.4297 7.73906 16.7203 8.02969L17.0672 8.37656C18.1734 9.48281 19.5938 10.2141 21.1359 10.4719L21.2531 10.4906C21.6609 10.5609 22.05 10.2844 22.1156 9.87188C22.1812 9.45938 21.9094 9.075 21.4969 9.00937L21.3797 8.99063C20.1469 8.78438 19.0078 8.19844 18.1219 7.31719L17.775 6.97031C17.4844 6.67969 17.0063 6.67969 16.7156 6.97031H16.7203Z" fill="#FF1F1F"/>
</g>
<defs>
<clipPath id="clip0_6988_51616">
<rect width="30.375" height="24" fill="white" transform="translate(0.375)"/>
</clipPath>
</defs>
</svg>
