<svg width="24" height="24" viewBox="0 0 24 24" fill="none" xmlns="http://www.w3.org/2000/svg">
<g clip-path="url(#clip0_6988_51536)">
<path d="M21.75 12C21.75 9.41414 20.7228 6.93419 18.8943 5.10571C17.0658 3.27723 14.5859 2.25 12 2.25C9.41414 2.25 6.93419 3.27723 5.10571 5.10571C3.27723 6.93419 2.25 9.41414 2.25 12C2.25 14.5859 3.27723 17.0658 5.10571 18.8943C6.93419 20.7228 9.41414 21.75 12 21.75C14.5859 21.75 17.0658 20.7228 18.8943 18.8943C20.7228 17.0658 21.75 14.5859 21.75 12ZM0 12C0 8.8174 1.26428 5.76516 3.51472 3.51472C5.76516 1.26428 8.8174 0 12 0C15.1826 0 18.2348 1.26428 20.4853 3.51472C22.7357 5.76516 24 8.8174 24 12C24 15.1826 22.7357 18.2348 20.4853 20.4853C18.2348 22.7357 15.1826 24 12 24C8.8174 24 5.76516 22.7357 3.51472 20.4853C1.26428 18.2348 0 15.1826 0 12ZM8.325 14.9109C9.0375 15.6797 10.2563 16.5 12 16.5C13.7437 16.5 14.9625 15.6797 15.675 14.9109C16.0969 14.4563 16.8094 14.4234 17.2641 14.8453C17.7188 15.2672 17.7516 15.9797 17.3297 16.4344C16.2984 17.55 14.5172 18.75 12.0047 18.75C9.49219 18.75 7.70625 17.5547 6.67969 16.4344C6.25781 15.9797 6.28594 15.2672 6.74531 14.8453C7.20469 14.4234 7.9125 14.4516 8.33438 14.9109H8.325ZM6.76875 9.75C6.76875 9.35218 6.92679 8.97064 7.20809 8.68934C7.48939 8.40804 7.87092 8.25 8.26875 8.25C8.66657 8.25 9.04811 8.40804 9.32941 8.68934C9.61071 8.97064 9.76875 9.35218 9.76875 9.75C9.76875 10.1478 9.61071 10.5294 9.32941 10.8107C9.04811 11.092 8.66657 11.25 8.26875 11.25C7.87092 11.25 7.48939 11.092 7.20809 10.8107C6.92679 10.5294 6.76875 10.1478 6.76875 9.75ZM15.7687 8.25C16.1666 8.25 16.5481 8.40804 16.8294 8.68934C17.1107 8.97064 17.2687 9.35218 17.2687 9.75C17.2687 10.1478 17.1107 10.5294 16.8294 10.8107C16.5481 11.092 16.1666 11.25 15.7687 11.25C15.3709 11.25 14.9894 11.092 14.7081 10.8107C14.4268 10.5294 14.2687 10.1478 14.2687 9.75C14.2687 9.35218 14.4268 8.97064 14.7081 8.68934C14.9894 8.40804 15.3709 8.25 15.7687 8.25Z" fill="#008344"/>
</g>
<defs>
<clipPath id="clip0_6988_51536">
<rect width="24" height="24" fill="white"/>
</clipPath>
</defs>
</svg>
