<svg width="24" height="24" viewBox="0 0 24 24" fill="none" xmlns="http://www.w3.org/2000/svg">
<path d="M5.40707 12.974C4.16964 10.8771 3.35601 8.43264 3.03469 5.70916C2.89359 4.51323 3.63495 3.25377 4.89709 3.04738C5.2937 2.98252 5.78407 2.99232 6.18743 3.0287C7.87057 3.18051 8.56634 4.6661 8.93571 6.10803C9.43026 8.03869 8.82778 10.0852 7.36609 11.4397C6.76122 12.0002 6.06031 12.4721 5.40707 12.974ZM5.40707 12.974C6.72382 15.2053 8.52044 17.043 10.7144 18.4047M10.7144 18.4047C12.8785 19.7478 15.4291 20.6276 18.2871 20.965C19.4832 21.1062 20.7421 20.3643 20.9484 19.1022C21.0192 18.6693 21.0108 18.1714 20.9592 17.7362C20.7497 15.9658 19.0452 15.2967 17.5242 14.9479C15.791 14.5505 13.9731 15.0271 12.6576 16.2238C11.9436 16.8733 11.3463 17.6768 10.7144 18.4047ZM14.4997 9.5L16.9997 7M16.9997 7L19.4997 4.5M16.9997 7L14.4997 4.5M16.9997 7L19.4997 9.5" stroke="#1D1E21" stroke-width="1.75" stroke-linecap="round" stroke-linejoin="round"/>
</svg>
