<svg width="25" height="24" viewBox="0 0 25 24" fill="none" xmlns="http://www.w3.org/2000/svg">
<path d="M12.6246 8.24625C14.6978 8.24625 16.3785 9.92691 16.3785 12.0001C16.3785 14.0733 14.6978 15.7539 12.6246 15.7539C10.5514 15.7539 8.87076 14.0733 8.87076 12.0001C8.87076 9.92691 10.5514 8.24625 12.6246 8.24625ZM12.6246 8.24625H20.9716M9.37749 13.8771L5.20019 6.65099M15.8717 13.877L11.7028 21.1042M11.7028 21.1042C12.006 21.1346 12.3135 21.1501 12.6246 21.1501C17.678 21.1501 21.7746 17.0535 21.7746 12.0001C21.7746 6.94669 17.678 2.8501 12.6246 2.8501C9.56826 2.8501 6.86191 4.34861 5.20019 6.65099M11.7028 21.1042C7.08229 20.642 3.47461 16.7424 3.47461 12.0001C3.47461 10.003 4.1144 8.15541 5.20019 6.65099" stroke="#1D1E21" stroke-width="1.75" stroke-linecap="round" stroke-linejoin="round"/>
</svg>
