<svg width="24" height="24" viewBox="0 0 24 24" fill="none" xmlns="http://www.w3.org/2000/svg">
<path d="M18.0004 2L22.0004 6M22.0004 6L18.0004 10M22.0004 6H14.0004M21.0004 17.92V20.92C21.0016 21.1985 20.9445 21.4742 20.8329 21.7293C20.7214 21.9845 20.5577 22.2136 20.3525 22.4019C20.1473 22.5901 19.905 22.7335 19.6412 22.8227C19.3773 22.9119 19.0978 22.9451 18.8204 22.92C15.7433 22.5856 12.7874 21.5341 10.1904 19.85C7.77425 18.3147 5.72576 16.2662 4.19042 13.85C2.5004 11.2412 1.44866 8.27099 1.12042 5.18C1.09543 4.90347 1.1283 4.62476 1.21692 4.36162C1.30555 4.09849 1.44799 3.85669 1.63519 3.65162C1.82238 3.44655 2.05023 3.28271 2.30421 3.17052C2.5582 3.05833 2.83276 3.00026 3.11042 3H6.11042C6.59573 2.99522 7.06621 3.16708 7.43418 3.48353C7.80215 3.79999 8.0425 4.23945 8.11042 4.72C8.23704 5.68007 8.47187 6.62273 8.81042 7.53C8.94497 7.88792 8.97408 8.27691 8.89433 8.65088C8.81457 9.02485 8.62928 9.36811 8.36042 9.64L7.09042 10.91C8.51398 13.4135 10.5869 15.4864 13.0904 16.91L14.3604 15.64C14.6323 15.3711 14.9756 15.1858 15.3495 15.1061C15.7235 15.0263 16.1125 15.0555 16.4704 15.19C17.3777 15.5286 18.3204 15.7634 19.2804 15.89C19.7662 15.9585 20.2098 16.2032 20.527 16.5775C20.8441 16.9518 21.0126 17.4296 21.0004 17.92Z" stroke="#1D1E21" stroke-width="1.75" stroke-linecap="round" stroke-linejoin="round"/>
</svg>
