<svg width="25" height="24" viewBox="0 0 25 24" fill="none" xmlns="http://www.w3.org/2000/svg">
<g clip-path="url(#clip0_7163_57588)">
<path d="M1.5 1.00009L23.5 23.0001M15.5 9.34009V4.00009C15.5007 3.25612 15.225 2.53841 14.7264 1.98629C14.2277 1.43417 13.5417 1.08703 12.8015 1.01227C12.0613 0.937497 11.3197 1.14043 10.7207 1.58168C10.1217 2.02293 9.70805 2.671 9.56 3.40009M17.5 16.9501C16.5238 17.9465 15.2721 18.6285 13.9056 18.9087C12.5391 19.1888 11.12 19.0543 9.8305 18.5224C8.54096 17.9904 7.43976 17.0854 6.66817 15.9232C5.89658 14.7611 5.48979 13.395 5.5 12.0001V10.0001M19.5 10.0001V12.0001C19.4996 12.4125 19.4628 12.8241 19.39 13.2301M12.5 19.5001V23.0001M8.5 23.0001H16.5M9.5 9.00009V12.0001C9.50052 12.5931 9.67675 13.1726 10.0064 13.6654C10.3361 14.1583 10.8045 14.5424 11.3523 14.7692C11.9002 14.9961 12.5029 15.0555 13.0845 14.94C13.6661 14.8244 14.2005 14.5391 14.62 14.1201L9.5 9.00009Z" stroke="#1D1E21" stroke-width="1.75" stroke-linecap="round" stroke-linejoin="round"/>
</g>
<defs>
<clipPath id="clip0_7163_57588">
<rect width="24" height="24" fill="white" transform="translate(0.5)"/>
</clipPath>
</defs>
</svg>
