<svg width="25" height="24" viewBox="0 0 25 24" fill="none" xmlns="http://www.w3.org/2000/svg">
<path d="M6.501 9H6.5M6.501 12H6.5M10.501 9H10.5M10.501 12H10.5M14.501 9H14.5M14.501 12H14.5M18.501 9H18.5M18.501 12H18.5M16.5 15H8.5M8.9 19H16.1C18.3402 19 19.4603 19 20.316 18.564C21.0686 18.1805 21.6805 17.5686 22.064 16.816C22.5 15.9603 22.5 14.8402 22.5 12.6V11.4C22.5 9.15979 22.5 8.03968 22.064 7.18404C21.6805 6.43139 21.0686 5.81947 20.316 5.43597C19.4603 5 18.3402 5 16.1 5H8.9C6.65979 5 5.53968 5 4.68404 5.43597C3.93139 5.81947 3.31947 6.43139 2.93597 7.18404C2.5 8.03968 2.5 9.15979 2.5 11.4V12.6C2.5 14.8402 2.5 15.9603 2.93597 16.816C3.31947 17.5686 3.93139 18.1805 4.68404 18.564C5.53968 19 6.65979 19 8.9 19Z" stroke="#1D1E21" stroke-width="1.75" stroke-linecap="round" stroke-linejoin="round"/>
</svg>
