<svg width="25" height="24" viewBox="0 0 25 24" fill="none" xmlns="http://www.w3.org/2000/svg">
<path d="M3.125 12C3.125 9.20435 3.125 7.80653 3.58172 6.7039C4.19069 5.23373 5.35873 4.06569 6.8289 3.45672C7.93153 3 9.32935 3 12.125 3C14.9206 3 16.3185 3 17.4211 3.45672C18.8913 4.06569 20.0593 5.23373 20.6683 6.7039C21.125 7.80653 21.125 9.20435 21.125 12C21.125 14.7956 21.125 16.1935 20.6683 17.2961C20.0593 18.7663 18.8913 19.9343 17.4211 20.5433C16.3185 21 14.9206 21 12.125 21C9.32935 21 7.93153 21 6.8289 20.5433C5.35873 19.9343 4.19069 18.7663 3.58172 17.2961C3.125 16.1935 3.125 14.7956 3.125 12Z" stroke="#1D1E21" stroke-width="1.75" stroke-linecap="round" stroke-linejoin="round"/>
<path d="M9.125 10.6C9.125 10.0399 9.125 9.75992 9.23399 9.54601C9.32987 9.35785 9.48285 9.20487 9.67101 9.10899C9.88492 9 10.1649 9 10.725 9H13.525C14.0851 9 14.3651 9 14.579 9.10899C14.7672 9.20487 14.9201 9.35785 15.016 9.54601C15.125 9.75992 15.125 10.0399 15.125 10.6V13.4C15.125 13.9601 15.125 14.2401 15.016 14.454C14.9201 14.6422 14.7672 14.7951 14.579 14.891C14.3651 15 14.0851 15 13.525 15H10.725C10.1649 15 9.88492 15 9.67101 14.891C9.48285 14.7951 9.32987 14.6422 9.23399 14.454C9.125 14.2401 9.125 13.9601 9.125 13.4V10.6Z" stroke="#1D1E21" stroke-width="1.75" stroke-linecap="round" stroke-linejoin="round"/>
</svg>
