<svg width="25" height="24" viewBox="0 0 25 24" fill="none" xmlns="http://www.w3.org/2000/svg">
<path d="M6.03207 12.974C4.79464 10.8771 3.98101 8.43264 3.65969 5.70916C3.51859 4.51323 4.25995 3.25377 5.52209 3.04738C5.9187 2.98252 6.40907 2.99232 6.81243 3.0287C8.49557 3.18051 9.19134 4.6661 9.56071 6.10803C10.0553 8.03869 9.45278 10.0852 7.99109 11.4397C7.38622 12.0002 6.68531 12.4721 6.03207 12.974ZM6.03207 12.974C7.34882 15.2053 9.14544 17.043 11.3394 18.4047M11.3394 18.4047C13.5035 19.7478 16.0541 20.6276 18.9121 20.965C20.1082 21.1062 21.3671 20.3643 21.5734 19.1022C21.6442 18.6693 21.6358 18.1714 21.5842 17.7362C21.3747 15.9658 19.6702 15.2967 18.1492 14.9479C16.416 14.5505 14.5981 15.0271 13.2826 16.2238C12.5686 16.8733 11.9713 17.6768 11.3394 18.4047ZM14.6247 7H17.6247M17.6247 7H20.6247M17.6247 7V4M17.6247 7L17.6247 10" stroke="#1D1E21" stroke-width="1.75" stroke-linecap="round" stroke-linejoin="round"/>
</svg>
