<svg width="25" height="24" viewBox="0 0 25 24" fill="none" xmlns="http://www.w3.org/2000/svg">
<path d="M16.875 21H11.875M2.875 14L2.875 7M5.875 15.4V5.6C5.875 5.03995 5.875 4.75992 5.98399 4.54601C6.07987 4.35785 6.23285 4.20487 6.42101 4.10899C6.63492 4 6.91495 4 7.475 4H20.275C20.8351 4 21.1151 4 21.329 4.10899C21.5172 4.20487 21.6701 4.35785 21.766 4.54601C21.875 4.75992 21.875 5.03995 21.875 5.6V15.4C21.875 15.9601 21.875 16.2401 21.766 16.454C21.6701 16.6422 21.5172 16.7951 21.329 16.891C21.1151 17 20.8351 17 20.275 17H7.475C6.91495 17 6.63492 17 6.42101 16.891C6.23285 16.7951 6.07987 16.6422 5.98399 16.454C5.875 16.2401 5.875 15.9601 5.875 15.4Z" stroke="#1D1E21" stroke-width="1.75" stroke-linecap="round" stroke-linejoin="round"/>
</svg>
