<svg width="25" height="24" viewBox="0 0 25 24" fill="none" xmlns="http://www.w3.org/2000/svg">
<path d="M5.53207 12.974C4.29464 10.8771 3.48101 8.43264 3.15969 5.70916C3.01859 4.51323 3.75995 3.25377 5.02209 3.04738C5.4187 2.98252 5.90907 2.99232 6.31243 3.0287C7.99557 3.18051 8.69134 4.6661 9.06071 6.10803C9.55526 8.03869 8.95278 10.0852 7.49109 11.4397C6.88622 12.0002 6.18531 12.4721 5.53207 12.974ZM5.53207 12.974C6.84882 15.2053 8.64544 17.043 10.8394 18.4047M10.8394 18.4047C13.0035 19.7478 15.5541 20.6276 18.4121 20.965C19.6082 21.1062 20.8671 20.3643 21.0734 19.1022C21.1442 18.6693 21.1358 18.1714 21.0842 17.7362C20.8747 15.9658 19.1702 15.2967 17.6492 14.9479C15.916 14.5505 14.0981 15.0271 12.7826 16.2238C12.0686 16.8733 11.4713 17.6768 10.8394 18.4047ZM14.1247 7H20.1247" stroke="#1D1E21" stroke-width="1.75" stroke-linecap="round" stroke-linejoin="round"/>
</svg>
