<svg width="24" height="24" viewBox="0 0 24 24" fill="none" xmlns="http://www.w3.org/2000/svg">
<g id="Phone/outgoing">
<path id="Vector" d="M5.40707 12.974C4.16964 10.8771 3.35601 8.43264 3.03469 5.70916C2.89359 4.51323 3.63495 3.25377 4.89709 3.04738C5.2937 2.98252 5.78407 2.99232 6.18743 3.0287C7.87057 3.18051 8.56634 4.6661 8.93571 6.10803C9.43026 8.03869 8.82778 10.0852 7.36609 11.4397C6.76122 12.0002 6.06031 12.4721 5.40707 12.974ZM5.40707 12.974C6.72382 15.2053 8.52044 17.043 10.7144 18.4047M10.7144 18.4047C12.8785 19.7478 15.4291 20.6276 18.2871 20.965C19.4832 21.1062 20.7421 20.3643 20.9484 19.1022C21.0192 18.6693 21.0108 18.1714 20.9592 17.7362C20.7497 15.9658 19.0452 15.2967 17.5242 14.9479C15.791 14.5505 13.9731 15.0271 12.6576 16.2238C11.9436 16.8733 11.3463 17.6768 10.7144 18.4047ZM19.8885 8.35286C20.0378 7.14689 20.0354 5.92184 19.8818 4.70599C19.8621 4.55007 19.7928 4.41266 19.6894 4.3093M15.6459 4.11021C16.8519 3.96096 18.0769 3.96339 19.2928 4.11695C19.4487 4.13664 19.5861 4.20594 19.6894 4.3093M14.7397 9.25905L19.6894 4.3093" stroke="white" stroke-width="2" stroke-linecap="round" stroke-linejoin="round"/>
</g>
</svg>
