<svg width="24" height="25" viewBox="0 0 24 25" fill="none" xmlns="http://www.w3.org/2000/svg">
<path d="M3.0233 12.4607C3.25404 14.7296 5.17027 16.5 7.5 16.5H16.5C18.8297 16.5 20.746 14.7296 20.9767 12.4607M3.0233 12.4607C3 12.9943 3 13.6501 3 14.5C3 16.3613 3 17.2919 3.24472 18.0451C3.73931 19.5673 4.93273 20.7607 6.45492 21.2553C7.20808 21.5 8.13872 21.5 10 21.5H14C15.8613 21.5 16.7919 21.5 17.5451 21.2553C19.0673 20.7607 20.2607 19.5673 20.7553 18.0451C21 17.2919 21 16.3613 21 14.5C21 13.6501 21 12.9943 20.9767 12.4607M3.0233 12.4607C3.05102 11.8258 3.11174 11.3642 3.24472 10.9549C3.73931 9.43273 4.93273 8.23931 6.45492 7.74472C6.87256 7.60902 7.34478 7.54856 8 7.52163M20.9767 12.4607C20.949 11.8258 20.8883 11.3642 20.7553 10.9549C20.2607 9.43273 19.0673 8.23931 17.5451 7.74472C17.1274 7.60902 16.6552 7.54856 16 7.52163M16 7.52163V7.5C16 6.57003 16 6.10504 15.8978 5.72354C15.6204 4.68827 14.8117 3.87962 13.7765 3.60222C13.395 3.5 12.93 3.5 12 3.5C11.07 3.5 10.605 3.5 10.2235 3.60222C9.18827 3.87962 8.37962 4.68827 8.10222 5.72354C8 6.10504 8 6.57003 8 7.5V7.52163M16 7.52163C15.4736 7.5 14.8292 7.5 14 7.5H10C9.17084 7.5 8.52637 7.5 8 7.52163M12 15.5V17.5" stroke="#BB1865" stroke-width="2" stroke-linecap="round" stroke-linejoin="round"/>
</svg>
