<svg width="24" height="25" viewBox="0 0 24 25" fill="none" xmlns="http://www.w3.org/2000/svg">
<path d="M12 8.5V12.5M12 12.5L18.4701 6.02991M12 12.5L5.53003 18.97M22 2.5L18.4701 6.02991M18.4701 6.02991C16.8143 4.37411 14.5268 3.34998 12.0001 3.34998C6.94669 3.34998 2.8501 7.44657 2.8501 12.5C2.8501 15.0267 3.87423 17.3141 5.53003 18.97M5.53003 18.97L2 22.5M9.00521 21.1486C9.94357 21.4735 10.9512 21.65 12.0001 21.65C17.0535 21.65 21.1501 17.5534 21.1501 12.5C21.1501 11.4511 20.9736 10.4434 20.6487 9.50508M14.7884 15.3654L15 15.5" stroke="#BB1865" stroke-width="2" stroke-linecap="round" stroke-linejoin="round"/>
</svg>
