<svg width="24" height="25" viewBox="0 0 24 25" fill="none" xmlns="http://www.w3.org/2000/svg">
<path d="M5 3.5L5 21.5M6.4719 14.0167C8.2565 13.4141 10.2137 13.604 11.8491 14.5385C13.4338 15.4441 15.3231 15.6518 17.0666 15.1121L18.376 14.7068C18.747 14.592 19 14.2488 19 13.8604V4.98517C19 4.09568 17.3336 4.91833 16.9549 5.03557C15.2894 5.55107 13.4824 5.3202 12 4.40255C10.5176 3.48491 8.71058 3.25404 7.04513 3.76954L5.59885 4.21719C5.24278 4.32741 5 4.65669 5 5.02944V13.9561C5 14.7118 6.13797 14.1294 6.4719 14.0167Z" stroke="#BB1865" stroke-width="2" stroke-linecap="round" stroke-linejoin="round"/>
</svg>
