<svg width="58" height="58" viewBox="0 0 58 58" fill="none" xmlns="http://www.w3.org/2000/svg">
<g id="camera">
<g id="vector">
<path d="M5.63306 26.2839C5.63306 19.6491 5.63306 16.3317 6.92538 13.7975C8.06215 11.5684 9.87603 9.7561 12.1071 8.62032C14.6434 7.3291 17.9636 7.3291 24.6041 7.3291H34.0897C40.7302 7.3291 44.0504 7.3291 46.5868 8.62032C48.8178 9.7561 50.6317 11.5684 51.7684 13.7975C53.0608 16.3317 53.0608 19.6491 53.0608 26.2839V31.0226C53.0608 37.6574 53.0608 40.9748 51.7684 43.5089C50.6317 45.738 48.8178 47.5503 46.5868 48.6861C44.0504 49.9773 40.7302 49.9773 34.0897 49.9773H24.6041C17.9636 49.9773 14.6434 49.9773 12.1071 48.6861C9.87603 47.5503 8.06215 45.738 6.92538 43.5089C5.63306 40.9748 5.63306 37.6574 5.63306 31.0226V26.2839Z" stroke="white" stroke-width="6" stroke-linecap="round" stroke-linejoin="round"/>
<path d="M38.8324 28.6532C38.8324 33.8874 34.5856 38.1306 29.3469 38.1306C24.1082 38.1306 19.8614 33.8874 19.8614 28.6532C19.8614 23.419 24.1082 19.1758 29.3469 19.1758C34.5856 19.1758 38.8324 23.419 38.8324 28.6532Z" stroke="white" stroke-width="6" stroke-linecap="round" stroke-linejoin="round"/>
</g>
</g>
</svg>
