<svg width="48" height="40" viewBox="0 0 48 40" fill="none" xmlns="http://www.w3.org/2000/svg">
<rect width="48" height="40" rx="4" fill="white"/>
<rect x="0.5" y="0.5" width="47" height="39" rx="3.5" stroke="black" stroke-opacity="0.1"/>
<path d="M17.4073 20.974C16.1699 18.8771 15.3563 16.4326 15.0349 13.7092C14.8938 12.5132 15.6352 11.2538 16.8973 11.0474C17.2939 10.9825 17.7843 10.9923 18.1877 11.0287C19.8708 11.1805 20.5666 12.6661 20.936 14.108C21.4305 16.0387 20.828 18.0852 19.3663 19.4397C18.7615 20.0002 18.0606 20.4721 17.4073 20.974ZM17.4073 20.974C18.7241 23.2053 20.5207 25.043 22.7146 26.4047M22.7146 26.4047C24.8787 27.7478 27.4294 28.6276 30.2874 28.965C31.4834 29.1062 32.7424 28.3643 32.9487 27.1022C33.0194 26.6693 33.011 26.1714 32.9595 25.7362C32.7499 23.9658 31.0455 23.2967 29.5244 22.9479C27.7912 22.5505 25.9733 23.0271 24.6579 24.2238C23.9438 24.8733 23.3466 25.6768 22.7146 26.4047Z" stroke="#00539F" stroke-width="2" stroke-linecap="round" stroke-linejoin="round"/>
</svg>
