<svg width="24" height="24" viewBox="0 0 24 24" fill="none" xmlns="http://www.w3.org/2000/svg">
<path d="M5.40738 12.974C4.16994 10.8771 3.35631 8.43264 3.03499 5.70916C2.8939 4.51323 3.63525 3.25377 4.89739 3.04738C5.294 2.98252 5.78438 2.99232 6.18774 3.0287C7.87087 3.18051 8.56665 4.6661 8.93601 6.10803C9.43057 8.03869 8.82809 10.0852 7.36639 11.4397C6.76153 12.0002 6.06062 12.4721 5.40738 12.974ZM5.40738 12.974C6.72412 15.2053 8.52074 17.043 10.7147 18.4047M10.7147 18.4047C12.8788 19.7478 15.4294 20.6276 18.2874 20.965C19.4835 21.1062 20.7424 20.3643 20.9487 19.1022C21.0195 18.6693 21.0111 18.1714 20.9595 17.7362C20.75 15.9658 19.0455 15.2967 17.5245 14.9479C15.7913 14.5505 13.9734 15.0271 12.6579 16.2238C11.9439 16.8733 11.3466 17.6768 10.7147 18.4047Z" stroke="#00539F" stroke-width="2" stroke-linecap="round" stroke-linejoin="round"/>
</svg>
