<svg width="24" height="24" viewBox="0 0 24 24" fill="none" xmlns="http://www.w3.org/2000/svg">
<circle cx="12" cy="12" r="12" fill="#4E545F"/>
<path d="M8.41018 9.435H14.9743M8.41018 12.717H11.6922M19.0768 11.076C19.0768 15.1544 15.7706 18.4606 11.6922 18.4606C11.338 18.4606 10.9897 18.4357 10.6488 18.3875C9.66113 18.2478 9.16729 18.178 9.03729 18.1679C8.8261 18.1516 8.90183 18.1543 8.69002 18.1559C8.55966 18.1569 8.41105 18.1675 8.11422 18.1887L6.34739 18.3149C5.64387 18.3652 5.29208 18.3903 5.02903 18.2656C4.7981 18.1561 4.61214 17.9702 4.50265 17.7392C4.37794 17.4762 4.40306 17.1244 4.45332 16.4209L4.57952 14.654C4.60073 14.3571 4.61133 14.2086 4.61234 14.0782C4.61399 13.8664 4.61661 13.9422 4.60033 13.731C4.5903 13.601 4.52046 13.1071 4.38077 12.1195C4.33255 11.7786 4.30762 11.4302 4.30762 11.076C4.30762 6.99761 7.61382 3.69141 11.6922 3.69141C15.7706 3.69141 19.0768 6.99761 19.0768 11.076Z" stroke="white" stroke-width="2" stroke-linecap="round" stroke-linejoin="round"/>
</svg>
