<svg width="20" height="20" viewBox="0 0 20 20" fill="none" xmlns="http://www.w3.org/2000/svg">
<path d="M14.5831 2.06055C15.0075 3.05396 15.3011 4.09779 15.457 5.16585C15.4837 5.34909 15.3814 5.5263 15.2093 5.59476C15.159 5.61477 15.1087 5.63444 15.0581 5.65378M5.41648 17.9377C4.99213 16.9443 4.69853 15.9004 4.54267 14.8324C4.51593 14.6491 4.61824 14.4719 4.7903 14.4035C4.84057 14.3835 4.89097 14.3638 4.94148 14.3444M12.0831 6.39067C13.1019 6.26794 14.101 6.0203 15.0581 5.65378M15.0581 5.65378C14.5809 5.09828 14.0033 4.61255 13.3331 4.22561C10.1445 2.38466 6.06726 3.47716 4.22631 6.66578C3.38094 8.13001 3.15414 9.78162 3.46483 11.318M16.5904 8.99291C16.812 10.4388 16.5616 11.9671 15.7733 13.3324C13.9324 16.5211 9.85509 17.6136 6.66648 15.7726C5.99629 15.3857 5.41869 14.9 4.94148 14.3444M7.91648 13.6076C6.89774 13.7303 5.8986 13.9779 4.94148 14.3444" stroke="white" stroke-width="2" stroke-linecap="round" stroke-linejoin="round"/>
</svg>
