<svg width="14" height="14" viewBox="0 0 14 14" fill="none" xmlns="http://www.w3.org/2000/svg">
<path fill-rule="evenodd" clip-rule="evenodd" d="M12.1223 1.87853C12.163 1.91917 12.1953 1.96745 12.2174 2.0206C12.2394 2.07375 12.2508 2.13074 12.2508 2.18828C12.2508 2.24583 12.2394 2.30281 12.2174 2.35596C12.1953 2.40911 12.163 2.45739 12.1223 2.49803L2.49725 12.123C2.4151 12.2052 2.30368 12.2513 2.1875 12.2513C2.07132 12.2513 1.9599 12.2052 1.87775 12.123C1.7956 12.0409 1.74945 11.9295 1.74945 11.8133C1.74945 11.6971 1.7956 11.5857 1.87775 11.5035L11.5028 1.87853C11.5434 1.83779 11.5917 1.80546 11.6448 1.78341C11.698 1.76135 11.755 1.75 11.8125 1.75C11.8701 1.75 11.927 1.76135 11.9802 1.78341C12.0333 1.80546 12.0816 1.83779 12.1223 1.87853Z" fill="#374151"/>
<path fill-rule="evenodd" clip-rule="evenodd" d="M1.87774 1.87853C1.837 1.91917 1.80467 1.96745 1.78262 2.0206C1.76056 2.07375 1.74921 2.13074 1.74921 2.18828C1.74921 2.24583 1.76056 2.30281 1.78262 2.35596C1.80467 2.40911 1.837 2.45739 1.87774 2.49803L11.5027 12.123C11.5849 12.2052 11.6963 12.2513 11.8125 12.2513C11.9287 12.2513 12.0401 12.2052 12.1222 12.123C12.2044 12.0409 12.2505 11.9295 12.2505 11.8133C12.2505 11.6971 12.2044 11.5857 12.1222 11.5035L2.49724 1.87853C2.4566 1.83779 2.40832 1.80546 2.35517 1.78341C2.30202 1.76135 2.24504 1.75 2.18749 1.75C2.12994 1.75 2.07296 1.76135 2.01981 1.78341C1.96666 1.80546 1.91838 1.83779 1.87774 1.87853Z" fill="#374151"/>
</svg>
