<svg width="24" height="24" viewBox="0 0 24 24" fill="none" xmlns="http://www.w3.org/2000/svg">
<path d="M9.99963 15.8115C9.25939 14.8246 8.40064 13.9332 7.44321 13.1574C7.31372 13.0525 7.15668 13 6.99964 13M3.99964 15.8115C4.73988 14.8246 5.59863 13.9332 6.55606 13.1574C6.68555 13.0525 6.8426 13 6.99964 13M6.99964 13L6.99963 21M19.9996 8.18848C19.2594 9.17547 18.4006 10.0668 17.4432 10.8426C17.3137 10.9475 17.1567 11 16.9996 11M13.9996 8.18848C14.7399 9.17547 15.5986 10.0668 16.5561 10.8426C16.6856 10.9475 16.8426 11 16.9996 11M16.9996 11L16.9996 3.00001M6.99961 2.85004C5.25991 2.85004 3.84961 4.26034 3.84961 6.00004C3.84961 7.73973 5.25991 9.15004 6.99961 9.15004C8.73931 9.15004 10.1496 7.73973 10.1496 6.00004C10.1496 4.26034 8.73931 2.85004 6.99961 2.85004ZM16.9996 14.85C15.2599 14.85 13.8496 16.2603 13.8496 18C13.8496 19.7397 15.2599 21.15 16.9996 21.15C18.7393 21.15 20.1496 19.7397 20.1496 18C20.1496 16.2603 18.7393 14.85 16.9996 14.85Z" stroke="#303A47" stroke-width="2" stroke-linecap="round" stroke-linejoin="round"/>
</svg>
