<svg width="20" height="20" viewBox="0 0 20 20" fill="none" xmlns="http://www.w3.org/2000/svg">
<g opacity="0.5">
<path d="M7.77782 16.4529C6.46036 16.6735 5.12898 16.7235 3.81694 16.6022C3.70438 16.5918 3.60482 16.5433 3.5308 16.4692C3.45677 16.3952 3.40828 16.2957 3.39787 16.1831C3.27649 14.8711 3.32653 13.5397 3.54714 12.2222M12.2223 16.4529C13.5397 16.6735 14.8711 16.7235 16.1831 16.6022C16.2957 16.5918 16.3953 16.5433 16.4693 16.4692C16.5433 16.3952 16.5918 16.2957 16.6022 16.1831C16.7236 14.8711 16.6736 13.5397 16.4529 12.2222M3.54714 7.77777C3.32653 6.46032 3.27649 5.12894 3.39787 3.81689C3.40828 3.70434 3.45678 3.60478 3.5308 3.53075C3.60482 3.45673 3.70438 3.40824 3.81693 3.39783C5.12898 3.27645 6.46036 3.32648 7.77782 3.54709M12.2223 3.54709C13.5397 3.32648 14.8711 3.27645 16.1831 3.39783C16.2957 3.40824 16.3953 3.45673 16.4693 3.53075C16.5433 3.60478 16.5918 3.70434 16.6022 3.81689C16.7236 5.12894 16.6736 6.46032 16.4529 7.77777" stroke="#4E545F" stroke-width="2" stroke-linecap="round" stroke-linejoin="round"/>
</g>
</svg>
