<svg width="115" height="172" viewBox="0 0 115 172" fill="none" xmlns="http://www.w3.org/2000/svg">
<path d="M0 9.74029V15.0365L26.1197 0H16.9197L0 9.74029Z" fill="#F2F3F4"/>
<path d="M41.8179 0L0 24.0736V29.3698L51.0179 0H41.8179Z" fill="#F2F3F4"/>
<path d="M66.7162 0L0 38.407V43.7032L75.9162 0H66.7162Z" fill="#F2F3F4"/>
<path d="M91.6144 0L0 52.7403V58.0365L100.814 0H91.6144Z" fill="#F2F3F4"/>
<path d="M115 0.870791L0 67.0736V72.3699L115 6.16702V0.870791Z" fill="#F2F3F4"/>
<path d="M115 15.2041L0 81.407V86.7032L115 20.5003V15.2041Z" fill="#F2F3F4"/>
<path d="M115 29.5375L0 95.7403V101.037L115 34.8337V29.5375Z" fill="#F2F3F4"/>
<path d="M115 43.8708L0 110.074V115.37L115 49.167V43.8708Z" fill="#F2F3F4"/>
<path d="M115 58.2041L0 124.407V129.703L115 63.5003V58.2041Z" fill="#F2F3F4"/>
<path d="M115 72.5375L0 138.74V144.037L115 77.8337V72.5375Z" fill="#F2F3F4"/>
<path d="M115 86.8708L0 153.074V158.37L115 92.167V86.8708Z" fill="#F2F3F4"/>
<path d="M115 101.204L0 167.407V172H1.22147L115 106.5V101.204Z" fill="#F2F3F4"/>
<path d="M115 115.537L16.9197 172H26.1197L115 120.834V115.537Z" fill="#F2F3F4"/>
<path d="M115 129.871L41.818 172H51.0179L115 135.167V129.871Z" fill="#F2F3F4"/>
<path d="M115 144.204L66.7162 172H75.9162L115 149.5V144.204Z" fill="#F2F3F4"/>
<path d="M115 158.537L91.6144 172H100.814L115 163.834V158.537Z" fill="#F2F3F4"/>
</svg>
