<svg width="173" height="217" viewBox="0 0 173 217" fill="none" xmlns="http://www.w3.org/2000/svg">
<path d="M158 86.5C158 125.988 125.988 158 86.5 158C47.0116 158 15 125.988 15 86.5C15 47.0116 47.0116 15 86.5 15C125.988 15 158 47.0116 158 86.5Z" stroke="#F2F3F4" stroke-width="30"/>
<path d="M157.286 137.187C157.574 137.686 157.855 138.19 158.127 138.698C157.632 138.374 157.301 137.82 157.286 137.187Z" fill="url(#paint0_linear_385_9447)"/>
<path d="M147.117 124.366C147.983 125.178 148.822 126.017 149.634 126.883C149.32 127.463 148.706 127.857 148 127.857C146.974 127.857 146.143 127.026 146.143 126C146.143 125.294 146.537 124.68 147.117 124.366Z" fill="url(#paint1_linear_385_9447)"/>
<path d="M135.302 115.873C135.81 116.145 136.314 116.426 136.813 116.714C136.18 116.699 135.626 116.368 135.302 115.873Z" fill="url(#paint2_linear_385_9447)"/>
<path d="M81.187 116.714C81.6859 116.426 82.1896 116.145 82.6981 115.873C82.374 116.368 81.8196 116.699 81.187 116.714Z" fill="url(#paint3_linear_385_9447)"/>
<path d="M68.3655 126.883C69.1777 126.017 70.0171 125.178 70.8825 124.366C71.4629 124.68 71.8571 125.294 71.8571 126C71.8571 127.026 71.0257 127.857 70 127.857C69.2938 127.857 68.6796 127.463 68.3655 126.883Z" fill="url(#paint4_linear_385_9447)"/>
<path d="M59.8726 138.698C60.1454 138.19 60.4258 137.686 60.7138 137.187C60.699 137.82 60.3679 138.374 59.8726 138.698Z" fill="url(#paint5_linear_385_9447)"/>
<path d="M158.127 191.302C157.855 191.81 157.574 192.314 157.286 192.813C157.301 192.18 157.632 191.626 158.127 191.302Z" fill="url(#paint6_linear_385_9447)"/>
<path d="M149.634 203.117C149.32 202.537 148.706 202.143 148 202.143C146.974 202.143 146.143 202.974 146.143 204C146.143 204.706 146.537 205.32 147.117 205.634C147.983 204.822 148.822 203.983 149.634 203.117Z" fill="url(#paint7_linear_385_9447)"/>
<path d="M136.813 213.286C136.18 213.301 135.626 213.632 135.302 214.127C135.81 213.855 136.314 213.574 136.813 213.286Z" fill="url(#paint8_linear_385_9447)"/>
<path d="M82.6981 214.127C82.374 213.632 81.8196 213.301 81.187 213.286C81.6859 213.574 82.1896 213.855 82.6981 214.127Z" fill="url(#paint9_linear_385_9447)"/>
<path d="M70.8825 205.634C71.4629 205.32 71.8571 204.706 71.8571 204C71.8571 202.974 71.0257 202.143 70 202.143C69.2938 202.143 68.6796 202.537 68.3655 203.117C69.1777 203.983 70.0171 204.822 70.8825 205.634Z" fill="url(#paint10_linear_385_9447)"/>
<path d="M60.7138 192.813C60.699 192.18 60.3679 191.626 59.8726 191.302C60.1454 191.81 60.4258 192.314 60.7138 192.813Z" fill="url(#paint11_linear_385_9447)"/>
<path d="M94.1429 114.857C94.1429 115.883 93.3114 116.714 92.2857 116.714C91.26 116.714 90.4286 115.883 90.4286 114.857C90.4286 113.831 91.26 113 92.2857 113C93.3114 113 94.1429 113.831 94.1429 114.857Z" fill="url(#paint12_linear_385_9447)"/>
<path d="M105.286 114.857C105.286 115.883 104.454 116.714 103.429 116.714C102.403 116.714 101.571 115.883 101.571 114.857C101.571 113.831 102.403 113 103.429 113C104.454 113 105.286 113.831 105.286 114.857Z" fill="url(#paint13_linear_385_9447)"/>
<path d="M116.429 114.857C116.429 115.883 115.597 116.714 114.571 116.714C113.546 116.714 112.714 115.883 112.714 114.857C112.714 113.831 113.546 113 114.571 113C115.597 113 116.429 113.831 116.429 114.857Z" fill="url(#paint14_linear_385_9447)"/>
<path d="M127.571 114.857C127.571 115.883 126.74 116.714 125.714 116.714C124.689 116.714 123.857 115.883 123.857 114.857C123.857 113.831 124.689 113 125.714 113C126.74 113 127.571 113.831 127.571 114.857Z" fill="url(#paint15_linear_385_9447)"/>
<path d="M83 126C83 127.026 82.1685 127.857 81.1429 127.857C80.1172 127.857 79.2857 127.026 79.2857 126C79.2857 124.974 80.1172 124.143 81.1429 124.143C82.1685 124.143 83 124.974 83 126Z" fill="url(#paint16_linear_385_9447)"/>
<path d="M94.1429 126C94.1429 127.026 93.3114 127.857 92.2857 127.857C91.26 127.857 90.4286 127.026 90.4286 126C90.4286 124.974 91.26 124.143 92.2857 124.143C93.3114 124.143 94.1429 124.974 94.1429 126Z" fill="url(#paint17_linear_385_9447)"/>
<path d="M105.286 126C105.286 127.026 104.454 127.857 103.429 127.857C102.403 127.857 101.571 127.026 101.571 126C101.571 124.974 102.403 124.143 103.429 124.143C104.454 124.143 105.286 124.974 105.286 126Z" fill="url(#paint18_linear_385_9447)"/>
<path d="M116.429 126C116.429 127.026 115.597 127.857 114.571 127.857C113.546 127.857 112.714 127.026 112.714 126C112.714 124.974 113.546 124.143 114.571 124.143C115.597 124.143 116.429 124.974 116.429 126Z" fill="url(#paint19_linear_385_9447)"/>
<path d="M127.571 126C127.571 127.026 126.74 127.857 125.714 127.857C124.689 127.857 123.857 127.026 123.857 126C123.857 124.974 124.689 124.143 125.714 124.143C126.74 124.143 127.571 124.974 127.571 126Z" fill="url(#paint20_linear_385_9447)"/>
<path d="M138.714 126C138.714 127.026 137.883 127.857 136.857 127.857C135.831 127.857 135 127.026 135 126C135 124.974 135.831 124.143 136.857 124.143C137.883 124.143 138.714 124.974 138.714 126Z" fill="url(#paint21_linear_385_9447)"/>
<path d="M71.8571 137.143C71.8571 138.169 71.0257 139 70 139C68.9743 139 68.1429 138.169 68.1429 137.143C68.1429 136.117 68.9743 135.286 70 135.286C71.0257 135.286 71.8571 136.117 71.8571 137.143Z" fill="url(#paint22_linear_385_9447)"/>
<path d="M83 137.143C83 138.169 82.1685 139 81.1429 139C80.1172 139 79.2857 138.169 79.2857 137.143C79.2857 136.117 80.1172 135.286 81.1429 135.286C82.1685 135.286 83 136.117 83 137.143Z" fill="url(#paint23_linear_385_9447)"/>
<path d="M94.1429 137.143C94.1429 138.169 93.3114 139 92.2857 139C91.26 139 90.4286 138.169 90.4286 137.143C90.4286 136.117 91.26 135.286 92.2857 135.286C93.3114 135.286 94.1429 136.117 94.1429 137.143Z" fill="url(#paint24_linear_385_9447)"/>
<path d="M105.286 137.143C105.286 138.169 104.454 139 103.429 139C102.403 139 101.571 138.169 101.571 137.143C101.571 136.117 102.403 135.286 103.429 135.286C104.454 135.286 105.286 136.117 105.286 137.143Z" fill="url(#paint25_linear_385_9447)"/>
<path d="M116.429 137.143C116.429 138.169 115.597 139 114.571 139C113.546 139 112.714 138.169 112.714 137.143C112.714 136.117 113.546 135.286 114.571 135.286C115.597 135.286 116.429 136.117 116.429 137.143Z" fill="url(#paint26_linear_385_9447)"/>
<path d="M127.571 137.143C127.571 138.169 126.74 139 125.714 139C124.689 139 123.857 138.169 123.857 137.143C123.857 136.117 124.689 135.286 125.714 135.286C126.74 135.286 127.571 136.117 127.571 137.143Z" fill="url(#paint27_linear_385_9447)"/>
<path d="M138.714 137.143C138.714 138.169 137.883 139 136.857 139C135.831 139 135 138.169 135 137.143C135 136.117 135.831 135.286 136.857 135.286C137.883 135.286 138.714 136.117 138.714 137.143Z" fill="url(#paint28_linear_385_9447)"/>
<path d="M149.857 137.143C149.857 138.169 149.026 139 148 139C146.974 139 146.143 138.169 146.143 137.143C146.143 136.117 146.974 135.286 148 135.286C149.026 135.286 149.857 136.117 149.857 137.143Z" fill="url(#paint29_linear_385_9447)"/>
<path d="M60.7143 148.286C60.7143 149.311 59.8828 150.143 58.8571 150.143C57.8315 150.143 57 149.311 57 148.286C57 147.26 57.8315 146.429 58.8571 146.429C59.8828 146.429 60.7143 147.26 60.7143 148.286Z" fill="url(#paint30_linear_385_9447)"/>
<path d="M71.8571 148.286C71.8571 149.311 71.0257 150.143 70 150.143C68.9743 150.143 68.1429 149.311 68.1429 148.286C68.1429 147.26 68.9743 146.429 70 146.429C71.0257 146.429 71.8571 147.26 71.8571 148.286Z" fill="url(#paint31_linear_385_9447)"/>
<path d="M83 148.286C83 149.311 82.1685 150.143 81.1429 150.143C80.1172 150.143 79.2857 149.311 79.2857 148.286C79.2857 147.26 80.1172 146.429 81.1429 146.429C82.1685 146.429 83 147.26 83 148.286Z" fill="url(#paint32_linear_385_9447)"/>
<path d="M94.1429 148.286C94.1429 149.311 93.3114 150.143 92.2857 150.143C91.26 150.143 90.4286 149.311 90.4286 148.286C90.4286 147.26 91.26 146.429 92.2857 146.429C93.3114 146.429 94.1429 147.26 94.1429 148.286Z" fill="url(#paint33_linear_385_9447)"/>
<path d="M105.286 148.286C105.286 149.311 104.454 150.143 103.429 150.143C102.403 150.143 101.571 149.311 101.571 148.286C101.571 147.26 102.403 146.429 103.429 146.429C104.454 146.429 105.286 147.26 105.286 148.286Z" fill="url(#paint34_linear_385_9447)"/>
<path d="M116.429 148.286C116.429 149.311 115.597 150.143 114.571 150.143C113.546 150.143 112.714 149.311 112.714 148.286C112.714 147.26 113.546 146.429 114.571 146.429C115.597 146.429 116.429 147.26 116.429 148.286Z" fill="url(#paint35_linear_385_9447)"/>
<path d="M127.571 148.286C127.571 149.311 126.74 150.143 125.714 150.143C124.689 150.143 123.857 149.311 123.857 148.286C123.857 147.26 124.689 146.429 125.714 146.429C126.74 146.429 127.571 147.26 127.571 148.286Z" fill="url(#paint36_linear_385_9447)"/>
<path d="M138.714 148.286C138.714 149.311 137.883 150.143 136.857 150.143C135.831 150.143 135 149.311 135 148.286C135 147.26 135.831 146.429 136.857 146.429C137.883 146.429 138.714 147.26 138.714 148.286Z" fill="url(#paint37_linear_385_9447)"/>
<path d="M149.857 148.286C149.857 149.311 149.026 150.143 148 150.143C146.974 150.143 146.143 149.311 146.143 148.286C146.143 147.26 146.974 146.429 148 146.429C149.026 146.429 149.857 147.26 149.857 148.286Z" fill="url(#paint38_linear_385_9447)"/>
<path d="M161 148.286C161 149.311 160.169 150.143 159.143 150.143C158.117 150.143 157.286 149.311 157.286 148.286C157.286 147.26 158.117 146.429 159.143 146.429C160.169 146.429 161 147.26 161 148.286Z" fill="url(#paint39_linear_385_9447)"/>
<path d="M60.7143 159.429C60.7143 160.454 59.8828 161.286 58.8571 161.286C57.8315 161.286 57 160.454 57 159.429C57 158.403 57.8315 157.571 58.8571 157.571C59.8828 157.571 60.7143 158.403 60.7143 159.429Z" fill="url(#paint40_linear_385_9447)"/>
<path d="M71.8571 159.429C71.8571 160.454 71.0257 161.286 70 161.286C68.9743 161.286 68.1429 160.454 68.1429 159.429C68.1429 158.403 68.9743 157.571 70 157.571C71.0257 157.571 71.8571 158.403 71.8571 159.429Z" fill="url(#paint41_linear_385_9447)"/>
<path d="M83 159.429C83 160.454 82.1685 161.286 81.1429 161.286C80.1172 161.286 79.2857 160.454 79.2857 159.429C79.2857 158.403 80.1172 157.571 81.1429 157.571C82.1685 157.571 83 158.403 83 159.429Z" fill="url(#paint42_linear_385_9447)"/>
<path d="M94.1429 159.429C94.1429 160.454 93.3114 161.286 92.2857 161.286C91.26 161.286 90.4286 160.454 90.4286 159.429C90.4286 158.403 91.26 157.571 92.2857 157.571C93.3114 157.571 94.1429 158.403 94.1429 159.429Z" fill="url(#paint43_linear_385_9447)"/>
<path d="M105.286 159.429C105.286 160.454 104.454 161.286 103.429 161.286C102.403 161.286 101.571 160.454 101.571 159.429C101.571 158.403 102.403 157.571 103.429 157.571C104.454 157.571 105.286 158.403 105.286 159.429Z" fill="url(#paint44_linear_385_9447)"/>
<path d="M116.429 159.429C116.429 160.454 115.597 161.286 114.571 161.286C113.546 161.286 112.714 160.454 112.714 159.429C112.714 158.403 113.546 157.571 114.571 157.571C115.597 157.571 116.429 158.403 116.429 159.429Z" fill="url(#paint45_linear_385_9447)"/>
<path d="M127.571 159.429C127.571 160.454 126.74 161.286 125.714 161.286C124.689 161.286 123.857 160.454 123.857 159.429C123.857 158.403 124.689 157.571 125.714 157.571C126.74 157.571 127.571 158.403 127.571 159.429Z" fill="url(#paint46_linear_385_9447)"/>
<path d="M138.714 159.429C138.714 160.454 137.883 161.286 136.857 161.286C135.831 161.286 135 160.454 135 159.429C135 158.403 135.831 157.571 136.857 157.571C137.883 157.571 138.714 158.403 138.714 159.429Z" fill="url(#paint47_linear_385_9447)"/>
<path d="M149.857 159.429C149.857 160.454 149.026 161.286 148 161.286C146.974 161.286 146.143 160.454 146.143 159.429C146.143 158.403 146.974 157.571 148 157.571C149.026 157.571 149.857 158.403 149.857 159.429Z" fill="url(#paint48_linear_385_9447)"/>
<path d="M161 159.429C161 160.454 160.169 161.286 159.143 161.286C158.117 161.286 157.286 160.454 157.286 159.429C157.286 158.403 158.117 157.571 159.143 157.571C160.169 157.571 161 158.403 161 159.429Z" fill="url(#paint49_linear_385_9447)"/>
<path d="M60.7143 170.571C60.7143 171.597 59.8828 172.429 58.8571 172.429C57.8315 172.429 57 171.597 57 170.571C57 169.546 57.8315 168.714 58.8571 168.714C59.8828 168.714 60.7143 169.546 60.7143 170.571Z" fill="url(#paint50_linear_385_9447)"/>
<path d="M71.8571 170.571C71.8571 171.597 71.0257 172.429 70 172.429C68.9743 172.429 68.1429 171.597 68.1429 170.571C68.1429 169.546 68.9743 168.714 70 168.714C71.0257 168.714 71.8571 169.546 71.8571 170.571Z" fill="url(#paint51_linear_385_9447)"/>
<path d="M83 170.571C83 171.597 82.1685 172.429 81.1429 172.429C80.1172 172.429 79.2857 171.597 79.2857 170.571C79.2857 169.546 80.1172 168.714 81.1429 168.714C82.1685 168.714 83 169.546 83 170.571Z" fill="url(#paint52_linear_385_9447)"/>
<path d="M94.1429 170.571C94.1429 171.597 93.3114 172.429 92.2857 172.429C91.26 172.429 90.4286 171.597 90.4286 170.571C90.4286 169.546 91.26 168.714 92.2857 168.714C93.3114 168.714 94.1429 169.546 94.1429 170.571Z" fill="url(#paint53_linear_385_9447)"/>
<path d="M105.286 170.571C105.286 171.597 104.454 172.429 103.429 172.429C102.403 172.429 101.571 171.597 101.571 170.571C101.571 169.546 102.403 168.714 103.429 168.714C104.454 168.714 105.286 169.546 105.286 170.571Z" fill="url(#paint54_linear_385_9447)"/>
<path d="M116.429 170.571C116.429 171.597 115.597 172.429 114.571 172.429C113.546 172.429 112.714 171.597 112.714 170.571C112.714 169.546 113.546 168.714 114.571 168.714C115.597 168.714 116.429 169.546 116.429 170.571Z" fill="url(#paint55_linear_385_9447)"/>
<path d="M127.571 170.571C127.571 171.597 126.74 172.429 125.714 172.429C124.689 172.429 123.857 171.597 123.857 170.571C123.857 169.546 124.689 168.714 125.714 168.714C126.74 168.714 127.571 169.546 127.571 170.571Z" fill="url(#paint56_linear_385_9447)"/>
<path d="M138.714 170.571C138.714 171.597 137.883 172.429 136.857 172.429C135.831 172.429 135 171.597 135 170.571C135 169.546 135.831 168.714 136.857 168.714C137.883 168.714 138.714 169.546 138.714 170.571Z" fill="url(#paint57_linear_385_9447)"/>
<path d="M149.857 170.571C149.857 171.597 149.026 172.429 148 172.429C146.974 172.429 146.143 171.597 146.143 170.571C146.143 169.546 146.974 168.714 148 168.714C149.026 168.714 149.857 169.546 149.857 170.571Z" fill="url(#paint58_linear_385_9447)"/>
<path d="M161 170.571C161 171.597 160.169 172.429 159.143 172.429C158.117 172.429 157.286 171.597 157.286 170.571C157.286 169.546 158.117 168.714 159.143 168.714C160.169 168.714 161 169.546 161 170.571Z" fill="url(#paint59_linear_385_9447)"/>
<path d="M60.7143 181.714C60.7143 182.74 59.8828 183.571 58.8571 183.571C57.8315 183.571 57 182.74 57 181.714C57 180.689 57.8315 179.857 58.8571 179.857C59.8828 179.857 60.7143 180.689 60.7143 181.714Z" fill="url(#paint60_linear_385_9447)"/>
<path d="M71.8571 181.714C71.8571 182.74 71.0257 183.571 70 183.571C68.9743 183.571 68.1429 182.74 68.1429 181.714C68.1429 180.689 68.9743 179.857 70 179.857C71.0257 179.857 71.8571 180.689 71.8571 181.714Z" fill="url(#paint61_linear_385_9447)"/>
<path d="M83 181.714C83 182.74 82.1685 183.571 81.1429 183.571C80.1172 183.571 79.2857 182.74 79.2857 181.714C79.2857 180.689 80.1172 179.857 81.1429 179.857C82.1685 179.857 83 180.689 83 181.714Z" fill="url(#paint62_linear_385_9447)"/>
<path d="M94.1429 181.714C94.1429 182.74 93.3114 183.571 92.2857 183.571C91.26 183.571 90.4286 182.74 90.4286 181.714C90.4286 180.689 91.26 179.857 92.2857 179.857C93.3114 179.857 94.1429 180.689 94.1429 181.714Z" fill="url(#paint63_linear_385_9447)"/>
<path d="M105.286 181.714C105.286 182.74 104.454 183.571 103.429 183.571C102.403 183.571 101.571 182.74 101.571 181.714C101.571 180.689 102.403 179.857 103.429 179.857C104.454 179.857 105.286 180.689 105.286 181.714Z" fill="url(#paint64_linear_385_9447)"/>
<path d="M116.429 181.714C116.429 182.74 115.597 183.571 114.571 183.571C113.546 183.571 112.714 182.74 112.714 181.714C112.714 180.689 113.546 179.857 114.571 179.857C115.597 179.857 116.429 180.689 116.429 181.714Z" fill="url(#paint65_linear_385_9447)"/>
<path d="M127.571 181.714C127.571 182.74 126.74 183.571 125.714 183.571C124.689 183.571 123.857 182.74 123.857 181.714C123.857 180.689 124.689 179.857 125.714 179.857C126.74 179.857 127.571 180.689 127.571 181.714Z" fill="url(#paint66_linear_385_9447)"/>
<path d="M138.714 181.714C138.714 182.74 137.883 183.571 136.857 183.571C135.831 183.571 135 182.74 135 181.714C135 180.689 135.831 179.857 136.857 179.857C137.883 179.857 138.714 180.689 138.714 181.714Z" fill="url(#paint67_linear_385_9447)"/>
<path d="M149.857 181.714C149.857 182.74 149.026 183.571 148 183.571C146.974 183.571 146.143 182.74 146.143 181.714C146.143 180.689 146.974 179.857 148 179.857C149.026 179.857 149.857 180.689 149.857 181.714Z" fill="url(#paint68_linear_385_9447)"/>
<path d="M161 181.714C161 182.74 160.169 183.571 159.143 183.571C158.117 183.571 157.286 182.74 157.286 181.714C157.286 180.689 158.117 179.857 159.143 179.857C160.169 179.857 161 180.689 161 181.714Z" fill="url(#paint69_linear_385_9447)"/>
<path d="M71.8571 192.857C71.8571 193.883 71.0257 194.714 70 194.714C68.9743 194.714 68.1429 193.883 68.1429 192.857C68.1429 191.831 68.9743 191 70 191C71.0257 191 71.8571 191.831 71.8571 192.857Z" fill="url(#paint70_linear_385_9447)"/>
<path d="M83 192.857C83 193.883 82.1685 194.714 81.1429 194.714C80.1172 194.714 79.2857 193.883 79.2857 192.857C79.2857 191.831 80.1172 191 81.1429 191C82.1685 191 83 191.831 83 192.857Z" fill="url(#paint71_linear_385_9447)"/>
<path d="M94.1429 192.857C94.1429 193.883 93.3114 194.714 92.2857 194.714C91.26 194.714 90.4286 193.883 90.4286 192.857C90.4286 191.831 91.26 191 92.2857 191C93.3114 191 94.1429 191.831 94.1429 192.857Z" fill="url(#paint72_linear_385_9447)"/>
<path d="M105.286 192.857C105.286 193.883 104.454 194.714 103.429 194.714C102.403 194.714 101.571 193.883 101.571 192.857C101.571 191.831 102.403 191 103.429 191C104.454 191 105.286 191.831 105.286 192.857Z" fill="url(#paint73_linear_385_9447)"/>
<path d="M116.429 192.857C116.429 193.883 115.597 194.714 114.571 194.714C113.546 194.714 112.714 193.883 112.714 192.857C112.714 191.831 113.546 191 114.571 191C115.597 191 116.429 191.831 116.429 192.857Z" fill="url(#paint74_linear_385_9447)"/>
<path d="M127.571 192.857C127.571 193.883 126.74 194.714 125.714 194.714C124.689 194.714 123.857 193.883 123.857 192.857C123.857 191.831 124.689 191 125.714 191C126.74 191 127.571 191.831 127.571 192.857Z" fill="url(#paint75_linear_385_9447)"/>
<path d="M138.714 192.857C138.714 193.883 137.883 194.714 136.857 194.714C135.831 194.714 135 193.883 135 192.857C135 191.831 135.831 191 136.857 191C137.883 191 138.714 191.831 138.714 192.857Z" fill="url(#paint76_linear_385_9447)"/>
<path d="M149.857 192.857C149.857 193.883 149.026 194.714 148 194.714C146.974 194.714 146.143 193.883 146.143 192.857C146.143 191.831 146.974 191 148 191C149.026 191 149.857 191.831 149.857 192.857Z" fill="url(#paint77_linear_385_9447)"/>
<path d="M83 204C83 205.026 82.1685 205.857 81.1429 205.857C80.1172 205.857 79.2857 205.026 79.2857 204C79.2857 202.974 80.1172 202.143 81.1429 202.143C82.1685 202.143 83 202.974 83 204Z" fill="url(#paint78_linear_385_9447)"/>
<path d="M94.1429 204C94.1429 205.026 93.3114 205.857 92.2857 205.857C91.26 205.857 90.4286 205.026 90.4286 204C90.4286 202.974 91.26 202.143 92.2857 202.143C93.3114 202.143 94.1429 202.974 94.1429 204Z" fill="url(#paint79_linear_385_9447)"/>
<path d="M105.286 204C105.286 205.026 104.454 205.857 103.429 205.857C102.403 205.857 101.571 205.026 101.571 204C101.571 202.974 102.403 202.143 103.429 202.143C104.454 202.143 105.286 202.974 105.286 204Z" fill="url(#paint80_linear_385_9447)"/>
<path d="M116.429 204C116.429 205.026 115.597 205.857 114.571 205.857C113.546 205.857 112.714 205.026 112.714 204C112.714 202.974 113.546 202.143 114.571 202.143C115.597 202.143 116.429 202.974 116.429 204Z" fill="url(#paint81_linear_385_9447)"/>
<path d="M127.571 204C127.571 205.026 126.74 205.857 125.714 205.857C124.689 205.857 123.857 205.026 123.857 204C123.857 202.974 124.689 202.143 125.714 202.143C126.74 202.143 127.571 202.974 127.571 204Z" fill="url(#paint82_linear_385_9447)"/>
<path d="M138.714 204C138.714 205.026 137.883 205.857 136.857 205.857C135.831 205.857 135 205.026 135 204C135 202.974 135.831 202.143 136.857 202.143C137.883 202.143 138.714 202.974 138.714 204Z" fill="url(#paint83_linear_385_9447)"/>
<path d="M94.1429 215.143C94.1429 216.169 93.3114 217 92.2857 217C91.26 217 90.4286 216.169 90.4286 215.143C90.4286 214.117 91.26 213.286 92.2857 213.286C93.3114 213.286 94.1429 214.117 94.1429 215.143Z" fill="url(#paint84_linear_385_9447)"/>
<path d="M105.286 215.143C105.286 216.169 104.454 217 103.429 217C102.403 217 101.571 216.169 101.571 215.143C101.571 214.117 102.403 213.286 103.429 213.286C104.454 213.286 105.286 214.117 105.286 215.143Z" fill="url(#paint85_linear_385_9447)"/>
<path d="M116.429 215.143C116.429 216.169 115.597 217 114.571 217C113.546 217 112.714 216.169 112.714 215.143C112.714 214.117 113.546 213.286 114.571 213.286C115.597 213.286 116.429 214.117 116.429 215.143Z" fill="url(#paint86_linear_385_9447)"/>
<path d="M127.571 215.143C127.571 216.169 126.74 217 125.714 217C124.689 217 123.857 216.169 123.857 215.143C123.857 214.117 124.689 213.286 125.714 213.286C126.74 213.286 127.571 214.117 127.571 215.143Z" fill="url(#paint87_linear_385_9447)"/>
<defs>
<linearGradient id="paint0_linear_385_9447" x1="121.133" y1="227.053" x2="79.7067" y2="121.493" gradientUnits="userSpaceOnUse">
<stop stop-color="#DEDEDE"/>
<stop offset="1" stop-color="#E1E3E6"/>
</linearGradient>
<linearGradient id="paint1_linear_385_9447" x1="121.133" y1="227.053" x2="79.7067" y2="121.493" gradientUnits="userSpaceOnUse">
<stop stop-color="#DEDEDE"/>
<stop offset="1" stop-color="#E1E3E6"/>
</linearGradient>
<linearGradient id="paint2_linear_385_9447" x1="121.133" y1="227.053" x2="79.7067" y2="121.493" gradientUnits="userSpaceOnUse">
<stop stop-color="#DEDEDE"/>
<stop offset="1" stop-color="#E1E3E6"/>
</linearGradient>
<linearGradient id="paint3_linear_385_9447" x1="121.133" y1="227.053" x2="79.7067" y2="121.493" gradientUnits="userSpaceOnUse">
<stop stop-color="#DEDEDE"/>
<stop offset="1" stop-color="#E1E3E6"/>
</linearGradient>
<linearGradient id="paint4_linear_385_9447" x1="121.133" y1="227.053" x2="79.7067" y2="121.493" gradientUnits="userSpaceOnUse">
<stop stop-color="#DEDEDE"/>
<stop offset="1" stop-color="#E1E3E6"/>
</linearGradient>
<linearGradient id="paint5_linear_385_9447" x1="121.133" y1="227.053" x2="79.7067" y2="121.493" gradientUnits="userSpaceOnUse">
<stop stop-color="#DEDEDE"/>
<stop offset="1" stop-color="#E1E3E6"/>
</linearGradient>
<linearGradient id="paint6_linear_385_9447" x1="121.133" y1="227.053" x2="79.7067" y2="121.493" gradientUnits="userSpaceOnUse">
<stop stop-color="#DEDEDE"/>
<stop offset="1" stop-color="#E1E3E6"/>
</linearGradient>
<linearGradient id="paint7_linear_385_9447" x1="121.133" y1="227.053" x2="79.7067" y2="121.493" gradientUnits="userSpaceOnUse">
<stop stop-color="#DEDEDE"/>
<stop offset="1" stop-color="#E1E3E6"/>
</linearGradient>
<linearGradient id="paint8_linear_385_9447" x1="121.133" y1="227.053" x2="79.7067" y2="121.493" gradientUnits="userSpaceOnUse">
<stop stop-color="#DEDEDE"/>
<stop offset="1" stop-color="#E1E3E6"/>
</linearGradient>
<linearGradient id="paint9_linear_385_9447" x1="121.133" y1="227.053" x2="79.7067" y2="121.493" gradientUnits="userSpaceOnUse">
<stop stop-color="#DEDEDE"/>
<stop offset="1" stop-color="#E1E3E6"/>
</linearGradient>
<linearGradient id="paint10_linear_385_9447" x1="121.133" y1="227.053" x2="79.7067" y2="121.493" gradientUnits="userSpaceOnUse">
<stop stop-color="#DEDEDE"/>
<stop offset="1" stop-color="#E1E3E6"/>
</linearGradient>
<linearGradient id="paint11_linear_385_9447" x1="121.133" y1="227.053" x2="79.7067" y2="121.493" gradientUnits="userSpaceOnUse">
<stop stop-color="#DEDEDE"/>
<stop offset="1" stop-color="#E1E3E6"/>
</linearGradient>
<linearGradient id="paint12_linear_385_9447" x1="121.133" y1="227.053" x2="79.7067" y2="121.493" gradientUnits="userSpaceOnUse">
<stop stop-color="#DEDEDE"/>
<stop offset="1" stop-color="#E1E3E6"/>
</linearGradient>
<linearGradient id="paint13_linear_385_9447" x1="121.133" y1="227.053" x2="79.7067" y2="121.493" gradientUnits="userSpaceOnUse">
<stop stop-color="#DEDEDE"/>
<stop offset="1" stop-color="#E1E3E6"/>
</linearGradient>
<linearGradient id="paint14_linear_385_9447" x1="121.133" y1="227.053" x2="79.7067" y2="121.493" gradientUnits="userSpaceOnUse">
<stop stop-color="#DEDEDE"/>
<stop offset="1" stop-color="#E1E3E6"/>
</linearGradient>
<linearGradient id="paint15_linear_385_9447" x1="121.133" y1="227.053" x2="79.7067" y2="121.493" gradientUnits="userSpaceOnUse">
<stop stop-color="#DEDEDE"/>
<stop offset="1" stop-color="#E1E3E6"/>
</linearGradient>
<linearGradient id="paint16_linear_385_9447" x1="121.133" y1="227.053" x2="79.7067" y2="121.493" gradientUnits="userSpaceOnUse">
<stop stop-color="#DEDEDE"/>
<stop offset="1" stop-color="#E1E3E6"/>
</linearGradient>
<linearGradient id="paint17_linear_385_9447" x1="121.133" y1="227.053" x2="79.7067" y2="121.493" gradientUnits="userSpaceOnUse">
<stop stop-color="#DEDEDE"/>
<stop offset="1" stop-color="#E1E3E6"/>
</linearGradient>
<linearGradient id="paint18_linear_385_9447" x1="121.133" y1="227.053" x2="79.7067" y2="121.493" gradientUnits="userSpaceOnUse">
<stop stop-color="#DEDEDE"/>
<stop offset="1" stop-color="#E1E3E6"/>
</linearGradient>
<linearGradient id="paint19_linear_385_9447" x1="121.133" y1="227.053" x2="79.7067" y2="121.493" gradientUnits="userSpaceOnUse">
<stop stop-color="#DEDEDE"/>
<stop offset="1" stop-color="#E1E3E6"/>
</linearGradient>
<linearGradient id="paint20_linear_385_9447" x1="121.133" y1="227.053" x2="79.7067" y2="121.493" gradientUnits="userSpaceOnUse">
<stop stop-color="#DEDEDE"/>
<stop offset="1" stop-color="#E1E3E6"/>
</linearGradient>
<linearGradient id="paint21_linear_385_9447" x1="121.133" y1="227.053" x2="79.7067" y2="121.493" gradientUnits="userSpaceOnUse">
<stop stop-color="#DEDEDE"/>
<stop offset="1" stop-color="#E1E3E6"/>
</linearGradient>
<linearGradient id="paint22_linear_385_9447" x1="121.133" y1="227.053" x2="79.7067" y2="121.493" gradientUnits="userSpaceOnUse">
<stop stop-color="#DEDEDE"/>
<stop offset="1" stop-color="#E1E3E6"/>
</linearGradient>
<linearGradient id="paint23_linear_385_9447" x1="121.133" y1="227.053" x2="79.7067" y2="121.493" gradientUnits="userSpaceOnUse">
<stop stop-color="#DEDEDE"/>
<stop offset="1" stop-color="#E1E3E6"/>
</linearGradient>
<linearGradient id="paint24_linear_385_9447" x1="121.133" y1="227.053" x2="79.7067" y2="121.493" gradientUnits="userSpaceOnUse">
<stop stop-color="#DEDEDE"/>
<stop offset="1" stop-color="#E1E3E6"/>
</linearGradient>
<linearGradient id="paint25_linear_385_9447" x1="121.133" y1="227.053" x2="79.7067" y2="121.493" gradientUnits="userSpaceOnUse">
<stop stop-color="#DEDEDE"/>
<stop offset="1" stop-color="#E1E3E6"/>
</linearGradient>
<linearGradient id="paint26_linear_385_9447" x1="121.133" y1="227.053" x2="79.7067" y2="121.493" gradientUnits="userSpaceOnUse">
<stop stop-color="#DEDEDE"/>
<stop offset="1" stop-color="#E1E3E6"/>
</linearGradient>
<linearGradient id="paint27_linear_385_9447" x1="121.133" y1="227.053" x2="79.7067" y2="121.493" gradientUnits="userSpaceOnUse">
<stop stop-color="#DEDEDE"/>
<stop offset="1" stop-color="#E1E3E6"/>
</linearGradient>
<linearGradient id="paint28_linear_385_9447" x1="121.133" y1="227.053" x2="79.7067" y2="121.493" gradientUnits="userSpaceOnUse">
<stop stop-color="#DEDEDE"/>
<stop offset="1" stop-color="#E1E3E6"/>
</linearGradient>
<linearGradient id="paint29_linear_385_9447" x1="121.133" y1="227.053" x2="79.7067" y2="121.493" gradientUnits="userSpaceOnUse">
<stop stop-color="#DEDEDE"/>
<stop offset="1" stop-color="#E1E3E6"/>
</linearGradient>
<linearGradient id="paint30_linear_385_9447" x1="121.133" y1="227.053" x2="79.7067" y2="121.493" gradientUnits="userSpaceOnUse">
<stop stop-color="#DEDEDE"/>
<stop offset="1" stop-color="#E1E3E6"/>
</linearGradient>
<linearGradient id="paint31_linear_385_9447" x1="121.133" y1="227.053" x2="79.7067" y2="121.493" gradientUnits="userSpaceOnUse">
<stop stop-color="#DEDEDE"/>
<stop offset="1" stop-color="#E1E3E6"/>
</linearGradient>
<linearGradient id="paint32_linear_385_9447" x1="121.133" y1="227.053" x2="79.7067" y2="121.493" gradientUnits="userSpaceOnUse">
<stop stop-color="#DEDEDE"/>
<stop offset="1" stop-color="#E1E3E6"/>
</linearGradient>
<linearGradient id="paint33_linear_385_9447" x1="121.133" y1="227.053" x2="79.7067" y2="121.493" gradientUnits="userSpaceOnUse">
<stop stop-color="#DEDEDE"/>
<stop offset="1" stop-color="#E1E3E6"/>
</linearGradient>
<linearGradient id="paint34_linear_385_9447" x1="121.133" y1="227.053" x2="79.7067" y2="121.493" gradientUnits="userSpaceOnUse">
<stop stop-color="#DEDEDE"/>
<stop offset="1" stop-color="#E1E3E6"/>
</linearGradient>
<linearGradient id="paint35_linear_385_9447" x1="121.133" y1="227.053" x2="79.7067" y2="121.493" gradientUnits="userSpaceOnUse">
<stop stop-color="#DEDEDE"/>
<stop offset="1" stop-color="#E1E3E6"/>
</linearGradient>
<linearGradient id="paint36_linear_385_9447" x1="121.133" y1="227.053" x2="79.7067" y2="121.493" gradientUnits="userSpaceOnUse">
<stop stop-color="#DEDEDE"/>
<stop offset="1" stop-color="#E1E3E6"/>
</linearGradient>
<linearGradient id="paint37_linear_385_9447" x1="121.133" y1="227.053" x2="79.7067" y2="121.493" gradientUnits="userSpaceOnUse">
<stop stop-color="#DEDEDE"/>
<stop offset="1" stop-color="#E1E3E6"/>
</linearGradient>
<linearGradient id="paint38_linear_385_9447" x1="121.133" y1="227.053" x2="79.7067" y2="121.493" gradientUnits="userSpaceOnUse">
<stop stop-color="#DEDEDE"/>
<stop offset="1" stop-color="#E1E3E6"/>
</linearGradient>
<linearGradient id="paint39_linear_385_9447" x1="121.133" y1="227.053" x2="79.7067" y2="121.493" gradientUnits="userSpaceOnUse">
<stop stop-color="#DEDEDE"/>
<stop offset="1" stop-color="#E1E3E6"/>
</linearGradient>
<linearGradient id="paint40_linear_385_9447" x1="121.133" y1="227.053" x2="79.7067" y2="121.493" gradientUnits="userSpaceOnUse">
<stop stop-color="#DEDEDE"/>
<stop offset="1" stop-color="#E1E3E6"/>
</linearGradient>
<linearGradient id="paint41_linear_385_9447" x1="121.133" y1="227.053" x2="79.7067" y2="121.493" gradientUnits="userSpaceOnUse">
<stop stop-color="#DEDEDE"/>
<stop offset="1" stop-color="#E1E3E6"/>
</linearGradient>
<linearGradient id="paint42_linear_385_9447" x1="121.133" y1="227.053" x2="79.7067" y2="121.493" gradientUnits="userSpaceOnUse">
<stop stop-color="#DEDEDE"/>
<stop offset="1" stop-color="#E1E3E6"/>
</linearGradient>
<linearGradient id="paint43_linear_385_9447" x1="121.133" y1="227.053" x2="79.7067" y2="121.493" gradientUnits="userSpaceOnUse">
<stop stop-color="#DEDEDE"/>
<stop offset="1" stop-color="#E1E3E6"/>
</linearGradient>
<linearGradient id="paint44_linear_385_9447" x1="121.133" y1="227.053" x2="79.7067" y2="121.493" gradientUnits="userSpaceOnUse">
<stop stop-color="#DEDEDE"/>
<stop offset="1" stop-color="#E1E3E6"/>
</linearGradient>
<linearGradient id="paint45_linear_385_9447" x1="121.133" y1="227.053" x2="79.7067" y2="121.493" gradientUnits="userSpaceOnUse">
<stop stop-color="#DEDEDE"/>
<stop offset="1" stop-color="#E1E3E6"/>
</linearGradient>
<linearGradient id="paint46_linear_385_9447" x1="121.133" y1="227.053" x2="79.7067" y2="121.493" gradientUnits="userSpaceOnUse">
<stop stop-color="#DEDEDE"/>
<stop offset="1" stop-color="#E1E3E6"/>
</linearGradient>
<linearGradient id="paint47_linear_385_9447" x1="121.133" y1="227.053" x2="79.7067" y2="121.493" gradientUnits="userSpaceOnUse">
<stop stop-color="#DEDEDE"/>
<stop offset="1" stop-color="#E1E3E6"/>
</linearGradient>
<linearGradient id="paint48_linear_385_9447" x1="121.133" y1="227.053" x2="79.7067" y2="121.493" gradientUnits="userSpaceOnUse">
<stop stop-color="#DEDEDE"/>
<stop offset="1" stop-color="#E1E3E6"/>
</linearGradient>
<linearGradient id="paint49_linear_385_9447" x1="121.133" y1="227.053" x2="79.7067" y2="121.493" gradientUnits="userSpaceOnUse">
<stop stop-color="#DEDEDE"/>
<stop offset="1" stop-color="#E1E3E6"/>
</linearGradient>
<linearGradient id="paint50_linear_385_9447" x1="121.133" y1="227.053" x2="79.7067" y2="121.493" gradientUnits="userSpaceOnUse">
<stop stop-color="#DEDEDE"/>
<stop offset="1" stop-color="#E1E3E6"/>
</linearGradient>
<linearGradient id="paint51_linear_385_9447" x1="121.133" y1="227.053" x2="79.7067" y2="121.493" gradientUnits="userSpaceOnUse">
<stop stop-color="#DEDEDE"/>
<stop offset="1" stop-color="#E1E3E6"/>
</linearGradient>
<linearGradient id="paint52_linear_385_9447" x1="121.133" y1="227.053" x2="79.7067" y2="121.493" gradientUnits="userSpaceOnUse">
<stop stop-color="#DEDEDE"/>
<stop offset="1" stop-color="#E1E3E6"/>
</linearGradient>
<linearGradient id="paint53_linear_385_9447" x1="121.133" y1="227.053" x2="79.7067" y2="121.493" gradientUnits="userSpaceOnUse">
<stop stop-color="#DEDEDE"/>
<stop offset="1" stop-color="#E1E3E6"/>
</linearGradient>
<linearGradient id="paint54_linear_385_9447" x1="121.133" y1="227.053" x2="79.7067" y2="121.493" gradientUnits="userSpaceOnUse">
<stop stop-color="#DEDEDE"/>
<stop offset="1" stop-color="#E1E3E6"/>
</linearGradient>
<linearGradient id="paint55_linear_385_9447" x1="121.133" y1="227.053" x2="79.7067" y2="121.493" gradientUnits="userSpaceOnUse">
<stop stop-color="#DEDEDE"/>
<stop offset="1" stop-color="#E1E3E6"/>
</linearGradient>
<linearGradient id="paint56_linear_385_9447" x1="121.133" y1="227.053" x2="79.7067" y2="121.493" gradientUnits="userSpaceOnUse">
<stop stop-color="#DEDEDE"/>
<stop offset="1" stop-color="#E1E3E6"/>
</linearGradient>
<linearGradient id="paint57_linear_385_9447" x1="121.133" y1="227.053" x2="79.7067" y2="121.493" gradientUnits="userSpaceOnUse">
<stop stop-color="#DEDEDE"/>
<stop offset="1" stop-color="#E1E3E6"/>
</linearGradient>
<linearGradient id="paint58_linear_385_9447" x1="121.133" y1="227.053" x2="79.7067" y2="121.493" gradientUnits="userSpaceOnUse">
<stop stop-color="#DEDEDE"/>
<stop offset="1" stop-color="#E1E3E6"/>
</linearGradient>
<linearGradient id="paint59_linear_385_9447" x1="121.133" y1="227.053" x2="79.7067" y2="121.493" gradientUnits="userSpaceOnUse">
<stop stop-color="#DEDEDE"/>
<stop offset="1" stop-color="#E1E3E6"/>
</linearGradient>
<linearGradient id="paint60_linear_385_9447" x1="121.133" y1="227.053" x2="79.7067" y2="121.493" gradientUnits="userSpaceOnUse">
<stop stop-color="#DEDEDE"/>
<stop offset="1" stop-color="#E1E3E6"/>
</linearGradient>
<linearGradient id="paint61_linear_385_9447" x1="121.133" y1="227.053" x2="79.7067" y2="121.493" gradientUnits="userSpaceOnUse">
<stop stop-color="#DEDEDE"/>
<stop offset="1" stop-color="#E1E3E6"/>
</linearGradient>
<linearGradient id="paint62_linear_385_9447" x1="121.133" y1="227.053" x2="79.7067" y2="121.493" gradientUnits="userSpaceOnUse">
<stop stop-color="#DEDEDE"/>
<stop offset="1" stop-color="#E1E3E6"/>
</linearGradient>
<linearGradient id="paint63_linear_385_9447" x1="121.133" y1="227.053" x2="79.7067" y2="121.493" gradientUnits="userSpaceOnUse">
<stop stop-color="#DEDEDE"/>
<stop offset="1" stop-color="#E1E3E6"/>
</linearGradient>
<linearGradient id="paint64_linear_385_9447" x1="121.133" y1="227.053" x2="79.7067" y2="121.493" gradientUnits="userSpaceOnUse">
<stop stop-color="#DEDEDE"/>
<stop offset="1" stop-color="#E1E3E6"/>
</linearGradient>
<linearGradient id="paint65_linear_385_9447" x1="121.133" y1="227.053" x2="79.7067" y2="121.493" gradientUnits="userSpaceOnUse">
<stop stop-color="#DEDEDE"/>
<stop offset="1" stop-color="#E1E3E6"/>
</linearGradient>
<linearGradient id="paint66_linear_385_9447" x1="121.133" y1="227.053" x2="79.7067" y2="121.493" gradientUnits="userSpaceOnUse">
<stop stop-color="#DEDEDE"/>
<stop offset="1" stop-color="#E1E3E6"/>
</linearGradient>
<linearGradient id="paint67_linear_385_9447" x1="121.133" y1="227.053" x2="79.7067" y2="121.493" gradientUnits="userSpaceOnUse">
<stop stop-color="#DEDEDE"/>
<stop offset="1" stop-color="#E1E3E6"/>
</linearGradient>
<linearGradient id="paint68_linear_385_9447" x1="121.133" y1="227.053" x2="79.7067" y2="121.493" gradientUnits="userSpaceOnUse">
<stop stop-color="#DEDEDE"/>
<stop offset="1" stop-color="#E1E3E6"/>
</linearGradient>
<linearGradient id="paint69_linear_385_9447" x1="121.133" y1="227.053" x2="79.7067" y2="121.493" gradientUnits="userSpaceOnUse">
<stop stop-color="#DEDEDE"/>
<stop offset="1" stop-color="#E1E3E6"/>
</linearGradient>
<linearGradient id="paint70_linear_385_9447" x1="121.133" y1="227.053" x2="79.7067" y2="121.493" gradientUnits="userSpaceOnUse">
<stop stop-color="#DEDEDE"/>
<stop offset="1" stop-color="#E1E3E6"/>
</linearGradient>
<linearGradient id="paint71_linear_385_9447" x1="121.133" y1="227.053" x2="79.7067" y2="121.493" gradientUnits="userSpaceOnUse">
<stop stop-color="#DEDEDE"/>
<stop offset="1" stop-color="#E1E3E6"/>
</linearGradient>
<linearGradient id="paint72_linear_385_9447" x1="121.133" y1="227.053" x2="79.7067" y2="121.493" gradientUnits="userSpaceOnUse">
<stop stop-color="#DEDEDE"/>
<stop offset="1" stop-color="#E1E3E6"/>
</linearGradient>
<linearGradient id="paint73_linear_385_9447" x1="121.133" y1="227.053" x2="79.7067" y2="121.493" gradientUnits="userSpaceOnUse">
<stop stop-color="#DEDEDE"/>
<stop offset="1" stop-color="#E1E3E6"/>
</linearGradient>
<linearGradient id="paint74_linear_385_9447" x1="121.133" y1="227.053" x2="79.7067" y2="121.493" gradientUnits="userSpaceOnUse">
<stop stop-color="#DEDEDE"/>
<stop offset="1" stop-color="#E1E3E6"/>
</linearGradient>
<linearGradient id="paint75_linear_385_9447" x1="121.133" y1="227.053" x2="79.7067" y2="121.493" gradientUnits="userSpaceOnUse">
<stop stop-color="#DEDEDE"/>
<stop offset="1" stop-color="#E1E3E6"/>
</linearGradient>
<linearGradient id="paint76_linear_385_9447" x1="121.133" y1="227.053" x2="79.7067" y2="121.493" gradientUnits="userSpaceOnUse">
<stop stop-color="#DEDEDE"/>
<stop offset="1" stop-color="#E1E3E6"/>
</linearGradient>
<linearGradient id="paint77_linear_385_9447" x1="121.133" y1="227.053" x2="79.7067" y2="121.493" gradientUnits="userSpaceOnUse">
<stop stop-color="#DEDEDE"/>
<stop offset="1" stop-color="#E1E3E6"/>
</linearGradient>
<linearGradient id="paint78_linear_385_9447" x1="121.133" y1="227.053" x2="79.7067" y2="121.493" gradientUnits="userSpaceOnUse">
<stop stop-color="#DEDEDE"/>
<stop offset="1" stop-color="#E1E3E6"/>
</linearGradient>
<linearGradient id="paint79_linear_385_9447" x1="121.133" y1="227.053" x2="79.7067" y2="121.493" gradientUnits="userSpaceOnUse">
<stop stop-color="#DEDEDE"/>
<stop offset="1" stop-color="#E1E3E6"/>
</linearGradient>
<linearGradient id="paint80_linear_385_9447" x1="121.133" y1="227.053" x2="79.7067" y2="121.493" gradientUnits="userSpaceOnUse">
<stop stop-color="#DEDEDE"/>
<stop offset="1" stop-color="#E1E3E6"/>
</linearGradient>
<linearGradient id="paint81_linear_385_9447" x1="121.133" y1="227.053" x2="79.7067" y2="121.493" gradientUnits="userSpaceOnUse">
<stop stop-color="#DEDEDE"/>
<stop offset="1" stop-color="#E1E3E6"/>
</linearGradient>
<linearGradient id="paint82_linear_385_9447" x1="121.133" y1="227.053" x2="79.7067" y2="121.493" gradientUnits="userSpaceOnUse">
<stop stop-color="#DEDEDE"/>
<stop offset="1" stop-color="#E1E3E6"/>
</linearGradient>
<linearGradient id="paint83_linear_385_9447" x1="121.133" y1="227.053" x2="79.7067" y2="121.493" gradientUnits="userSpaceOnUse">
<stop stop-color="#DEDEDE"/>
<stop offset="1" stop-color="#E1E3E6"/>
</linearGradient>
<linearGradient id="paint84_linear_385_9447" x1="121.133" y1="227.053" x2="79.7067" y2="121.493" gradientUnits="userSpaceOnUse">
<stop stop-color="#DEDEDE"/>
<stop offset="1" stop-color="#E1E3E6"/>
</linearGradient>
<linearGradient id="paint85_linear_385_9447" x1="121.133" y1="227.053" x2="79.7067" y2="121.493" gradientUnits="userSpaceOnUse">
<stop stop-color="#DEDEDE"/>
<stop offset="1" stop-color="#E1E3E6"/>
</linearGradient>
<linearGradient id="paint86_linear_385_9447" x1="121.133" y1="227.053" x2="79.7067" y2="121.493" gradientUnits="userSpaceOnUse">
<stop stop-color="#DEDEDE"/>
<stop offset="1" stop-color="#E1E3E6"/>
</linearGradient>
<linearGradient id="paint87_linear_385_9447" x1="121.133" y1="227.053" x2="79.7067" y2="121.493" gradientUnits="userSpaceOnUse">
<stop stop-color="#DEDEDE"/>
<stop offset="1" stop-color="#E1E3E6"/>
</linearGradient>
</defs>
</svg>
