<svg width="16" height="16" viewBox="0 0 16 16" fill="none" xmlns="http://www.w3.org/2000/svg">
<g opacity="0.6">
<path opacity="0.5" d="M9.33301 11.9999C9.33301 11.6317 9.63148 11.3333 9.99967 11.3333C10.3679 11.3333 10.6663 11.6317 10.6663 11.9999C10.6663 12.3681 10.3679 12.6666 9.99967 12.6666C9.63148 12.6666 9.33301 12.3681 9.33301 11.9999Z" stroke="#4E545F" stroke-width="1.5" stroke-linecap="round" stroke-linejoin="round"/>
<path opacity="0.5" d="M5.33301 11.9999C5.33301 11.6317 5.63148 11.3333 5.99967 11.3333C6.36786 11.3333 6.66634 11.6317 6.66634 11.9999C6.66634 12.3681 6.36786 12.6666 5.99967 12.6666C5.63148 12.6666 5.33301 12.3681 5.33301 11.9999Z" stroke="#4E545F" stroke-width="1.5" stroke-linecap="round" stroke-linejoin="round"/>
<path opacity="0.5" d="M9.33301 7.99992C9.33301 7.63173 9.63148 7.33325 9.99967 7.33325C10.3679 7.33325 10.6663 7.63173 10.6663 7.99992C10.6663 8.36811 10.3679 8.66659 9.99967 8.66659C9.63148 8.66659 9.33301 8.36811 9.33301 7.99992Z" stroke="#4E545F" stroke-width="1.5" stroke-linecap="round" stroke-linejoin="round"/>
<path opacity="0.5" d="M5.33301 7.99992C5.33301 7.63173 5.63148 7.33325 5.99967 7.33325C6.36786 7.33325 6.66634 7.63173 6.66634 7.99992C6.66634 8.36811 6.36786 8.66659 5.99967 8.66659C5.63148 8.66659 5.33301 8.36811 5.33301 7.99992Z" stroke="#4E545F" stroke-width="1.5" stroke-linecap="round" stroke-linejoin="round"/>
<path opacity="0.5" d="M9.33301 3.99992C9.33301 3.63173 9.63148 3.33325 9.99967 3.33325C10.3679 3.33325 10.6663 3.63173 10.6663 3.99992C10.6663 4.36811 10.3679 4.66659 9.99967 4.66659C9.63148 4.66659 9.33301 4.36811 9.33301 3.99992Z" stroke="#4E545F" stroke-width="1.5" stroke-linecap="round" stroke-linejoin="round"/>
<path opacity="0.5" d="M5.33301 3.99992C5.33301 3.63173 5.63148 3.33325 5.99967 3.33325C6.36786 3.33325 6.66634 3.63173 6.66634 3.99992C6.66634 4.36811 6.36786 4.66659 5.99967 4.66659C5.63148 4.66659 5.33301 4.36811 5.33301 3.99992Z" stroke="#4E545F" stroke-width="1.5" stroke-linecap="round" stroke-linejoin="round"/>
</g>
</svg>
