<svg width="12" height="13" viewBox="0 0 12 13" fill="none" xmlns="http://www.w3.org/2000/svg">
<path d="M4.25039 9.81593C3.48303 9.77924 2.71656 9.71846 1.95213 9.63353C1.3337 9.56481 0.935944 8.94332 1.13272 8.35305C1.23249 8.05374 1.33295 7.75933 1.35938 7.44229L1.57797 4.81923C1.76964 2.51917 3.69237 0.75 6.0004 0.75C8.30841 0.75 10.2311 2.51917 10.4228 4.81923L10.6416 7.44375C10.6679 7.76062 10.7683 8.05497 10.8677 8.35416C11.0636 8.9442 10.666 9.56469 10.0482 9.63341C9.28392 9.71834 8.5176 9.77918 7.7504 9.81587M4.25039 9.81593V10.0833C4.25039 11.0499 5.03387 11.8333 6.0004 11.8333C6.96686 11.8333 7.7504 11.0499 7.7504 10.0833V9.81587M4.25039 9.81593C5.41636 9.87164 6.58437 9.87164 7.7504 9.81587M4.24999 5.56758L5.43777 6.75407C6.00903 5.75512 6.79968 4.89896 7.74999 4.25" stroke="#008344" stroke-width="1.5" stroke-linecap="round" stroke-linejoin="round"/>
</svg>
