<svg width="24" height="24" viewBox="0 0 24 24" fill="none" xmlns="http://www.w3.org/2000/svg">
<path d="M9.00068 18.5416C7.68522 18.4787 6.37127 18.3745 5.06082 18.2289C4.00064 18.1111 3.31878 17.0457 3.65611 16.0338C3.82714 15.5207 3.99937 15.016 4.04467 14.4725L4.41939 9.97582C4.74797 6.03286 8.04408 3 12.0007 3C15.9573 3 19.2534 6.03286 19.582 9.97582L19.957 14.475C20.0022 15.0182 20.1743 15.5228 20.3446 16.0357C20.6804 17.0472 19.9989 18.1109 18.9398 18.2287C17.6296 18.3743 16.3159 18.4786 15.0007 18.5415M9.00068 18.5416V19C9.00068 20.6569 10.3438 22 12.0007 22C13.6575 22 15.0007 20.6569 15.0007 19V18.5415M9.00068 18.5416C10.9995 18.6371 13.0018 18.6371 15.0007 18.5415" stroke="#4E545F" stroke-width="2" stroke-linecap="round" stroke-linejoin="round"/>
</svg>
