<svg width="31" height="31" viewBox="0 0 31 31" fill="none" xmlns="http://www.w3.org/2000/svg">
<path d="M7.25908 16.7176C5.71229 14.0965 4.69525 11.0409 4.2936 7.63657C4.11723 6.14166 5.04393 4.56734 6.6216 4.30934C7.11737 4.22827 7.73033 4.24052 8.23453 4.286C10.3385 4.47576 11.2082 6.33275 11.6699 8.13516C12.2881 10.5485 11.535 13.1066 9.70785 14.7997C8.95177 15.5004 8.07564 16.0902 7.25908 16.7176ZM7.25908 16.7176C8.90502 19.5067 11.1508 21.8039 13.8932 23.506M13.8932 23.506C16.5983 25.1849 19.7866 26.2847 23.3592 26.7064C24.8542 26.8828 26.4279 25.9555 26.6858 24.3779C26.7742 23.8367 26.7637 23.2144 26.6993 22.6703C26.4373 20.4574 24.3068 19.6211 22.4055 19.1851C20.239 18.6883 17.9666 19.284 16.3223 20.7798C15.4297 21.5918 14.6831 22.5961 13.8932 23.506Z" stroke="white" stroke-width="2" stroke-linecap="round" stroke-linejoin="round"/>
</svg>
