<svg width="14" height="14" viewBox="0 0 14 14" fill="none" xmlns="http://www.w3.org/2000/svg">
<path d="M9.9165 2.06217C10.6139 2.46562 11.0832 3.21969 11.0832 4.08336C11.0832 4.94702 10.6139 5.7011 9.9165 6.10454M12.2498 12.0939C12.5986 11.8922 12.8332 11.5152 12.8332 11.0833C12.8332 10.2197 12.3639 9.46562 11.6665 9.06217M8.1665 4.08333C8.1665 5.372 7.12183 6.41667 5.83317 6.41667C4.54451 6.41667 3.49984 5.372 3.49984 4.08333C3.49984 2.79467 4.54451 1.75 5.83317 1.75C7.12183 1.75 8.1665 2.79467 8.1665 4.08333ZM3.49984 8.75H8.1665C9.45517 8.75 10.4998 9.79467 10.4998 11.0833C10.4998 11.7277 9.9775 12.25 9.33317 12.25H2.33317C1.68884 12.25 1.1665 11.7277 1.1665 11.0833C1.1665 9.79467 2.21117 8.75 3.49984 8.75Z" stroke="#939394" stroke-width="1.5" stroke-linecap="round" stroke-linejoin="round"/>
</svg>
