<svg width="14" height="15" viewBox="0 0 14 15" fill="none" xmlns="http://www.w3.org/2000/svg">
<path d="M3.1543 8.06816C2.43247 6.84497 1.95785 5.41904 1.77041 3.83034C1.6881 3.13272 2.12056 2.39803 2.85681 2.27764C3.08817 2.2398 3.37422 2.24552 3.60951 2.26674C4.59134 2.3553 4.99721 3.22189 5.21267 4.06302C5.50116 5.18924 5.14971 6.38303 4.29706 7.17315C3.94422 7.50011 3.53536 7.77537 3.1543 8.06816ZM3.1543 8.06816C3.9224 9.36975 4.97043 10.4418 6.25022 11.2361M6.25022 11.2361C7.51261 12.0195 9.0005 12.5328 10.6677 12.7296C11.3654 12.8119 12.0997 12.3792 12.2201 11.643C12.2614 11.3904 12.2565 11.1 12.2264 10.8461C12.1041 9.81339 11.1099 9.4231 10.2226 9.21964C9.21158 8.98779 8.15113 9.2658 7.38379 9.96387C6.96727 10.3428 6.61886 10.8115 6.25022 11.2361Z" stroke="#00539F" stroke-width="1.5" stroke-linecap="round" stroke-linejoin="round"/>
</svg>
