<svg width="14" height="15" viewBox="0 0 14 15" fill="none" xmlns="http://www.w3.org/2000/svg">
<path d="M11.6666 3.825V11.0765C11.6666 12.0008 9.57726 12.75 6.99992 12.75C4.42259 12.75 2.33325 12.0008 2.33325 11.0765V3.825M11.6666 3.825C11.6666 4.69485 9.57726 5.4 6.99992 5.4C4.42259 5.4 2.33325 4.69485 2.33325 3.825M11.6666 3.825C11.6666 2.95515 9.57726 2.25 6.99992 2.25C4.42259 2.25 2.33325 2.95515 2.33325 3.825M11.6666 7.5C11.6666 8.36987 9.57726 9.075 6.99992 9.075C4.42259 9.075 2.33325 8.36987 2.33325 7.5M9.33384 10.4167H9.33325M9.33384 6.91667H9.33325" stroke="#00539F" stroke-width="1.5" stroke-linecap="round" stroke-linejoin="round"/>
</svg>
