<svg width="62" height="62" viewBox="0 0 62 62" fill="none" xmlns="http://www.w3.org/2000/svg">
<rect x="3.5" y="3.5" width="55" height="55" rx="27.5" fill="#FEC3C3"/>
<rect x="3.5" y="3.5" width="55" height="55" rx="27.5" stroke="#FEE8E8" stroke-width="7"/>
<g clip-path="url(#clip0_3321_43609)">
<path d="M32.5958 20.5451C32.4349 20.2649 32.203 20.0321 31.9233 19.8702C31.6437 19.7083 31.3264 19.623 31.0033 19.623C30.6802 19.623 30.3628 19.7083 30.0832 19.8702C29.8036 20.0321 29.5716 20.2649 29.4108 20.5451L18.2681 39.504C17.5255 40.7682 18.416 42.3753 19.8606 42.3753H42.1443C43.5889 42.3753 44.481 40.7666 43.7368 39.504L32.5958 20.5451ZM31 26.1253C31.8694 26.1253 32.5503 26.8761 32.4625 27.7422L31.8938 33.4411C31.8746 33.665 31.7722 33.8735 31.6067 34.0255C31.4412 34.1775 31.2247 34.2618 31 34.2618C30.7753 34.2618 30.5588 34.1775 30.3933 34.0255C30.2278 33.8735 30.1254 33.665 30.1063 33.4411L29.5375 27.7422C29.5171 27.5379 29.5397 27.3315 29.6039 27.1364C29.6681 26.9413 29.7724 26.7618 29.9102 26.6095C30.048 26.4571 30.2161 26.3354 30.4038 26.252C30.5915 26.1686 30.7946 26.1255 31 26.1253ZM31.0033 35.8753C31.4342 35.8753 31.8476 36.0466 32.1523 36.3513C32.457 36.656 32.6283 37.0694 32.6283 37.5003C32.6283 37.9313 32.457 38.3447 32.1523 38.6494C31.8476 38.9541 31.4342 39.1253 31.0033 39.1253C30.5723 39.1253 30.159 38.9541 29.8542 38.6494C29.5495 38.3447 29.3783 37.9313 29.3783 37.5003C29.3783 37.0694 29.5495 36.656 29.8542 36.3513C30.159 36.0466 30.5723 35.8753 31.0033 35.8753Z" fill="#EF0404"/>
</g>
<defs>
<clipPath id="clip0_3321_43609">
<rect width="26" height="26" fill="white" transform="translate(18 18)"/>
</clipPath>
</defs>
</svg>
