<svg width="20" height="20" viewBox="0 0 20 20" fill="none" xmlns="http://www.w3.org/2000/svg">
<g id="Edit/pencil">
<path id="Vector" d="M2.55513 15.2626C2.56288 14.9484 2.56676 14.7914 2.60473 14.6439C2.6384 14.513 2.69172 14.3881 2.76286 14.2735C2.84309 14.1441 2.9537 14.033 3.17492 13.8109L14.0522 2.8858C14.4885 2.44757 15.17 2.37413 15.6889 2.70943C16.3041 3.10692 16.8298 3.62925 17.2321 4.24289L17.2602 4.28589C17.2806 4.31698 17.2908 4.33252 17.2995 4.34652C17.6189 4.86106 17.5513 5.52745 17.1351 5.96671C17.1238 5.97866 17.1107 5.99182 17.0845 6.01814L6.27342 16.8767C6.04395 17.1072 5.92921 17.2225 5.79529 17.3048C5.67656 17.3778 5.54711 17.4315 5.41171 17.464C5.259 17.5007 5.09673 17.5004 4.77221 17.4999L2.5 17.4963L2.55513 15.2626Z" stroke="#00539F" stroke-width="2" stroke-linecap="round" stroke-linejoin="round"/>
</g>
</svg>
