<svg width="16" height="16" viewBox="0 0 16 16" fill="none" xmlns="http://www.w3.org/2000/svg">
<path d="M8.00033 11.3333V10M8.00033 10C8.34231 10 8.61955 9.70152 8.61955 9.33333C8.61955 8.96514 8.34231 8.66667 8.00033 8.66667C7.65834 8.66667 7.3811 8.96514 7.3811 9.33333C7.3811 9.70152 7.65834 10 8.00033 10ZM11.7157 6.15909V6C11.7157 3.79086 10.0523 2 8.00033 2C5.94839 2 4.28496 3.79086 4.28496 6V6.15909M11.7157 6.15909C11.2584 6 10.6439 6 9.53552 6H6.46514C5.35675 6 4.74229 6 4.28496 6.15909M11.7157 6.15909C11.7715 6.17851 11.825 6.20029 11.8767 6.22473C12.511 6.52437 12.9998 7.09627 13.2244 7.80169C13.393 8.33075 13.3413 8.99789 13.238 10.3322C13.1492 11.4806 13.1047 12.0547 12.8999 12.5054C12.6268 13.1062 12.154 13.5746 11.5752 13.8177C11.141 14 10.6059 14 9.53551 14H6.46514C5.39479 14 4.85961 14 4.42549 13.8177C3.84666 13.5746 3.37382 13.1062 3.10074 12.5054C2.89594 12.0547 2.8515 11.4806 2.76261 10.3322C2.65933 8.99789 2.60769 8.33075 2.7762 7.80169C3.00088 7.09627 3.48966 6.52437 4.12396 6.22473C4.17569 6.20029 4.22916 6.17851 4.28496 6.15909" stroke="#BB1865" stroke-width="1.5" stroke-linecap="round" stroke-linejoin="round"/>
</svg>
