<svg width="20" height="20" viewBox="0 0 20 20" fill="none" xmlns="http://www.w3.org/2000/svg">
<path d="M13.3335 5.83333L12.4122 3.99071C11.9554 3.07711 11.0216 2.5 10.0002 2.5C8.97872 2.5 8.04494 3.07711 7.58814 3.99071L6.66683 5.83333M3.3335 5.83333H16.6668M8.3335 10V13.3333M11.6668 10V13.3333M5.00016 5.83333H15.0002V12.5C15.0002 14.0531 15.0002 14.8297 14.7464 15.4423C14.4081 16.259 13.7592 16.908 12.9424 17.2463C12.3299 17.5 11.5533 17.5 10.0002 17.5C8.44702 17.5 7.67045 17.5 7.05788 17.2463C6.24112 16.908 5.59221 16.259 5.2539 15.4423C5.00016 14.8297 5.00016 14.0531 5.00016 12.5V5.83333Z" stroke="#303A47" stroke-width="2" stroke-linecap="round" stroke-linejoin="round"/>
</svg>
