<svg width="16" height="16" viewBox="0 0 16 16" fill="none" xmlns="http://www.w3.org/2000/svg">
<path d="M12.663 12.7642C12.5952 11.5947 11.5781 10.6663 10.3333 10.6663H5.66659C4.42176 10.6663 3.40461 11.5947 3.33685 12.7642M12.663 12.7642C13.8993 11.554 14.6666 9.86641 14.6666 7.99967C14.6666 4.31778 11.6818 1.33301 7.99992 1.33301C4.31802 1.33301 1.33325 4.31778 1.33325 7.99967C1.33325 9.86641 2.1005 11.554 3.33685 12.7642M12.663 12.7642C11.4608 13.9409 9.81508 14.6663 7.99992 14.6663C6.18476 14.6663 4.53903 13.9409 3.33685 12.7642M9.99992 6.66634C9.99992 7.77091 9.10449 8.66634 7.99992 8.66634C6.89535 8.66634 5.99992 7.77091 5.99992 6.66634C5.99992 5.56177 6.89535 4.66634 7.99992 4.66634C9.10449 4.66634 9.99992 5.56177 9.99992 6.66634Z" stroke="#00539F" stroke-width="1.5" stroke-linecap="round" stroke-linejoin="round"/>
</svg>
