<svg width="16" height="16" viewBox="0 0 16 16" fill="none" xmlns="http://www.w3.org/2000/svg">
<path d="M6 7.33333L7.33333 6L6 4.66667M9.33333 7.33333H10.6667M3.33333 10.1138V6.26667C3.33333 4.77319 3.33333 4.02646 3.62398 3.45603C3.87965 2.95426 4.28759 2.54631 4.78936 2.29065C5.35979 2 6.10653 2 7.6 2H9.06667C10.5601 2 11.3069 2 11.8773 2.29065C12.3791 2.54631 12.787 2.95426 13.0427 3.45603C13.3333 4.02646 13.3333 4.77319 13.3333 6.26667V9.73333C13.3333 11.2268 13.3333 11.9735 13.0427 12.544C12.787 13.0457 12.3791 13.4537 11.8773 13.7093C11.3069 14 10.5601 14 9.06667 14H4C2.89543 14 2 13.1046 2 12C2 10.8954 2.89543 10 4 10H10.6667C9.56207 10 8.66667 10.8954 8.66667 12C8.66667 13.1046 9.56207 14 10.6667 14" stroke="#00539F" stroke-width="1.5" stroke-linecap="round" stroke-linejoin="round"/>
</svg>
