<svg width="16" height="16" viewBox="0 0 16 16" fill="none" xmlns="http://www.w3.org/2000/svg">
<path d="M4.5979 5.93571C4.58979 5.94405 4.58164 5.95244 4.57345 5.96085C3.70171 6.8575 3.26584 7.30583 3.02771 7.78654C2.54643 8.7581 2.54643 9.90792 3.02771 10.8795C3.26584 11.3602 3.70171 11.8085 4.57345 12.7052C5.44518 13.6018 5.88106 14.0501 6.34842 14.2951C7.29299 14.7901 8.41088 14.7901 9.35544 14.2951C9.8228 14.0501 10.2587 13.6018 11.1304 12.7052L11.1314 12.7041C11.22 12.613 11.3041 12.5265 11.384 12.4441M4.5979 5.93571C5.45338 5.05581 5.88545 4.61358 6.34842 4.37095C7.29299 3.87592 8.41088 3.87592 9.35544 4.37095C9.8228 4.61588 10.2587 5.06421 11.1304 5.96085C11.2194 6.05237 11.3038 6.13921 11.384 6.2219M4.5979 5.93571L9.07275 1.33301M7.11119 9.48116H13.7779" stroke="#00539F" stroke-width="1.5" stroke-linecap="round" stroke-linejoin="round"/>
</svg>
