<svg width="16" height="16" viewBox="0 0 16 16" fill="none" xmlns="http://www.w3.org/2000/svg">
<g clip-path="url(#clip0_7163_22412)">
<path d="M1.8999 8.00039H14.0999M1.8999 8.00039C1.8999 11.3693 4.63097 14.1004 7.9999 14.1004M1.8999 8.00039C1.8999 4.63145 4.63097 1.90039 7.9999 1.90039M14.0999 8.00039C14.0999 11.3693 11.3688 14.1004 7.9999 14.1004M14.0999 8.00039C14.0999 4.63145 11.3688 1.90039 7.9999 1.90039M7.9999 1.90039C9.52568 3.57079 10.3928 5.73853 10.4399 8.00039C10.3928 10.2623 9.52568 12.43 7.9999 14.1004M7.9999 1.90039C6.47412 3.57079 5.60702 5.73853 5.5599 8.00039C5.60702 10.2623 6.47412 12.43 7.9999 14.1004" stroke="#00539F" stroke-width="2" stroke-linecap="round" stroke-linejoin="round"/>
</g>
<defs>
<clipPath id="clip0_7163_22412">
<rect width="16" height="16" fill="white"/>
</clipPath>
</defs>
</svg>
