<svg width="16" height="16" viewBox="0 0 16 16" fill="none" xmlns="http://www.w3.org/2000/svg">
<path d="M2 4.66699H6.66667M6.66667 4.66699C6.66667 5.77156 7.5621 6.66699 8.66667 6.66699H9.33333C10.4379 6.66699 11.3333 5.77156 11.3333 4.66699C11.3333 3.56242 10.4379 2.66699 9.33333 2.66699H8.66667C7.5621 2.66699 6.66667 3.56242 6.66667 4.66699ZM10.6667 11.3337H14M13.3333 4.66699H14M2 11.3337H4M4 11.3337C4 12.4382 4.89543 13.3337 6 13.3337H6.66667C7.77124 13.3337 8.66667 12.4382 8.66667 11.3337C8.66667 10.2291 7.77124 9.33366 6.66667 9.33366H6C4.89543 9.33366 4 10.2291 4 11.3337Z" stroke="#00539F" stroke-width="1.5" stroke-linecap="round" stroke-linejoin="round"/>
</svg>
