<svg width="16" height="16" viewBox="0 0 16 16" fill="none" xmlns="http://www.w3.org/2000/svg">
<path d="M4 10.3337V5.66699M4 10.3337C2.89543 10.3337 2 11.2291 2 12.3337C2 13.4382 2.89543 14.3337 4 14.3337C5.10457 14.3337 6 13.4382 6 12.3337C6 11.2841 5.19153 10.4234 4.16338 10.3402M4 10.3337C4.05501 10.3337 4.10949 10.3359 4.16338 10.3402M4 5.66699C5.10457 5.66699 6 4.77156 6 3.66699C6 2.56242 5.10457 1.66699 4 1.66699C2.89543 1.66699 2 2.56242 2 3.66699C2 4.77156 2.89543 5.66699 4 5.66699ZM11.9166 5.66528C11.8139 6.06847 11.7445 6.30658 11.644 6.51092C11.2842 7.24219 10.6098 7.76878 9.81305 7.94048C9.53534 8.00033 9.21843 8.00033 8.5846 8.00033H7.97028C7.01306 8.00033 6.53445 8.00033 6.1119 8.14607C5.73824 8.27496 5.39789 8.4853 5.11551 8.76188C4.79851 9.07236 4.58526 9.49649 4.16338 10.3402M11.9166 5.66528C11.9443 5.66642 11.9721 5.66699 12 5.66699C13.1046 5.66699 14 4.77156 14 3.66699C14 2.56242 13.1046 1.66699 12 1.66699C10.8954 1.66699 10 2.56242 10 3.66699C10 4.74363 10.8507 5.62157 11.9166 5.66528Z" stroke="#00539F" stroke-width="1.5" stroke-linecap="round" stroke-linejoin="round"/>
</svg>
