<svg width="16" height="16" viewBox="0 0 16 16" fill="none" xmlns="http://www.w3.org/2000/svg">
<path d="M6.00037 12.3611C5.1234 12.3192 4.24743 12.2497 3.3738 12.1526C2.66701 12.0741 2.21244 11.3638 2.43732 10.6892C2.55135 10.3471 2.66617 10.0107 2.69636 9.64831L2.94618 6.65055C3.16523 4.02191 5.36264 2 8.00039 2C10.6381 2 12.8355 4.02191 13.0546 6.65055L13.3046 9.65C13.3347 10.0121 13.4494 10.3485 13.563 10.6905C13.7869 11.3648 13.3325 12.0739 12.6264 12.1524C11.753 12.2495 10.8772 12.319 10.0004 12.361M6.00037 12.3611V12.6667C6.00037 13.7712 6.8958 14.6667 8.00037 14.6667C9.10494 14.6667 10.0004 13.7712 10.0004 12.6667V12.361M6.00037 12.3611C7.33293 12.4247 8.66782 12.4247 10.0004 12.361" stroke="#00539F" stroke-width="1.5" stroke-linecap="round" stroke-linejoin="round"/>
</svg>
