<svg width="16" height="16" viewBox="0 0 16 16" fill="none" xmlns="http://www.w3.org/2000/svg">
<path d="M4.88525 5.46082C3.92957 5.46082 3.15484 4.68609 3.15484 3.73041C3.15484 2.77473 3.92957 2 4.88525 2C5.84093 2 6.61566 2.77473 6.61566 3.73041C6.61566 4.68609 5.84093 5.46082 4.88525 5.46082ZM4.88525 5.46082C6.17278 5.46082 7.31103 6.1 7.99999 7.07836C8.68894 6.1 9.82719 5.46082 11.1147 5.46082M4.88525 5.46082C3.59771 5.46082 2.45947 6.1 1.77051 7.07836M11.1147 5.46082C10.159 5.46082 9.38432 4.68609 9.38432 3.73041C9.38432 2.77473 10.159 2 11.1147 2C12.0704 2 12.8451 2.77473 12.8451 3.73041C12.8451 4.68609 12.0704 5.46082 11.1147 5.46082ZM11.1147 5.46082C12.4023 5.46082 13.5405 6.1 14.2295 7.07836M4.88525 12.3825C3.92957 12.3825 3.15484 11.6077 3.15484 10.6521C3.15484 9.69638 3.92957 8.92164 4.88525 8.92164C5.84093 8.92164 6.61566 9.69638 6.61566 10.6521C6.61566 11.6077 5.84093 12.3825 4.88525 12.3825ZM4.88525 12.3825C6.17278 12.3825 7.31103 13.0216 7.99999 14C8.68894 13.0216 9.82719 12.3825 11.1147 12.3825M4.88525 12.3825C3.59771 12.3825 2.45947 13.0216 1.77051 14M11.1147 12.3825C10.159 12.3825 9.38432 11.6077 9.38432 10.6521C9.38432 9.69638 10.159 8.92164 11.1147 8.92164C12.0704 8.92164 12.8451 9.69638 12.8451 10.6521C12.8451 11.6077 12.0704 12.3825 11.1147 12.3825ZM11.1147 12.3825C12.4023 12.3825 13.5405 13.0216 14.2295 14" stroke="#00539F" stroke-width="1.5" stroke-linecap="round" stroke-linejoin="round"/>
</svg>
