<svg width="16" height="16" viewBox="0 0 16 16" fill="none" xmlns="http://www.w3.org/2000/svg">
<path d="M1.33325 9.66667V7.33333C1.33325 5.46649 1.33325 4.53307 1.69656 3.82003C2.01614 3.19282 2.52608 2.68289 3.15328 2.36331C3.86632 2 4.79974 2 6.66659 2H8.99992C9.9318 2 10.3977 2 10.7653 2.15224C11.2553 2.35523 11.6447 2.74458 11.8477 3.23463C11.9859 3.56834 11.9986 3.98316 11.9998 4.7542M1.33325 9.66667C1.33325 10.5531 1.33325 11.3297 1.58699 11.9423C1.9253 12.759 2.57421 13.408 3.39097 13.7463C3.85527 13.9386 4.41379 13.9852 5.33325 13.9965M1.33325 9.66667C1.33325 8.11353 1.33325 7.33696 1.58699 6.72439C1.9253 5.90763 2.57421 5.25871 3.39097 4.9204C4.00354 4.66667 4.78011 4.66667 6.33325 4.66667H9.66659C10.7559 4.66667 11.4632 4.66667 11.9998 4.7542M9.33325 8H11.3333M11.9998 4.7542C12.2283 4.79147 12.4259 4.84462 12.6089 4.9204C13.4256 5.25871 14.0745 5.90763 14.4129 6.72439C14.6052 7.18869 14.6517 7.7472 14.663 8.66667M12.6431 10.6667H12.6681C13.7718 10.6667 14.6666 11.5621 14.6666 12.6667C14.6666 13.7712 13.7718 14.6667 12.6681 14.6667H12.6431M10.0234 10.6667H9.99843C8.89468 10.6667 7.99992 11.5621 7.99992 12.6667C7.99992 13.7712 8.89468 14.6667 9.99843 14.6667H10.0234M10.6646 12.6667H11.997" stroke="#00539F" stroke-width="1.5" stroke-linecap="round" stroke-linejoin="round"/>
</svg>
