<svg width="16" height="16" viewBox="0 0 16 16" fill="none" xmlns="http://www.w3.org/2000/svg">
<path d="M1.99991 4.13333C1.99991 3.3866 1.99991 3.01323 2.14523 2.72801C2.27306 2.47713 2.47704 2.27316 2.72792 2.14532C3.01314 2 3.3865 2 4.13324 2H4.53324C5.27998 2 5.65334 2 5.93856 2.14532C6.18944 2.27316 6.39342 2.47713 6.52125 2.72801C6.66657 3.01323 6.66657 3.3866 6.66657 4.13333V4.53333C6.66657 5.28007 6.66657 5.65344 6.52125 5.93865C6.39342 6.18954 6.18944 6.39351 5.93856 6.52134C5.65334 6.66667 5.27998 6.66667 4.53324 6.66667H4.13324C3.3865 6.66667 3.01314 6.66667 2.72792 6.52134C2.47704 6.39351 2.27306 6.18954 2.14523 5.93865C1.99991 5.65344 1.99991 5.28007 1.99991 4.53333V4.13333Z" stroke="#BB1865" stroke-width="1.5" stroke-linecap="round" stroke-linejoin="round"/>
<path d="M2.5419 13.1752C2.01388 12.6471 1.74987 12.3831 1.65095 12.0787C1.56394 11.8109 1.56394 11.5224 1.65095 11.2546C1.74987 10.9502 2.01388 10.6862 2.5419 10.1582L2.82475 9.87533C3.35277 9.34731 3.61678 9.0833 3.92122 8.98438C4.18901 8.89737 4.47747 8.89737 4.74526 8.98438C5.0497 9.0833 5.31371 9.34731 5.84173 9.87533L6.12458 10.1582C6.6526 10.6862 6.91661 10.9502 7.01553 11.2546C7.10254 11.5224 7.10254 11.8109 7.01553 12.0787C6.91661 12.3831 6.6526 12.6471 6.12458 13.1752L5.84173 13.458C5.31371 13.986 5.0497 14.25 4.74526 14.349C4.47747 14.436 4.18901 14.436 3.92122 14.349C3.61678 14.25 3.35277 13.986 2.82475 13.458L2.5419 13.1752Z" stroke="#BB1865" stroke-width="1.5" stroke-linecap="round" stroke-linejoin="round"/>
<path d="M9.33324 4.33333C9.33324 3.04467 10.3779 2 11.6666 2C12.9552 2 13.9999 3.04467 13.9999 4.33333C13.9999 5.622 12.9552 6.66667 11.6666 6.66667C10.3779 6.66667 9.33324 5.622 9.33324 4.33333Z" stroke="#BB1865" stroke-width="1.5" stroke-linecap="round" stroke-linejoin="round"/>
<path d="M9.33324 11.4667C9.33324 10.7199 9.33324 10.3466 9.47856 10.0613C9.6064 9.81046 9.81037 9.60649 10.0613 9.47866C10.3465 9.33333 10.7198 9.33333 11.4666 9.33333H11.8666C12.6133 9.33333 12.9867 9.33333 13.2719 9.47866C13.5228 9.60649 13.7268 9.81046 13.8546 10.0613C13.9999 10.3466 13.9999 10.7199 13.9999 11.4667V11.8667C13.9999 12.6134 13.9999 12.9868 13.8546 13.272C13.7268 13.5229 13.5228 13.7268 13.2719 13.8547C12.9867 14 12.6133 14 11.8666 14H11.4666C10.7198 14 10.3465 14 10.0613 13.8547C9.81037 13.7268 9.6064 13.5229 9.47856 13.272C9.33324 12.9868 9.33324 12.6134 9.33324 11.8667V11.4667Z" stroke="#BB1865" stroke-width="1.5" stroke-linecap="round" stroke-linejoin="round"/>
</svg>
