<svg width="16" height="16" viewBox="0 0 16 16" fill="none" xmlns="http://www.w3.org/2000/svg">
<path d="M5.33333 5.33333H10.6667M5.33333 8H8.66667M8 14H6.26667C4.77319 14 4.02646 14 3.45603 13.7093C2.95426 13.4537 2.54631 13.0457 2.29065 12.544C2 11.9735 2 11.2268 2 9.73333V6.26667C2 4.77319 2 4.02646 2.29065 3.45603C2.54631 2.95426 2.95426 2.54631 3.45603 2.29065C4.02646 2 4.77319 2 6.26667 2H9.73333C11.2268 2 11.9735 2 12.544 2.29065C13.0457 2.54631 13.4537 2.95426 13.7094 3.45603C14 4.02646 14 4.77319 14 6.26667V7.33333M10.48 12.64L11.1467 13.5289C11.4362 13.9149 11.5809 14.1079 11.7584 14.1769C11.9138 14.2373 12.0862 14.2373 12.2416 14.1769C12.4191 14.1079 12.5638 13.9149 12.8533 13.5289L13.52 12.64C13.6921 12.4105 13.7782 12.2957 13.8114 12.1697C13.8407 12.0585 13.8407 11.9415 13.8114 11.8303C13.7782 11.7043 13.6921 11.5895 13.52 11.36L12.8533 10.4711C12.5638 10.0851 12.4191 9.89213 12.2416 9.82311C12.0862 9.76267 11.9138 9.76267 11.7584 9.82311C11.5809 9.89213 11.4362 10.0851 11.1467 10.4711L10.48 11.36C10.3079 11.5895 10.2218 11.7043 10.1886 11.8303C10.1593 11.9415 10.1593 12.0585 10.1886 12.1697C10.2218 12.2957 10.3079 12.4105 10.48 12.64Z" stroke="#BB1865" stroke-width="1.5" stroke-linecap="round" stroke-linejoin="round"/>
</svg>
