<svg width="31" height="31" viewBox="0 0 31 31" fill="none" xmlns="http://www.w3.org/2000/svg">
<g id="@">
<path id="Vector" d="M20.4619 10.691V17.4602C20.4619 19.1595 21.8395 20.5371 23.5388 20.5371C26.2229 20.5371 26.6158 17.7473 26.6158 15.614C26.6158 9.49642 21.6565 4.53711 15.5388 4.53711C9.42122 4.53711 4.46191 9.49642 4.46191 15.614C4.46191 21.7316 9.42122 26.691 15.5388 26.691C16.8335 26.691 18.0763 26.4688 19.2311 26.0607M20.4619 15.614C20.4619 18.333 18.2578 20.5371 15.5388 20.5371C12.8199 20.5371 10.6158 18.333 10.6158 15.614C10.6158 12.8951 12.8199 10.691 15.5388 10.691C18.2578 10.691 20.4619 12.8951 20.4619 15.614Z" stroke="white" stroke-width="2" stroke-linecap="round" stroke-linejoin="round"/>
</g>
</svg>
