<svg width="21" height="20" viewBox="0 0 21 20" fill="none" xmlns="http://www.w3.org/2000/svg">
<g id="Chat Bubble/message">
<path id="Vector" d="M7.41018 8.435H13.9743M7.41018 11.717H10.6922M18.0768 10.076C18.0768 14.1544 14.7706 17.4606 10.6922 17.4606C10.338 17.4606 9.98966 17.4357 9.64877 17.3875C8.66113 17.2478 8.16729 17.178 8.03729 17.1679C7.8261 17.1516 7.90183 17.1543 7.69002 17.1559C7.55966 17.1569 7.41105 17.1675 7.11422 17.1887L5.34739 17.3149C4.64387 17.3652 4.29208 17.3903 4.02903 17.2656C3.7981 17.1561 3.61214 16.9702 3.50265 16.7392C3.37794 16.4762 3.40306 16.1244 3.45332 15.4209L3.57952 13.654C3.60073 13.3571 3.61133 13.2086 3.61234 13.0782C3.61399 12.8664 3.61661 12.9422 3.60033 12.731C3.5903 12.601 3.52046 12.1071 3.38077 11.1195C3.33255 10.7786 3.30762 10.4302 3.30762 10.076C3.30762 5.99761 6.61382 2.69141 10.6922 2.69141C14.7706 2.69141 18.0768 5.99761 18.0768 10.076Z" stroke="white" stroke-width="2" stroke-linecap="round" stroke-linejoin="round"/>
</g>
</svg>
