<svg width="21" height="20" viewBox="0 0 21 20" fill="none" xmlns="http://www.w3.org/2000/svg">
<g id="Social/Whatsapp">
<path id="Vector" d="M7.98757 10.4756C7.4799 9.61534 7.1461 8.61249 7.01428 7.49516C7.00312 7.40055 6.99754 7.35324 7.0009 7.27792C7.01901 6.87184 7.37727 6.46874 7.77834 6.40315C7.94105 6.37654 8.14223 6.38056 8.30771 6.39549C8.70429 6.43126 9.05161 6.67607 9.21867 7.03759C9.23969 7.08309 9.2582 7.13494 9.29522 7.23861C9.37154 7.45236 9.40971 7.55923 9.43521 7.6588C9.63811 8.45087 9.39093 9.29046 8.79126 9.84615C8.71588 9.916 8.6259 9.98515 8.44594 10.1234L7.98757 10.4756ZM7.98757 10.4756C8.52777 11.391 9.26484 12.145 10.1649 12.7036M10.1649 12.7036C11.0527 13.2546 12.0992 13.6156 13.2717 13.754C13.3663 13.7651 13.4136 13.7707 13.4889 13.7674C13.8949 13.7492 14.2979 13.3909 14.3635 12.9897C14.3925 12.8121 14.3891 12.6079 14.3679 12.4293C14.3237 12.0558 14.0941 11.7298 13.7572 11.5626C13.6984 11.5333 13.6301 11.5089 13.4935 11.4601C13.2222 11.3632 13.0866 11.3148 12.9587 11.2854C12.2476 11.1224 11.5018 11.3179 10.9622 11.8089C10.8651 11.8971 10.7711 12.0054 10.5832 12.2218L10.1649 12.7036ZM10.6922 17.4606C14.7706 17.4606 18.0768 14.1544 18.0768 10.076C18.0768 5.99761 14.7706 2.69141 10.6922 2.69141C6.61382 2.69141 3.30762 5.99761 3.30762 10.076C3.30762 10.9851 3.47189 11.8558 3.77236 12.6601C3.87026 12.9221 3.9192 13.0532 3.93685 13.1493C3.95476 13.247 3.95875 13.3091 3.95345 13.4083C3.94824 13.5059 3.92291 13.6144 3.87224 13.8314L3.58711 15.0522C3.37215 15.9726 3.26468 16.4328 3.39361 16.7561C3.5062 17.0384 3.72986 17.2621 4.01219 17.3746C4.33548 17.5036 4.79568 17.3961 5.71605 17.1811L6.9369 16.896C7.15385 16.8453 7.26233 16.82 7.35997 16.8148C7.45911 16.8095 7.52127 16.8135 7.61892 16.8314C7.71509 16.8491 7.84613 16.898 8.10814 16.9959C8.91243 17.2964 9.78315 17.4606 10.6922 17.4606Z" stroke="white" stroke-width="2" stroke-linecap="round" stroke-linejoin="round"/>
</g>
</svg>
