<?xml version="1.0" encoding="UTF-8"?>
<svg xmlns="http://www.w3.org/2000/svg" xmlns:xlink="http://www.w3.org/1999/xlink" width="16px" height="16px" viewBox="0 0 16 16" version="1.1">
<g id="surface3">
<path style=" stroke:none;fill-rule:nonzero;fill:rgb(0%,0%,0%);fill-opacity:1;" d="M 14.875 4.515625 C 14.785156 4.894531 14.523438 5.148438 14.238281 5.390625 C 14.070312 5.535156 13.914062 5.695312 13.753906 5.847656 C 13.496094 6.097656 13.246094 6.34375 12.988281 6.585938 C 12.664062 6.894531 12.335938 7.207031 12.007812 7.511719 C 11.722656 7.785156 11.433594 8.054688 11.144531 8.328125 C 10.824219 8.628906 10.503906 8.933594 10.183594 9.234375 C 9.882812 9.515625 9.585938 9.800781 9.28125 10.082031 C 8.964844 10.382812 8.644531 10.683594 8.328125 10.984375 C 8.039062 11.261719 7.75 11.535156 7.457031 11.804688 C 7.21875 12.027344 6.988281 12.253906 6.734375 12.453125 C 6.398438 12.714844 6.011719 12.753906 5.625 12.578125 C 5.472656 12.511719 5.332031 12.398438 5.207031 12.285156 C 4.855469 11.964844 4.515625 11.632812 4.167969 11.304688 C 3.871094 11.023438 3.574219 10.746094 3.28125 10.46875 C 2.960938 10.164062 2.636719 9.859375 2.316406 9.558594 C 1.984375 9.246094 1.636719 8.941406 1.328125 8.609375 C 1.21875 8.488281 1.1875 8.296875 1.125 8.140625 C 1.125 8.058594 1.125 7.972656 1.125 7.886719 C 1.152344 7.796875 1.167969 7.695312 1.210938 7.613281 C 1.46875 7.082031 2.109375 6.835938 2.65625 7.089844 C 2.808594 7.160156 2.945312 7.265625 3.074219 7.382812 C 3.410156 7.6875 3.738281 8.007812 4.066406 8.316406 C 4.371094 8.601562 4.671875 8.886719 4.976562 9.175781 C 5.289062 9.472656 5.605469 9.769531 5.921875 10.066406 C 5.96875 10.113281 6.027344 10.152344 6.078125 10.1875 C 6.214844 10.0625 6.355469 9.941406 6.488281 9.816406 C 6.753906 9.566406 7.011719 9.308594 7.277344 9.054688 C 7.59375 8.753906 7.910156 8.453125 8.230469 8.152344 C 8.515625 7.886719 8.800781 7.621094 9.085938 7.351562 C 9.417969 7.035156 9.75 6.71875 10.082031 6.40625 C 10.367188 6.136719 10.652344 5.871094 10.9375 5.601562 C 11.261719 5.296875 11.585938 4.992188 11.910156 4.683594 C 12.214844 4.398438 12.515625 4.113281 12.820312 3.828125 C 13.074219 3.585938 13.34375 3.363281 13.726562 3.355469 C 14.148438 3.351562 14.492188 3.496094 14.714844 3.871094 C 14.78125 3.988281 14.824219 4.117188 14.878906 4.242188 C 14.875 4.328125 14.875 4.421875 14.875 4.515625 Z M 14.875 4.515625 "/>
</g>
</svg>
