<svg width="33" height="32" viewBox="0 0 33 32" fill="none" xmlns="http://www.w3.org/2000/svg">
<g id="Chat Bubble/message">
<path id="Vector" d="M11.316 13.4397H21.7092M11.316 18.6363H16.5126M28.2049 16.038C28.2049 22.4955 22.9701 27.7303 16.5126 27.7303C15.9518 27.7303 15.4002 27.6908 14.8605 27.6145C13.2967 27.3933 12.5148 27.2827 12.309 27.2669C11.9746 27.2411 12.0945 27.2452 11.7591 27.2478C11.5527 27.2494 11.3174 27.2662 10.8474 27.2998L8.04995 27.4996C6.93605 27.5792 6.37905 27.619 5.96254 27.4215C5.59691 27.2482 5.30247 26.9537 5.12912 26.5881C4.93165 26.1716 4.97143 25.6146 5.051 24.5007L5.25082 21.7032C5.2844 21.233 5.3012 20.998 5.3028 20.7915C5.3054 20.4562 5.30955 20.576 5.28377 20.2417C5.26789 20.0358 5.15731 19.2539 4.93613 17.6902C4.8598 17.1504 4.82031 16.5988 4.82031 16.038C4.82031 9.58053 10.0551 4.3457 16.5126 4.3457C22.9701 4.3457 28.2049 9.58053 28.2049 16.038Z" stroke="white" stroke-width="2" stroke-linecap="round" stroke-linejoin="round"/>
</g>
</svg>
