<svg width="33" height="32" viewBox="0 0 33 32" fill="none" xmlns="http://www.w3.org/2000/svg">
<g id="Social/Whatsapp">
<path id="Vector" d="M12.2302 16.6707C11.4264 15.3086 10.8979 13.7208 10.6892 11.9517C10.6715 11.8018 10.6627 11.7269 10.668 11.6077C10.6967 10.9647 11.2639 10.3265 11.899 10.2226C12.1566 10.1805 12.4751 10.1869 12.7371 10.2105C13.365 10.2671 13.915 10.6548 14.1795 11.2272C14.2128 11.2992 14.2421 11.3813 14.3007 11.5454C14.4215 11.8839 14.482 12.0531 14.5223 12.2107C14.8436 13.4649 14.4522 14.7942 13.5028 15.674C13.3834 15.7846 13.2409 15.8941 12.956 16.113L12.2302 16.6707ZM12.2302 16.6707C13.0856 18.1201 14.2526 19.3138 15.6777 20.1983M15.6777 20.1983C17.0834 21.0708 18.7403 21.6423 20.5968 21.8614C20.7466 21.8791 20.8215 21.8879 20.9407 21.8826C21.5835 21.8539 22.2216 21.2866 22.3255 20.6514C22.3714 20.3702 22.366 20.0468 22.3325 19.7641C22.2625 19.1727 21.8988 18.6565 21.3656 18.3917C21.2724 18.3454 21.1642 18.3068 20.948 18.2295C20.5184 18.0761 20.3036 17.9993 20.1012 17.9529C18.9753 17.6947 17.7945 18.0043 16.94 18.7817C16.7863 18.9214 16.6375 19.0928 16.34 19.4355L15.6777 20.1983ZM16.5126 27.7303C22.9701 27.7303 28.2049 22.4955 28.2049 16.038C28.2049 9.58053 22.9701 4.3457 16.5126 4.3457C10.0551 4.3457 4.82031 9.58053 4.82031 16.038C4.82031 17.4774 5.08041 18.856 5.55616 20.1295C5.71116 20.5444 5.78866 20.7518 5.81659 20.9041C5.84496 21.0587 5.85127 21.1571 5.84289 21.3141C5.83463 21.4687 5.79452 21.6404 5.71429 21.984L5.26284 23.917C4.9225 25.3742 4.75233 26.1029 4.95646 26.6147C5.13473 27.0618 5.48886 27.4159 5.93588 27.5942C6.44777 27.7983 7.17642 27.6281 8.63366 27.2878L10.5667 26.8363C10.9102 26.7561 11.0819 26.716 11.2365 26.7077C11.3935 26.6994 11.4919 26.7057 11.6465 26.734C11.7988 26.762 12.0063 26.8395 12.4211 26.9945C13.6946 27.4702 15.0732 27.7303 16.5126 27.7303Z" stroke="white" stroke-width="2" stroke-linecap="round" stroke-linejoin="round"/>
</g>
</svg>
