<svg width="33" height="32" viewBox="0 0 33 32" fill="none" xmlns="http://www.w3.org/2000/svg">
<g id="annotation/check">
<path id="Vector" d="M11.9659 15.4045L15.0074 18.4429C16.4702 15.8848 18.4947 13.6924 20.9283 12.0306L21.0599 11.9408M4.18176 12.2439C4.18176 9.47926 4.18176 8.09696 4.71979 7.041C5.19306 6.11216 5.94822 5.357 6.87706 4.88373C7.93302 4.3457 9.31532 4.3457 12.08 4.3457H20.9654C23.73 4.3457 25.1123 4.3457 26.1682 4.88373C27.0971 5.357 27.8523 6.11216 28.3256 7.041C28.8636 8.09696 28.8636 9.47926 28.8636 12.2439V18.1678C28.8636 19.0848 28.8636 19.5431 28.8029 19.9267C28.4684 22.0392 26.8116 23.696 24.6992 24.0305C23.959 24.1477 23.2068 24.0328 22.465 24.1018C21.85 24.159 21.2788 24.4446 20.8642 24.9025C20.4297 25.3821 20.0702 25.9439 19.6825 26.4611C18.6106 27.8909 18.0747 28.6059 17.4176 28.8615C16.8419 29.0855 16.2034 29.0855 15.6279 28.8615C14.9708 28.6059 14.4347 27.8909 13.3628 26.4611C12.9752 25.9439 12.6157 25.3821 12.1812 24.9025C11.7666 24.4446 11.1954 24.159 10.5804 24.1018C9.83858 24.0328 9.08626 24.1477 8.34619 24.0305C6.23374 23.696 4.57695 22.0392 4.2425 19.9267C4.18176 19.5431 4.18176 19.0848 4.18176 18.1678V12.2439Z" stroke="white" stroke-width="2" stroke-linecap="round" stroke-linejoin="round"/>
</g>
</svg>
