<svg width="33" height="32" viewBox="0 0 33 32" fill="none" xmlns="http://www.w3.org/2000/svg">
<g id="Smart contract">
<path id="Vector" d="M11.3163 10.8414H21.7094M11.3163 16.038H17.812M16.5128 27.7303H13.1351C10.2247 27.7303 8.76952 27.7303 7.65791 27.1639C6.68011 26.6657 5.88513 25.8707 5.38692 24.8929C4.82053 23.7813 4.82053 22.3261 4.82053 19.4158V12.6602C4.82053 9.74987 4.82053 8.2947 5.38692 7.18309C5.88513 6.20529 6.68011 5.41031 7.65791 4.9121C8.76952 4.3457 10.2247 4.3457 13.1351 4.3457H19.8906C22.801 4.3457 24.2561 4.3457 25.3678 4.9121C26.3456 5.41031 27.1405 6.20529 27.6387 7.18309C28.2051 8.2947 28.2051 9.74987 28.2051 12.6602V14.7389M21.3457 25.0801L22.6448 26.8123C23.2089 27.5644 23.491 27.9405 23.8368 28.075C24.1397 28.1928 24.4757 28.1928 24.7786 28.075C25.1244 27.9405 25.4065 27.5644 25.9706 26.8123L27.2698 25.0801C27.6052 24.6328 27.7729 24.4092 27.8376 24.1636C27.8946 23.9468 27.8946 23.719 27.8376 23.5022C27.7729 23.2566 27.6052 23.0329 27.2698 22.5857L25.9706 20.8535C25.4065 20.1013 25.1244 19.7252 24.7786 19.5907C24.4757 19.4729 24.1397 19.4729 23.8368 19.5907C23.491 19.7252 23.2089 20.1013 22.6448 20.8535L21.3457 22.5857C21.0102 23.0329 20.8425 23.2566 20.7779 23.5022C20.7208 23.719 20.7208 23.9468 20.7779 24.1636C20.8425 24.4092 21.0102 24.6328 21.3457 25.0801Z" stroke="white" stroke-width="2" stroke-linecap="round" stroke-linejoin="round"/>
</g>
</svg>
