<svg width="840" height="336" viewBox="0 0 840 336" fill="none" xmlns="http://www.w3.org/2000/svg">
<g opacity="0.4">
<g clip-path="url(#clip0_2908_34614)">
<mask id="path-2-inside-1_2908_34614" fill="white">
<path d="M0 0H840V56H0V0Z"/>
</mask>
<path d="M0 0H840V56H0V0Z" fill="#DCDEE8"/>
<path d="M840 55H0V57H840V55Z" fill="#4C5A8B" fill-opacity="0.2" mask="url(#path-2-inside-1_2908_34614)"/>
<rect x="16" y="18" width="73" height="20" rx="8" fill="#4C5A8B" fill-opacity="0.2"/>
<rect x="16" y="18" width="73" height="20" rx="8" fill="#F0F0F0"/>
<rect x="16.5" y="18.5" width="72" height="19" rx="7.5" stroke="#4C598B" stroke-opacity="0.3" stroke-dasharray="8 8"/>
<rect x="121" y="18" width="73" height="20" rx="8" fill="#4C5A8B" fill-opacity="0.2"/>
<rect x="121" y="18" width="73" height="20" rx="8" fill="#F0F0F0"/>
<rect x="121.5" y="18.5" width="72" height="19" rx="7.5" stroke="#4C598B" stroke-opacity="0.3" stroke-dasharray="8 8"/>
<rect x="226" y="18" width="73" height="20" rx="8" fill="#4C5A8B" fill-opacity="0.2"/>
<rect x="226" y="18" width="73" height="20" rx="8" fill="#F0F0F0"/>
<rect x="226.5" y="18.5" width="72" height="19" rx="7.5" stroke="#4C598B" stroke-opacity="0.3" stroke-dasharray="8 8"/>
<rect x="331" y="18" width="73" height="20" rx="8" fill="#4C5A8B" fill-opacity="0.2"/>
<rect x="331" y="18" width="73" height="20" rx="8" fill="#F0F0F0"/>
<rect x="331.5" y="18.5" width="72" height="19" rx="7.5" stroke="#4C598B" stroke-opacity="0.3" stroke-dasharray="8 8"/>
<rect x="436" y="18" width="73" height="20" rx="8" fill="#4C5A8B" fill-opacity="0.2"/>
<rect x="436" y="18" width="73" height="20" rx="8" fill="#F0F0F0"/>
<rect x="436.5" y="18.5" width="72" height="19" rx="7.5" stroke="#4C598B" stroke-opacity="0.3" stroke-dasharray="8 8"/>
<rect x="541" y="18" width="73" height="20" rx="8" fill="#4C5A8B" fill-opacity="0.2"/>
<rect x="541" y="18" width="73" height="20" rx="8" fill="#F0F0F0"/>
<rect x="541.5" y="18.5" width="72" height="19" rx="7.5" stroke="#4C598B" stroke-opacity="0.3" stroke-dasharray="8 8"/>
<rect x="646" y="18" width="73" height="20" rx="8" fill="#4C5A8B" fill-opacity="0.2"/>
<rect x="646" y="18" width="73" height="20" rx="8" fill="#F0F0F0"/>
<rect x="646.5" y="18.5" width="72" height="19" rx="7.5" stroke="#4C598B" stroke-opacity="0.3" stroke-dasharray="8 8"/>
<rect x="751" y="18" width="73" height="20" rx="8" fill="#4C5A8B" fill-opacity="0.2"/>
<rect x="751" y="18" width="73" height="20" rx="8" fill="#F0F0F0"/>
<rect x="751.5" y="18.5" width="72" height="19" rx="7.5" stroke="#4C598B" stroke-opacity="0.3" stroke-dasharray="8 8"/>
<mask id="path-28-inside-2_2908_34614" fill="white">
<path d="M0 56H840V112H0V56Z"/>
</mask>
<path d="M0 56H840V112H0V56Z" fill="#D3D6E2"/>
<path d="M840 111H0V113H840V111Z" fill="#4C5A8B" fill-opacity="0.2" mask="url(#path-28-inside-2_2908_34614)"/>
<rect x="16" y="74" width="73" height="20" rx="8" fill="#4C5A8B" fill-opacity="0.2"/>
<rect x="16" y="74" width="73" height="20" rx="8" fill="#F0F0F0"/>
<rect x="16.5" y="74.5" width="72" height="19" rx="7.5" stroke="#4C598B" stroke-opacity="0.3" stroke-dasharray="8 8"/>
<rect x="121" y="74" width="73" height="20" rx="8" fill="#4C5A8B" fill-opacity="0.2"/>
<rect x="121" y="74" width="73" height="20" rx="8" fill="#F0F0F0"/>
<rect x="121.5" y="74.5" width="72" height="19" rx="7.5" stroke="#4C598B" stroke-opacity="0.3" stroke-dasharray="8 8"/>
<rect x="226" y="74" width="73" height="20" rx="8" fill="#4C5A8B" fill-opacity="0.2"/>
<rect x="226" y="74" width="73" height="20" rx="8" fill="#F0F0F0"/>
<rect x="226.5" y="74.5" width="72" height="19" rx="7.5" stroke="#4C598B" stroke-opacity="0.3" stroke-dasharray="8 8"/>
<rect x="331" y="74" width="73" height="20" rx="8" fill="#4C5A8B" fill-opacity="0.2"/>
<rect x="331" y="74" width="73" height="20" rx="8" fill="#F0F0F0"/>
<rect x="331.5" y="74.5" width="72" height="19" rx="7.5" stroke="#4C598B" stroke-opacity="0.3" stroke-dasharray="8 8"/>
<rect x="436" y="74" width="73" height="20" rx="8" fill="#4C5A8B" fill-opacity="0.2"/>
<rect x="436" y="74" width="73" height="20" rx="8" fill="#F0F0F0"/>
<rect x="436.5" y="74.5" width="72" height="19" rx="7.5" stroke="#4C598B" stroke-opacity="0.3" stroke-dasharray="8 8"/>
<rect x="541" y="74" width="73" height="20" rx="8" fill="#4C5A8B" fill-opacity="0.2"/>
<rect x="541" y="74" width="73" height="20" rx="8" fill="#F0F0F0"/>
<rect x="541.5" y="74.5" width="72" height="19" rx="7.5" stroke="#4C598B" stroke-opacity="0.3" stroke-dasharray="8 8"/>
<rect x="646" y="74" width="73" height="20" rx="8" fill="#4C5A8B" fill-opacity="0.2"/>
<rect x="646" y="74" width="73" height="20" rx="8" fill="#F0F0F0"/>
<rect x="646.5" y="74.5" width="72" height="19" rx="7.5" stroke="#4C598B" stroke-opacity="0.3" stroke-dasharray="8 8"/>
<rect x="751" y="74" width="73" height="20" rx="8" fill="#4C5A8B" fill-opacity="0.2"/>
<rect x="751" y="74" width="73" height="20" rx="8" fill="#F0F0F0"/>
<rect x="751.5" y="74.5" width="72" height="19" rx="7.5" stroke="#4C598B" stroke-opacity="0.3" stroke-dasharray="8 8"/>
<mask id="path-54-inside-3_2908_34614" fill="white">
<path d="M0 112H840V168H0V112Z"/>
</mask>
<path d="M0 112H840V168H0V112Z" fill="#DCDEE8"/>
<path d="M840 167H0V169H840V167Z" fill="#4C5A8B" fill-opacity="0.2" mask="url(#path-54-inside-3_2908_34614)"/>
<rect x="16" y="130" width="73" height="20" rx="8" fill="#4C5A8B" fill-opacity="0.2"/>
<rect x="16" y="130" width="73" height="20" rx="8" fill="#F0F0F0"/>
<rect x="16.5" y="130.5" width="72" height="19" rx="7.5" stroke="#4C598B" stroke-opacity="0.3" stroke-dasharray="8 8"/>
<rect x="121" y="130" width="73" height="20" rx="8" fill="#4C5A8B" fill-opacity="0.2"/>
<rect x="121" y="130" width="73" height="20" rx="8" fill="#F0F0F0"/>
<rect x="121.5" y="130.5" width="72" height="19" rx="7.5" stroke="#4C598B" stroke-opacity="0.3" stroke-dasharray="8 8"/>
<rect x="226" y="130" width="73" height="20" rx="8" fill="#4C5A8B" fill-opacity="0.2"/>
<rect x="226" y="130" width="73" height="20" rx="8" fill="#F0F0F0"/>
<rect x="226.5" y="130.5" width="72" height="19" rx="7.5" stroke="#4C598B" stroke-opacity="0.3" stroke-dasharray="8 8"/>
<rect x="331" y="130" width="73" height="20" rx="8" fill="#4C5A8B" fill-opacity="0.2"/>
<rect x="331" y="130" width="73" height="20" rx="8" fill="#F0F0F0"/>
<rect x="331.5" y="130.5" width="72" height="19" rx="7.5" stroke="#4C598B" stroke-opacity="0.3" stroke-dasharray="8 8"/>
<rect x="436" y="130" width="73" height="20" rx="8" fill="#4C5A8B" fill-opacity="0.2"/>
<rect x="436" y="130" width="73" height="20" rx="8" fill="#F0F0F0"/>
<rect x="436.5" y="130.5" width="72" height="19" rx="7.5" stroke="#4C598B" stroke-opacity="0.3" stroke-dasharray="8 8"/>
<rect x="541" y="130" width="73" height="20" rx="8" fill="#4C5A8B" fill-opacity="0.2"/>
<rect x="541" y="130" width="73" height="20" rx="8" fill="#F0F0F0"/>
<rect x="541.5" y="130.5" width="72" height="19" rx="7.5" stroke="#4C598B" stroke-opacity="0.3" stroke-dasharray="8 8"/>
<rect x="646" y="130" width="73" height="20" rx="8" fill="#4C5A8B" fill-opacity="0.2"/>
<rect x="646" y="130" width="73" height="20" rx="8" fill="#F0F0F0"/>
<rect x="646.5" y="130.5" width="72" height="19" rx="7.5" stroke="#4C598B" stroke-opacity="0.3" stroke-dasharray="8 8"/>
<rect x="751" y="130" width="73" height="20" rx="8" fill="#4C5A8B" fill-opacity="0.2"/>
<rect x="751" y="130" width="73" height="20" rx="8" fill="#F0F0F0"/>
<rect x="751.5" y="130.5" width="72" height="19" rx="7.5" stroke="#4C598B" stroke-opacity="0.3" stroke-dasharray="8 8"/>
<mask id="path-80-inside-4_2908_34614" fill="white">
<path d="M0 168H840V224H0V168Z"/>
</mask>
<path d="M0 168H840V224H0V168Z" fill="#D3D6E2"/>
<path d="M840 223H0V225H840V223Z" fill="#4C5A8B" fill-opacity="0.2" mask="url(#path-80-inside-4_2908_34614)"/>
<rect x="16" y="186" width="73" height="20" rx="8" fill="#4C5A8B" fill-opacity="0.2"/>
<rect x="16" y="186" width="73" height="20" rx="8" fill="#F0F0F0"/>
<rect x="16.5" y="186.5" width="72" height="19" rx="7.5" stroke="#4C598B" stroke-opacity="0.3" stroke-dasharray="8 8"/>
<rect x="121" y="186" width="73" height="20" rx="8" fill="#4C5A8B" fill-opacity="0.2"/>
<rect x="121" y="186" width="73" height="20" rx="8" fill="#F0F0F0"/>
<rect x="121.5" y="186.5" width="72" height="19" rx="7.5" stroke="#4C598B" stroke-opacity="0.3" stroke-dasharray="8 8"/>
<rect x="226" y="186" width="73" height="20" rx="8" fill="#4C5A8B" fill-opacity="0.2"/>
<rect x="226" y="186" width="73" height="20" rx="8" fill="#F0F0F0"/>
<rect x="226.5" y="186.5" width="72" height="19" rx="7.5" stroke="#4C598B" stroke-opacity="0.3" stroke-dasharray="8 8"/>
<rect x="331" y="186" width="73" height="20" rx="8" fill="#4C5A8B" fill-opacity="0.2"/>
<rect x="331" y="186" width="73" height="20" rx="8" fill="#F0F0F0"/>
<rect x="331.5" y="186.5" width="72" height="19" rx="7.5" stroke="#4C598B" stroke-opacity="0.3" stroke-dasharray="8 8"/>
<rect x="436" y="186" width="73" height="20" rx="8" fill="#4C5A8B" fill-opacity="0.2"/>
<rect x="436" y="186" width="73" height="20" rx="8" fill="#F0F0F0"/>
<rect x="436.5" y="186.5" width="72" height="19" rx="7.5" stroke="#4C598B" stroke-opacity="0.3" stroke-dasharray="8 8"/>
<rect x="541" y="186" width="73" height="20" rx="8" fill="#4C5A8B" fill-opacity="0.2"/>
<rect x="541" y="186" width="73" height="20" rx="8" fill="#F0F0F0"/>
<rect x="541.5" y="186.5" width="72" height="19" rx="7.5" stroke="#4C598B" stroke-opacity="0.3" stroke-dasharray="8 8"/>
<rect x="646" y="186" width="73" height="20" rx="8" fill="#4C5A8B" fill-opacity="0.2"/>
<rect x="646" y="186" width="73" height="20" rx="8" fill="#F0F0F0"/>
<rect x="646.5" y="186.5" width="72" height="19" rx="7.5" stroke="#4C598B" stroke-opacity="0.3" stroke-dasharray="8 8"/>
<rect x="751" y="186" width="73" height="20" rx="8" fill="#4C5A8B" fill-opacity="0.2"/>
<rect x="751" y="186" width="73" height="20" rx="8" fill="#F0F0F0"/>
<rect x="751.5" y="186.5" width="72" height="19" rx="7.5" stroke="#4C598B" stroke-opacity="0.3" stroke-dasharray="8 8"/>
<mask id="path-106-inside-5_2908_34614" fill="white">
<path d="M0 224H840V280H0V224Z"/>
</mask>
<path d="M0 224H840V280H0V224Z" fill="#DCDEE8"/>
<path d="M840 279H0V281H840V279Z" fill="#4C5A8B" fill-opacity="0.2" mask="url(#path-106-inside-5_2908_34614)"/>
<rect x="16" y="242" width="73" height="20" rx="8" fill="#4C5A8B" fill-opacity="0.2"/>
<rect x="16" y="242" width="73" height="20" rx="8" fill="#F0F0F0"/>
<rect x="16.5" y="242.5" width="72" height="19" rx="7.5" stroke="#4C598B" stroke-opacity="0.3" stroke-dasharray="8 8"/>
<rect x="121" y="242" width="73" height="20" rx="8" fill="#4C5A8B" fill-opacity="0.2"/>
<rect x="121" y="242" width="73" height="20" rx="8" fill="#F0F0F0"/>
<rect x="121.5" y="242.5" width="72" height="19" rx="7.5" stroke="#4C598B" stroke-opacity="0.3" stroke-dasharray="8 8"/>
<rect x="226" y="242" width="73" height="20" rx="8" fill="#4C5A8B" fill-opacity="0.2"/>
<rect x="226" y="242" width="73" height="20" rx="8" fill="#F0F0F0"/>
<rect x="226.5" y="242.5" width="72" height="19" rx="7.5" stroke="#4C598B" stroke-opacity="0.3" stroke-dasharray="8 8"/>
<rect x="331" y="242" width="73" height="20" rx="8" fill="#4C5A8B" fill-opacity="0.2"/>
<rect x="331" y="242" width="73" height="20" rx="8" fill="#F0F0F0"/>
<rect x="331.5" y="242.5" width="72" height="19" rx="7.5" stroke="#4C598B" stroke-opacity="0.3" stroke-dasharray="8 8"/>
<rect x="436" y="242" width="73" height="20" rx="8" fill="#4C5A8B" fill-opacity="0.2"/>
<rect x="436" y="242" width="73" height="20" rx="8" fill="#F0F0F0"/>
<rect x="436.5" y="242.5" width="72" height="19" rx="7.5" stroke="#4C598B" stroke-opacity="0.3" stroke-dasharray="8 8"/>
<rect x="541" y="242" width="73" height="20" rx="8" fill="#4C5A8B" fill-opacity="0.2"/>
<rect x="541" y="242" width="73" height="20" rx="8" fill="#F0F0F0"/>
<rect x="541.5" y="242.5" width="72" height="19" rx="7.5" stroke="#4C598B" stroke-opacity="0.3" stroke-dasharray="8 8"/>
<rect x="646" y="242" width="73" height="20" rx="8" fill="#4C5A8B" fill-opacity="0.2"/>
<rect x="646" y="242" width="73" height="20" rx="8" fill="#F0F0F0"/>
<rect x="646.5" y="242.5" width="72" height="19" rx="7.5" stroke="#4C598B" stroke-opacity="0.3" stroke-dasharray="8 8"/>
<rect x="751" y="242" width="73" height="20" rx="8" fill="#4C5A8B" fill-opacity="0.2"/>
<rect x="751" y="242" width="73" height="20" rx="8" fill="#F0F0F0"/>
<rect x="751.5" y="242.5" width="72" height="19" rx="7.5" stroke="#4C598B" stroke-opacity="0.3" stroke-dasharray="8 8"/>
<mask id="path-132-inside-6_2908_34614" fill="white">
<path d="M0 280H840V336H0V280Z"/>
</mask>
<path d="M0 280H840V336H0V280Z" fill="#D3D6E2"/>
<path d="M840 335H0V337H840V335Z" fill="#4C5A8B" fill-opacity="0.2" mask="url(#path-132-inside-6_2908_34614)"/>
<rect x="16" y="298" width="73" height="20" rx="8" fill="#4C5A8B" fill-opacity="0.2"/>
<rect x="16" y="298" width="73" height="20" rx="8" fill="#F0F0F0"/>
<rect x="16.5" y="298.5" width="72" height="19" rx="7.5" stroke="#4C598B" stroke-opacity="0.3" stroke-dasharray="8 8"/>
<rect x="121" y="298" width="73" height="20" rx="8" fill="#4C5A8B" fill-opacity="0.2"/>
<rect x="121" y="298" width="73" height="20" rx="8" fill="#F0F0F0"/>
<rect x="121.5" y="298.5" width="72" height="19" rx="7.5" stroke="#4C598B" stroke-opacity="0.3" stroke-dasharray="8 8"/>
<rect x="226" y="298" width="73" height="20" rx="8" fill="#4C5A8B" fill-opacity="0.2"/>
<rect x="226" y="298" width="73" height="20" rx="8" fill="#F0F0F0"/>
<rect x="226.5" y="298.5" width="72" height="19" rx="7.5" stroke="#4C598B" stroke-opacity="0.3" stroke-dasharray="8 8"/>
<rect x="331" y="298" width="73" height="20" rx="8" fill="#4C5A8B" fill-opacity="0.2"/>
<rect x="331" y="298" width="73" height="20" rx="8" fill="#F0F0F0"/>
<rect x="331.5" y="298.5" width="72" height="19" rx="7.5" stroke="#4C598B" stroke-opacity="0.3" stroke-dasharray="8 8"/>
<rect x="436" y="298" width="73" height="20" rx="8" fill="#4C5A8B" fill-opacity="0.2"/>
<rect x="436" y="298" width="73" height="20" rx="8" fill="#F0F0F0"/>
<rect x="436.5" y="298.5" width="72" height="19" rx="7.5" stroke="#4C598B" stroke-opacity="0.3" stroke-dasharray="8 8"/>
<rect x="541" y="298" width="73" height="20" rx="8" fill="#4C5A8B" fill-opacity="0.2"/>
<rect x="541" y="298" width="73" height="20" rx="8" fill="#F0F0F0"/>
<rect x="541.5" y="298.5" width="72" height="19" rx="7.5" stroke="#4C598B" stroke-opacity="0.3" stroke-dasharray="8 8"/>
<rect x="646" y="298" width="73" height="20" rx="8" fill="#4C5A8B" fill-opacity="0.2"/>
<rect x="646" y="298" width="73" height="20" rx="8" fill="#F0F0F0"/>
<rect x="646.5" y="298.5" width="72" height="19" rx="7.5" stroke="#4C598B" stroke-opacity="0.3" stroke-dasharray="8 8"/>
<rect x="751" y="298" width="73" height="20" rx="8" fill="#4C5A8B" fill-opacity="0.2"/>
<rect x="751" y="298" width="73" height="20" rx="8" fill="#F0F0F0"/>
<rect x="751.5" y="298.5" width="72" height="19" rx="7.5" stroke="#4C598B" stroke-opacity="0.3" stroke-dasharray="8 8"/>
</g>
</g>
<defs>
<clipPath id="clip0_2908_34614">
<path d="M0 8.00001C0 3.58173 3.58172 0 8 0H832C836.418 0 840 3.58172 840 8V328C840 332.418 836.418 336 832 336H8C3.58172 336 0 332.418 0 328V8.00001Z" fill="white"/>
</clipPath>
</defs>
</svg>
