<svg width="16" height="16" viewBox="0 0 16 16" fill="none" xmlns="http://www.w3.org/2000/svg">
<g id="Calendar/calendar">
<path id="Vector" d="M5.33333 1.33398V2.7525M5.33333 4.00065V2.7525M10.6667 1.33398V2.7525M10.6667 4.00065V2.7525M13.9731 6.66732C14 7.19253 14 7.83757 14 8.66732C14 10.5311 14 11.463 13.6955 12.1981C13.2895 13.1782 12.5108 13.9569 11.5307 14.3628C10.7956 14.6673 9.86377 14.6673 8 14.6673C6.13623 14.6673 5.20435 14.6673 4.46927 14.3628C3.48915 13.9569 2.71046 13.1782 2.30448 12.1981C2 11.463 2 10.5311 2 8.66732C2 7.83757 2 7.19253 2.02687 6.66732M13.9731 6.66732C13.9397 6.01281 13.8644 5.54441 13.6955 5.13658C13.2895 4.15647 12.5108 3.37778 11.5307 2.9718C11.2764 2.86646 10.9985 2.79756 10.6667 2.7525M13.9731 6.66732L2.02687 6.66732M2.02687 6.66732C2.06035 6.01281 2.13555 5.54441 2.30448 5.13658C2.71046 4.15647 3.48915 3.37778 4.46927 2.9718C4.72359 2.86646 5.00146 2.79756 5.33333 2.7525M5.33333 2.7525C5.96071 2.66732 6.78105 2.66732 8 2.66732C9.21895 2.66732 10.0393 2.66732 10.6667 2.7525" stroke="#303A47" stroke-width="2" stroke-linecap="round" stroke-linejoin="round"/>
</g>
</svg>
