<svg width="10" height="10" viewBox="0 0 10 10" fill="none" xmlns="http://www.w3.org/2000/svg">
<g id="check-lg">
<path id="Vector" d="M7.95993 2.48121C8.00258 2.43769 8.05349 2.40311 8.10967 2.37951C8.16585 2.35591 8.22618 2.34375 8.28711 2.34375C8.34805 2.34375 8.40838 2.35591 8.46456 2.37951C8.52074 2.40311 8.57165 2.43769 8.6143 2.48121C8.79305 2.66183 8.79555 2.95371 8.62055 3.13746L4.92493 7.50621C4.88297 7.55228 4.83205 7.58931 4.77529 7.61504C4.71853 7.64076 4.65711 7.65463 4.59481 7.6558C4.5325 7.65697 4.47061 7.64541 4.41292 7.62184C4.35523 7.59827 4.30296 7.56318 4.2593 7.51871L2.01055 5.23996C1.92382 5.15151 1.87524 5.03258 1.87524 4.90871C1.87524 4.78484 1.92382 4.6659 2.01055 4.57746C2.05321 4.53394 2.10411 4.49936 2.16029 4.47576C2.21648 4.45216 2.2768 4.44 2.33774 4.44C2.39868 4.44 2.459 4.45216 2.51518 4.47576C2.57137 4.49936 2.62227 4.53394 2.66493 4.57746L4.57243 6.51058L7.94743 2.49496C7.95131 2.49013 7.95549 2.48554 7.95993 2.48121Z" fill="#6B7280"/>
</g>
</svg>
