<svg width="84" height="38" viewBox="0 0 84 38" fill="none" xmlns="http://www.w3.org/2000/svg">
<g id="arrow" opacity="0.6" clip-path="url(#clip0_2906_31487)">
<path id="Arrow 06" d="M4.8337 18.6752C5.471 21.4068 6.03748 24.0684 6.74559 27.0802C4.90451 26.87 3.84235 25.7494 3.41749 24.4886C2.1429 20.7064 0.939117 16.8542 0.0893935 12.9319C-0.406281 10.6905 1.22236 9.49984 3.41749 10.2003C7.09964 11.3209 10.711 12.6517 14.3931 13.9124C14.6056 13.9825 14.8888 14.0525 14.9596 14.1926C15.3137 14.6829 15.5261 15.2432 15.8093 15.8035C15.3137 16.0137 14.818 16.504 14.3931 16.4339C12.9061 16.2238 11.4899 15.8736 10.0737 15.5934C9.29478 15.4533 8.58666 15.2432 7.4537 15.5934C8.23261 16.4339 9.01153 17.3444 9.79045 18.1849C26.6434 34.8547 51.9228 38.3568 72.8827 27.0802C75.5735 25.6093 78.0519 23.8583 80.6719 22.2473C81.5924 21.687 82.513 21.1967 83.4335 20.6364C83.6459 20.7765 83.7876 20.9866 84 21.1267C83.7876 21.757 83.7168 22.5975 83.2211 23.0178C81.6632 24.4886 80.1054 25.9595 78.3351 27.2202C60.7741 39.8276 36.3444 40.3179 17.438 28.2709C13.8267 25.9595 10.6402 23.0178 7.31207 20.3562C6.60397 19.7959 6.03748 19.1655 5.40019 18.5351C5.25857 18.4651 5.04613 18.5351 4.8337 18.6752Z" fill="#4E545F"/>
</g>
<defs>
<clipPath id="clip0_2906_31487">
<rect width="84" height="38" fill="white"/>
</clipPath>
</defs>
</svg>
