<svg width="20" height="20" viewBox="0 0 20 20" fill="none" xmlns="http://www.w3.org/2000/svg">
<g id="Calendar/calendar">
<path id="Vector" d="M6.66667 1.66602V3.43916M6.66667 4.99935V3.43916M13.3333 1.66602V3.43916M13.3333 4.99935V3.43916M17.4664 8.33268C17.5 8.98919 17.5 9.7955 17.5 10.8327C17.5 13.1624 17.5 14.3272 17.1194 15.2461C16.6119 16.4712 15.6386 17.4446 14.4134 17.9521C13.4946 18.3327 12.3297 18.3327 10 18.3327C7.67029 18.3327 6.50544 18.3327 5.58658 17.9521C4.36144 17.4446 3.38807 16.4712 2.8806 15.2461C2.5 14.3272 2.5 13.1624 2.5 10.8327C2.5 9.7955 2.5 8.98919 2.53358 8.33268M17.4664 8.33268C17.4246 7.51455 17.3306 6.92905 17.1194 6.41927C16.6119 5.19412 15.6386 4.22075 14.4134 3.71328C14.0955 3.58161 13.7482 3.49549 13.3333 3.43916M17.4664 8.33268L2.53358 8.33268M2.53358 8.33268C2.57544 7.51455 2.66944 6.92905 2.8806 6.41927C3.38807 5.19412 4.36144 4.22075 5.58658 3.71328C5.90448 3.58161 6.25183 3.49549 6.66667 3.43916M6.66667 3.43916C7.45088 3.33268 8.47631 3.33268 10 3.33268C11.5237 3.33268 12.5491 3.33268 13.3333 3.43916" stroke="#4E545F" stroke-width="2" stroke-linecap="round" stroke-linejoin="round"/>
</g>
</svg>
