<svg width="16" height="16" viewBox="0 0 16 16" fill="none" xmlns="http://www.w3.org/2000/svg">
<g id="User/Circular">
<path id="Vector" d="M12.6631 12.7651C12.5954 11.5957 11.5782 10.6673 10.3334 10.6673H5.66671C4.42188 10.6673 3.40473 11.5957 3.33697 12.7651M12.6631 12.7651C13.8995 11.5549 14.6667 9.86739 14.6667 8.00065C14.6667 4.31875 11.6819 1.33398 8.00004 1.33398C4.31814 1.33398 1.33337 4.31875 1.33337 8.00065C1.33337 9.86739 2.10062 11.5549 3.33697 12.7651M12.6631 12.7651C11.4609 13.9419 9.8152 14.6673 8.00004 14.6673C6.18488 14.6673 4.53916 13.9419 3.33697 12.7651M10 6.66732C10 7.77189 9.10461 8.66732 8.00004 8.66732C6.89547 8.66732 6.00004 7.77189 6.00004 6.66732C6.00004 5.56275 6.89547 4.66732 8.00004 4.66732C9.10461 4.66732 10 5.56275 10 6.66732Z" stroke="#4E545F" stroke-width="1.5" stroke-linecap="round" stroke-linejoin="round"/>
</g>
</svg>
