<svg width="17" height="18" viewBox="0 0 17 18" fill="none" xmlns="http://www.w3.org/2000/svg">
<g id="Vector">
<path d="M3.66667 16.5C2.73325 16.5 2.26654 16.5 1.91002 16.3183C1.59641 16.1586 1.34145 15.9036 1.18166 15.59C1 15.2335 1 14.7668 1 13.8333L1 13.3333C1 12.3999 1 11.9332 1.18166 11.5767C1.34145 11.2631 1.59641 11.0081 1.91002 10.8483C2.26654 10.6667 2.73325 10.6667 3.66667 10.6667L13.3333 10.6667C14.2668 10.6667 14.7335 10.6667 15.09 10.8483C15.4036 11.0081 15.6586 11.2631 15.8183 11.5767C16 11.9332 16 12.3999 16 13.3333V13.8333C16 14.7668 16 15.2335 15.8183 15.59C15.6586 15.9036 15.4036 16.1586 15.09 16.3183C14.7335 16.5 14.2668 16.5 13.3333 16.5H3.66667Z" stroke="white" stroke-width="2" stroke-linecap="round" stroke-linejoin="round"/>
<path d="M3.66667 7.33333C2.73325 7.33333 2.26654 7.33333 1.91002 7.15168C1.59641 6.99189 1.34144 6.73692 1.18166 6.42332C1 6.0668 1 5.60009 1 4.66667L1 4.16667C1 3.23325 1 2.76654 1.18166 2.41002C1.34144 2.09641 1.59641 1.84145 1.91002 1.68166C2.26654 1.5 2.73325 1.5 3.66667 1.5L13.3333 1.5C14.2668 1.5 14.7335 1.5 15.09 1.68166C15.4036 1.84144 15.6586 2.09641 15.8183 2.41002C16 2.76654 16 3.23325 16 4.16667V4.66667C16 5.60009 16 6.0668 15.8183 6.42332C15.6586 6.73692 15.4036 6.99189 15.09 7.15168C14.7335 7.33333 14.2668 7.33333 13.3333 7.33333L3.66667 7.33333Z" stroke="white" stroke-width="2" stroke-linecap="round" stroke-linejoin="round"/>
</g>
</svg>
