<svg width="18" height="18" viewBox="0 0 18 18" fill="none" xmlns="http://www.w3.org/2000/svg">
<g id="Reminder">
<path id="Vector" d="M10.5 11.2501L9.21967 9.96973C9.07902 9.82908 9 9.63832 9 9.4394V6.75006M14.1335 2.54688C14.3795 3.48746 14.5025 4.45559 14.4996 5.42702C14.4988 5.6807 14.2866 5.76272 14.0799 5.80848L14.0782 5.80884M11.3339 6.06993C12.2564 6.09575 13.1781 6.00793 14.0782 5.80884M14.0782 5.80884C13.1784 4.38121 11.6849 3.33951 9.88488 3.07136C6.60734 2.5831 3.55456 4.84426 3.0663 8.1218C2.57804 11.3993 4.8392 14.4521 8.11674 14.9404C11.2763 15.4111 14.227 13.3267 14.8728 10.2398" stroke="#BB1865" stroke-width="2" stroke-linecap="round" stroke-linejoin="round"/>
</g>
</svg>
