<svg width="38" height="38" viewBox="0 0 38 38" fill="none" xmlns="http://www.w3.org/2000/svg">
<path fill-rule="evenodd" clip-rule="evenodd" d="M24.1223 13.8785C24.163 13.9192 24.1953 13.9675 24.2174 14.0206C24.2394 14.0738 24.2508 14.1307 24.2508 14.1883C24.2508 14.2458 24.2394 14.3028 24.2174 14.356C24.1953 14.4091 24.163 14.4574 24.1223 14.498L14.4973 24.123C14.4151 24.2052 14.3037 24.2513 14.1875 24.2513C14.0713 24.2513 13.9599 24.2052 13.8778 24.123C13.7956 24.0409 13.7495 23.9295 13.7495 23.8133C13.7495 23.6971 13.7956 23.5857 13.8778 23.5035L23.5028 13.8785C23.5434 13.8378 23.5917 13.8055 23.6448 13.7834C23.698 13.7614 23.755 13.75 23.8125 13.75C23.8701 13.75 23.927 13.7614 23.9802 13.7834C24.0333 13.8055 24.0816 13.8378 24.1223 13.8785Z" fill="#374151"/>
<path fill-rule="evenodd" clip-rule="evenodd" d="M13.8777 13.8785C13.837 13.9192 13.8047 13.9675 13.7826 14.0206C13.7606 14.0738 13.7492 14.1307 13.7492 14.1883C13.7492 14.2458 13.7606 14.3028 13.7826 14.356C13.8047 14.4091 13.837 14.4574 13.8777 14.498L23.5027 24.123C23.5849 24.2052 23.6963 24.2513 23.8125 24.2513C23.9287 24.2513 24.0401 24.2052 24.1222 24.123C24.2044 24.0409 24.2505 23.9295 24.2505 23.8133C24.2505 23.6971 24.2044 23.5857 24.1222 23.5035L14.4972 13.8785C14.4566 13.8378 14.4083 13.8055 14.3552 13.7834C14.302 13.7614 14.245 13.75 14.1875 13.75C14.1299 13.75 14.073 13.7614 14.0198 13.7834C13.9667 13.8055 13.9184 13.8378 13.8777 13.8785Z" fill="#374151"/>
</svg>
