<svg width="23" height="23" viewBox="0 0 23 23" fill="none" xmlns="http://www.w3.org/2000/svg">
<g id="Chat Bubble/message">
<path id="Vector" d="M7.66667 9.58333H15.3333M7.66667 13.4167H11.5M20.125 11.5C20.125 16.2635 16.2635 20.125 11.5 20.125C11.0863 20.125 10.6794 20.0959 10.2813 20.0396C9.12774 19.8764 8.55095 19.7948 8.39911 19.7831C8.15245 19.7641 8.24089 19.7672 7.9935 19.7691C7.84125 19.7703 7.66768 19.7827 7.321 19.8074L5.25739 19.9548C4.4357 20.0135 4.02483 20.0429 3.71758 19.8972C3.44787 19.7693 3.23067 19.5521 3.1028 19.2824C2.95713 18.9752 2.98648 18.5643 3.04517 17.7426L3.19257 15.679C3.21734 15.3322 3.22973 15.1588 3.23091 15.0065C3.23283 14.7591 3.23589 14.8476 3.21687 14.6009C3.20517 14.449 3.12359 13.8723 2.96044 12.7187C2.90413 12.3206 2.875 11.9137 2.875 11.5C2.875 6.73654 6.73654 2.875 11.5 2.875C16.2635 2.875 20.125 6.73654 20.125 11.5Z" stroke="white" stroke-width="2" stroke-linecap="round" stroke-linejoin="round"/>
</g>
</svg>
