<svg width="16" height="16" viewBox="0 0 16 16" fill="none" xmlns="http://www.w3.org/2000/svg">
<path d="M6.80051 2.74655C7.22121 2.33449 7.43156 2.12846 7.67316 2.05107C7.88573 1.98298 8.11427 1.98298 8.32684 2.05107C8.56844 2.12846 8.77879 2.33449 9.19949 2.74655L9.40176 2.94467C9.58366 3.12283 9.67461 3.2119 9.78011 3.27596C9.87366 3.33275 9.97536 3.37488 10.0817 3.40087C10.2016 3.43018 10.3289 3.4315 10.5835 3.43414L10.8666 3.43708C11.4554 3.44319 11.7499 3.44625 11.9754 3.56236C12.1739 3.66452 12.3355 3.82612 12.4376 4.02459C12.5538 4.25015 12.5568 4.54457 12.5629 5.13341L12.5659 5.41654C12.5685 5.67113 12.5698 5.79843 12.5991 5.91832C12.6251 6.02464 12.6672 6.12634 12.724 6.21989C12.7881 6.3254 12.8772 6.41634 13.0553 6.59824L13.2535 6.80051C13.6655 7.22121 13.8715 7.43156 13.9489 7.67316C14.017 7.88573 14.017 8.11427 13.9489 8.32684C13.8715 8.56844 13.6655 8.77879 13.2535 9.19949L13.0553 9.40176C12.8772 9.58366 12.7881 9.67461 12.724 9.78011C12.6672 9.87366 12.6251 9.97536 12.5991 10.0817C12.5698 10.2016 12.5685 10.3289 12.5659 10.5835L12.5629 10.8666C12.5568 11.4554 12.5538 11.7499 12.4376 11.9754C12.3355 12.1739 12.1739 12.3355 11.9754 12.4376C11.7499 12.5538 11.4554 12.5568 10.8666 12.5629L10.5835 12.5659C10.3289 12.5685 10.2016 12.5698 10.0817 12.5991C9.97536 12.6251 9.87366 12.6672 9.78011 12.724C9.67461 12.7881 9.58366 12.8772 9.40176 13.0553L9.19949 13.2535C8.77879 13.6655 8.56844 13.8715 8.32684 13.9489C8.11427 14.017 7.88573 14.017 7.67316 13.9489C7.43156 13.8715 7.22121 13.6655 6.80051 13.2535L6.59824 13.0553C6.41634 12.8772 6.3254 12.7881 6.21989 12.724C6.12634 12.6672 6.02464 12.6251 5.91832 12.5991C5.79843 12.5698 5.67113 12.5685 5.41654 12.5659L5.13341 12.5629C4.54457 12.5568 4.25015 12.5538 4.02459 12.4376C3.82612 12.3355 3.66452 12.1739 3.56236 11.9754C3.44625 11.7499 3.44319 11.4554 3.43708 10.8666L3.43414 10.5835C3.4315 10.3289 3.43018 10.2016 3.40087 10.0817C3.37488 9.97536 3.33275 9.87366 3.27596 9.78011C3.2119 9.67461 3.12283 9.58366 2.94467 9.40176L2.74655 9.19949C2.33449 8.77879 2.12846 8.56844 2.05107 8.32684C1.98298 8.11427 1.98298 7.88573 2.05107 7.67316C2.12846 7.43156 2.33449 7.22121 2.74655 6.80051L2.94467 6.59824C3.12283 6.41634 3.2119 6.3254 3.27596 6.21989C3.33275 6.12634 3.37488 6.02464 3.40087 5.91832C3.43018 5.79843 3.4315 5.67113 3.43414 5.41654L3.43708 5.13341C3.44319 4.54457 3.44625 4.25015 3.56236 4.02459C3.66452 3.82612 3.82612 3.66452 4.02459 3.56236C4.25015 3.44625 4.54457 3.44319 5.13341 3.43708L5.41654 3.43414C5.67113 3.4315 5.79843 3.43018 5.91832 3.40087C6.02464 3.37488 6.12634 3.33275 6.21989 3.27596C6.3254 3.2119 6.41634 3.12283 6.59824 2.94467L6.80051 2.74655Z" stroke="#00539F" stroke-width="1.5" stroke-linecap="round" stroke-linejoin="round"/>
<path d="M7.32735 8.00001C7.32735 7.63182 7.63195 7.33335 8.00013 7.33335C8.36832 7.33335 8.67292 7.63182 8.67292 8.00001C8.67292 8.3682 8.36832 8.66668 8.00013 8.66668C7.63195 8.66668 7.32735 8.3682 7.32735 8.00001Z" stroke="#00539F" stroke-width="1.5" stroke-linecap="round" stroke-linejoin="round"/>
</svg>
