<svg width="16" height="16" viewBox="0 0 16 16" fill="none" xmlns="http://www.w3.org/2000/svg">
<path d="M11.3333 12C11.3333 11.6319 11.6317 11.3334 11.9999 11.3334C12.3681 11.3334 12.6666 11.6319 12.6666 12C12.6666 12.3682 12.3681 12.6667 11.9999 12.6667C11.6317 12.6667 11.3333 12.3682 11.3333 12Z" stroke="#14181F" stroke-width="1.2" stroke-linecap="round" stroke-linejoin="round"/>
<path d="M7.33325 12C7.33325 11.6319 7.63173 11.3334 7.99992 11.3334C8.36811 11.3334 8.66659 11.6319 8.66659 12C8.66659 12.3682 8.36811 12.6667 7.99992 12.6667C7.63173 12.6667 7.33325 12.3682 7.33325 12Z" stroke="#14181F" stroke-width="1.2" stroke-linecap="round" stroke-linejoin="round"/>
<path d="M3.33325 12C3.33325 11.6319 3.63173 11.3334 3.99992 11.3334C4.36811 11.3334 4.66659 11.6319 4.66659 12C4.66659 12.3682 4.36811 12.6667 3.99992 12.6667C3.63173 12.6667 3.33325 12.3682 3.33325 12Z" stroke="#14181F" stroke-width="1.2" stroke-linecap="round" stroke-linejoin="round"/>
<path d="M11.3333 8.00004C11.3333 7.63185 11.6317 7.33337 11.9999 7.33337C12.3681 7.33337 12.6666 7.63185 12.6666 8.00004C12.6666 8.36823 12.3681 8.66671 11.9999 8.66671C11.6317 8.66671 11.3333 8.36823 11.3333 8.00004Z" stroke="#14181F" stroke-width="1.2" stroke-linecap="round" stroke-linejoin="round"/>
<path d="M7.33325 8.00004C7.33325 7.63185 7.63173 7.33337 7.99992 7.33337C8.36811 7.33337 8.66659 7.63185 8.66659 8.00004C8.66659 8.36823 8.36811 8.66671 7.99992 8.66671C7.63173 8.66671 7.33325 8.36823 7.33325 8.00004Z" stroke="#14181F" stroke-width="1.2" stroke-linecap="round" stroke-linejoin="round"/>
<path d="M3.33325 8.00004C3.33325 7.63185 3.63173 7.33337 3.99992 7.33337C4.36811 7.33337 4.66659 7.63185 4.66659 8.00004C4.66659 8.36823 4.36811 8.66671 3.99992 8.66671C3.63173 8.66671 3.33325 8.36823 3.33325 8.00004Z" stroke="#14181F" stroke-width="1.2" stroke-linecap="round" stroke-linejoin="round"/>
<path d="M11.3333 4.00004C11.3333 3.63185 11.6317 3.33337 11.9999 3.33337C12.3681 3.33337 12.6666 3.63185 12.6666 4.00004C12.6666 4.36823 12.3681 4.66671 11.9999 4.66671C11.6317 4.66671 11.3333 4.36823 11.3333 4.00004Z" stroke="#14181F" stroke-width="1.2" stroke-linecap="round" stroke-linejoin="round"/>
<path d="M7.33325 4.00004C7.33325 3.63185 7.63173 3.33337 7.99992 3.33337C8.36811 3.33337 8.66659 3.63185 8.66659 4.00004C8.66659 4.36823 8.36811 4.66671 7.99992 4.66671C7.63173 4.66671 7.33325 4.36823 7.33325 4.00004Z" stroke="#14181F" stroke-width="1.2" stroke-linecap="round" stroke-linejoin="round"/>
<path d="M3.33325 4.00004C3.33325 3.63185 3.63173 3.33337 3.99992 3.33337C4.36811 3.33337 4.66659 3.63185 4.66659 4.00004C4.66659 4.36823 4.36811 4.66671 3.99992 4.66671C3.63173 4.66671 3.33325 4.36823 3.33325 4.00004Z" stroke="#14181F" stroke-width="1.2" stroke-linecap="round" stroke-linejoin="round"/>
</svg>
