<svg width="25" height="24" viewBox="0 0 25 24" fill="none" xmlns="http://www.w3.org/2000/svg">
<path d="M12.5 13C13.0523 13 13.5 12.5523 13.5 12C13.5 11.4477 13.0523 11 12.5 11C11.9477 11 11.5 11.4477 11.5 12C11.5 12.5523 11.9477 13 12.5 13Z" stroke="white" stroke-width="2" stroke-linecap="round" stroke-linejoin="round"/>
<path d="M3.5 12C3.5 9.20435 3.5 7.80653 3.95672 6.7039C4.56569 5.23373 5.73373 4.06569 7.2039 3.45672C8.30653 3 9.70435 3 12.5 3C15.2956 3 16.6935 3 17.7961 3.45672C19.2663 4.06569 20.4343 5.23373 21.0433 6.7039C21.5 7.80653 21.5 9.20435 21.5 12C21.5 14.7956 21.5 16.1935 21.0433 17.2961C20.4343 18.7663 19.2663 19.9343 17.7961 20.5433C16.6935 21 15.2956 21 12.5 21C9.70435 21 8.30653 21 7.2039 20.5433C5.73373 19.9343 4.56569 18.7663 3.95672 17.2961C3.5 16.1935 3.5 14.7956 3.5 12Z" stroke="white" stroke-width="2" stroke-linecap="round" stroke-linejoin="round"/>
</svg>
