<svg width="51" height="59" viewBox="0 0 51 59" fill="none" xmlns="http://www.w3.org/2000/svg">
<path d="M50.1114 28.2137C49.7275 27.5416 49.1046 27.0592 48.3606 26.8562C48.1987 26.8117 46.7131 26.4221 44.4194 26.4221C43.6468 26.4221 42.8643 26.4669 42.0813 26.5539C43.5092 25.9977 44.7005 25.4307 45.5555 24.989C46.837 24.3268 47.676 23.0221 47.745 21.5839L48.0249 15.7473C48.0351 15.6799 48.042 15.6121 48.0451 15.5433L48.3366 9.36712C48.3389 9.3176 48.3393 9.2682 48.3381 9.21908L48.644 2.84325C48.6812 2.07998 48.4203 1.36399 47.909 0.827062C47.4085 0.301619 46.7011 0 45.968 0C45.193 0 44.4372 0.337667 43.8947 0.926231C43.0066 1.88956 41.5082 3.23718 39.4103 4.18744C39.316 4.23023 39.2205 4.27222 39.127 4.31197C39.0564 4.34194 38.9848 4.371 38.9066 4.40269C38.8333 4.43253 38.76 4.46223 38.6863 4.49049C38.5528 4.54147 38.4173 4.59098 38.2713 4.64117L38.2156 4.66111C38.0407 4.72027 37.8631 4.77613 37.6872 4.82737C37.56 4.86434 37.4337 4.89842 37.3055 4.93302L37.1764 4.96827C37.0563 4.99983 36.9366 5.02875 36.808 5.05991C36.749 5.07404 36.6898 5.08843 36.6275 5.10269C36.5122 5.12937 36.397 5.155 36.2858 5.1785L36.0594 5.22445C35.9553 5.24518 35.8512 5.26619 35.7468 5.28507L35.691 5.29457C35.4632 5.33524 35.2265 5.37249 34.9674 5.40841L34.9138 5.41593C34.8577 5.42386 34.8016 5.43164 34.7455 5.43878C34.6469 5.45132 34.5487 5.46241 34.4494 5.47337C34.3688 5.48222 34.2884 5.49068 34.2091 5.49834C34.1141 5.50758 34.0192 5.51683 33.9257 5.52449C33.8383 5.53175 33.7513 5.53756 33.6611 5.54376C33.5445 5.55195 33.4281 5.55934 33.3111 5.56528C33.1844 5.57162 33.0581 5.5777 32.9312 5.58166C32.7246 5.58813 32.514 5.5913 32.3051 5.5913C30.6555 5.5913 28.9075 5.38715 26.9606 4.96682C26.8581 4.94463 26.7557 4.92219 26.6538 4.89921C26.4606 4.85577 26.2685 4.81113 26.0767 4.76505L25.8656 4.71406C24.5698 4.39634 23.2925 4.02276 22.057 3.66146C19.0553 2.78357 16.22 1.95427 13.3556 1.95427C12.0939 1.95427 10.9335 2.1134 9.80891 2.4405C9.15327 2.63105 8.50529 2.85712 7.8824 3.11265C7.86827 3.11833 7.85585 3.12335 7.84951 3.12612C7.70795 3.18436 7.56968 3.24352 7.43049 3.30505L7.39893 3.31892C7.26463 3.37847 7.13313 3.43895 7.00451 3.50009C7.00108 3.50167 6.97585 3.5137 6.9715 3.51568C6.84142 3.57801 6.71386 3.6406 6.5892 3.70412C6.58563 3.70597 6.57506 3.71138 6.5674 3.71534C5.5972 4.21107 4.78811 4.74365 4.11873 5.26658C3.77275 5.08712 3.3812 4.98636 2.96906 4.98636C2.86303 4.98636 2.7558 4.99324 2.65663 5.00578C1.2838 5.17705 0.306208 6.43327 0.477482 7.80611L6.59368 56.8233C6.74963 58.077 7.81978 59.0224 9.08275 59.0224C9.18892 59.0224 9.29578 59.0155 9.39389 59.0031C10.0589 58.9202 10.6517 58.5832 11.0634 58.0545C11.4753 57.5252 11.6562 56.8674 11.573 56.2028L11.5487 56.008C11.8441 56.1391 12.1663 56.2237 12.5074 56.2502C12.5789 56.2552 12.6502 56.258 12.7211 56.258C12.748 56.258 12.7748 56.2576 12.7994 56.2568C13.7581 56.2311 14.6012 55.7438 15.1098 55.0027C15.6386 55.7501 16.5096 56.2324 17.4765 56.2324C17.5024 56.2324 17.5285 56.232 17.5506 56.2313C17.6475 56.2289 17.7464 56.2214 17.8477 56.2085C18.9436 56.0674 19.8189 55.3274 20.1873 54.3617C21.2366 55.2339 22.5564 55.7259 23.9862 55.7624C24.0455 55.764 24.1043 55.7647 24.1624 55.7647C24.2241 55.7647 24.2852 55.7639 24.3475 55.7621C25.7975 55.723 26.9307 55.24 27.7602 54.6892C28.2279 55.2754 28.9206 55.6817 29.7238 55.7656C29.8237 55.776 29.9251 55.7813 30.0253 55.7813C31.0511 55.7813 31.9585 55.2506 32.4737 54.4362C33.3049 54.9356 34.1957 55.3431 35.1285 55.6474C35.4197 55.7425 35.7225 55.7907 36.0283 55.7907C36.0538 55.7907 36.0796 55.7904 36.1061 55.7896C36.9383 55.7672 37.7021 55.387 38.2249 54.7799C39.2795 55.5944 40.5972 56.0495 42.0705 56.0507C42.071 56.0507 42.0715 56.0507 42.0721 56.0507C42.1422 56.0507 42.2114 56.0499 42.2775 56.0479C45.9812 55.9482 47.5866 53.2097 47.7563 52.8999C48.1278 52.2237 48.2153 51.4426 48.0026 50.7004C47.9407 50.4845 47.8556 50.2794 47.7496 50.0879C48.275 49.5054 48.5615 48.7127 48.4817 47.8707C48.4511 47.5476 48.1303 44.7577 46.1339 42.9274C46.667 42.4568 47.029 41.794 47.1032 41.0413C47.1214 40.8567 47.4863 37.0798 47.4133 32.5431C47.474 32.5468 47.5349 32.5488 47.5958 32.5488C47.6211 32.5488 47.6467 32.5485 47.673 32.5477C48.9593 32.5131 50.0515 31.6556 50.3904 30.4141C50.5946 29.6678 50.4954 28.8861 50.1114 28.2137Z" fill="white"/>
<path d="M46.6609 2.74672C46.6967 2.01475 45.8611 1.71062 45.3464 2.26895C43.9838 3.74716 41.6325 5.74156 38.2367 6.72933C26.615 10.1096 18.1237 2.08382 10.3571 4.34286C4.8013 5.9588 3.10059 9.26477 3.10059 9.26477L6.16913 30.0498C6.16913 30.0498 10.0122 27.5734 14.2837 26.6557C20.9572 25.222 25.6972 27.6006 34.5793 26.4923C38.9243 25.9502 42.8314 24.1643 44.6417 23.2292C45.2988 22.8897 45.7264 22.2278 45.7618 21.4891L46.6609 2.74672Z" fill="#F8F8FA"/>
<path d="M26.7251 12.908L26.8124 6.96357C24.5222 6.48685 22.359 5.80822 20.2905 5.21411L20.2393 11.7047C21.5045 11.8773 22.7471 12.1292 24.013 12.3864C24.9049 12.5675 25.8035 12.7496 26.7251 12.908Z" fill="#00539F"/>
<path d="M20.6279 19.2195L20.8018 26.2383C22.6115 26.3384 24.4385 26.5509 26.4417 26.6837L26.4968 19.7639C25.8793 19.7048 25.2653 19.641 24.6543 19.5775C23.287 19.4353 21.9465 19.297 20.6279 19.2195Z" fill="#00539F"/>
<path d="M5.73145 24.3409L6.4205 29.8961C7.33788 29.3403 10.6556 27.437 14.2838 26.6577C14.3612 26.641 14.4371 26.6274 14.5139 26.6118L13.9057 19.6992C13.7475 19.7398 13.5892 19.7794 13.4315 19.8253C8.86506 21.1535 6.56365 23.369 5.73145 24.3409Z" fill="#00539F"/>
<path d="M13.3975 11.8777L13.9061 19.6991C16.098 19.1417 18.2923 18.8174 20.6283 19.2196L20.2397 11.7048C18.0459 11.3843 15.9432 11.3405 13.3975 11.8777Z" fill="#00539F"/>
<path d="M10.3576 4.34449C5.29483 5.81716 3.43394 8.69197 3.14355 9.19073L4.19496 16.3904C4.30284 16.31 4.44614 16.2046 4.62323 16.0776C5.14048 15.4525 6.96441 13.6919 11.9855 12.2315C12.4671 12.0914 12.9369 11.975 13.3974 11.8775L13.0159 3.94238C12.1182 3.96681 11.2333 4.08989 10.3576 4.34449Z" fill="#00539F"/>
<path d="M46.3537 9.27393C45.51 9.96734 43.0897 11.4615 39.801 12.4181L39.415 18.8457C42.2774 17.8189 44.9106 16.2963 46.0624 15.4501L46.3537 9.27393Z" fill="#00539F"/>
<path d="M32.5831 20.0182C32.5166 21.0692 32.284 25.5424 32.2119 26.7178C32.9687 26.6692 33.7559 26.5967 34.5791 26.494C35.6802 26.3567 36.7523 26.1585 37.7696 25.9271C38.3314 25.7732 38.8177 25.6143 39.1664 25.4656L39.4143 18.8457C39.4143 18.8457 39.0699 18.9656 38.7725 19.0521C36.6376 19.6732 34.582 19.9452 32.5831 20.0182Z" fill="#00539F"/>
<path d="M39.801 12.4182L40.3043 5.95654C39.6634 6.25129 38.9766 6.51605 38.2374 6.73104C36.3881 7.26889 34.6183 7.51715 32.918 7.56482L32.9561 13.3505C34.7212 13.35 37.1877 13.0225 39.801 12.4182Z" fill="#00539F"/>
<path d="M26.7254 12.9082L26.4971 19.7643C28.4834 19.9556 30.5024 20.094 32.5838 20.0185L32.9558 13.3507C30.6538 13.4655 28.6632 13.2391 26.7254 12.9082Z" fill="#00539F"/>
<path d="M9.07835 57.0422C8.81583 57.0422 8.58815 56.8467 8.55487 56.5793L2.43868 7.56131C2.40263 7.27185 2.60795 7.008 2.89742 6.97182C3.18661 6.93485 3.45087 7.14085 3.48692 7.43058L9.60299 56.4486C9.63917 56.738 9.43381 57.0019 9.14422 57.0381C9.12216 57.0408 9.10014 57.0422 9.07835 57.0422Z" fill="#F8F8FA"/>
<path d="M24.4805 43.5037C22.1023 43.4996 20.5667 45.241 20.0231 47.2532L19.8657 47.2479C19.3608 47.2319 18.9354 47.6277 18.9185 48.1341C18.9016 48.6399 19.2977 49.0638 19.8032 49.0812C19.8673 51.8002 21.5781 53.7199 24.0314 53.7823C24.119 53.7846 24.2053 53.7845 24.2898 53.7822C26.6133 53.7196 27.7693 52.0152 27.8189 51.9402C28.0986 51.5178 27.9856 50.9445 27.5632 50.6649C27.1408 50.3853 26.5746 50.497 26.2949 50.9191C26.2646 50.9629 25.5337 51.986 24.078 51.9486C22.37 51.9051 21.7081 50.4688 21.6414 49.1424L27.3444 49.332C27.8171 49.3481 28.2217 49.0038 28.284 48.5369C28.3165 48.2934 28.5653 46.1177 27.3011 44.6727C26.8349 44.1398 25.967 43.5042 24.4805 43.5037ZM21.9254 47.3165C22.3116 46.2732 23.1111 45.3416 24.4798 45.338C25.1278 45.3383 25.5979 45.5145 25.917 45.8765C26.2876 46.2969 26.4306 46.9339 26.4738 47.4678L21.9254 47.3165Z" fill="#BB1865"/>
<path d="M44.635 44.2513C43.8035 43.5664 42.7851 43.2764 41.6085 43.3927C39.2496 43.624 37.8343 45.944 37.6258 48.3363L36.415 48.506C35.9133 48.5763 35.5636 49.04 35.634 49.5417C35.7041 50.0432 36.1671 50.3934 36.6697 50.3226L37.7084 50.1768C38.1413 52.5376 39.8114 54.0682 42.0677 54.07C42.119 54.07 42.1696 54.0695 42.2199 54.0681C44.8594 53.997 45.9692 52.0315 46.0159 51.9464C46.2597 51.5024 46.1002 50.9398 45.6561 50.6961C45.212 50.452 44.6572 50.6098 44.4133 51.0538C44.3852 51.102 43.7049 52.2362 42.0691 52.2357C40.3112 52.2341 39.7248 50.8798 39.5302 49.9213L45.7196 49.0536C46.2055 48.9854 46.5517 48.5469 46.5053 48.0584C46.4958 47.9583 46.2531 45.5844 44.635 44.2513ZM39.5057 48.0727C39.7423 46.6435 40.548 45.3398 41.7874 45.2183C41.8673 45.2106 41.9452 45.2055 42.0216 45.2034C42.9594 45.1782 43.6324 45.5917 44.1267 46.4908C44.2913 46.79 44.4089 47.0998 44.4922 47.3736L39.5057 48.0727Z" fill="#BB1865"/>
<path d="M36.3081 52.0207C34.4318 51.4089 33.1627 50.3338 32.3903 49.4705C34.406 49.2601 35.6436 48.3093 36.1691 47.3374C36.7038 46.3484 36.6086 45.2119 35.9206 44.3709C35.3941 43.7272 33.7422 42.3604 29.7901 43.5672C29.3685 43.696 29.0982 44.1063 29.1462 44.5444C29.5625 48.3365 29.1123 52.7443 29.1075 52.7883C29.0551 53.2921 29.4209 53.7431 29.9246 53.7958C30.4286 53.8482 30.8793 53.4828 30.932 52.979C30.9405 52.899 31.0281 52.0429 31.0919 50.7779C32.0384 51.8168 33.5405 53.0478 35.7392 53.7648C35.8418 53.7983 35.9461 53.8127 36.0482 53.8099C36.4251 53.7997 36.772 53.5561 36.8956 53.1771C37.0527 52.6955 36.7895 52.1777 36.3081 52.0207ZM31.1561 47.6688C31.1467 46.845 31.1134 45.9832 31.0441 45.1281C32.9685 44.6831 34.0997 45.0424 34.5006 45.5325C34.7934 45.8904 34.6606 46.2703 34.5553 46.4649C34.2091 47.1056 33.1185 47.7725 31.1561 47.6688Z" fill="#BB1865"/>
<path d="M18.0593 48.0345C18.0198 46.966 17.9848 45.7152 17.96 44.2613C17.9514 43.7547 17.5338 43.3512 17.0273 43.3598C17.0242 43.3599 17.0212 43.3599 17.0181 43.36C16.5159 43.3735 16.1172 43.7892 16.1258 44.2925C16.1491 45.6571 16.1811 46.843 16.2173 47.8705L13.6882 47.7853C13.6185 46.4501 13.4748 45.0541 13.2041 43.8115C13.0963 43.3166 12.6073 43.0019 12.1128 43.1106C11.6177 43.2183 11.304 43.7069 11.4118 44.2019C11.6481 45.2866 11.779 46.5213 11.846 47.7232L11.162 47.7001C10.6561 47.6841 10.2316 48.0796 10.2144 48.5859C10.1974 49.0921 10.5939 49.5164 11.1002 49.5336L11.905 49.5606C11.9266 51.6303 11.8042 53.2596 11.8019 53.2892C11.7629 53.7941 12.1405 54.2352 12.6455 54.2745C12.678 54.2771 12.7102 54.2779 12.7422 54.2769C13.2057 54.2645 13.5941 53.9035 13.6308 53.4311C13.6403 53.3082 13.7616 51.6962 13.7429 49.6226L16.2932 49.7085C16.4184 52.2964 16.5557 53.3852 16.5643 53.4524C16.6252 53.9232 17.033 54.2638 17.4976 54.2513C17.5285 54.2505 17.5596 54.2481 17.5911 54.244C18.0933 54.1795 18.4481 53.7197 18.3836 53.2175C18.3817 53.2016 18.2483 52.1318 18.1255 49.596C18.3609 49.4372 18.5198 49.1717 18.5301 48.866C18.5421 48.5109 18.3498 48.1966 18.0593 48.0345Z" fill="#BB1865"/>
<path d="M18.5516 31.3593C18.6604 31.3564 18.7705 31.3339 18.8771 31.2897C19.3475 31.0954 19.7986 30.9533 20.2256 30.8519C20.4565 35.9054 19.9973 40.8918 19.9924 40.9445C19.945 41.4488 20.3156 41.8961 20.8199 41.9435C20.8575 41.9469 20.8946 41.9481 20.9315 41.9472C21.3886 41.9349 21.7749 41.5828 21.8189 41.1161C21.8396 40.8943 22.3044 35.853 22.0521 30.632C23.366 30.6294 24.1965 30.9715 24.2496 30.9941C24.7127 31.1982 25.2544 30.9885 25.4591 30.5252C25.6636 30.0617 25.4536 29.5202 24.9901 29.3157C24.869 29.2622 21.9764 28.0235 18.1764 29.5948C17.7083 29.7883 17.4856 30.3247 17.6792 30.7928C17.8286 31.1541 18.1825 31.3692 18.5516 31.3593Z" fill="#BB1865"/>
<path d="M47.8318 28.7664C47.7194 28.7356 45.0396 28.0236 41.1665 28.6803C40.6669 28.7649 40.3307 29.2385 40.4154 29.7379C40.5 30.2374 40.9737 30.5725 41.473 30.489C42.2046 30.365 42.8886 30.296 43.5135 30.2635C43.7968 35.5398 43.3071 40.6156 43.3019 40.6682C43.2523 41.1722 43.6207 41.6212 44.1249 41.6708C44.1637 41.6747 44.2024 41.6759 44.2406 41.6749C44.6959 41.6627 45.0817 41.3132 45.1276 40.8482C45.1491 40.6293 45.6313 35.6402 45.3509 30.2677C46.5946 30.3406 47.337 30.5333 47.3489 30.5365C47.438 30.5606 47.5277 30.5711 47.6155 30.5687C48.0091 30.5581 48.3662 30.2927 48.4753 29.8931C48.6085 29.4041 48.3205 28.8998 47.8318 28.7664Z" fill="#BB1865"/>
<path d="M33.6523 40.9416C33.6657 41.448 34.0869 41.8477 34.5932 41.8344C34.5935 41.8344 34.5936 41.8344 34.5939 41.8344C35.0999 41.8208 35.4994 41.3997 35.486 40.8935C35.4833 40.7842 35.4484 39.5401 35.3125 37.7591C36.4698 38.9641 38.2957 40.4037 40.8544 41.1259C41.342 41.2639 41.8486 40.98 41.9862 40.4925C42.1238 40.0051 41.8403 39.4982 41.3528 39.3606C38.9132 38.6719 37.237 37.1795 36.2914 36.1041C38.025 35.7756 39.3209 34.8754 39.8916 33.5478C40.432 32.2905 40.1692 30.8601 39.2218 29.904C38.5851 29.2613 36.7066 27.9324 33.0297 29.4725C32.6226 29.6431 32.3946 30.0794 32.4873 30.5109C33.4904 35.1851 33.6509 40.8847 33.6523 40.9416ZM37.9186 31.195C38.3434 31.6237 38.4535 32.2476 38.2061 32.8232C37.7955 33.7782 36.6043 34.3562 34.9814 34.4044C34.8416 33.2648 34.664 32.0705 34.439 30.904C35.9676 30.4115 37.239 30.5091 37.9186 31.195Z" fill="#BB1865"/>
<path d="M13.5885 42.0038C16.1092 41.7447 17.7258 40.1643 17.52 38.1609C17.2924 35.9486 15.2579 35.3102 13.6232 34.7973C11.855 34.2427 11.0109 33.8728 10.909 32.8814C10.8518 32.3262 11.082 31.8574 11.5931 31.4878C12.3995 30.9047 13.7303 30.7326 14.5601 31.1042C15.0891 31.3412 15.1834 31.6892 15.208 31.9303C15.2599 32.4341 15.712 32.7998 16.2142 32.7489C16.718 32.697 17.0846 32.2466 17.0328 31.7427C16.9257 30.7012 16.3138 29.8799 15.3099 29.43C13.8778 28.7885 11.8628 29.0291 10.5182 30.0013C9.46798 30.7606 8.95867 31.85 9.08399 33.069C9.32063 35.3701 11.4016 36.0231 13.074 36.5476C14.785 37.0845 15.6014 37.4371 15.695 38.3485C15.8234 39.5967 14.2505 40.0917 13.401 40.1791C12.3935 40.2825 10.8539 40.0197 10.736 38.8717C10.6841 38.3677 10.2323 38.0041 9.72972 38.0531C9.22594 38.105 8.85936 38.5555 8.91112 39.0594C9.12386 41.1291 11.1263 42.0874 13.136 42.0331C13.2871 42.0289 13.4383 42.0192 13.5885 42.0038Z" fill="#BB1865"/>
<path d="M23.76 35.59C23.2871 35.7719 23.0515 36.3026 23.2332 36.7754C23.3766 37.1481 23.7365 37.3733 24.114 37.3632C24.2156 37.3604 24.3184 37.3406 24.4187 37.3022C24.4737 37.281 24.5285 37.2617 24.5833 37.2418C24.1407 39.2246 23.8531 40.8404 23.8493 40.8615C23.7609 41.3603 24.0935 41.8364 24.5923 41.9247C24.6548 41.9358 24.717 41.9402 24.778 41.9386C25.2044 41.9271 25.5782 41.618 25.6556 41.1816C25.6596 41.1592 26.032 39.0671 26.5797 36.7423C28.049 36.5266 29.2961 36.6486 29.9184 36.7429C30.3355 38.8616 30.5965 40.7117 30.5993 40.7321C30.6697 41.2337 31.1339 41.5811 31.635 41.5131C32.1366 41.4427 32.4863 40.9791 32.416 40.4775C32.4006 40.3682 32.0343 37.7724 31.4563 35.1237C31.1119 33.5455 30.7627 32.2779 30.4183 31.3563C30.0286 30.3131 29.4459 29.1124 28.3908 29.0873C27.3031 29.0627 26.3717 30.0759 25.0756 35.1721C24.6447 35.2816 24.2042 35.4189 23.76 35.59ZM28.3533 31.1988C28.5954 31.6475 29.0021 32.6496 29.5129 34.8438C28.8711 34.7827 28.0241 34.7515 27.0597 34.8374C27.6547 32.6424 28.0965 31.6444 28.3533 31.1988Z" fill="#BB1865"/>
</svg>
