<svg width="25" height="24" viewBox="0 0 25 24" fill="none" xmlns="http://www.w3.org/2000/svg">
<path d="M10.7008 4.11982C11.3318 3.50174 11.6473 3.1927 12.0097 3.07661C12.3286 2.97446 12.6714 2.97446 12.9903 3.07661C13.3527 3.1927 13.6682 3.50174 14.2992 4.11982L14.6026 4.417C14.8755 4.68424 15.0119 4.81786 15.1702 4.91393C15.3105 4.99913 15.463 5.06232 15.6225 5.1013C15.8024 5.14527 15.9933 5.14725 16.3752 5.15122L16.7999 5.15562C17.6831 5.16479 18.1248 5.16937 18.4631 5.34354C18.7608 5.49678 19.0032 5.73918 19.1565 6.03688C19.3306 6.37522 19.3352 6.81685 19.3444 7.70012L19.3488 8.12481C19.3527 8.5067 19.3547 8.69764 19.3987 8.87749C19.4377 9.03695 19.5009 9.18951 19.5861 9.32984C19.6821 9.48809 19.8158 9.62451 20.083 9.89735L20.3802 10.2008C20.9983 10.8318 21.3073 11.1473 21.4234 11.5097C21.5255 11.8286 21.5255 12.1714 21.4234 12.4903C21.3073 12.8527 20.9983 13.1682 20.3802 13.7992L20.083 14.1026C19.8158 14.3755 19.6821 14.5119 19.5861 14.6702C19.5009 14.8105 19.4377 14.963 19.3987 15.1225C19.3547 15.3024 19.3527 15.4933 19.3488 15.8752L19.3444 16.2999C19.3352 17.1831 19.3306 17.6248 19.1565 17.9631C19.0032 18.2608 18.7608 18.5032 18.4631 18.6565C18.1248 18.8306 17.6831 18.8352 16.7999 18.8444L16.3752 18.8488C15.9933 18.8527 15.8024 18.8547 15.6225 18.8987C15.463 18.9377 15.3105 19.0009 15.1702 19.0861C15.0119 19.1821 14.8755 19.3158 14.6026 19.583L14.2992 19.8802C13.6682 20.4983 13.3527 20.8073 12.9903 20.9234C12.6714 21.0255 12.3286 21.0255 12.0097 20.9234C11.6473 20.8073 11.3318 20.4983 10.7008 19.8802L10.3974 19.583C10.1245 19.3158 9.98809 19.1821 9.82984 19.0861C9.68951 19.0009 9.53695 18.9377 9.37749 18.8987C9.19764 18.8547 9.0067 18.8527 8.62481 18.8488L8.20012 18.8444C7.31685 18.8352 6.87522 18.8306 6.53688 18.6565C6.23918 18.5032 5.99678 18.2608 5.84354 17.9631C5.66937 17.6248 5.66479 17.1831 5.65562 16.2999L5.65122 15.8752C5.64725 15.4933 5.64527 15.3024 5.6013 15.1225C5.56232 14.963 5.49913 14.8105 5.41393 14.6702C5.31786 14.5119 5.18424 14.3755 4.917 14.1026L4.61982 13.7992C4.00174 13.1682 3.6927 12.8527 3.57661 12.4903C3.47446 12.1714 3.47446 11.8286 3.57661 11.5097C3.6927 11.1473 4.00174 10.8318 4.61982 10.2008L4.917 9.89735C5.18424 9.62451 5.31786 9.48809 5.41393 9.32984C5.49913 9.18951 5.56232 9.03695 5.6013 8.87749C5.64527 8.69764 5.64725 8.5067 5.65122 8.12481L5.65562 7.70012C5.66479 6.81685 5.66937 6.37522 5.84354 6.03688C5.99678 5.73918 6.23918 5.49678 6.53688 5.34354C6.87522 5.16937 7.31685 5.16479 8.20012 5.15562L8.62481 5.15122C9.0067 5.14725 9.19764 5.14527 9.37749 5.1013C9.53695 5.06232 9.68951 4.99913 9.82984 4.91393C9.98809 4.81786 10.1245 4.68424 10.3974 4.417L10.7008 4.11982Z" stroke="white" stroke-width="2" stroke-linecap="round" stroke-linejoin="round"/>
<path d="M11.491 12C11.491 11.4477 11.9479 11 12.5002 11C13.0525 11 13.5094 11.4477 13.5094 12C13.5094 12.5523 13.0525 13 12.5002 13C11.9479 13 11.491 12.5523 11.491 12Z" stroke="white" stroke-width="2" stroke-linecap="round" stroke-linejoin="round"/>
</svg>
