<svg width="22" height="22" viewBox="0 0 22 22" fill="none" xmlns="http://www.w3.org/2000/svg">
<path d="M9.24288 4.13703C9.58677 2.62099 11.7467 2.62099 12.0906 4.13703L12.1361 4.33803C12.359 5.3204 13.4862 5.78731 14.3384 5.25023L14.5128 5.14035C15.8279 4.31151 17.3552 5.83878 16.5264 7.15395L16.4165 7.32831C15.8794 8.18053 16.3463 9.30774 17.3287 9.53058L17.5297 9.57617C19.0457 9.92005 19.0457 12.0799 17.5297 12.4238L17.3287 12.4694C16.3463 12.6923 15.8794 13.8195 16.4165 14.6717L16.5264 14.846C17.3552 16.1612 15.8279 17.6885 14.5128 16.8596L14.3384 16.7498C13.4862 16.2127 12.359 16.6796 12.1361 17.662L12.0906 17.863C11.7467 19.379 9.58677 19.379 9.24288 17.863L9.19729 17.662C8.97446 16.6796 7.84724 16.2127 6.99503 16.7498L6.82067 16.8597C5.5055 17.6885 3.97823 16.1612 4.80707 14.846L4.91695 14.6717C5.45403 13.8195 4.98712 12.6923 4.00474 12.4694L3.80375 12.4238C2.28771 12.0799 2.28771 9.92005 3.80375 9.57617L4.00474 9.53058C4.98712 9.30774 5.45403 8.18052 4.91695 7.32831L4.80707 7.15395C3.97822 5.83878 5.5055 4.31151 6.82067 5.14035L6.99503 5.25023C7.84724 5.78731 8.97446 5.3204 9.19729 4.33803L9.24288 4.13703Z" stroke="white" stroke-width="2" stroke-linecap="round" stroke-linejoin="round"/>
<path d="M9.7697 11C9.7697 10.5091 10.1758 10.1111 10.6667 10.1111C11.1577 10.1111 11.5638 10.5091 11.5638 11C11.5638 11.4909 11.1577 11.8889 10.6667 11.8889C10.1758 11.8889 9.7697 11.4909 9.7697 11Z" stroke="white" stroke-width="2" stroke-linecap="round" stroke-linejoin="round"/>
</svg>
