<svg width="22" height="22" viewBox="0 0 22 22" fill="none" xmlns="http://www.w3.org/2000/svg">
<path d="M9.77778 11C9.77778 10.5091 10.1757 10.1111 10.6667 10.1111C11.1576 10.1111 11.5556 10.5091 11.5556 11C11.5556 11.4909 11.1576 11.8889 10.6667 11.8889C10.1757 11.8889 9.77778 11.4909 9.77778 11Z" stroke="white" stroke-width="2" stroke-linecap="round" stroke-linejoin="round"/>
<path d="M7.61022 4.17283C8.72368 3.53039 9.28041 3.20916 9.87229 3.08343C10.396 2.97219 10.9372 2.97219 11.4609 3.08343C12.0528 3.20916 12.6096 3.53039 13.723 4.17283L15.0547 4.94118C16.1681 5.58363 16.7249 5.90485 17.1297 6.35425C17.488 6.75188 17.7586 7.22031 17.9241 7.72919C18.1111 8.30431 18.1111 8.94676 18.1111 10.2317V11.7683C18.1111 13.0532 18.1111 13.6957 17.9241 14.2708C17.7586 14.7797 17.488 15.2481 17.1297 15.6458C16.7249 16.0952 16.1681 16.4164 15.0547 17.0588L13.723 17.8272C12.6095 18.4696 12.0528 18.7908 11.4609 18.9166C10.9372 19.0278 10.396 19.0278 9.87229 18.9166C9.28041 18.7908 8.72368 18.4696 7.61022 17.8272L6.27856 17.0588C5.1651 16.4164 4.60838 16.0952 4.20348 15.6458C3.84523 15.2481 3.5746 14.7797 3.40916 14.2708C3.22217 13.6957 3.22217 13.0532 3.22217 11.7683V10.2317C3.22217 8.94676 3.22217 8.30431 3.40916 7.72919C3.5746 7.22031 3.84523 6.75188 4.20348 6.35425C4.60838 5.90485 5.1651 5.58363 6.27856 4.94118L7.61022 4.17283Z" stroke="white" stroke-width="2" stroke-linecap="round" stroke-linejoin="round"/>
</svg>
