<svg width="24" height="24" viewBox="0 0 24 24" fill="none" xmlns="http://www.w3.org/2000/svg">
<g id="Photo/add">
<path id="Vector" d="M13 21H10C9.24138 21 8.58551 21 8.01114 20.9892M21.9996 10.2724C21.1949 10.0941 20.3584 10 19.5 10C13.3199 10 8.27841 14.8749 8.01114 20.9892M21.9996 10.2724C22 10.504 22 11.7462 22 12M21.9996 10.2724C21.9955 7.94869 21.9506 6.70268 21.455 5.73005C20.9757 4.78924 20.2108 4.02433 19.27 3.54497C18.2004 3 16.8003 3 14 3H10C7.19974 3 5.79961 3 4.73005 3.54497C3.78924 4.02433 3.02433 4.78924 2.54497 5.73005C2 6.79961 2 8.19974 2 11V13C2 15.8003 2 17.2004 2.54497 18.27C3.02433 19.2108 3.78924 19.9757 4.73005 20.455C5.50985 20.8524 6.46538 20.96 8.01114 20.9892M19 21V18M19 18V15M19 18H16M19 18H22M7.5 10C6.67157 10 6 9.32843 6 8.5C6 7.67157 6.67157 7 7.5 7C8.32843 7 9 7.67157 9 8.5C9 9.32843 8.32843 10 7.5 10Z" stroke="#4E545F" stroke-width="2" stroke-linecap="round" stroke-linejoin="round"/>
</g>
</svg>
