<svg width="20" height="20" viewBox="0 0 20 20" fill="none" xmlns="http://www.w3.org/2000/svg">
<g id="Calendar/calendar">
<path id="Vector" d="M6.66667 1.66797V3.44111M6.66667 5.0013V3.44111M13.3333 1.66797V3.44111M13.3333 5.0013V3.44111M17.4664 8.33464C17.5 8.99115 17.5 9.79745 17.5 10.8346C17.5 13.1643 17.5 14.3292 17.1194 15.2481C16.6119 16.4732 15.6386 17.4466 14.4134 17.954C13.4946 18.3346 12.3297 18.3346 10 18.3346C7.67029 18.3346 6.50544 18.3346 5.58658 17.954C4.36144 17.4466 3.38807 16.4732 2.8806 15.2481C2.5 14.3292 2.5 13.1643 2.5 10.8346C2.5 9.79745 2.5 8.99115 2.53358 8.33464M17.4664 8.33464C17.4246 7.5165 17.3306 6.931 17.1194 6.42122C16.6119 5.19608 15.6386 4.22271 14.4134 3.71524C14.0955 3.58356 13.7482 3.49744 13.3333 3.44111M17.4664 8.33464L2.53358 8.33464M2.53358 8.33464C2.57544 7.5165 2.66944 6.931 2.8806 6.42122C3.38807 5.19608 4.36144 4.22271 5.58658 3.71524C5.90448 3.58356 6.25183 3.49744 6.66667 3.44111M6.66667 3.44111C7.45088 3.33464 8.47631 3.33464 10 3.33464C11.5237 3.33464 12.5491 3.33464 13.3333 3.44111" stroke="#058DDA" stroke-width="2" stroke-linecap="round" stroke-linejoin="round"/>
</g>
</svg>
