<svg width="18" height="18" viewBox="0 0 18 18" fill="none" xmlns="http://www.w3.org/2000/svg">
<g id="Phone/Phone">
<path id="Vector" d="M4.05579 9.73049C3.12772 8.15782 2.51749 6.32448 2.2765 4.28187C2.17068 3.38492 2.7267 2.44033 3.6733 2.28553C3.97076 2.23689 4.33854 2.24424 4.64106 2.27153C5.90341 2.38538 6.42524 3.49957 6.70227 4.58102C7.07319 6.02902 6.62132 7.56389 5.52505 8.57976C5.07141 9.00014 4.54572 9.35405 4.05579 9.73049ZM4.05579 9.73049C5.04335 11.404 6.39082 12.7823 8.03626 13.8035M8.03626 13.8035C9.65933 14.8108 11.5723 15.4707 13.7158 15.7237C14.6129 15.8296 15.5571 15.2732 15.7118 14.3267C15.7649 14.0019 15.7586 13.6286 15.7199 13.3021C15.5627 11.9744 14.2844 11.4726 13.1436 11.211C11.8437 10.9129 10.4803 11.2703 9.49371 12.1678C8.95818 12.655 8.51023 13.2576 8.03626 13.8035Z" stroke="#BB1865" stroke-width="2" stroke-linecap="round" stroke-linejoin="round"/>
</g>
</svg>
