<svg width="16" height="16" viewBox="0 0 16 16" fill="none" xmlns="http://www.w3.org/2000/svg">
<g id="Link/Chain">
<path id="Vector" d="M9.26633 8.66602C9.31005 8.45061 9.33301 8.22766 9.33301 7.99935C9.33301 6.9088 8.80931 5.94058 7.99967 5.33244C7.44257 4.91398 6.75008 4.66602 5.99967 4.66602H4.66634C2.82539 4.66602 1.33301 6.1584 1.33301 7.99935C1.33301 9.8403 2.82539 11.3327 4.66634 11.3327H5.33301M6.73302 7.33268C6.68929 7.54809 6.66634 7.77104 6.66634 7.99935C6.66634 9.08989 7.19004 10.0581 7.99967 10.6663C8.55678 11.0847 9.24927 11.3327 9.99967 11.3327H11.333C13.174 11.3327 14.6663 9.8403 14.6663 7.99935C14.6663 6.1584 13.174 4.66602 11.333 4.66602H10.6663" stroke="#303A47" stroke-width="2" stroke-linecap="round" stroke-linejoin="round"/>
</g>
</svg>
