<svg width="8" height="8" viewBox="0 0 8 8" fill="none" xmlns="http://www.w3.org/2000/svg">
<g id="x-lg">
<path id="Vector" fill-rule="evenodd" clip-rule="evenodd" d="M6.65141 1.2373C6.67215 1.25799 6.6886 1.28257 6.69983 1.30963C6.71106 1.33668 6.71684 1.36569 6.71684 1.39498C6.71684 1.42428 6.71106 1.45328 6.69983 1.48034C6.6886 1.5074 6.67215 1.53198 6.65141 1.55266L1.75177 6.45231C1.70995 6.49413 1.65323 6.51762 1.59409 6.51762C1.53494 6.51762 1.47823 6.49413 1.43641 6.45231C1.39459 6.41049 1.37109 6.35377 1.37109 6.29463C1.37109 6.23549 1.39459 6.17877 1.43641 6.13695L6.33605 1.2373C6.35674 1.21656 6.38131 1.20011 6.40837 1.18888C6.43543 1.17765 6.46443 1.17188 6.49373 1.17188C6.52302 1.17188 6.55203 1.17765 6.57909 1.18888C6.60614 1.20011 6.63072 1.21656 6.65141 1.2373V1.2373Z" fill="#6B7280"/>
<path id="Vector_2" fill-rule="evenodd" clip-rule="evenodd" d="M1.43652 1.2373C1.41578 1.25799 1.39933 1.28257 1.3881 1.30963C1.37687 1.33668 1.37109 1.36569 1.37109 1.39498C1.37109 1.42428 1.37687 1.45328 1.3881 1.48034C1.39933 1.5074 1.41578 1.53198 1.43652 1.55266L6.33617 6.45231C6.37799 6.49413 6.4347 6.51762 6.49385 6.51762C6.55299 6.51762 6.60971 6.49413 6.65153 6.45231C6.69334 6.41049 6.71684 6.35377 6.71684 6.29463C6.71684 6.23549 6.69334 6.17877 6.65153 6.13695L1.75188 1.2373C1.73119 1.21656 1.70662 1.20011 1.67956 1.18888C1.6525 1.17765 1.6235 1.17188 1.5942 1.17188C1.56491 1.17188 1.5359 1.17765 1.50885 1.18888C1.48179 1.20011 1.45721 1.21656 1.43652 1.2373V1.2373Z" fill="#6B7280"/>
</g>
</svg>
