<svg width="20" height="20" viewBox="0 0 20 20" fill="none" xmlns="http://www.w3.org/2000/svg">
<g id="Delete/Dustbin">
<path id="Vector" d="M13.333 5.83333L12.4117 3.99071C11.9549 3.07711 11.0211 2.5 9.99967 2.5C8.97823 2.5 8.04446 3.07711 7.58765 3.99071L6.66634 5.83333M3.33301 5.83333H16.6663M4.99967 5.83333H14.9997V12.5C14.9997 14.0531 14.9997 14.8297 14.7459 15.4423C14.4076 16.259 13.7587 16.908 12.942 17.2463C12.3294 17.5 11.5528 17.5 9.99967 17.5C8.44654 17.5 7.66997 17.5 7.0574 17.2463C6.24064 16.908 5.59172 16.259 5.25341 15.4423C4.99967 14.8297 4.99967 14.0531 4.99967 12.5V5.83333Z" stroke="#00539F" stroke-width="2" stroke-linecap="round" stroke-linejoin="round"/>
</g>
</svg>
