<svg width="9" height="15" viewBox="0 0 9 15" fill="none" xmlns="http://www.w3.org/2000/svg">
<g id="Group 1">
<path id="Vector" d="M1.69444 2.63889C2.07798 2.63889 2.38889 2.32798 2.38889 1.94444C2.38889 1.56091 2.07798 1.25 1.69444 1.25C1.31091 1.25 1 1.56091 1 1.94444C1 2.32798 1.31091 2.63889 1.69444 2.63889Z" stroke="#4E545F" stroke-width="2" stroke-linecap="round" stroke-linejoin="round"/>
<path id="Vector_2" d="M7.24913 2.63889C7.63266 2.63889 7.94358 2.32798 7.94358 1.94444C7.94358 1.56091 7.63266 1.25 7.24913 1.25C6.8656 1.25 6.55469 1.56091 6.55469 1.94444C6.55469 2.32798 6.8656 2.63889 7.24913 2.63889Z" stroke="#4E545F" stroke-width="2" stroke-linecap="round" stroke-linejoin="round"/>
<path id="Vector_3" d="M1.69444 8.19358C2.07798 8.19358 2.38889 7.88266 2.38889 7.49913C2.38889 7.1156 2.07798 6.80469 1.69444 6.80469C1.31091 6.80469 1 7.1156 1 7.49913C1 7.88266 1.31091 8.19358 1.69444 8.19358Z" stroke="#4E545F" stroke-width="2" stroke-linecap="round" stroke-linejoin="round"/>
<path id="Vector_4" d="M7.24913 8.19358C7.63266 8.19358 7.94358 7.88266 7.94358 7.49913C7.94358 7.1156 7.63266 6.80469 7.24913 6.80469C6.8656 6.80469 6.55469 7.1156 6.55469 7.49913C6.55469 7.88266 6.8656 8.19358 7.24913 8.19358Z" stroke="#4E545F" stroke-width="2" stroke-linecap="round" stroke-linejoin="round"/>
<path id="Vector_5" d="M1.69444 13.7502C2.07798 13.7502 2.38889 13.4393 2.38889 13.0558C2.38889 12.6722 2.07798 12.3613 1.69444 12.3613C1.31091 12.3613 1 12.6722 1 13.0558C1 13.4393 1.31091 13.7502 1.69444 13.7502Z" stroke="#4E545F" stroke-width="2" stroke-linecap="round" stroke-linejoin="round"/>
<path id="Vector_6" d="M7.24913 13.7502C7.63266 13.7502 7.94358 13.4393 7.94358 13.0558C7.94358 12.6722 7.63266 12.3613 7.24913 12.3613C6.8656 12.3613 6.55469 12.6722 6.55469 13.0558C6.55469 13.4393 6.8656 13.7502 7.24913 13.7502Z" stroke="#4E545F" stroke-width="2" stroke-linecap="round" stroke-linejoin="round"/>
</g>
</svg>
