<svg width="20" height="20" viewBox="0 0 20 20" fill="none" xmlns="http://www.w3.org/2000/svg">
<g id="Delete/Dustbin">
<path id="Vector" d="M13.334 5.83333L12.4127 3.99071C11.9559 3.07711 11.0221 2.5 10.0007 2.5C8.97921 2.5 8.04543 3.07711 7.58863 3.99071L6.66732 5.83333M3.33398 5.83333H16.6673M5.00065 5.83333H15.0007V12.5C15.0007 14.0531 15.0007 14.8297 14.7469 15.4423C14.4086 16.259 13.7597 16.908 12.9429 17.2463C12.3304 17.5 11.5538 17.5 10.0007 17.5C8.44751 17.5 7.67094 17.5 7.05837 17.2463C6.24161 16.908 5.5927 16.259 5.25439 15.4423C5.00065 14.8297 5.00065 14.0531 5.00065 12.5V5.83333Z" stroke="#EF0404" stroke-width="2" stroke-linecap="round" stroke-linejoin="round"/>
</g>
</svg>
