<svg width="14" height="14" viewBox="0 0 14 14" fill="none" xmlns="http://www.w3.org/2000/svg">
<g id="Pause/Square" clip-path="url(#clip0_7384_22953)">
<path id="Vector" d="M5.54238 5.25V8.75M8.45833 5.25V8.75M7 12.25C5.3692 12.25 4.55381 12.25 3.91061 11.9836C3.05301 11.6283 2.37165 10.947 2.01642 10.0894C1.75 9.44619 1.75 8.6308 1.75 7C1.75 5.3692 1.75 4.55381 2.01642 3.91061C2.37165 3.05301 3.05301 2.37165 3.91061 2.01642C4.55381 1.75 5.3692 1.75 7 1.75C8.6308 1.75 9.44619 1.75 10.0894 2.01642C10.947 2.37165 11.6283 3.05301 11.9836 3.91061C12.25 4.55381 12.25 5.3692 12.25 7C12.25 8.6308 12.25 9.44619 11.9836 10.0894C11.6283 10.947 10.947 11.6283 10.0894 11.9836C9.44619 12.25 8.6308 12.25 7 12.25Z" stroke="#BB1865" stroke-width="2" stroke-linecap="round" stroke-linejoin="round"/>
</g>
<defs>
<clipPath id="clip0_7384_22953">
<rect width="14" height="14" fill="white"/>
</clipPath>
</defs>
</svg>
