<svg width="22" height="22" viewBox="0 0 22 22" fill="none" xmlns="http://www.w3.org/2000/svg">
<path d="M18.3333 19.25H3.66667C3.16041 19.25 2.75 18.8396 2.75 18.3333V3.66667C2.75 3.16041 3.16041 2.75 3.66667 2.75H14.7168C14.9766 2.75 15.2243 2.86029 15.3981 3.05345L19.0147 7.07187C19.1662 7.2402 19.25 7.45864 19.25 7.68509V18.3333C19.25 18.8396 18.8396 19.25 18.3333 19.25Z" stroke="#00539f" stroke-width="2" stroke-linecap="round" stroke-linejoin="round"/>
<path d="M6.41699 13.75C6.41699 13.2437 6.8274 12.8333 7.33366 12.8333H14.667C15.1733 12.8333 15.5837 13.2437 15.5837 13.75V19.25H6.41699V13.75Z" stroke="#00539f" stroke-width="2" stroke-linecap="round" stroke-linejoin="round"/>
<path d="M13.75 6.41669H8.25" stroke="#00539f" stroke-width="2" stroke-linecap="round" stroke-linejoin="round"/>
</svg>
