<?xml version="1.0" encoding="UTF-8"?>
<svg xmlns="http://www.w3.org/2000/svg" xmlns:xlink="http://www.w3.org/1999/xlink" width="24px" height="24px" viewBox="0 0 24 24" version="1.1">
<g id="surface1">
<path style="fill:none;stroke-width:2.7011;stroke-linecap:butt;stroke-linejoin:miter;stroke:rgb(100%,100%,100%);stroke-opacity:1;stroke-miterlimit:10;" d="M 10.400391 15.698242 C 9.501953 14.199219 8.999023 12.5 8.701172 10.600586 C 8.701172 10.400391 8.701172 10.400391 8.701172 10.200195 C 8.701172 9.501953 9.301758 8.798828 10 8.701172 C 10.297852 8.701172 10.600586 8.701172 10.898438 8.701172 C 11.601562 8.798828 12.202148 9.199219 12.5 9.799805 C 12.5 9.902344 12.597656 10 12.597656 10.097656 C 12.700195 10.498047 12.797852 10.698242 12.797852 10.800781 C 13.100586 12.202148 12.700195 13.598633 11.699219 14.599609 C 11.601562 14.702148 11.401367 14.799805 11.098633 15.097656 Z M 10.400391 15.698242 C 11.298828 17.299805 12.597656 18.598633 14.101562 19.501953 M 14.101562 19.501953 C 15.600586 20.400391 17.402344 21.098633 19.399414 21.298828 C 19.599609 21.298828 19.599609 21.298828 19.799805 21.298828 C 20.498047 21.298828 21.201172 20.698242 21.298828 20 C 21.298828 19.702148 21.298828 19.301758 21.298828 18.999023 C 21.201172 18.398438 20.800781 17.797852 20.297852 17.5 C 20.200195 17.402344 20.097656 17.402344 19.799805 17.299805 C 19.301758 17.099609 19.101562 17.099609 18.901367 17.001953 C 17.700195 16.699219 16.401367 17.099609 15.498047 17.900391 C 15.297852 18.100586 15.200195 18.198242 14.799805 18.598633 Z M 15 27.700195 C 22.001953 27.700195 27.700195 22.001953 27.700195 15 C 27.700195 7.998047 22.001953 2.299805 15 2.299805 C 7.998047 2.299805 2.299805 7.998047 2.299805 15 C 2.299805 16.601562 2.597656 18.100586 3.100586 19.399414 C 3.300781 19.799805 3.398438 20.097656 3.398438 20.200195 C 3.398438 20.400391 3.398438 20.498047 3.398438 20.600586 C 3.398438 20.800781 3.300781 21.000977 3.300781 21.298828 L 2.797852 23.398438 C 2.402344 25 2.202148 25.800781 2.5 26.298828 C 2.700195 27.001953 2.998047 27.299805 3.500977 27.5 C 4.101562 27.700195 4.799805 27.5 6.401367 27.202148 L 8.500977 26.699219 C 8.901367 26.601562 9.101562 26.601562 9.199219 26.601562 C 9.399414 26.601562 9.501953 26.601562 9.599609 26.601562 C 9.799805 26.601562 10 26.699219 10.400391 26.899414 C 11.899414 27.402344 13.398438 27.700195 15 27.700195 Z M 15 27.700195 " transform="matrix(0.8,0,0,0.8,0,0)"/>
</g>
</svg>
