<svg width="33" height="32" viewBox="0 0 33 32" fill="none" xmlns="http://www.w3.org/2000/svg">
<g id="Chat Bubble/chat">
<path id="Vector" d="M21.9603 24.9576C22.146 24.9591 22.3578 24.9742 22.7808 25.0044L25.2985 25.1842C26.301 25.2558 26.8023 25.2916 27.1772 25.1139C27.5062 24.9579 27.7712 24.6929 27.9272 24.3638C28.105 23.989 28.0692 23.4877 27.9975 22.4852L27.8177 19.9674C27.7875 19.5443 27.7724 19.3327 27.7709 19.1469C27.7686 18.8451 27.7649 18.953 27.7881 18.6521C27.8023 18.4668 27.9019 17.7631 28.1009 16.3557C28.1696 15.8699 28.2052 15.3735 28.2052 14.8688C28.2052 9.05705 23.4938 4.3457 17.6821 4.3457C13.5504 4.3457 9.97479 6.72692 8.25286 10.1919M18.8513 20.7149C18.8513 16.8404 15.7104 13.6995 11.8359 13.6995C10.0473 13.6995 8.41506 14.3689 7.17595 15.4708C5.7309 16.7558 4.82056 18.6291 4.82056 20.7149C4.82056 21.0934 4.85052 21.4648 4.90822 21.8271C5.03225 22.6058 5.09427 22.9951 5.10501 23.1153C5.12114 23.2957 5.1194 23.2555 5.11894 23.4366C5.11863 23.5573 5.10828 23.7022 5.08757 23.9921L4.95897 25.7925C4.91123 26.4609 4.88736 26.7951 5.00584 27.045C5.10985 27.2644 5.28652 27.441 5.50589 27.545C5.7558 27.6635 6.08998 27.6396 6.75834 27.5919L8.55872 27.4633C8.84865 27.4426 8.99361 27.4322 9.11429 27.4319C9.29539 27.4315 9.25515 27.4297 9.43554 27.4459C9.55571 27.4566 9.94531 27.5187 10.7238 27.6427C11.086 27.7003 11.4575 27.7303 11.8359 27.7303C13.9218 27.7303 15.7951 26.82 17.0801 25.3749C18.182 24.1358 18.8513 22.5035 18.8513 20.7149Z" stroke="white" stroke-width="2" stroke-linecap="round" stroke-linejoin="round"/>
</g>
</svg>
