<svg width="33" height="32" viewBox="0 0 33 32" fill="none" xmlns="http://www.w3.org/2000/svg">
<g id="Social/Whatsapp">
<path id="Vector" d="M12.2304 16.6707C11.4266 15.3086 10.8981 13.7208 10.6894 11.9517C10.6717 11.8018 10.6629 11.7269 10.6682 11.6077C10.6969 10.9647 11.2641 10.3265 11.8992 10.2226C12.1568 10.1805 12.4753 10.1869 12.7373 10.2105C13.3653 10.2671 13.9152 10.6548 14.1797 11.2272C14.213 11.2992 14.2423 11.3813 14.3009 11.5454C14.4217 11.8839 14.4822 12.0531 14.5225 12.2107C14.8438 13.4649 14.4524 14.7942 13.503 15.674C13.3836 15.7846 13.2411 15.8941 12.9562 16.113L12.2304 16.6707ZM12.2304 16.6707C13.0858 18.1201 14.2528 19.3138 15.6779 20.1983M15.6779 20.1983C17.0837 21.0708 18.7405 21.6423 20.597 21.8614C20.7468 21.8791 20.8217 21.8879 20.9409 21.8826C21.5837 21.8539 22.2219 21.2866 22.3257 20.6514C22.3717 20.3702 22.3662 20.0468 22.3327 19.7641C22.2627 19.1727 21.899 18.6565 21.3658 18.3917C21.2726 18.3454 21.1645 18.3068 20.9482 18.2295C20.5186 18.0761 20.3038 17.9993 20.1014 17.9529C18.9755 17.6947 17.7947 18.0043 16.9402 18.7817C16.7865 18.9214 16.6378 19.0928 16.3402 19.4355L15.6779 20.1983ZM16.5128 27.7303C22.9703 27.7303 28.2051 22.4955 28.2051 16.038C28.2051 9.58053 22.9703 4.3457 16.5128 4.3457C10.0554 4.3457 4.82053 9.58053 4.82053 16.038C4.82053 17.4774 5.08062 18.856 5.55637 20.1295C5.71137 20.5444 5.78887 20.7518 5.81681 20.9041C5.84517 21.0587 5.85148 21.1571 5.8431 21.3141C5.83485 21.4687 5.79473 21.6404 5.71451 21.984L5.26305 23.917C4.92271 25.3742 4.75254 26.1029 4.95668 26.6147C5.13494 27.0618 5.48907 27.4159 5.93609 27.5942C6.44798 27.7983 7.17663 27.6281 8.63387 27.2878L10.5669 26.8363C10.9104 26.7561 11.0822 26.716 11.2368 26.7077C11.3937 26.6994 11.4921 26.7057 11.6468 26.734C11.799 26.762 12.0065 26.8395 12.4214 26.9945C13.6948 27.4702 15.0734 27.7303 16.5128 27.7303Z" stroke="white" stroke-width="2" stroke-linecap="round" stroke-linejoin="round"/>
</g>
</svg>
