<svg width="33" height="32" viewBox="0 0 33 32" fill="none" xmlns="http://www.w3.org/2000/svg">
<g id="Phone/Phone">
<path id="Vector" d="M7.94805 17.3034C6.34045 14.5792 5.28342 11.4035 4.86598 7.8653C4.68268 6.31161 5.64581 4.67539 7.28551 4.40725C7.80077 4.32299 8.43783 4.33572 8.96186 4.38299C11.1485 4.58021 12.0524 6.51021 12.5323 8.38349C13.1748 10.8917 12.3921 13.5504 10.4931 15.3101C9.70729 16.0383 8.79671 16.6513 7.94805 17.3034ZM7.94805 17.3034C9.6587 20.2021 11.9928 22.5897 14.843 24.3586M14.843 24.3586C17.6545 26.1035 20.9682 27.2466 24.6811 27.6848C26.235 27.8682 27.8705 26.9044 28.1385 25.2648C28.2305 24.7023 28.2195 24.0556 28.1526 23.4901C27.8803 21.1902 25.666 20.321 23.6899 19.8678C21.4383 19.3515 19.0765 19.9706 17.3676 21.5253C16.4399 22.3692 15.664 23.413 14.843 24.3586Z" stroke="white" stroke-width="2" stroke-linecap="round" stroke-linejoin="round"/>
</g>
</svg>
