<svg width="33" height="32" viewBox="0 0 33 32" fill="none" xmlns="http://www.w3.org/2000/svg">
<g id="Chat Bubble/message">
<path id="Vector" d="M11.3163 13.4397H21.7094M11.3163 18.6363H16.5129M28.2052 16.038C28.2052 22.4955 22.9703 27.7303 16.5129 27.7303C15.952 27.7303 15.4005 27.6908 14.8607 27.6145C13.297 27.3933 12.515 27.2827 12.3092 27.2669C11.9748 27.2411 12.0947 27.2452 11.7594 27.2478C11.553 27.2494 11.3177 27.2662 10.8477 27.2998L8.0502 27.4996C6.93629 27.5792 6.3793 27.619 5.96279 27.4215C5.59716 27.2482 5.30271 26.9537 5.12937 26.5881C4.9319 26.1716 4.97168 25.6146 5.05125 24.5007L5.25107 21.7032C5.28465 21.233 5.30144 20.998 5.30304 20.7915C5.30565 20.4562 5.3098 20.576 5.28401 20.2417C5.26814 20.0358 5.15755 19.2539 4.93638 17.6902C4.86004 17.1504 4.82056 16.5988 4.82056 16.038C4.82056 9.58053 10.0554 4.3457 16.5129 4.3457C22.9703 4.3457 28.2052 9.58053 28.2052 16.038Z" stroke="white" stroke-width="2" stroke-linecap="round" stroke-linejoin="round"/>
</g>
</svg>
