<svg width="33" height="32" viewBox="0 0 33 32" fill="none" xmlns="http://www.w3.org/2000/svg">
<g id="Social/Facebook">
<path id="Vector" d="M19.8859 10.8414C18.2488 10.8414 17.4303 10.8414 16.805 11.2055C16.255 11.5258 15.8078 12.0369 15.5276 12.6654C15.209 13.3801 15.209 14.3155 15.209 16.1865V27.7303M12.2859 17.3372H20.0808M4.82053 16.038C4.82053 12.7725 4.82053 11.1397 5.27983 9.82711C6.10247 7.47611 7.95093 5.62765 10.3019 4.805C11.6145 4.3457 13.2473 4.3457 16.5128 4.3457C19.7784 4.3457 21.4111 4.3457 22.7238 4.805C25.0747 5.62765 26.9231 7.47611 27.7459 9.82711C28.2051 11.1397 28.2051 12.7725 28.2051 16.038C28.2051 19.3035 28.2051 20.9363 27.7459 22.249C26.9231 24.5999 25.0747 26.4483 22.7238 27.2711C21.4111 27.7303 19.7784 27.7303 16.5128 27.7303C13.2473 27.7303 11.6145 27.7303 10.3019 27.2711C7.95093 26.4483 6.10247 24.5999 5.27983 22.249C4.82053 20.9363 4.82053 19.3035 4.82053 16.038Z" stroke="white" stroke-width="2" stroke-linecap="round" stroke-linejoin="round"/>
</g>
</svg>
