<svg width="33" height="32" viewBox="0 0 33 32" fill="none" xmlns="http://www.w3.org/2000/svg">
<g id="@">
<path id="Vector" d="M21.7094 10.8414V17.9867C21.7094 19.7805 23.1635 21.2346 24.9573 21.2346C27.7905 21.2346 28.2051 18.2897 28.2051 16.038C28.2051 9.58053 22.9703 4.3457 16.5128 4.3457C10.0553 4.3457 4.82052 9.58053 4.82052 16.038C4.82052 22.4955 10.0553 27.7303 16.5128 27.7303C17.8794 27.7303 19.1912 27.4959 20.4103 27.065M21.7094 16.038C21.7094 18.908 19.3828 21.2346 16.5128 21.2346C13.6428 21.2346 11.3162 18.908 11.3162 16.038C11.3162 13.168 13.6428 10.8414 16.5128 10.8414C19.3828 10.8414 21.7094 13.168 21.7094 16.038Z" stroke="white" stroke-width="2" stroke-linecap="round" stroke-linejoin="round"/>
</g>
</svg>
